<svg xmlns="http://www.w3.org/2000/svg" xmlns:xlink="http://www.w3.org/1999/xlink" viewBox="0 0 83.19 90.52"><defs><style>.cls-1{fill:none;}.cls-2{clip-path:url(#clip-path);}.cls-3{fill:#eece5e;}.cls-4{fill:#13233d;}.cls-5{fill:#4ca680;}.cls-6{fill:#db5741;}.cls-7{fill:#5192d9;}</style><clipPath id="clip-path" transform="translate(0 0)"><rect class="cls-1" width="83.19" height="90.52" rx="5" transform="translate(83.19 90.52) rotate(180)"/></clipPath></defs><g id="Capa_2" data-name="Capa 2"><g id="Arte"><g class="cls-2"><rect class="cls-3" width="83.19" height="90.52" transform="translate(83.19 90.52) rotate(180)"/><polygon class="cls-4" points="38.17 45.37 83.19 45.37 83.19 0.22 38.17 45.37"/><polygon class="cls-5" points="83.19 45.37 38.17 45.37 38.17 90.52 83.19 45.37"/><polygon class="cls-4" points="38.17 45.37 0 45.37 0 90.52 38.17 45.37"/><polygon class="cls-6" points="38.17 45.37 0 45.37 0 0.22 38.17 45.37"/><path class="cls-7" d="M58.87.22V.55c0,13.26-9.81,24-21.92,24S15,13.81,15,.55c0-.11,0-.22,0-.33Z" transform="translate(0 0)"/></g></g></g></svg>