<svg xmlns="http://www.w3.org/2000/svg" xmlns:xlink="http://www.w3.org/1999/xlink" viewBox="0 0 1559.19 1190.84"><defs><style>.cls-1,.cls-4{fill:none;}.cls-2{clip-path:url(#clip-path);}.cls-3{opacity:0.1;}.cls-4{stroke:#404040;stroke-miterlimit:10;}</style><clipPath id="clip-path" transform="translate(54.74 113.86)"><rect class="cls-1" width="1471.68" height="1092.77"/></clipPath></defs><g id="Capa_2" data-name="Capa 2"><g id="Arte"><g class="cls-2"><g class="cls-3"><path class="cls-4" d="M370.63,468.79a232.35,232.35,0,0,0-40,29.23c-65.17,59.79-53.06,180.61,31.05,218.63,42.56,19.25,90.4,6.13,128.52-17.08,40.67-24.76,64-68,100.75-97.12,30-23.71,70.5-27.3,104.19-43.54,30.45-14.69,62.55-51.68,46-88-22.59-49.71-101.33-49.38-147.12-50.19C521.54,419.43,436.32,430.46,370.63,468.79Z" transform="translate(54.74 113.86)"/><path class="cls-4" d="M702.33,481.3c-18.82-41.65-83.54-42.16-122-42.67-2.4,0-4.83-.05-7.27-.05-58.53,0-125.91,10.29-178.57,41.14a197.09,197.09,0,0,0-33.32,24.33c-41.06,37.4-46.73,102.78-18.25,146.9a98.72,98.72,0,0,0,39.22,35.11c17.57,8.84,37.09,11.06,56.16,8s37.58-11.08,54-21.16c33.45-20.42,52.95-55.69,83.3-79.6,24.72-19.47,57.88-22.8,85.63-36.18C687.93,544.23,716.81,513.56,702.33,481.3Z" transform="translate(54.74 113.86)"/><path class="cls-4" d="M663.45,491.7c-15-33.62-65.75-34.93-96.91-35.16q-2.89,0-5.82,0c-46.48.34-100.17,9.22-142.42,34.11a163,163,0,0,0-26.66,19.42c-33.08,29.82-39,80.93-18.44,116.43a79.61,79.61,0,0,0,29.33,29A71.21,71.21,0,0,0,448.92,664c16.09-2.41,31.6-9.34,45.44-17.87,26.19-16.14,41.95-43.37,65.85-62.07,19.46-15.23,45.27-18.32,67.08-28.83C650.23,544.24,676,519.84,663.45,491.7Z" transform="translate(54.74 113.86)"/><path class="cls-4" d="M624.57,502.11c-11.16-25.58-48-27.72-71.81-27.65-1.44,0-2.89,0-4.35,0-34.45.64-74.43,8.15-106.28,27.08a129.44,129.44,0,0,0-20,14.51C397,538.32,390.78,575.23,403.5,602a60,60,0,0,0,19.43,22.83A51.46,51.46,0,0,0,459.55,634c13.12-1.72,25.64-7.57,36.87-14.57,18.95-11.81,30.95-31.05,48.4-44.55,14.19-11,32.65-13.82,48.53-21.46C612.53,544.25,635.07,526.16,624.57,502.11Z" transform="translate(54.74 113.86)"/><path class="cls-4" d="M585.7,512.51c-7.42-17.5-30.17-20.46-46.71-20.14l-2.9.09c-22.4.94-48.69,7.08-70.13,20.05a98.67,98.67,0,0,0-13.35,9.6c-17.11,14.64-23.73,37.4-18.81,55.47a39.3,39.3,0,0,0,9.53,16.69A32.79,32.79,0,0,0,470.19,604c10.14-1,19.67-5.8,28.28-11.27,11.75-7.46,20-18.72,30.95-27,8.93-6.74,20-9.34,30-14.11C574.83,544.26,594.15,532.48,585.7,512.51Z" transform="translate(54.74 113.86)"/><path class="cls-4" d="M464.1,553.13a18.78,18.78,0,0,0-.36,10.55c2.11,6.85,9.92,10.7,17.09,10.36s13.74-4,19.7-8c8.25-5.53,16-12,24.94-16.25,11.66-5.55,27.66-11,21.35-26.9-3.92-9.9-13.29-13.67-23.05-12.49C502,513,470.29,531.23,464.1,553.13Z" transform="translate(54.74 113.86)"/><path class="cls-4" d="M715.55,268.63c31.3-73.46,127.11-102.82,196-63.46,30.68,17.51,43.7,54.23,28.23,86.5-17,35.38-54.41,46.73-88.28,59.9-16.56,6.44-33.48,13.64-47.21,25.2-19.6,16.51-39.93,52.35-70.93,33.86-7.81-4.66-13.3-12.47-17.15-20.71C698.28,351.52,699.44,306.46,715.55,268.63Z" transform="translate(54.74 113.86)"/><path class="cls-4" d="M738.24,263.33c25.59-56.48,99.27-79.67,153.47-50.28,24.63,13.35,35.4,41.7,24.42,67.77-12.71,30.19-45.66,40.31-73.69,51.41-13.28,5.22-26.91,10.93-38,20.1-15.37,12.72-30.73,39.43-55.15,26.4-6.71-3.57-11.52-10-14.48-17C721.58,330.17,724.57,293.5,738.24,263.33Z" transform="translate(54.74 113.86)"/><path class="cls-4" d="M760.92,258c19.78-39.51,71.48-56.56,110.92-37.1,18.59,9.17,27.22,29.27,20.61,49-8.4,25.1-36.88,33.95-59.1,42.91-10,4-20.34,8.24-28.79,15-11.14,8.93-21.74,26.74-39.38,18.94a22.44,22.44,0,0,1-11.8-13.37C744.79,308.88,749.66,280.55,760.92,258Z" transform="translate(54.74 113.86)"/><path class="cls-4" d="M783.61,252.74c13.67-22.64,43.79-33.59,68.36-23.93,12.6,5,19.33,17,16.79,30.32-3.84,20.19-28.12,27.53-44.5,34.41-6.71,2.82-13.75,5.54-19.58,9.91-6.89,5.17-13.1,14.55-23.61,11.48a13,13,0,0,1-9.12-9.7C767.82,287.69,774.64,267.59,783.61,252.74Z" transform="translate(54.74 113.86)"/><path class="cls-4" d="M806.29,247.44c-7.26,6.77-15.88,19.13-15.77,29.56,0,3.59,2.67,6.53,6.44,6,3.08-.41,5.27-2.53,7.84-4,3.26-1.89,6.94-3.23,10.36-4.81,10.54-4.85,31.85-10.55,29.92-25.92-.85-6.78-6.26-11.21-13-11.58C822.62,236.17,813.05,241.14,806.29,247.44Z" transform="translate(54.74 113.86)"/><path class="cls-4" d="M670.43,335.52c-2.41,20.88-4.8,39.91-25.22,50.85-20,10.73-38.77,9-60.6,9.11a551,551,0,0,0-74.16,5.44c-58.59,8.29-119.34,23.23-168.19,58.15C287.05,498.55,255,567.29,266.4,635.29c8.36,49.86,43.68,91.48,90.87,109.92,46.22,18.07,99.73,10.64,141.84-14.54,36.22-21.66,60.32-57.33,90.26-86.11C621.92,613.27,669,602.9,707.87,582c19.48-10.46,38.13-23.71,50.06-42.73,14.94-23.81,11-52.08,16.83-78.38,5.53-25.13,21.39-46,41.41-61.6,38-29.74,87.41-39.92,125.86-68.57,12.24-9.12,22.81-21.13,27.63-35.61,19-57.19-24.17-103.29-75.53-120.92-58-19.91-123.3-2.75-168.11,38.17C689.82,245.44,675.94,287.89,670.43,335.52Z" transform="translate(54.74 113.86)"/><path class="cls-4" d="M460.09,957.81c35.28-27,58-67.07,75.95-107.67s32.26-83.09,55.37-121,56.91-71.8,99.82-83.19c59.53-15.81,122.25,14.16,183.51,7.79,62.61-6.51,114.63-49.46,173-72.93a284.83,284.83,0,0,1,69.28-18.17c25.71-3.37,52.37-3.08,77,5.19s47,25.21,57.92,48.72c19.89,42.66-1.16,91.85-16.3,136.41-16.47,48.5-25.63,102.56-7.17,150.33,4.87,12.62,15.33,26.45,28.61,23.87" transform="translate(54.74 113.86)"/><path class="cls-4" d="M1152.35-39.25C1079-40.68,1004,42.53,1053.42,110.51c29.1,40,49.85,82.6,39.87,133.46s-48.5,80.61-91.37,106.06c-46,27.33-209.7,127.68-119.92,192.37,65.35,47.07,156.83-35.84,214.09-62.85,70.34-33.18,148.79-38.42,222.53-14.44,48,15.61,120.1,56.72,166.3,16.07" transform="translate(54.74 113.86)"/><path class="cls-4" d="M1278.75,931.4c-29.24-44.93-15.37-95.06,1.24-143.09,10.35-30,24.36-53,29.46-84.52,7.06-43.73-9.12-76.69.77-130.17,10.94-59.18,91.79-65.85,128.43-38.79,20.32,15,31.2,49.16,46.87,69l18.54,23.47" transform="translate(54.74 113.86)"/><path class="cls-4" d="M53.82,402C99.64,376.94,163,391,193.89,433.13c34.35,46.82,26.26,110.76,28.7,168.77,1.69,40.28,9.49,81,28.73,116.38s50.88,65.21,89.55,76.56c18,5.27,36.87,6.52,55,11.3s36.26,14.08,45.34,30.44c6.82,12.26,7.68,27,6.28,40.94-5.48,55-46.41,104.87-99.33,121" transform="translate(54.74 113.86)"/><path class="cls-4" d="M14.71,320.78c57.92-14.83,116.24,8.72,168.4,32,30.11,13.46,65.44,28.73,99.27,24.25,33.42-4.44,62.92-25.41,96.06-31.62,45.06-8.44,90.35,3.57,135.26,7C563,356.29,604.51,342,619.26,290.65c6.83-23.74,11.23-47.91,19.59-71.23,22.5-62.8,78.35-98.6,143.63-104,51.53-4.24,112.24.3,155-34.07C975,51.27,992-1.15,971.81-46" transform="translate(54.74 113.86)"/><path class="cls-4" d="M961.66,135.82c-3.52,16.2,5.19,32.45,15,45.82S998,208,1001.54,224.22c1.53,7.05,1.42,14.36,2.7,21.46s4.28,14.38,10.31,18.35c7.42,4.87,17.7,3.34,25.1-1.56C1055.59,251.92,1059.19,230,1058,211c-1.93-31.72-13.25-68.69-35.13-92.62C1004.83,98.56,967.33,109.73,961.66,135.82Z" transform="translate(54.74 113.86)"/><path class="cls-4" d="M984.6,148.25c0,.05,0,.1,0,.15-3.38,11,3.55,24,9.79,33.22,6,8.86,12.6,17.5,15.15,27.78,1.1,4.48,1.39,9.09,2.39,13.6a29.93,29.93,0,0,0,2,6.15,14.25,14.25,0,0,0,4.49,5.76c4.81,3.42,11.8,2.05,16.39-1.57,9.47-7.49,11.87-20.91,11.19-33a108.72,108.72,0,0,0-10.88-41.23,80.17,80.17,0,0,0-11.69-17.4C1011.87,128.79,989.71,131.58,984.6,148.25Z" transform="translate(54.74 113.86)"/><path class="cls-4" d="M1007.55,160.67l0,.09c-3.28,5.81,1.87,15.66,4.54,20.85,3.64,7.06,5.64,14.1,8.53,21.39a7.29,7.29,0,0,0,1.69,2.8c2.18,2,6,.8,7.67-1.6,6.72-9.37,4-22.35-1-31.84C1026.12,167,1013.7,150,1007.55,160.67Z" transform="translate(54.74 113.86)"/><path class="cls-4" d="M1173.38-26.44c-83.66,8.92-84.81,98.83-63.69,160,19.87,57.57,37.43,123.35-9.91,172.85-46,48.05-103.31,75.64-156.92,113.25-27.54,19.31-78.48,62.06-39.59,95.09,31.67,26.89,103.47-16.73,133.25-31.36,76.16-37.41,151.51-73.11,238.25-54.31,58.33,12.65,120.27,52.71,180.68,26" transform="translate(54.74 113.86)"/><path class="cls-4" d="M959.52,485.69c-3.22.87-6.9,1.62-9.69-.19-2.18-1.42-3.22-4.06-3.75-6.6-4.39-21.13,16.7-38.18,35.61-48.58,52.73-29,110.28-50.81,155.89-91.1,57.89-51.14,112.35-116.81,189.63-138.69,70.3-19.9,138,21,149,94.49,3.51,23.46.56,49.67-9.74,71.14-7.65,15.92-20.14,29.84-36.12,37.38-52.48,24.77-115.92-11.63-169.59-14.31-69.58-3.47-139.69,10.56-199.68,46.81C1028,456,997.55,475.4,959.52,485.69Z" transform="translate(54.74 113.86)"/><path class="cls-4" d="M1130.06,68.72c-4.54,34.79,8.64,77.13,33.41,102.24,22.46,22.77,56.53,28.29,86.22,17.72,22.34-8,41.52-22.69,60.29-37.19,22.13-17.09,41.12-33.33,69.91-37.76,27.85-4.29,49.62-2.93,67.22-28.38,29-41.89,20.35-98.88-25.16-124.89-24.59-14.05-56.49-19.32-88.6-18.68s-64.45,7.18-89.9,16.74C1186.84-20.2,1137.18,14.13,1130.06,68.72Z" transform="translate(54.74 113.86)"/><path class="cls-4" d="M1406.4-27.27c-19.68-12.57-45.54-18.65-73-18.56a225.16,225.16,0,0,0-35.15,3A220.94,220.94,0,0,0,1256.93-32c-31.53,11.85-60.68,28.67-79,51.94a89.15,89.15,0,0,0-18.39,41.17c-4.79,29.42,5.14,64.78,24.54,86.88,18.08,20.59,46.64,25.7,72.45,16.8a119.35,119.35,0,0,0,18.75-8.52c11.68-6.49,22.6-14.62,33.35-22.68,19.51-14.55,36.31-28.52,60-32.42,23-3.81,41.1-3.27,55.76-24.27C1448.71,42.16,1442.22-4.39,1406.4-27.27Z" transform="translate(54.74 113.86)"/><path class="cls-4" d="M1390.84-15c-14.8-11.13-34.57-18-57.38-18.43a167.88,167.88,0,0,0-29,2.08,176.33,176.33,0,0,0-34.07,8.87c-25.72,9.65-49.71,23.58-65.28,42.66A77.81,77.81,0,0,0,1189,53.53c-5,24,1.61,52.51,15.68,71.51,13.69,18.49,36.74,23.1,58.67,15.87a102.75,102.75,0,0,0,15.74-6.86c9.8-5.23,19.05-11.82,28.16-18.34,16.86-12.06,31.52-23.71,50.17-27.08,18.17-3.33,32.58-3.61,44.31-20.17C1421.34,40.86,1416.93,4.63,1390.84-15Z" transform="translate(54.74 113.86)"/><path class="cls-4" d="M1375.29-2.74A63.05,63.05,0,0,0,1333.51-21a113.79,113.79,0,0,0-22.79,1.16A130.75,130.75,0,0,0,1283.89-13c-19.91,7.47-38.73,18.5-51.55,33.4a67.68,67.68,0,0,0-13.87,25.53c-5.33,18.68-2,40.41,6.81,56.15,9.26,16.52,26.86,20.56,44.9,15a85.36,85.36,0,0,0,12.73-5.21c7.93-4,15.52-9,23-14,14.23-9.53,26.72-18.87,40.3-21.74,13.32-2.82,24-3.94,32.85-16.06C1394,39.56,1391.65,13.37,1375.29-2.74Z" transform="translate(54.74 113.86)"/><path class="cls-4" d="M1359.73,9.53C1354.58.63,1347.09-7,1333.57-8.66a67,67,0,0,0-16.61.24,88,88,0,0,0-19.59,4.91c-14.1,5.28-27.78,13.4-37.83,24.13a60.8,60.8,0,0,0-11.6,17.72,60.63,60.63,0,0,0-2,40.78c4.6,14.77,17,18,31.13,14a70.52,70.52,0,0,0,9.72-3.56,169.75,169.75,0,0,0,17.78-9.66c11.63-7,21.93-14.06,30.44-16.4s15.51-4.3,21.39-12C1366.58,38.24,1366.63,21.44,1359.73,9.53Z" transform="translate(54.74 113.86)"/><path class="cls-4" d="M1266.49,56.16c-1,15.79,10.75,15.79,24.07,11.2s28.15-13.78,33.16-16.38c10.56-5.47,19-18.2,20.45-29.19s-3.92-20.23-21-18.75c-11.64,1-25.39,8-36.44,17.8S1267.35,43.47,1266.49,56.16Z" transform="translate(54.74 113.86)"/><path class="cls-4" d="M1287.59,246.47c-22.55,17.19-38.8,38.67-52.79,63-8.06,14-13.49,33.19-.12,46.07,15.63,15.05,43.07,12.56,63.07,15.27,29.29,4,59,9.22,88.57,4.95,20.85-3,37.36-12.84,47.74-27.2s14.62-33.26,11-54.41c-7.19-41.33-42.74-75.93-85.87-74.62C1332.77,220.3,1308.25,230.72,1287.59,246.47Z" transform="translate(54.74 113.86)"/><path class="cls-4" d="M1304.47,259.1c-17.43,12.76-30.11,29.25-40.23,47.74-5.51,10.06-9.24,23.47-.23,32.82,10.82,11.21,30.14,10.45,44.72,12.74,5.63.88,11.29,1.77,17,2.56,15.66,2.18,31.46,3.65,47.2,1.5,15-2.06,26.81-9,35-18.75a53.88,53.88,0,0,0,12.29-41.86c-3.77-30-28.63-55.3-60.42-55.67C1339.8,239.94,1320.63,247.29,1304.47,259.1Z" transform="translate(54.74 113.86)"/><path class="cls-4" d="M1321.35,271.73a82.8,82.8,0,0,0-27.68,32.5c-3,6.09-5,13.79-.32,19.57,6,7.41,17.19,8.36,26.36,10.22,3.46.7,7,1.33,10.45,1.87,9.69,1.51,19.51,2.45,29.27,1.3a40.39,40.39,0,0,0,22.32-10.3c7.89-7,14-17.51,13.65-29.33-.6-18.57-14.56-34.74-35-36.71C1346.82,259.54,1333,263.87,1321.35,271.73Z" transform="translate(54.74 113.86)"/><path class="cls-4" d="M1323.11,301.62a12.26,12.26,0,0,0-.42,6.32c1.23,5.09,6.84,7.74,12,8.89,6.92,1.56,14.3,1.65,21-.77,7.24-2.63,13.16-9.63,15-16.78s-.43-14.47-9.55-17.75c-7.18-2.58-15.64-1.08-22.82,2.83S1325.15,294.58,1323.11,301.62Z" transform="translate(54.74 113.86)"/><path class="cls-4" d="M1457.54,104.12c-11.79,16.51-33.49,21.89-53.3,26.22-32.23,7-66.25,15.45-89.4,39l-.12.12a8.43,8.43,0,0,0,6.76,14.24c10.65-.93,21.27-3.24,32-4,37.6-2.66,73.62,13.81,107.71,29.9" transform="translate(54.74 113.86)"/><path class="cls-4" d="M1452.05,125.11c-9.56,8.56-22.34,12.54-34.91,15.14s-25.48,4.1-37.44,8.76c-4.38,1.71-9.13,4.53-9.79,9.18-.57,4.08,2.47,8,6.16,9.77s7.94,2,12,2.35a219.75,219.75,0,0,1,67.55,16.11" transform="translate(54.74 113.86)"/><path class="cls-4" d="M1447,147.94l-23.07,5.74c-1.42.36-3,.79-3.81,2-1.13,1.63-.39,4,1.09,5.33a12.43,12.43,0,0,0,5.43,2.29l21.17,5.14" transform="translate(54.74 113.86)"/><path class="cls-4" d="M1188.46,216c-9.31-3.66-16.68-14.35-26.51-12.43-6.07,1.19-10.19,7.17-11.5,13.21s-.49,12.32-.39,18.51c.3,17.72-5.38,35-11.62,51.54-1.11,2.95-2.26,6-2.08,9.14s2.1,6.43,5.16,7.15c3.78.88,7.23-2.27,9.64-5.32,7.4-9.39,12.59-20.48,20.85-29.12,8.63-9,20.07-14.82,31.51-19.84,8.93-3.92,27.06-11.1,20.81-24S1199.07,220.14,1188.46,216Z" transform="translate(54.74 113.86)"/><path class="cls-4" d="M27.64,266.5c47.57-13.69,94.83,10.5,136.76,30.42,34.38,16.34,72,29.94,110.58,29.4,36-.5,67.89-17.32,102.2-25.78,44.69-11,89.71,8.83,134.66,5.48C562,302.29,586,268,599.61,222.81c14.84-49.19,37.12-94.55,86.11-116.63,56.15-25.3,120-19.93,177.49-40.25C903.51,51.69,960.83,10,932.42-39.75" transform="translate(54.74 113.86)"/><path class="cls-4" d="M131.23,242.12c5.11,1.62,10.17,3.29,15.15,5.08,44.89,16.06,86.68,37.05,136,32.5,38.11-3.53,72.85-20.69,110.81-24,41.8-3.68,80.67,7.91,120.62-10,33-14.83,60.4-42.13,71.19-77.12,13.47-43.65-7-78.15-34.12-111C521.48,22,504.24-26.91,469.44-57.68,434.48-88.59,383-99.14,338.38-106a639.24,639.24,0,0,0-175.07-2.5c-65.25,8.24-152.18,20-172.69,94.68C-20.2,25.56-21.57,70.24-15.59,110.5-3,195.11,58.37,219,131.23,242.12Z" transform="translate(54.74 113.86)"/><path class="cls-4" d="M32.67.85c-9.12,33.38-10.21,71.17-5,105.24C38.42,177.46,90.25,198,151.68,217.91q6.58,2.13,13,4.47c38.56,14,74.74,31.76,117.15,28.11,32.25-2.88,61.7-17.14,93.83-19.89,35.37-3,68.22,6.47,102.13-8.31,28.68-12.49,52.78-35.44,62.73-65.18C553,120,536.88,90,514.42,61.48c-24.33-30.93-39.58-72.8-70.51-99.42C413.79-63.87,369.7-73.13,331.12-79a549.34,549.34,0,0,0-150.44-2C124.24-73.87,50.12-63.21,32.67.85Z" transform="translate(54.74 113.86)"/><path class="cls-4" d="M74.72,15.54C67.29,42.9,66.5,73.8,70.86,101.68c9,58.13,51.27,75.29,101.28,92,3.66,1.23,7.29,2.53,10.87,3.86,32.24,12,62.81,26.6,98.32,23.72,26.4-2.14,50.55-13.59,76.86-15.75,28.93-2.38,55.77,5,83.63-6.56,24.38-10.15,45.15-28.76,54.28-53.26,11.53-30.66-.34-56-18.13-80.27C458.69,39.13,445.46,4.27,418.38-18.2c-25.25-21-61.93-28.92-94.53-33.84a459.36,459.36,0,0,0-125.8-1.59C150.43-47.45,89.1-37.86,74.72,15.54Z" transform="translate(54.74 113.86)"/><path class="cls-4" d="M116.77,30.23c-5.73,21.34-6.24,45.35-2.69,67.05C121.27,142.16,154,156,192.59,169.5c2.94,1,5.85,2.13,8.73,3.24,25.91,10,50.88,21.36,79.49,19.33,20.55-1.46,39.4-10,59.88-11.61,22.5-1.74,43.35,3.64,65.13-4.81,20.1-7.8,37.49-22.11,45.83-41.34,10.49-24.2,3-44.95-10.13-64.91C427.3,47.72,416.11,19.85,392.85,1.53,372.5-14.49,343.19-21.1,316.59-25a369.85,369.85,0,0,0-101.17-1.14C176.61-21,128.08-12.52,116.77,30.23Z" transform="translate(54.74 113.86)"/><path class="cls-4" d="M158.82,44.92c-4,15.34-4.21,32.44-1.52,48,5.48,31.62,28.57,42.19,55.75,52.42,2.22.84,4.4,1.75,6.59,2.63,19.58,7.93,38.93,16.11,60.65,14.94,14.69-.79,28.25-6.49,42.9-7.47,16.07-1.09,31,2.3,46.64-3.07,15.85-5.42,29.86-15.42,37.37-29.41,9.52-17.71,6.32-33.87-2.14-49.55-9.16-17-18.26-38-37.74-52.09-15.38-11.14-37.38-16.36-58-19.33a280.19,280.19,0,0,0-76.52-.69C202.8,5.37,167.16,12.85,158.82,44.92Z" transform="translate(54.74 113.86)"/><path class="cls-4" d="M200.87,59.61a67.17,67.17,0,0,0-.35,28.85c3.69,18.38,17.19,25.79,33,32.63,1.5.64,3,1.35,4.45,2,13.25,5.89,27,10.83,41.81,10.55,8.84-.16,17.11-2.94,25.93-3.33,9.65-.44,18.66,1.1,28.15-1.32,11.65-3,22.25-8.75,28.91-17.48,8.57-11.23,9.66-22.81,5.86-34.2-4.1-12.43-11-26.49-26.82-36.31-10.3-6.4-25.11-10.09-39.73-12.08a189.87,189.87,0,0,0-51.89-.23C229,31.78,206.14,38.2,200.87,59.61Z" transform="translate(54.74 113.86)"/><path class="cls-4" d="M242.92,74.3C241.21,83,246.56,92,254,96.88s16.45,6.59,25.28,7.57q9.27,1,18.61,1.22c28.58.61,50.84-32.26,18.41-44.92C298.62,53.86,247.93,48.62,242.92,74.3Z" transform="translate(54.74 113.86)"/><path class="cls-4" d="M559.33-27q16.8,31.16,33.61,62.29c8.79,16.29,19.41,34.09,37.26,39,15.6,4.26,31.74-2.78,46.87-8.48A303.06,303.06,0,0,1,745,48.85c24.74-3.19,50.31-3.43,73.53-12.55S862.64,6,861.73-18.93" transform="translate(54.74 113.86)"/><path class="cls-4" d="M609.45-20.57,626.94.7c6.85,8.33,14,16.93,23.84,21.45s21.18,4.41,32,3.76c17.36-1,34.64-3.11,51.85-5.61,15.1-2.19,30.45-4.81,44-11.92s25-19.54,27.33-34.62" transform="translate(54.74 113.86)"/><path class="cls-4" d="M810.43,469.93c-3.83,18-4.36,36.72-9.09,54.55a119.88,119.88,0,0,1-40.53,62.28c-6.37,5.12-14.11,11.52-12.54,19.53,1.76,9,13.35,11.33,22.5,11.72L851,621.39c13.42.56,27.63,1,39.35-5.62,7.26-4.07,13.4-11.84,12.13-20.06-2-13.18-18.86-16.52-31.13-21.72-22-9.32-35.47-33-37.83-56.79s4.78-47.51,14.51-69.31c6.71-15.05,6-32.05-13-22.81C820.64,432.11,813.43,455.78,810.43,469.93Z" transform="translate(54.74 113.86)"/><path class="cls-4" d="M1206.89,482.5c26,.24,52.92,2.71,75.82,15.08,9.47,5.12,19.11,14.65,16.23,25-2.42,8.74-12.5,12.94-17.18,20.72-5.42,9-4.6,23.53-14.67,26.55-5.68,1.7-11.48-1.8-16.51-5a232.71,232.71,0,0,0-84.65-32.06,236.67,236.67,0,0,0-48.87-3.19c-10.19.4-38,9.86-46.13,6.52-20.61-8.48,34.21-34.44,45.51-39.15C1144.79,485.19,1176.42,482.23,1206.89,482.5Z" transform="translate(54.74 113.86)"/><path class="cls-4" d="M559.55,879.75c33.63-59.19,43.67-134.16,95.18-178.67a135.2,135.2,0,0,1,90.94-32.51c20.45.53,40.45,5.72,60.65,9A330.54,330.54,0,0,0,996,652c34.25-15.7,66-37.38,102.22-47.79s80.08-6.75,104.72,21.76c21.64,25,22.62,62.15,15,94.35s-22.55,62.37-29.21,94.78a192.32,192.32,0,0,0-.93,72.33c2.75,15.36,7.39,30.49,7.82,46.08.78,28.56-13,56.25-33.16,76.47s-46.27,33.63-73.2,43.15c-88.77,31.38-185.83,22.8-280,20.52-79.63-1.93-164.46-.42-231.92-42.79-22.42-14.09-58.43-39.67-61.82-68.41C512,932.28,545.81,903.93,559.55,879.75Z" transform="translate(54.74 113.86)"/><path class="cls-4" d="M682.42,723.88c23.08-20.29,53.35-31,83.94-30.65,18.86.24,37.49,4.38,56.25,7.21,54.49,8.2,111.34,1.39,161.55-20.57,18.22-8,35.65-17.82,53.59-26.34a208.32,208.32,0,0,1,33.8-13c30.8-8.42,67.18-4.65,88.5,20.14,18,20.89,19.63,51.91,14.11,79.13-5.48,27-17,52.56-22.09,79.86a177.29,177.29,0,0,0-.52,61c2.14,13,5.71,25.74,5.81,38.81.18,23.94-11.54,47.09-29,63.7-18,17.13-41.28,27.56-64.91,34.53q-5.06,1.49-10.14,2.78c-27.29,6.94-55.14,9.73-83.52,10.74-49.47,1.74-100.58-1.83-150.64-2.33-68.12-.91-140.92,2-198.5-34.44C602.21,982.83,573,962,569.94,938.5c-3.19-24.64,23.66-47.86,34.59-67.79C631.27,821.91,640.41,760.8,682.42,723.88Z" transform="translate(54.74 113.86)"/><path class="cls-4" d="M710.1,746.68c21.25-19.06,48.7-28.65,77-28.78,17.26-.07,34.51,3.05,51.84,5.38,45.08,6.07,91.88,1.38,133.45-15.57,15.17-6.14,29.7-13.82,44.56-20.62a169.3,169.3,0,0,1,28-10.24c25.39-6.41,54.28-2.54,72.28,18.54,14.39,16.75,16.64,41.64,13.23,63.9-3.35,21.86-11.5,42.74-15,65a167.47,167.47,0,0,0-.13,49.58c1.53,10.6,4,21,3.81,31.53-.43,19.33-10.12,37.92-24.91,50.94-15.92,14-36.3,21.5-56.63,25.91q-4.35.94-8.7,1.71c-23.35,4.11-46.87,4.53-71,4.06-42.09-.87-86-4.14-129-3.91-56.59.32-117.28,4.37-165.07-26.09-14.35-9.15-36.83-25.28-39.52-43.46-2.81-19.07,17-37.16,25.15-52.83C669.35,823.25,677.52,775.92,710.1,746.68Z" transform="translate(54.74 113.86)"/><path class="cls-4" d="M737.79,769.48c19.39-17.86,44-26.29,70-26.92,15.66-.36,31.52,1.76,47.43,3.57,35.65,4.07,72.42,1.36,105.35-10.57,12.12-4.34,23.74-9.87,35.53-14.92a126.48,126.48,0,0,1,22.2-7.49c20-4.45,41.34-.4,56.06,16.94,10.73,12.64,13.63,31.36,12.35,48.68-1.23,16.66-6,32.91-7.84,50a175.42,175.42,0,0,0,.27,38.2c1,8.22,2.36,16.24,1.8,24.27-1,14.71-8.74,28.7-20.77,38.17-13.85,10.91-31.32,15.44-48.35,17.3q-3.63.39-7.25.63c-19.43,1.28-38.62-.67-58.48-2.63-34.72-3.47-71.47-6.56-107.29-5.47-45,1.36-93.68,6.78-131.64-17.75-10.33-6.67-26-18.08-28.37-31-2.43-13.51,10.42-26.47,15.72-37.88C707.44,824.59,714.53,790.91,737.79,769.48Z" transform="translate(54.74 113.86)"/><path class="cls-4" d="M765.48,792.28c17.47-16.73,39.38-23.93,63-25,14.08-.66,28.54.52,43,1.75,26.19,2.22,52.94,1.28,77.26-5.58,9-2.56,17.78-5.87,26.48-9.21a86.43,86.43,0,0,1,16.4-4.74c14.58-2.45,28.44,1.7,39.85,15.34,7.11,8.49,10.57,21.07,11.47,33.45.83,11.47-.47,23.09-.71,35.1-.18,9,.16,18.14.66,26.83.34,5.84.69,11.49-.2,17A37.38,37.38,0,0,1,1026,902.57c-11.84,7.71-26.33,9.37-40,8.68-2-.1-3.9-.24-5.82-.44-15.49-1.55-30.36-5.87-45.95-9.31-27.35-6.07-56.91-9-85.62-7-33.52,2.34-70.11,9.22-98.21-9.4-6.31-4.18-15.23-10.89-17.22-18.5-2-7.95,3.82-15.78,6.29-22.93C745.56,825.94,751.41,805.76,765.48,792.28Z" transform="translate(54.74 113.86)"/><path class="cls-4" d="M887.77,791.83c-35.37-1.29-70.54-2.11-94.6,23.25-5.07,5.34-9.56,12.19-8.74,19.5.65,5.73,4.53,10.67,9.22,14,18.1,12.92,42.77,4.19,64.79,1a119.21,119.21,0,0,1,63.93,8.63c11.34,4.92,21.88,11.6,33.43,16s24.76,6.31,36.15,1.45c28.21-12.05,10-59.7-3.34-76.22-10.82-13.38-18.64-16.33-34.23-11.74C934.12,793.71,910.91,792.67,887.77,791.83Z" transform="translate(54.74 113.86)"/><path class="cls-4" d="M158.72,450.41c.7.68,1.38,1.38,2.07,2.1,43.94,46.26,42.41,111.74,42,171.29-.29,40.14,3.78,84,22.75,120.87,28.1,54.68,82.15,66.61,131.45,94.75,53.49,30.54,23.4,79.22-12.43,110-62.79,53.9-157.58,78.07-239.27,68.52C63.1,1013,25.05,992.57,0,957.85-43.47,897.61-52.64,808-54.11,735.91A622.67,622.67,0,0,1-14.77,504.42C-.3,466,13.83,447.77,51.48,434.31,88.07,421.23,129.75,421.91,158.72,450.41Z" transform="translate(54.74 113.86)"/><path class="cls-4" d="M.11,551.87c14-31.42,25.77-46.88,57.06-57.51,30.92-10.5,65.52-8.76,89.64,15.64.58.58,1.15,1.18,1.72,1.79,36.31,39,35.8,94.23,36.05,144.45.24,34.18,3.9,71.14,19.57,101.89,21.19,41.62,60.07,54.55,97.34,75q5.36,2.94,10.66,6.12c43.42,26.06,19.76,66.39-9.12,92.73-23.13,21.1-52.52,37.41-84.07,46.66-38.45,11.27-78.48,12.12-115.13,6.38-33.9-5.3-64.66-21.89-85-50.47-35.32-49.69-42.29-122.85-45.5-181.73C-30.33,685.35-29.08,617.34.11,551.87Z" transform="translate(54.74 113.86)"/><path class="cls-4" d="M15,599.32c13.21-24.45,23-37.1,47.86-44.9,25.26-7.92,52.78-5.13,72,15.17.46.48.92,1,1.37,1.48,28.69,31.82,29.1,76.74,30.12,117.62.71,28.21,4,58.31,16.39,82.91C199.52,804.92,230,816.49,259,833.82c2.79,1.67,5.54,3.42,8.3,5.2,33.35,21.56,16.13,53.59-5.81,75.49a151,151,0,0,1-67.87,38.93c-31.59,8.1-62.75,4.9-91.26-1.35-25.58-5.62-49.12-18.46-64.73-40.9C10.51,872,5.52,815.26.79,769.67-5,713.38-16,656.72,15,599.32Z" transform="translate(54.74 113.86)"/><path class="cls-4" d="M29.88,646.77c12-17.61,20.15-27.28,38.67-32.3,19.62-5.3,40-1.45,54.45,14.72.34.37.67.76,1,1.15,21,24.66,22.46,59.25,24.19,90.79,1.23,22.24,4.15,45.49,13.21,63.94,12.3,25,34.44,35.23,55.18,49.47,2,1.38,4,2.83,5.94,4.28,23.28,17,12.52,40.84-2.5,58.26-12.77,14.8-31.38,27.14-51.66,31.19-24.75,4.94-46.88-2.2-67.39-9.09-17.21-5.78-33.59-15-44.47-31.32-19-28.6-22.43-69.09-28.27-101.31C20,741.22-3.63,696.11,29.88,646.77Z" transform="translate(54.74 113.86)"/><path class="cls-4" d="M44.77,694.23c10.16-11.08,17.37-17.42,29.46-19.7,14-2.64,27.27,2.17,36.86,14.25l.66.84c13.37,17.43,15.86,41.75,18.27,64,1.76,16.29,4.26,32.67,10,45,7.84,16.74,21.64,25.54,34.09,36.73,1.21,1.08,2.37,2.22,3.57,3.34,13.27,12.39,9,28.23.82,41-7.53,11.77-20.8,22-35.46,23.46-17.89,1.77-30.77-8.9-43.52-16.83-8.77-5.45-18.07-11.57-24.21-21.74-10.89-18-13.5-42.26-19.66-61.1C44.39,768.87,7.47,734.86,44.77,694.23Z" transform="translate(54.74 113.86)"/><path class="cls-4" d="M118.68,812c3.39,8.45,8.81,15.91,13,24S139,853.31,137,862.21s-10.23,16.87-19.26,15.72c-11-1.4-16.39-13.93-19.65-24.57-3.56-11.64-7.31-23.6-15-33.05-17.85-21.95-67-50.13-23.48-78.63C106.46,711.06,109,787.8,118.68,812Z" transform="translate(54.74 113.86)"/><path class="cls-4" d="M1363.37,556.83c-12.18,8.39-19.7,22.46-23.09,36.92-12.1,51.62,9.66,105.84-9,156.94-15.14,41.54-37.68,85.78-36.7,131,1.32,60.85,65,73.14,115.34,63,35.27-7.08,60.37-33.07,71-66.9,22.26-70.79,10.53-154.56-6.3-225.49-8.46-35.63-30.48-89.14-68.93-101.22-13.51-4.24-28.93-2.83-40.91,4.73Z" transform="translate(54.74 113.86)"/><path class="cls-4" d="M1410.05,589.47c-11-2.77-23.22-1.46-32.88,4.83-.4.26-.79.52-1.18.8-9.75,6.87-16,18.13-19,29.77-10.89,41.51,4.33,86-10.83,126.32-6.74,17.91-14.91,36.43-20.38,55.43a147.47,147.47,0,0,0-5.15,56.15c5,45.89,51.95,54.86,91.19,46.4,27.39-5.88,46.83-26.2,55.79-52.29,19.63-57.15,12.81-125.07.28-183.51C1461.38,643,1443.47,597.91,1410.05,589.47Z" transform="translate(54.74 113.86)"/><path class="cls-4" d="M1414.33,627.81c-8.41-1.37-17.5-.07-24.84,4.93l-.88.62c-7.31,5.35-12.19,13.82-14.91,22.64-9.68,31.4-1.07,66.13-12.71,95.69-5.92,15-12.84,30.65-16.36,46.75s-1.47,32.08,2,45.36c8,30.54,38.95,36.6,67,29.8,19.52-4.67,33.36-19.32,40.57-37.67,17.08-43.54,15.15-95.61,6.86-141.54C1456.57,669.26,1442.86,632.49,1414.33,627.81Z" transform="translate(54.74 113.86)"/><path class="cls-4" d="M1418.61,666.16a26.81,26.81,0,0,0-16.79,5l-.59.45c-4.87,3.83-8.43,9.5-10.82,15.5-8.47,21.29-6.61,46.2-14.59,65.06-5.15,12.18-10.77,24.88-12.34,38.06s1.59,26.84,9.14,34.59c5.13,16.57,25.94,18.28,42.9,13.19,11.64-3.49,20.07-12.41,25.34-23.06,14.81-29.92,17.63-66.18,13.45-99.56C1451.82,695.51,1442.43,666.71,1418.61,666.16Z" transform="translate(54.74 113.86)"/><path class="cls-4" d="M1390.65,752.69c-4.57,9.22-8.69,19.1-8.33,29.38s6.4,21,16.3,23.81c10.56,3,21.52-3.73,28.87-11.87,13.94-15.45,20.39-36.78,20-57.58-.26-14.69-5.69-36.9-24.62-31.93C1406.41,708.82,1397.22,739.45,1390.65,752.69Z" transform="translate(54.74 113.86)"/><path class="cls-4" d="M808.66,558c-.47,3.71-.21,7.48-.76,11.18a26.33,26.33,0,0,1-9,16.1c-2.8,2.37-6.12,4.17-8.41,7s-3.15,7.4-.61,10a8.85,8.85,0,0,0,5.26,2.25c6.49.92,13-.83,19.48-1.82a85,85,0,0,1,18.51-.8c6.34.42,14.06.95,17.59-4.33,3.65-5.47-.36-12.91-5.38-17.14-4.32-3.64-9.82-6.44-13-11.26s-3.09-11-5.67-16.12C821.19,542.09,810.1,546.6,808.66,558Z" transform="translate(54.74 113.86)"/><path class="cls-4" d="M462.43,767.31c-7.94,3.62-16.68,10.37-15.08,19C449,795,459.73,798,466.59,803.7c6.17,5.11,9.45,13,10.5,21s.11,16-.86,23.95c-.53,4.4-1.07,8.92-.07,13.24s3.89,8.5,8.15,9.76c4.75,1.41,9.85-1.11,13.45-4.52,8.75-8.31,11.26-21,14.39-32.66a201.68,201.68,0,0,1,30.17-64.08c4-5.66,8.48-11.45,9.44-18.33,3.8-27.17-25.69-8-35.55-3.89C498.62,755.48,479.79,759.39,462.43,767.31Z" transform="translate(54.74 113.86)"/><path class="cls-4" d="M484.79,777.91c-2.71,2.48-4.14,6.66-2.5,9.94s5.28,4.52,7.58,7.15c2.79,3.19,3.21,7.77,3.13,12a19.09,19.09,0,0,0,.36,5.6,5.59,5.59,0,0,0,3.57,4c2.58.71,5.23-1.36,6.3-3.81s1-5.23,1.33-7.9c.92-8.15,13.74-23.54,9.09-30.63C509.09,767.35,489.71,773.4,484.79,777.91Z" transform="translate(54.74 113.86)"/><path class="cls-4" d="M234,429.38c8.69,18,11.22,38.29,13.43,58.16.39,3.55.81,7.19,2.41,10.37s4.68,5.9,8.24,6c3.37.11,6.37-2,8.93-4.19,15.69-13.35,25.63-32.16,39.52-47.36,19.14-20.95,45.27-34.42,72.26-43.17s55.16-13.13,83-18.63c2.9-.57,5.9-1.2,8.24-3s3.83-5.08,2.6-7.76c-1.05-2.31-3.65-3.43-6-4.29a146.24,146.24,0,0,0-91.18-2.12c-19.57,6-37.67,16-57,22.64-23.26,7.93-49.13,10.68-72.32,2.52-5.63-2-42.54-21.79-40.67-5.28.58,5.11,12,12.06,15.45,16.06A91.2,91.2,0,0,1,234,429.38Z" transform="translate(54.74 113.86)"/><path class="cls-4" d="M261.44,456.53c.16,1.05.32,2.1.46,3.16,1,7.22,6.4,12.77,13.63,8.58,12.1-7,12.21-24.53,21.32-34.15,3.21-3.39,12.26-7.27,6.88-13.29-2.26-2.53-6-3.13-9.39-2.91-6.81.43-15.18,3.53-21.9,2.31-7.18-1.31-21.32-10.38-18.35,2.65C256.67,434.18,259.64,445.15,261.44,456.53Z" transform="translate(54.74 113.86)"/></g></g></g></g></svg>