<svg xmlns="http://www.w3.org/2000/svg" viewBox="0 0 151.06 162.58"><defs><style>.cls-1{fill:#ec6655;}.cls-2{fill:#10acd5;}.cls-3{fill:#fad534;}.cls-4{fill:none;stroke:#4d8fd1;stroke-linecap:round;stroke-miterlimit:10;stroke-width:3px;}.cls-5{fill:#038d71;}.cls-6{fill:#1c313a;}</style></defs><g id="Capa_2" data-name="Capa 2"><g id="Arte"><path class="cls-1" d="M139.5,94.63c-6.55-1.37,7.86-6.45,7.86-6.45s-20,2.59-30.47,13.87l23-5.77Z"/><path class="cls-1" d="M140.77,98.26c-4.26,5.17,10.17.13,10.17.13s-17.17,11.25-32.4,9l21.54-10.67Z"/><path class="cls-2" d="M138.63,95.49c3.57-4,10.82-4.73,10.82-4.73a28.88,28.88,0,0,0-3.77,3.88,20.28,20.28,0,0,0,5.38.7s-5.9,3.53-11.46,2.92Z"/><path class="cls-2" d="M142.32,95.75s-21.07-3.09-29.61,11.35C112.71,107.1,127.42,110.52,142.32,95.75Z"/><path class="cls-2" d="M135.64,101.27c-12.32,8.3-22.93,5.83-22.93,5.83l29.61-11.35a45.83,45.83,0,0,1-6.68,5.52"/><path class="cls-3" d="M40.21,77H29.79S24.06,39,53.46,0l17.7,45a28.79,28.79,0,0,0-3,4.81A31.72,31.72,0,0,0,40.21,77Z"/><path class="cls-3" d="M40.21,85.59a31.72,31.72,0,0,0,28,27.23,28.79,28.79,0,0,0,3,4.81l-17.7,45c-29.4-39-23.67-77-23.67-77Z"/><path class="cls-2" d="M0,77H63.6a7.56,7.56,0,0,1,7.56,7.56v1.06a0,0,0,0,1,0,0H0a0,0,0,0,1,0,0V77A0,0,0,0,1,0,77Z" transform="translate(71.16 162.59) rotate(-180)"/><path class="cls-2" d="M3.78,79.71h19a8.23,8.23,0,0,1,8.23,8.23V89.1a0,0,0,0,1,0,0H3.78a0,0,0,0,1,0,0V79.71A0,0,0,0,1,3.78,79.71Z" transform="translate(34.84 168.82) rotate(180)"/><line class="cls-4" x1="65.62" y1="51.99" x2="44.23" y2="7.92"/><line class="cls-4" x1="56.65" y1="62.9" x2="31.59" y2="25.96"/><line class="cls-4" x1="51.47" y1="73.59" x2="21.33" y2="44.32"/><path class="cls-3" d="M40.21,85.53H29.79s-5.73,38,23.67,77l17.7-45a29.34,29.34,0,0,1-3-4.81A31.73,31.73,0,0,1,40.21,85.53Z"/><line class="cls-4" x1="65.62" y1="110.53" x2="44.23" y2="154.6"/><line class="cls-4" x1="56.65" y1="99.62" x2="31.59" y2="136.56"/><line class="cls-4" x1="51.47" y1="88.92" x2="21.33" y2="118.2"/><path class="cls-5" d="M71.16,77H40.21a31.72,31.72,0,0,1,28-27.23C65.15,55.88,62,66.86,71.16,77Z"/><path class="cls-5" d="M40.21,85.59H71.16c-9.16,10.13-6,21.11-3,27.23A31.72,31.72,0,0,1,40.21,85.59Z"/><path class="cls-1" d="M92.37,85.59H42.15C55,81.41,61.83,77.9,64.9,77h9a11.59,11.59,0,0,1,6.07-2.86,7.73,7.73,0,0,0-.22,1.81,7.88,7.88,0,0,0,14.4,4.42"/><polyline class="cls-6" points="121.58 97.95 86.83 83.63 94.12 80.36 139.01 101.02 99.94 86 122.63 97.21"/><path class="cls-2" d="M87.6,83.82a7.88,7.88,0,0,1-7.88-7.88,7.73,7.73,0,0,1,.22-1.81,18.47,18.47,0,0,1,5-.26,11,11,0,0,1,9.15,6.49A7.85,7.85,0,0,1,87.6,83.82Z"/></g></g></svg>