<svg xmlns="http://www.w3.org/2000/svg" viewBox="0 0 198.39 222.81"><defs><style>.cls-1{fill:#1c313a;}.cls-2{fill:#ee9234;}.cls-3{fill:none;}</style></defs><g id="Capa_2" data-name="Capa 2"><g id="Arte"><path class="cls-1" d="M20.79,213.65h0a28.72,28.72,0,0,0,40.48,1.58l86.21-79.72A28.74,28.74,0,0,0,149.06,95h0a28.73,28.73,0,0,0-40.48-1.58L22.37,173.16A28.75,28.75,0,0,0,20.79,213.65Z"/><path class="cls-2" d="M10.2,182.73a36.37,36.37,0,0,0,47.6,3.85,37.68,37.68,0,0,0,3.65-3.1L76.8,168.56l33.47-32.51.79-38.35v-.19a5.42,5.42,0,0,1,5.44-5.1,5.28,5.28,0,0,1,5.23,5.39l-.56,27.67,21.26-20.65a36.36,36.36,0,0,0,1.22-50.75l-.47-.5a36.37,36.37,0,0,0-51.25-.75L52.53,91.1l26.83-6.91a3.61,3.61,0,0,1,4.41,2.62,3.68,3.68,0,0,1-2.67,4.43L42,101.32,22.57,120.2,11,131.49a35.5,35.5,0,0,0-5.26,6.43A36.38,36.38,0,0,0,10.2,182.73Z"/><rect class="cls-1" x="7.44" y="128.4" width="68.11" height="2.51" transform="translate(-29.47 13.48) rotate(-13.67)"/><rect class="cls-1" x="26.37" y="110.15" width="68.22" height="2.51" transform="translate(-24.54 17.38) rotate(-13.62)"/><rect class="cls-1" x="35.89" y="149.24" width="61.83" height="2.51" transform="translate(-96.35 172.75) rotate(-73.83)"/><rect class="cls-1" x="54.67" y="131.3" width="63.02" height="2.51" transform="translate(-64.56 180.28) rotate(-74.54)"/><rect class="cls-1" x="-2.67" y="81.17" width="233.39" height="2.51" transform="translate(-25.14 103.1) rotate(-44.31)"/><path class="cls-3" d="M30.29,103.64A3.63,3.63,0,0,0,34.85,106l6.8-2.18L80.1,91.51a3.7,3.7,0,0,0,2.41-4.58A3.59,3.59,0,0,0,78,84.57L51.56,93h0l-18.86,6A3.71,3.71,0,0,0,30.29,103.64Z"/></g></g></svg>