<svg xmlns="http://www.w3.org/2000/svg" viewBox="0 0 107.55 147.01"><defs><style>.cls-1{fill:#da6e5b;}.cls-2{font-size:111.49px;fill:#4e45ac;font-family:GillSans-UltraBold, Gill Sans;font-weight:700;}.cls-3{fill:#f8e8a3;}.cls-4{fill:#5192d9;}</style></defs><g id="Capa_2" data-name="Capa 2"><g id="Arte"><rect class="cls-1" width="107.55" height="119.66" rx="6.82"/><text class="cls-2" transform="matrix(1, 0, 0, 1, 11.97, 101.99)">E</text><path class="cls-3" d="M64.22,31.69h37.11s-.27-4.49-7.14-4.49c0,0-1.75-5.59-8.8-5.59-3.31,0-5.41.55-8,2.75C77.42,24.36,64.22,22.78,64.22,31.69Z"/><circle class="cls-4" cx="22.24" cy="75.12" r="13.26"/><circle class="cls-4" cx="42.73" cy="57.83" r="9.88" transform="matrix(0.23, -0.97, 0.97, 0.23, -23.32, 86.24)"/><rect class="cls-3" x="42.12" y="58.98" width="1.23" height="42.72"/><path class="cls-3" d="M42.47,91.72a14.28,14.28,0,0,1-7.24-8.21l1.18-.34-.59.17.59-.18A13.25,13.25,0,0,0,43,90.61Z"/><rect class="cls-3" x="38.91" y="74.64" width="15.8" height="1.23" transform="translate(-41.81 76.5) rotate(-58.92)"/><rect class="cls-3" x="21.63" y="77.12" width="1.23" height="24.58"/></g></g></svg>