<svg xmlns="http://www.w3.org/2000/svg" xmlns:xlink="http://www.w3.org/1999/xlink" viewBox="0 0 1520.37 450.44"><defs><style>.cls-1,.cls-11,.cls-7{fill:none;}.cls-2{clip-path:url(#clip-path);}.cls-3{fill:#a09f9f;}.cls-4{fill:#f7f7f7;}.cls-5{fill:#fdf6e6;}.cls-6{clip-path:url(#clip-path-2);}.cls-11,.cls-13,.cls-7{stroke:#213039;stroke-miterlimit:10;}.cls-7{stroke-width:5px;}.cls-8{fill:#606060;}.cls-9{fill:#6b6a6a;}.cls-10{fill:#aad6d0;}.cls-11{stroke-width:3px;}.cls-12,.cls-13{fill:#213039;}.cls-14{clip-path:url(#clip-path-3);}.cls-15{fill:#8ebfe5;}.cls-16{fill:#1c303f;}.cls-17{fill:#444;}.cls-18{clip-path:url(#clip-path-4);}</style><clipPath id="clip-path" transform="translate(3.75 -135.44)"><rect class="cls-1" width="1440" height="579.19"/></clipPath><clipPath id="clip-path-2" transform="translate(3.75 -135.44)"><polygon class="cls-1" points="1441.09 389.52 1004.83 389.52 1004.5 559.25 1441.09 559.18 1441.09 389.52"/></clipPath><clipPath id="clip-path-3" transform="translate(3.75 -135.44)"><path class="cls-1" d="M990.54,466.69h231.64c-1.49-26.73-21.53-50.13-51.42-64.09H1042C1012.07,416.56,992,440,990.54,466.69Z"/></clipPath><clipPath id="clip-path-4" transform="translate(3.75 -135.44)"><path class="cls-1" d="M1345.91,488.5H1171.36c1.12-20.14,16.23-37.78,38.74-48.3h97.06C1329.68,450.72,1344.79,468.36,1345.91,488.5Z"/></clipPath></defs><g id="Capa_2" data-name="Capa 2"><g id="Arte"><g class="cls-2"><path class="cls-3" d="M74.34,296.29h134.1s-1-16.22-25.83-16.22c0,0-6.29-20.2-31.79-20.2-12,0-19.53,2-28.8,9.93C122,269.8,74.34,264.1,74.34,296.29Z" transform="translate(3.75 -135.44)"/><path class="cls-4" d="M1028.76,403c-11,5.95-28.71,5.95-39.67,0l-39-21.21c-11-5.95-28.71-5.95-39.67,0l-141.58,77c-11,6-28.72,6-39.67,0l-60.77-33c-10.95-6-28.71-6-39.66,0l-39.28,21.35c-11,6-28.72,6-39.67,0L355,341.21c-11-5.95-28.71-5.95-39.67,0l-62.63,34.05c-5.26,2.86-12.4,4.47-19.84,4.47L46.28,203.28c-16.79-11-49.59-4.51-49.59,9.76V543.69h0v15.42l1440,2V454.81Z" transform="translate(3.75 -135.44)"/><path class="cls-4" d="M647.52,567.22c-6.63,0-8.68,1.29-13.73,6.23s-9.42,2.13-11.57-.07c-2.34-2.4-4.67-6.33-11.31-6.37s-8.67,1.28-13.73,6.23-9.42,2.13-11.57-.07c-2.34-2.4-4.67-6.33-11.31-6.37h.51c-6.63,0-8.68,1.28-13.74,6.22s-9.42,2.13-11.56-.06c-2.34-2.4-4.67-6.34-11.31-6.37s-8.68,1.28-13.73,6.22-9.42,2.13-11.57-.07c-2.34-2.4-4.67-6.33-11.31-6.37H502c-6.64,0-8.68,1.29-13.74,6.23s-9.42,2.13-11.56-.07c-2.34-2.4-4.68-6.33-11.31-6.37s-8.68,1.28-13.74,6.23-9.42,2.13-11.56-.07c-2.34-2.4-4.17-6.33-10.81-6.37h0V558H647.55Z" transform="translate(3.75 -135.44)"/><path class="cls-4" d="M792.33,566.8h.5c-6.64,0-8.69,1.28-13.76,6.22s-9.43,2.13-11.58-.06c-2.34-2.4-4.68-6.34-11.32-6.37s-8.7,1.28-13.76,6.22-9.44,2.13-11.58-.07c-2.35-2.4-4.69-6.33-11.33-6.37h.41c-6.65,0-8.69,1.28-13.76,6.23s-9.43,2.13-11.58-.07c-2.34-2.4-4.68-6.33-11.33-6.37s-8.69,1.28-13.76,6.22-9.43,2.13-11.58-.06c-2.34-2.4-4.2-5-10.85-5.09l0-9.23H791.52" transform="translate(3.75 -135.44)"/><path class="cls-5" d="M1437.45,570.22c-6.65,0-8.7,1.29-13.76,6.23s-9.44,2.13-11.58-.07c-2.35-2.4-4.68-6.33-11.33-6.37s-8.69,1.28-13.76,6.23-9.44,2.13-11.58-.07c-2.35-2.4-4.68-6.33-11.33-6.37h.51c-6.65,0-8.69,1.28-13.76,6.22s-9.44,2.13-11.58-.06c-2.35-2.4-4.68-6.34-11.33-6.37s-8.69,1.28-13.76,6.22-9.44,2.13-11.58-.07c-2.34-2.4-4.68-6.33-11.33-6.37h.42c-6.65,0-8.7,1.28-13.77,6.23s-9.43,2.13-11.57-.07c-2.35-2.4-4.69-6.33-11.33-6.37s-8.7,1.28-13.76,6.22-9.44,2.13-11.58-.06c-2.35-2.4-4.18-6.33-10.83-6.37h0V561h218.6Z" transform="translate(3.75 -135.44)"/><path class="cls-5" d="M1219.89,570.22c-6.64,0-8.69,1.29-13.76,6.23s-9.43,2.13-11.58-.07c-2.34-2.4-4.68-6.33-11.33-6.37s-8.69,1.28-13.76,6.23-9.43,2.13-11.58-.07c-2.34-2.4-4.68-6.33-11.32-6.37h.5c-6.64,0-8.69,1.28-13.76,6.22s-9.43,2.13-11.58-.06c-2.34-2.4-4.68-6.34-11.32-6.37s-8.7,1.28-13.76,6.22-9.44,2.13-11.58-.07c-2.35-2.4-4.69-6.33-11.33-6.37h.41c-6.65,0-8.69,1.28-13.76,6.23s-9.43,2.13-11.58-.07c-2.34-2.4-4.68-6.33-11.33-6.37s-8.69,1.28-13.76,6.22-9.43,2.13-11.58-.06c-2.34-2.4-4.18-6.33-10.82-6.37l10.83-9,207.78,1Z" transform="translate(3.75 -135.44)"/><path class="cls-4" d="M1012.16,560.12a11,11,0,0,1-7.16,10.13c-2.31.9-4.26,2.53-7.15,5.24-5.26,4.94-9.8,2.13-12-.07-2.44-2.4-4.87-6.33-11.77-6.37s-9,1.28-14.29,6.22-9.79,2.13-12-.07c-2.43-2.4-4.86-6.33-11.76-6.37h.52c-6.9,0-9,1.28-14.28,6.22s-9.8,2.13-12-.07c-2.43-2.4-4.86-6.33-11.76-6.37s-9,1.28-14.29,6.22-9.8,2.13-12-.07c-2.44-2.4-4.86-6.33-11.77-6.37h.43c-6.9,0-9,1.28-14.28,6.22s-9.8,2.13-12-.07c-2.43-2.4-4.86-6.33-11.76-6.37s-9,1.28-14.29,6.22-9.8,2.13-12-.07c-2.44-2.4-4.34-6.33-11.25-6.37v-8l227,0Z" transform="translate(3.75 -135.44)"/><path class="cls-4" d="M1443.75,298.33H1206.49c-28.11,0-55.08,7.28-75,20.23h0c-19.88,12.95-31,30.52-31,48.83V561.61h343.26Z" transform="translate(3.75 -135.44)"/><path class="cls-4" d="M1238.56,176.48h60.82s-.45-7.35-11.72-7.35c0,0-2.85-9.16-14.41-9.16-5.43,0-8.86.9-13.07,4.5C1260.18,164.47,1238.56,161.89,1238.56,176.48Z" transform="translate(3.75 -135.44)"/><path class="cls-3" d="M171.56,161.28H78.81s.68-11.51,17.86-11.51c0,0,4.35-14.33,22-14.33,8.28,0,13.52,1.41,19.93,7.05C138.58,142.49,171.56,138.45,171.56,161.28Z" transform="translate(3.75 -135.44)"/><path class="cls-5" d="M214.84,565.94c-6.65,0-8.7,1.28-13.76,6.23s-9.44,2.12-11.58-.07c-2.35-2.4-4.68-6.33-11.33-6.37S169.48,567,164.41,572s-9.44,2.13-11.58-.06c-2.35-2.4-4.68-6.34-11.33-6.37l.51,0c-6.65,0-8.69,1.29-13.76,6.23s-9.44,2.13-11.58-.07c-2.35-2.4-4.68-6.33-11.33-6.37s-8.69,1.29-13.76,6.23-9.44,2.13-11.58-.07c-2.34-2.4-4.68-6.33-11.33-6.37h.42c-6.65,0-8.7,1.28-13.76,6.22s-9.44,2.13-11.58-.06c-2.35-2.4-4.69-6.34-11.33-6.37s-8.7,1.28-13.76,6.22S9.22,573.22,7.08,571c-2.35-2.41-4.18-6.34-10.83-6.38h0v-7.93h218.6Z" transform="translate(3.75 -135.44)"/><path class="cls-5" d="M429.25,565.94c-6.66,0-8.71,1.29-13.78,6.23s-9.45,2.13-11.6-.07c-2.35-2.4-4.69-6.33-11.34-6.37S383.82,567,378.74,572s-9.45,2.12-11.59-.07c-2.35-2.4-4.69-6.33-11.35-6.37h.51c-6.66,0-8.71,1.28-13.78,6.22s-9.45,2.13-11.6-.07c-2.35-2.4-4.69-6.33-11.35-6.37s-8.7,1.29-13.78,6.23-9.45,2.13-11.59-.07c-2.35-2.4-4.69-6.33-11.35-6.37h.41c-6.65,0-8.7,1.28-13.78,6.22s-9.45,2.13-11.59-.06c-2.35-2.4-4.69-6.33-11.35-6.37s-8.71,1.28-13.78,6.22-9.45,2.13-11.6-.06c-2.35-2.41-4.18-6.34-10.84-6.38h0v-7.93H429.27Z" transform="translate(3.75 -135.44)"/><path class="cls-5" d="M525.12,573c-5.08,4.94-9.45,2.13-11.6-.07-2.35-2.4-4.69-6.33-11.35-6.37s-8.7,1.28-13.78,6.23-9.45,2.13-11.59-.07c-2.35-2.4-4.69-6.33-11.35-6.37H466c-6.66,0-8.71,1.28-13.78,6.22s-9.45,2.13-11.6-.06c-2.35-2.4-4.69-6.34-11.35-6.37s-8.7,1.28-13.78,6.22-9.45,2.13-11.6-.07c-2.34-2.4-4.68-6.33-11.34-6.37h.41c-6.65,0-8.7,1.28-13.78,6.23s-9.45,2.13-11.6-.07c-2.34-2.4-4.68-6.33-11.34-6.37s-8.71,1.28-13.78,6.22-9.45,2.13-11.6-.06c-2.35-2.4-4.19-6.34-10.84-6.37v-8H519.86S530.19,568,525.12,573Z" transform="translate(3.75 -135.44)"/><path class="cls-5" d="M-3.31,509.9H423.16c3.7,0,6.7,3.93,6.7,8.78h0c0,4.85,3,8.78,6.7,8.78H488a30.6,30.6,0,0,1,13.43,3.15A33.32,33.32,0,0,1,518,549.31l4.52,12.3H-3.31Z" transform="translate(3.75 -135.44)"/></g><g class="cls-6"><path class="cls-3" d="M1172.43,477.77l72.12.05,58.78-38.47h25l29.75-23.54,29.75,23.54,53.2-44,33.38,26.27,24.1-13.29,18.12,13.75V561.4H1089.91l.06-2.35a83.2,83.2,0,0,1,82.46-81.28Z" transform="translate(3.75 -135.44)"/></g><line class="cls-7" x1="33.29" y1="134.01" x2="33.29" y2="370.3"/><line class="cls-7" x1="50.96" y1="180.53" x2="50.96" y2="372.3"/><path class="cls-8" d="M31.5,426.9h0a18.35,18.35,0,0,0,18.3-18.29V297.66a18.35,18.35,0,0,0-18.3-18.3h0a18.35,18.35,0,0,0-18.29,18.3v111A18.34,18.34,0,0,0,31.5,426.9Z" transform="translate(3.75 -135.44)"/><path class="cls-3" d="M46,415.85h0A10.21,10.21,0,0,0,56.2,405.67V343.93A10.21,10.21,0,0,0,46,333.75h0a10.21,10.21,0,0,0-10.18,10.18v61.74A10.21,10.21,0,0,0,46,415.85Z" transform="translate(3.75 -135.44)"/><line class="cls-7" x1="290.03" y1="193.2" x2="290.03" y2="384.98"/><path class="cls-8" d="M285.09,434.82h0a10.21,10.21,0,0,0,10.18-10.18V362.9a10.21,10.21,0,0,0-10.18-10.18h0a10.21,10.21,0,0,0-10.18,10.18v61.74A10.21,10.21,0,0,0,285.09,434.82Z" transform="translate(3.75 -135.44)"/><path class="cls-8" d="M172.28,467.52l.13-29.64,61.25-60.83-1.72-1.73-17.59,17.45-19.83-20,13.11-13a1.22,1.22,0,0,0-1.72-1.73L192.8,371l-12.39-12.49a1.22,1.22,0,0,0-1.73,1.71l12.87,13a1.22,1.22,0,0,0,.28.49,1.24,1.24,0,0,0,.48.28l20.32,20.49-48.33,48-32.57-32.95,33-32.69a1.22,1.22,0,0,0-1.71-1.73l-12.09,12-28.38-28.61a1.22,1.22,0,1,0-1.73,1.72l28.38,28.61-19.14,19L93,370.38a1.22,1.22,0,1,0-1.73,1.71l20.11,20.35-14.66-.06a1.22,1.22,0,1,0,0,2.44l17.09.07,42.67,43.17-.35,85.84,15.92.07.22-53.58" transform="translate(3.75 -135.44)"/><path class="cls-9" d="M236.63,358.84h-5.7c0-.18,0-.35,0-.53a23.56,23.56,0,0,0-23.56-23.57l-82.61-.27A23.57,23.57,0,0,0,101.2,358c0,.19,0,.38,0,.57l-16.27,0a23.57,23.57,0,1,0,0,47.13h0a23.56,23.56,0,0,0,23.55,23L212,429a23.55,23.55,0,0,0,23.55-23h1.1a23.57,23.57,0,0,0,0-47.13Z" transform="translate(3.75 -135.44)"/><circle class="cls-10" cx="123.85" cy="296.51" r="45.04"/><circle class="cls-3" cx="228.86" cy="378.97" r="33.56" transform="translate(-188.58 379.91) rotate(-76.81)"/><line class="cls-11" x1="123.85" y1="303.29" x2="123.85" y2="386.79"/><rect class="cls-12" x="230.52" y="247.45" width="4.17" height="145.13"/><path class="cls-12" d="M228,494.12a48.45,48.45,0,0,1-24.59-27.89l4-1.17-2,.58,2-.59c0,.17,5.23,17.13,22.38,25.3Z" transform="translate(3.75 -135.44)"/><rect class="cls-12" x="215.87" y="436.09" width="53.68" height="4.17" transform="translate(-254.12 284.43) rotate(-58.92)"/><circle class="cls-3" cx="123.85" cy="296.51" r="45.04"/><rect class="cls-13" x="121.76" y="303.29" width="4.17" height="83.5"/><rect class="cls-8" x="1085.39" y="309.45" width="53.18" height="114.58"/><rect class="cls-9" x="1085.39" y="309.45" width="24.49" height="114.58"/><path class="cls-3" d="M990.54,466.69h231.64c-1.49-26.73-21.53-50.13-51.42-64.09H1042C1012.07,416.56,992,440,990.54,466.69Z" transform="translate(3.75 -135.44)"/><g class="cls-14"><path class="cls-4" d="M1440.85,585.88H960.42l-5.28-5.28V441.15l5.33-5.28,35.21.32c18.45.19,23.39-2.92,38.23-17.05,13.59-12.94,29.53-12.83,42.64.29,1.13,1.13,2.25,2.36,3.42,3.64,6.14,6.73,12.49,13.68,27.39,13.77,18.48.1,23.39-2.92,38.24-17.06,13.59-12.93,29.53-12.82,42.64.3,1.13,1.12,2.25,2.35,3.42,3.64,6.14,6.72,12.49,13.68,27.39,13.77v0c17.21-.08,22.27-3.32,36.69-17.06,13.59-12.93,29.53-12.82,42.64.3,1.13,1.12,2.25,2.35,3.42,3.63,6.14,6.73,12.49,13.69,27.39,13.78,18.41.1,23.39-2.92,38.24-17.06,13.59-12.93,29.53-12.82,42.64.29,1.13,1.13,2.25,2.36,3.42,3.64,6.14,6.73,12.49,13.68,27.39,13.77l5.25,5.28V580.6ZM965.7,575.33h469.87V449.09c-16-1.67-23.91-10.4-29.87-16.93-1.06-1.16-2.08-2.27-3.09-3.29-9.07-9.07-18.45-9.11-27.9-.11-15.46,14.71-22.94,20-44.78,20h-.8c-19.53-.11-28.54-10-35.13-17.21-1-1.16-2.07-2.27-3.08-3.29-9.07-9.06-18.45-9.1-27.9-.11-15.64,14.89-23.08,20.07-45.58,20V448c-18.46-.61-27.17-10.16-33.57-17.18-1.06-1.16-2.08-2.27-3.09-3.29-9.07-9.06-18.45-9.1-27.9-.11-15.64,14.89-23.07,20.1-45.58,20-19.53-.12-28.54-10-35.13-17.21-1.05-1.16-2.07-2.28-3.08-3.29-9.07-9.07-18.45-9.11-27.9-.12-15.64,14.9-23.08,20.05-45.58,20h0l-29.89-.28Z" transform="translate(3.75 -135.44)"/></g><path class="cls-4" d="M1060.34,454.5a3.1,3.1,0,1,1-4.39,0A3.11,3.11,0,0,1,1060.34,454.5Z" transform="translate(3.75 -135.44)"/><circle class="cls-4" cx="1061.89" cy="303.87" r="5.58"/><path class="cls-4" d="M1066.32,454.48a5.58,5.58,0,1,1,5.58,5.58A5.58,5.58,0,0,1,1066.32,454.48Z" transform="translate(3.75 -135.44)"/><line class="cls-1" x1="1371.81" y1="163.02" x2="1428.39" y2="163.02"/><path class="cls-8" d="M1335.41,298.46a29.86,29.86,0,0,1,3.76-14.59,3,3,0,0,0-1.22-.27c-7.85,0-14.21,6.65-14.21,14.86s6.36,14.87,14.21,14.87a3,3,0,0,0,1.22-.28A29.8,29.8,0,0,1,1335.41,298.46Z" transform="translate(3.75 -135.44)"/><path class="cls-15" d="M1290.32,289.81a.67.67,0,0,1,0,.1A.67.67,0,0,0,1290.32,289.81Z" transform="translate(3.75 -135.44)"/><path class="cls-16" d="M1309.38,245.19a2,2,0,0,1,1.74,1l3.16,5.54,27.19,2.35,10.89,18.77a2,2,0,1,1-3.46,2l-9.84-17-27.21-2.36-4.2-7.35a2,2,0,0,1,.74-2.73A2,2,0,0,1,1309.38,245.19Z" transform="translate(3.75 -135.44)"/><path class="cls-16" d="M1380.92,224.43a1.85,1.85,0,0,1,.56.08,2,2,0,0,1,1.35,2.48l-2.42,8.27L1363.85,255v17.07a2,2,0,1,1-4,0V253.59l17-20.26,2.19-7.46A2,2,0,0,1,1380.92,224.43Z" transform="translate(3.75 -135.44)"/><path class="cls-16" d="M1426.74,247.27a2,2,0,0,1,1.57.76,2,2,0,0,1-.33,2.81l-9.06,7.14h-28.57l-13.67,15.16a2,2,0,0,1-3-2.67L1388.57,254h29l8-6.29A2,2,0,0,1,1426.74,247.27Z" transform="translate(3.75 -135.44)"/><path class="cls-16" d="M1350.63,322.32a2,2,0,0,1,1,.27,2,2,0,0,1,.73,2.73l-10.89,18.77-27.19,2.36-3.16,5.53a2,2,0,1,1-3.47-2l4.2-7.35,27.21-2.36,9.84-17A2,2,0,0,1,1350.63,322.32Z" transform="translate(3.75 -135.44)"/><path class="cls-16" d="M1361.85,324.07a2,2,0,0,1,2,2v17.06l16.56,19.79,2.42,8.26a2,2,0,1,1-3.83,1.13l-2.19-7.47-17-20.26V326.07A2,2,0,0,1,1361.85,324.07Z" transform="translate(3.75 -135.44)"/><path class="cls-16" d="M1375.19,324.37a2,2,0,0,1,1.49.66l13.67,15.16h28.57l9.06,7.14a2,2,0,0,1-2.48,3.14l-8-6.28h-29l-14.86-16.48a2,2,0,0,1,.15-2.82A2,2,0,0,1,1375.19,324.37Z" transform="translate(3.75 -135.44)"/><path class="cls-3" d="M1361.52,269c26.36,0,68.27,1.57,68.27,29.43s-41.91,29.43-68.27,29.43V313.63c0-9.94,7.85-8,7.85-15.17s-7.85-5.23-7.85-14.65Z" transform="translate(3.75 -135.44)"/><path class="cls-9" d="M1361.52,313.63c0-9.94,7.85-8,7.85-15.17s-7.85-5.23-7.85-14.65V269.07c-.27,0-.53,0-.8,0-14.48,0-26.22,13.18-26.22,29.43s11.74,29.43,26.22,29.43c.27,0,.53,0,.8-.05Z" transform="translate(3.75 -135.44)"/><path class="cls-8" d="M1325.34,314a17.33,17.33,0,0,1-12.76,4.65c-6.58-.14-10.44-11.33-10.44-11.33s.89,20.88-10.59,18.83c-8.91-1.59-8.25-14.33-8.17-15.54-.08,1-1,9.38-8,8.21-7.43-1.24-10-11.17-10-11.17a20.36,20.36,0,0,0,19.84,24.62H1314A20.28,20.28,0,0,0,1333.59,317,14.66,14.66,0,0,1,1325.34,314Z" transform="translate(3.75 -135.44)"/><path class="cls-8" d="M1264.46,285.44a19.86,19.86,0,0,0,.46,4.32s2.55-9.93,10-11.18c7-1.16,7.87,7.22,7.95,8.21-.09-1.21-.75-13.94,8.17-15.54,11.47-2,10.59,18.83,10.59,18.83s3.85-11.18,10.43-11.32a17.37,17.37,0,0,1,12.64,4.53,14.68,14.68,0,0,1,8.31-3.09,20.27,20.27,0,0,0-19.58-15.06h-28.65A20.3,20.3,0,0,0,1264.46,285.44Z" transform="translate(3.75 -135.44)"/><rect class="cls-9" x="1237.19" y="472.07" width="40.07" height="86.33" transform="translate(2518.2 895.03) rotate(-180)"/><rect class="cls-17" x="1258.81" y="472.07" width="18.46" height="86.33" transform="translate(2539.82 895.03) rotate(-180)"/><path class="cls-8" d="M1345.91,488.5H1171.36c1.12-20.14,16.23-37.78,38.74-48.3h97.06C1329.68,450.72,1344.79,468.36,1345.91,488.5Z" transform="translate(3.75 -135.44)"/><g class="cls-18"><path class="cls-4" d="M1002.62,574.33V471.46l4-4c11.23-.07,16-5.31,20.63-10.38.89-1,1.74-1.89,2.58-2.74,9.89-9.88,21.9-10,32.13-.22,11.19,10.65,14.94,12.93,28.82,12.85,11.23-.06,16-5.31,20.64-10.38.88-1,1.73-1.89,2.57-2.74,9.89-9.88,21.9-10,32.13-.22,10.87,10.35,14.69,12.8,27.65,12.85v0c11.23-.07,16-5.31,20.64-10.38.88-1,1.73-1.89,2.58-2.74,9.88-9.88,21.89-10,32.13-.22,11.18,10.65,14.89,12.93,28.81,12.85,11.23-.06,16-5.3,20.64-10.37.88-1,1.73-1.9,2.57-2.74,9.89-9.89,21.9-10,32.14-.23,11.18,10.65,14.9,13,28.8,12.85l26.54-.24,4,4V574.33l-4,4h-362Zm362-101.07-22.53.21h0c-17,.06-22.56-3.82-34.35-15.05-7.12-6.77-14.19-6.74-21,.09-.77.77-1.53,1.6-2.33,2.48-5,5.43-11.75,12.88-26.46,13-17,.1-22.56-3.83-34.35-15-7.12-6.78-14.19-6.75-21,.09-.77.76-1.53,1.6-2.33,2.47-4.82,5.29-11.39,12.49-25.29,12.95v.05c-17,.07-22.56-3.82-34.35-15.05-7.12-6.77-14.19-6.74-21,.09-.77.76-1.53,1.6-2.33,2.48-5,5.43-11.75,12.88-26.46,13h-.61c-16.46,0-22.09-4-33.74-15-7.12-6.78-14.19-6.75-21,.08-.77.77-1.53,1.61-2.33,2.48-4.49,4.93-10.49,11.5-22.51,12.76v95.12h354.06Z" transform="translate(3.75 -135.44)"/></g><path class="cls-4" d="M1293.31,479.31a2.34,2.34,0,1,0,3.31,0A2.35,2.35,0,0,0,1293.31,479.31Z" transform="translate(3.75 -135.44)"/><circle class="cls-4" cx="1298.72" cy="332.42" r="4.21"/><path class="cls-4" d="M1288.81,479.29a4.21,4.21,0,1,0-4.21,4.21A4.21,4.21,0,0,0,1288.81,479.29Z" transform="translate(3.75 -135.44)"/></g></g></svg>