<svg xmlns="http://www.w3.org/2000/svg" xmlns:xlink="http://www.w3.org/1999/xlink" viewBox="0 0 1519.28 529.08"><defs><style>.cls-1,.cls-10{fill:none;}.cls-2{clip-path:url(#clip-path);}.cls-3{fill:#f7f7f7;}.cls-4{fill:#fdf6e6;}.cls-5{fill:#a09f9f;}.cls-6{clip-path:url(#clip-path-2);}.cls-7{fill:#c4d65c;}.cls-8{fill:#606060;}.cls-9{fill:#b4ce53;}.cls-10{stroke:#213039;stroke-miterlimit:10;stroke-width:5px;}</style><clipPath id="clip-path" transform="translate(75.53 -50.11)"><rect class="cls-1" width="1440" height="579.19"/></clipPath><clipPath id="clip-path-2" transform="translate(75.53 -50.11)"><polygon class="cls-1" points="0 341.28 436.26 341.28 436.59 511.01 0 510.93 0 341.28"/></clipPath></defs><g id="Capa_2" data-name="Capa 2"><g id="Arte"><g class="cls-2"><path class="cls-3" d="M99.5,149.5H233.6s-1-16.23-25.83-16.23c0,0-6.29-20.2-31.78-20.2-12,0-19.54,2-28.81,9.94C147.18,123,99.5,117.31,99.5,149.5Z" transform="translate(75.53 -50.11)"/><path class="cls-3" d="M1028.76,403c-11,5.95-28.71,5.95-39.67,0l-39-21.21c-11-5.95-28.71-5.95-39.67,0l-141.58,77c-11,6-28.72,6-39.67,0l-60.77-33c-10.95-6-28.71-6-39.66,0l-39.28,21.35c-11,6-28.72,6-39.67,0L355,341.21c-11-5.95-28.71-5.95-39.67,0l-62.63,34.05c-5.26,2.86-12.4,4.47-19.84,4.47L46.28,203.28c-16.79-11-49.59-4.51-49.59,9.76V543.69h0v15.42l1440,2V454.81Z" transform="translate(75.53 -50.11)"/><path class="cls-3" d="M647.52,567.22c-6.63,0-8.67,1.29-13.73,6.23s-9.42,2.13-11.57-.07c-2.34-2.4-4.67-6.33-11.31-6.37s-8.67,1.28-13.73,6.23-9.42,2.13-11.56-.07c-2.35-2.4-4.68-6.33-11.32-6.37h.51c-6.63,0-8.68,1.28-13.74,6.22s-9.42,2.13-11.56-.06c-2.34-2.4-4.67-6.34-11.31-6.37s-8.67,1.28-13.73,6.22-9.42,2.13-11.57-.07c-2.34-2.4-4.67-6.33-11.31-6.37H502c-6.64,0-8.68,1.29-13.74,6.23s-9.42,2.13-11.56-.07c-2.34-2.4-4.67-6.33-11.31-6.37s-8.68,1.28-13.74,6.23-9.42,2.13-11.56-.07c-2.34-2.4-4.17-6.33-10.81-6.37h0V558H647.55Z" transform="translate(75.53 -50.11)"/><path class="cls-3" d="M792.33,566.8h.5c-6.64,0-8.69,1.28-13.76,6.22s-9.43,2.13-11.58-.06c-2.34-2.4-4.68-6.34-11.32-6.37s-8.7,1.28-13.76,6.22-9.44,2.13-11.58-.07c-2.35-2.4-4.69-6.33-11.33-6.37h.41c-6.65,0-8.69,1.28-13.76,6.23s-9.43,2.13-11.58-.07c-2.34-2.4-4.68-6.33-11.33-6.37s-8.69,1.28-13.76,6.22-9.43,2.13-11.58-.06c-2.34-2.4-4.2-5-10.85-5.09l0-9.23H791.52" transform="translate(75.53 -50.11)"/><path class="cls-4" d="M1437.45,570.22c-6.65,0-8.7,1.29-13.76,6.23s-9.44,2.13-11.58-.07c-2.35-2.4-4.68-6.33-11.33-6.37s-8.69,1.28-13.76,6.23-9.44,2.13-11.58-.07c-2.35-2.4-4.68-6.33-11.33-6.37h.51c-6.65,0-8.69,1.28-13.76,6.22s-9.44,2.13-11.58-.06c-2.35-2.4-4.68-6.34-11.33-6.37s-8.69,1.28-13.76,6.22-9.44,2.13-11.58-.07c-2.34-2.4-4.68-6.33-11.33-6.37h.42c-6.65,0-8.7,1.28-13.77,6.23s-9.43,2.13-11.57-.07c-2.35-2.4-4.69-6.33-11.33-6.37s-8.7,1.28-13.76,6.22-9.44,2.13-11.58-.06c-2.35-2.4-4.18-6.33-10.83-6.37h0V561h218.6Z" transform="translate(75.53 -50.11)"/><path class="cls-4" d="M1219.89,570.22c-6.64,0-8.69,1.29-13.76,6.23s-9.43,2.13-11.58-.07c-2.34-2.4-4.68-6.33-11.33-6.37s-8.69,1.28-13.76,6.23-9.43,2.13-11.58-.07c-2.34-2.4-4.68-6.33-11.32-6.37h.5c-6.64,0-8.69,1.28-13.76,6.22s-9.43,2.13-11.58-.06c-2.34-2.4-4.68-6.34-11.32-6.37s-8.7,1.28-13.76,6.22-9.44,2.13-11.58-.07c-2.35-2.4-4.69-6.33-11.33-6.37h.41c-6.65,0-8.69,1.28-13.76,6.23s-9.43,2.13-11.58-.07c-2.34-2.4-4.68-6.33-11.33-6.37s-8.69,1.28-13.76,6.22-9.43,2.13-11.58-.06c-2.34-2.4-4.18-6.33-10.82-6.37l10.83-9,207.78,1Z" transform="translate(75.53 -50.11)"/><path class="cls-3" d="M1012.16,560.12a11,11,0,0,1-7.16,10.13c-2.31.9-4.26,2.53-7.15,5.24-5.26,4.94-9.8,2.13-12-.07-2.44-2.4-4.87-6.33-11.77-6.37s-9,1.28-14.29,6.22-9.79,2.13-12-.07c-2.43-2.4-4.86-6.33-11.76-6.37h.52c-6.9,0-9,1.28-14.28,6.22s-9.8,2.13-12-.07c-2.43-2.4-4.86-6.33-11.76-6.37s-9,1.28-14.29,6.22-9.8,2.13-12-.07c-2.44-2.4-4.86-6.33-11.77-6.37h.43c-6.9,0-9,1.28-14.28,6.22s-9.8,2.13-12-.07c-2.43-2.4-4.86-6.33-11.76-6.37s-9,1.28-14.29,6.22-9.8,2.13-12-.07c-2.44-2.4-4.34-6.33-11.25-6.37v-8l227,0Z" transform="translate(75.53 -50.11)"/><path class="cls-4" d="M1443.75,298.33H1206.49c-28.11,0-55.08,7.28-75,20.23h0c-19.88,12.95-31,30.52-31,48.83V561.61h343.26Z" transform="translate(75.53 -50.11)"/><path class="cls-3" d="M1238.56,176.48h60.82s-.45-7.35-11.72-7.35c0,0-2.85-9.16-14.41-9.16-5.43,0-8.86.9-13.07,4.5C1260.18,164.47,1238.56,161.89,1238.56,176.48Z" transform="translate(75.53 -50.11)"/><path class="cls-3" d="M249.15,75.3H156.4s.68-11.22,17.86-11.22c0,0,4.35-14,22-14,8.27,0,13.51,1.38,19.92,6.87C216.17,57,249.15,53,249.15,75.3Z" transform="translate(75.53 -50.11)"/><path class="cls-5" d="M1076.68,559.11l57.73-162c7-20.4,24.7-33.91,44.5-33.91h62.65a45.44,45.44,0,0,0,33.61-15.32h0a45.44,45.44,0,0,1,33.62-15.33h135V559.11Z" transform="translate(75.53 -50.11)"/><path class="cls-4" d="M214.84,565.94c-6.65,0-8.7,1.28-13.76,6.23s-9.44,2.12-11.58-.07c-2.35-2.4-4.68-6.33-11.33-6.37S169.48,567,164.41,572s-9.44,2.13-11.58-.06c-2.35-2.4-4.68-6.34-11.33-6.37l.51,0c-6.65,0-8.69,1.29-13.76,6.23s-9.44,2.13-11.58-.07c-2.35-2.4-4.68-6.33-11.33-6.37s-8.69,1.29-13.76,6.23-9.44,2.13-11.58-.07c-2.34-2.4-4.68-6.33-11.33-6.37h.42c-6.65,0-8.7,1.28-13.76,6.22s-9.44,2.13-11.58-.06c-2.35-2.4-4.69-6.34-11.33-6.37s-8.7,1.28-13.76,6.22S9.22,573.22,7.08,571c-2.35-2.41-4.18-6.34-10.83-6.38h0v-7.93h218.6Z" transform="translate(75.53 -50.11)"/><path class="cls-4" d="M429.25,565.94c-6.66,0-8.7,1.29-13.78,6.23s-9.45,2.13-11.6-.07c-2.35-2.4-4.69-6.33-11.34-6.37S383.82,567,378.74,572s-9.45,2.12-11.59-.07c-2.35-2.4-4.69-6.33-11.35-6.37h.51c-6.66,0-8.71,1.28-13.78,6.22s-9.45,2.13-11.6-.07c-2.35-2.4-4.69-6.33-11.34-6.37s-8.71,1.29-13.79,6.23-9.45,2.13-11.59-.07c-2.35-2.4-4.69-6.33-11.35-6.37h.41c-6.65,0-8.7,1.28-13.78,6.22s-9.45,2.13-11.59-.06c-2.35-2.4-4.69-6.33-11.35-6.37s-8.71,1.28-13.78,6.22-9.45,2.13-11.6-.06c-2.35-2.41-4.18-6.34-10.84-6.38h0v-7.93H429.27Z" transform="translate(75.53 -50.11)"/><path class="cls-4" d="M525.12,573c-5.08,4.94-9.45,2.13-11.6-.07-2.35-2.4-4.69-6.33-11.35-6.37s-8.7,1.28-13.78,6.23-9.45,2.13-11.59-.07c-2.35-2.4-4.69-6.33-11.35-6.37H466c-6.66,0-8.71,1.28-13.78,6.22s-9.45,2.13-11.6-.06c-2.35-2.4-4.69-6.34-11.35-6.37s-8.7,1.28-13.78,6.22-9.45,2.13-11.6-.07c-2.34-2.4-4.68-6.33-11.34-6.37h.41c-6.65,0-8.7,1.28-13.78,6.23s-9.45,2.13-11.6-.07c-2.34-2.4-4.68-6.33-11.34-6.37s-8.71,1.28-13.78,6.22-9.45,2.13-11.6-.06c-2.35-2.4-4.19-6.34-10.84-6.37v-8H519.86S530.19,568,525.12,573Z" transform="translate(75.53 -50.11)"/><path class="cls-4" d="M-3.31,509.9H423.16c3.7,0,6.7,3.93,6.7,8.78h0c0,4.85,3,8.78,6.7,8.78H488a30.6,30.6,0,0,1,13.43,3.15A33.32,33.32,0,0,1,518,549.31l4.52,12.3H-3.31Z" transform="translate(75.53 -50.11)"/></g><path class="cls-4" d="M1120.44,417.88c6.65,0,8.69-1.34,13.73-6.31s9.42-2.18,11.58,0c2.36,2.39,4.72,6.31,11.36,6.31s8.69-1.34,13.73-6.31,9.42-2.18,11.58,0c2.36,2.39,4.72,6.31,11.36,6.31h-.51c6.65,0,8.69-1.33,13.73-6.3s9.42-2.19,11.58,0c2.36,2.38,4.72,6.3,11.36,6.3s8.69-1.33,13.73-6.3,9.42-2.19,11.58,0c2.36,2.38,4.71,6.3,11.36,6.3h-.41c6.65,0,8.68-1.34,13.72-6.31s9.43-2.18,11.58,0c2.36,2.39,4.72,6.31,11.37,6.31s8.68-1.34,13.72-6.31,9.42-2.18,11.58,0c2.36,2.39,4.22,6.31,10.86,6.31v9l-218.56.2Z" transform="translate(75.53 -50.11)"/><path class="cls-4" d="M1440,427l-103.74.1,0-9.23c6.65,0,8.69-1.34,13.72-6.31s9.43-2.18,11.58,0c2.36,2.39,4.72,6.31,11.37,6.31s8.68-1.34,13.72-6.31,9.43-2.18,11.58,0c2.36,2.39,4.72,6.31,11.37,6.31h-.51c6.65,0,8.69-1.33,13.72-6.3s9.43-2.19,11.58,0A65.09,65.09,0,0,0,1440,416" transform="translate(75.53 -50.11)"/><g class="cls-6"><path class="cls-5" d="M268.66,429.53l-72.12.05-58.78-38.47h-25L83,367.57,53.27,391.11l-53.2-44-33.38,26.27-24.1-13.29-18.12,13.74V513.16H351.18l-.06-2.36a83.18,83.18,0,0,0-82.46-81.27Z" transform="translate(75.53 -50.11)"/></g><path class="cls-3" d="M1172.31,469.77s-2.87,5.07.23,9.28c-2.49-2.92-7.6-4.71-11.38-1.61C1161.34,477.22,1167.25,470.27,1172.31,469.77Z" transform="translate(75.53 -50.11)"/><path class="cls-4" d="M1186.86,491.12c-2,.08-6.71,0-10.3-1.93a19.35,19.35,0,0,0,2.4-4.61c.08-.57-1.62-2.44-2.44-3.59a19.77,19.77,0,0,1,8.77-2,7.37,7.37,0,0,0,1.57,12.11Z" transform="translate(75.53 -50.11)"/><path class="cls-3" d="M1176.52,481a9.15,9.15,0,0,0-1.85,1.29c1.47,2.05,2.27,2.35,2.27,2.35h0a0,0,0,0,1,0,0l0,0a24.83,24.83,0,0,1-2.19,3.21l.22.18a9.32,9.32,0,0,0,1.63,1.1,19.35,19.35,0,0,0,2.4-4.61C1179,484,1177.34,482.14,1176.52,481Z" transform="translate(75.53 -50.11)"/><path class="cls-3" d="M1174.71,487.91l.22.18a31.82,31.82,0,0,1-4.36,5.71,3.42,3.42,0,0,0-.43,4.63c-4.78-1-11.93-9-12.12-9.25C1162.08,492.48,1168.65,495.34,1174.71,487.91Z" transform="translate(75.53 -50.11)"/><path class="cls-7" d="M1176.94,484.63h0v0l0,0a24.83,24.83,0,0,1-2.19,3.21c-6.06,7.43-12.63,4.57-16.69,1.27h0a19.22,19.22,0,0,1-3.83-4.06c-.17-.29,6.39-7.21,7-7.68h0c3.78-3.1,8.89-1.31,11.38,1.61l0,0a4.39,4.39,0,0,0,.28.36,6.65,6.65,0,0,1,.45.68c.5.87,1,1.58,1.37,2.16C1176.14,484.33,1176.94,484.63,1176.94,484.63Zm-2.92.81c.36-1.05-3.35-7-8.33-7-3.16,0-4.68,2.48-6.61,3.66-3.77,2.3.19,8.4,7.16,8.61A7.68,7.68,0,0,0,1174,485.44Z" transform="translate(75.53 -50.11)"/><path class="cls-8" d="M1176.94,484.63h0v0l0,0a24.83,24.83,0,0,1-2.19,3.21c-6.06,7.43-12.63,4.57-16.69,1.27h0a19.22,19.22,0,0,1-3.83-4.06c-.17-.29,6.39-7.21,7-7.68h0c3.78-3.1,8.89-1.31,11.38,1.61l0,0a4.39,4.39,0,0,0,.28.36,6.65,6.65,0,0,1,.45.68c.5.87,1,1.58,1.37,2.16C1176.14,484.33,1176.94,484.63,1176.94,484.63Z" transform="translate(75.53 -50.11)"/><path class="cls-9" d="M1172.57,479.08l.28.36A4.39,4.39,0,0,1,1172.57,479.08Z" transform="translate(75.53 -50.11)"/><path class="cls-4" d="M1176.92,484.67l0,0a24.83,24.83,0,0,1-2.19,3.21c-6.06,7.43-12.63,4.57-16.69,1.27h0a19.22,19.22,0,0,1-3.83-4.06l22.75-.49h0Z" transform="translate(75.53 -50.11)"/><path class="cls-4" d="M1208.47,487.87l.87,2.79a26.63,26.63,0,0,1,3.79-.27V486.7A12.38,12.38,0,0,0,1208.47,487.87Z" transform="translate(75.53 -50.11)"/><path class="cls-4" d="M1217.73,490.65a48.09,48.09,0,0,1,4.81.86l.73-4.12a54.21,54.21,0,0,0-5.54-.69" transform="translate(75.53 -50.11)"/><path class="cls-4" d="M1228.05,488.37l-1.72,4.15c1.28.37,2.55.79,3.81,1.23l3-4.05Q1230.46,488.94,1228.05,488.37Z" transform="translate(75.53 -50.11)"/><path class="cls-4" d="M1238.21,491.25l-3.8,4.08,3.22,1.28,4.49-4C1240.77,492.1,1239.47,491.66,1238.21,491.25Z" transform="translate(75.53 -50.11)"/><path class="cls-8" d="M1228.45,508c1.25-.28,2.48-.58,3.67-.88l6.79,2.36h0c-.37.25-7.3,4.7-13.83-.79h0C1226.21,508.44,1227.34,508.2,1228.45,508Z" transform="translate(75.53 -50.11)"/><path class="cls-4" d="M1244.65,503.25c3-1.06,4.79-1.82,4.79-1.82h-60c6.77,9.94,22.13,9.79,35.61,7.22,1.15-.21,2.28-.45,3.39-.69s2.48-.58,3.67-.88C1237.13,505.8,1241.53,504.36,1244.65,503.25Z" transform="translate(75.53 -50.11)"/><path class="cls-8" d="M1249.44,501.43s-1.8.76-4.79,1.82c5.54,3.28,10.91,7.73,16,7.24l-8.18-9,8.18-9.22c-4.88-.34-10.77,3.87-16.36,7.15h0c-2.19-.9-4.42-1.85-6.69-2.79l-3.22-1.28c-1.41-.55-2.84-1.08-4.27-1.58-1.26-.44-2.53-.86-3.81-1.23s-2.53-.72-3.79-1a48.09,48.09,0,0,0-4.81-.86,35.67,35.67,0,0,0-4.6-.26,26.63,26.63,0,0,0-3.79.27c-1.15.16-2.2.34-3.16.53-8.3,1.67-9.93,4.56-16.73,10.24Zm0,0h0c-.83-.31-1.68-.64-2.53-1C1247.76,500.79,1248.61,501.12,1249.44,501.43Z" transform="translate(75.53 -50.11)"/><path class="cls-4" d="M1271.17,464.3c-9-5.42,15-5.46,15-5.46s-30.91-6.54-52.27,4.71L1271,467Z" transform="translate(75.53 -50.11)"/><path class="cls-8" d="M1271.17,470.34c-9,5.42,15,5.46,15,5.46s-31.23,7.74-52.6-3.5l37.4-4.63Z" transform="translate(75.53 -50.11)"/><path class="cls-4" d="M1269.45,465.12c7.37-4.13,18.46-1.38,18.46-1.38s-6.21,2.51-7.59,3.78a31.84,31.84,0,0,0,7.59,3.83s-10.56,2.16-18.46-1.63Z" transform="translate(75.53 -50.11)"/><path class="cls-8" d="M1274.77,467.42s-29.57-15.5-49.71,1.43C1225.06,468.85,1245.06,481.55,1274.77,467.42Z" transform="translate(75.53 -50.11)"/><path class="cls-4" d="M1225.06,468.85l49.71-1.43C1245.06,481.55,1225.06,468.85,1225.06,468.85Z" transform="translate(75.53 -50.11)"/><path class="cls-8" d="M1312.12,510h0c4.51,9.88,17.35,8.65,17.35,8.65a27.29,27.29,0,0,1-8.47-8C1317.89,510.47,1314.92,510.25,1312.12,510Z" transform="translate(75.53 -50.11)"/><path class="cls-8" d="M1332.35,510.66c-2.17.07-4.27.09-6.33.07h0c3.59,5.18,10.21,5.86,10.21,5.86-3.3-3.3-3.88-5.93-3.88-5.93Z" transform="translate(75.53 -50.11)"/><path class="cls-4" d="M1289.43,501.36h0a34.14,34.14,0,0,1,17-13.14c.81-.28,1.64-.55,2.47-.77,18.08-5,40.15,3.33,54.3,10.36,2.6,1.3,4.93,2.55,6.93,3.67,4.39,2.46,7.12,4.27,7.39,4.45h-91C1286.7,505.38,1288.18,503.18,1289.43,501.36Z" transform="translate(75.53 -50.11)"/><path class="cls-8" d="M1376.27,490.18a16.35,16.35,0,0,0-5.56,2.21,56.17,56.17,0,0,0-7.55,5.42c-14.15-7-36.22-15.36-54.3-10.36-.83.22-1.66.49-2.47.77C1337.38,458.83,1376.27,490.18,1376.27,490.18Z" transform="translate(75.53 -50.11)"/><path class="cls-8" d="M1380.72,506.71c-.25-.2-2.79-2.27-6.93-5.14,8.2-3.71,18.57-4.08,26.53-3.6a92.8,92.8,0,0,1,12.24,1.52l-13.59,9,11.73,10.32a71.39,71.39,0,0,1-12.45-.91c-7.36-1.14-16.84-3.68-25.14-9.24,2.52-.55,5.07-1.2,7.63-1.93Z" transform="translate(75.53 -50.11)"/><path class="cls-4" d="M93.13,416.08c10,8.73,13.35,21.35,13.35,21.35s-13-1.54-23-10.27-13.35-21.35-13.35-21.35S83.1,407.35,93.13,416.08Z" transform="translate(75.53 -50.11)"/><path class="cls-8" d="M151,383.62a44.64,44.64,0,0,0-89.28,0Z" transform="translate(75.53 -50.11)"/><path class="cls-4" d="M134.88,383.62a28.54,28.54,0,0,0-57.08,0Z" transform="translate(75.53 -50.11)"/><path class="cls-4" d="M120.34,451.06a52.6,52.6,0,0,0-14,20.61,52.67,52.67,0,0,0,22.35-11,52.64,52.64,0,0,0,14-20.61A52.61,52.61,0,0,0,120.34,451.06Z" transform="translate(75.53 -50.11)"/><line class="cls-10" x1="182.01" y1="333.51" x2="182.01" y2="460.9"/><line class="cls-10" x1="133.09" y1="333.51" x2="230.66" y2="333.51"/></g></g></svg>