<svg xmlns="http://www.w3.org/2000/svg" xmlns:xlink="http://www.w3.org/1999/xlink" viewBox="0 0 1519.28 529.08"><defs><style>.cls-1,.cls-6{fill:none;}.cls-2{clip-path:url(#clip-path);}.cls-3{fill:#f7f7f7;}.cls-4{fill:#fdf6e6;}.cls-5{fill:#a09f9f;}.cls-6{stroke:#606060;stroke-miterlimit:10;stroke-width:2px;}.cls-7{fill:#606060;}.cls-8{clip-path:url(#clip-path-2);}.cls-9{fill:#444;}.cls-10{fill:#6b6a6a;}</style><clipPath id="clip-path" transform="translate(75.53 -50.11)"><rect class="cls-1" width="1440" height="579.19"/></clipPath><clipPath id="clip-path-2" transform="translate(75.53 -50.11)"><polygon class="cls-1" points="0 341.28 436.26 341.28 436.59 511.01 0 510.93 0 341.28"/></clipPath></defs><g id="Capa_2" data-name="Capa 2"><g id="Arte"><g class="cls-2"><path class="cls-3" d="M99.5,149.5H233.6s-1-16.23-25.83-16.23c0,0-6.29-20.2-31.78-20.2-12,0-19.54,2-28.81,9.94C147.18,123,99.5,117.31,99.5,149.5Z" transform="translate(75.53 -50.11)"/><path class="cls-3" d="M1028.76,403c-11,5.95-28.71,5.95-39.67,0l-39-21.21c-11-5.95-28.71-5.95-39.67,0l-141.58,77c-11,6-28.72,6-39.67,0l-60.77-33c-10.95-6-28.71-6-39.66,0l-39.28,21.35c-11,6-28.72,6-39.67,0L355,341.21c-11-5.95-28.71-5.95-39.67,0l-62.63,34.05c-5.26,2.86-12.4,4.47-19.84,4.47L46.28,203.28c-16.79-11-49.59-4.51-49.59,9.76V543.69h0v15.42l1440,2V454.81Z" transform="translate(75.53 -50.11)"/><path class="cls-3" d="M647.52,567.22c-6.63,0-8.67,1.29-13.73,6.23s-9.42,2.13-11.57-.07c-2.34-2.4-4.67-6.33-11.31-6.37s-8.67,1.28-13.73,6.23-9.42,2.13-11.56-.07c-2.35-2.4-4.68-6.33-11.32-6.37h.51c-6.63,0-8.68,1.28-13.74,6.22s-9.42,2.13-11.56-.06c-2.34-2.4-4.67-6.34-11.31-6.37s-8.67,1.28-13.73,6.22-9.42,2.13-11.57-.07c-2.34-2.4-4.67-6.33-11.31-6.37H502c-6.64,0-8.68,1.29-13.74,6.23s-9.42,2.13-11.56-.07c-2.34-2.4-4.67-6.33-11.31-6.37s-8.68,1.28-13.74,6.23-9.42,2.13-11.56-.07c-2.34-2.4-4.17-6.33-10.81-6.37h0V558H647.55Z" transform="translate(75.53 -50.11)"/><path class="cls-3" d="M792.33,566.8h.5c-6.64,0-8.69,1.28-13.76,6.22s-9.43,2.13-11.58-.06c-2.34-2.4-4.68-6.34-11.32-6.37s-8.7,1.28-13.76,6.22-9.44,2.13-11.58-.07c-2.35-2.4-4.69-6.33-11.33-6.37h.41c-6.65,0-8.69,1.28-13.76,6.23s-9.43,2.13-11.58-.07c-2.34-2.4-4.68-6.33-11.33-6.37s-8.69,1.28-13.76,6.22-9.43,2.13-11.58-.06c-2.34-2.4-4.2-5-10.85-5.09l0-9.23H791.52" transform="translate(75.53 -50.11)"/><path class="cls-4" d="M1437.45,570.22c-6.65,0-8.7,1.29-13.76,6.23s-9.44,2.13-11.58-.07c-2.35-2.4-4.68-6.33-11.33-6.37s-8.69,1.28-13.76,6.23-9.44,2.13-11.58-.07c-2.35-2.4-4.68-6.33-11.33-6.37h.51c-6.65,0-8.69,1.28-13.76,6.22s-9.44,2.13-11.58-.06c-2.35-2.4-4.68-6.34-11.33-6.37s-8.69,1.28-13.76,6.22-9.44,2.13-11.58-.07c-2.34-2.4-4.68-6.33-11.33-6.37h.42c-6.65,0-8.7,1.28-13.77,6.23s-9.43,2.13-11.57-.07c-2.35-2.4-4.69-6.33-11.33-6.37s-8.7,1.28-13.76,6.22-9.44,2.13-11.58-.06c-2.35-2.4-4.18-6.33-10.83-6.37h0V561h218.6Z" transform="translate(75.53 -50.11)"/><path class="cls-4" d="M1219.89,570.22c-6.64,0-8.69,1.29-13.76,6.23s-9.43,2.13-11.58-.07c-2.34-2.4-4.68-6.33-11.33-6.37s-8.69,1.28-13.76,6.23-9.43,2.13-11.58-.07c-2.34-2.4-4.68-6.33-11.32-6.37h.5c-6.64,0-8.69,1.28-13.76,6.22s-9.43,2.13-11.58-.06c-2.34-2.4-4.68-6.34-11.32-6.37s-8.7,1.28-13.76,6.22-9.44,2.13-11.58-.07c-2.35-2.4-4.69-6.33-11.33-6.37h.41c-6.65,0-8.69,1.28-13.76,6.23s-9.43,2.13-11.58-.07c-2.34-2.4-4.68-6.33-11.33-6.37s-8.69,1.28-13.76,6.22-9.43,2.13-11.58-.06c-2.34-2.4-4.18-6.33-10.82-6.37l10.83-9,207.78,1Z" transform="translate(75.53 -50.11)"/><path class="cls-3" d="M1012.16,560.12a11,11,0,0,1-7.16,10.13c-2.31.9-4.26,2.53-7.15,5.24-5.26,4.94-9.8,2.13-12-.07-2.44-2.4-4.87-6.33-11.77-6.37s-9,1.28-14.29,6.22-9.79,2.13-12-.07c-2.43-2.4-4.86-6.33-11.76-6.37h.52c-6.9,0-9,1.28-14.28,6.22s-9.8,2.13-12-.07c-2.43-2.4-4.86-6.33-11.76-6.37s-9,1.28-14.29,6.22-9.8,2.13-12-.07c-2.44-2.4-4.86-6.33-11.77-6.37h.43c-6.9,0-9,1.28-14.28,6.22s-9.8,2.13-12-.07c-2.43-2.4-4.86-6.33-11.76-6.37s-9,1.28-14.29,6.22-9.8,2.13-12-.07c-2.44-2.4-4.34-6.33-11.25-6.37v-8l227,0Z" transform="translate(75.53 -50.11)"/><path class="cls-4" d="M1443.75,298.33H1206.49c-28.11,0-55.08,7.28-75,20.23h0c-19.88,12.95-31,30.52-31,48.83V561.61h343.26Z" transform="translate(75.53 -50.11)"/><path class="cls-5" d="M1170.34,254.56l39,3.65c3,.29,4.87-.14,8.94,1.64a18.12,18.12,0,0,1,6.64,5.7,18.66,18.66,0,0,1-15,30,18.46,18.46,0,0,1-2.36-.17l0,.25a18.44,18.44,0,0,1,.43,4.09,18.73,18.73,0,0,1-18.82,18.54c-9.41-.07-17.34-6.36-18.39-16.27v-.13l-.12-8.52Z" transform="translate(75.53 -50.11)"/><path class="cls-6" d="M1198.94,258.56l9.82,36.72a.3.3,0,0,1-.51.28l-37-40" transform="translate(75.53 -50.11)"/><line class="cls-6" x1="1247.98" y1="232.33" x2="1283.21" y2="245.8"/><path class="cls-3" d="M1181.17,269l15.48,17.17a2.37,2.37,0,0,0,3.34.18h0a2.38,2.38,0,0,0,.17-3.34l-15.48-17.17a2.37,2.37,0,0,0-3.34-.18h0A2.38,2.38,0,0,0,1181.17,269Z" transform="translate(75.53 -50.11)"/><path class="cls-7" d="M1216.25,363.26v-57.9a8.87,8.87,0,0,0-8.86-8.85H1207a.92.92,0,0,1-1-.93h0a.94.94,0,0,1,.9-.93l.5,0a10.73,10.73,0,0,1,10.72,10.72v57.9Z" transform="translate(75.53 -50.11)"/><path class="cls-5" d="M1248.55,275.06l39,3.66c3,.29,4.87-.14,8.94,1.64a18.12,18.12,0,0,1,6.64,5.7,18.65,18.65,0,0,1-15,30,20.32,20.32,0,0,1-2.36-.17l-.06.24a18.46,18.46,0,0,1,.43,4.1,18.73,18.73,0,0,1-18.82,18.54c-9.41-.07-17.33-6.36-18.38-16.27a.62.62,0,0,1,0-.13l-.12-8.52Z" transform="translate(75.53 -50.11)"/><path class="cls-6" d="M1277.14,279.07l9.82,36.72a.29.29,0,0,1-.5.28l-37-40" transform="translate(75.53 -50.11)"/><line class="cls-6" x1="1326.18" y1="252.84" x2="1361.41" y2="266.31"/><path class="cls-3" d="M1259.37,289.53l15.48,17.17a2.36,2.36,0,0,0,3.34.17h0a2.35,2.35,0,0,0,.17-3.33l-15.47-17.18a2.38,2.38,0,0,0-3.34-.17h0A2.37,2.37,0,0,0,1259.37,289.53Z" transform="translate(75.53 -50.11)"/><path class="cls-7" d="M1294.45,383.77v-57.9a8.86,8.86,0,0,0-8.85-8.85h-.44a.92.92,0,0,1-1-.93h0a.94.94,0,0,1,.89-.94h.51a10.72,10.72,0,0,1,10.71,10.72v57.9Z" transform="translate(75.53 -50.11)"/><path class="cls-5" d="M1342.7,275.68l22.8,2.15c1.77.16,2.85-.09,5.23,1a10.49,10.49,0,0,1,3.89,3.33,10.92,10.92,0,0,1-8.76,17.57,10.42,10.42,0,0,1-1.38-.1l0,.14a10.63,10.63,0,0,1,.25,2.4,11,11,0,0,1-11,10.85,10.52,10.52,0,0,1-10.76-9.52.22.22,0,0,0,0-.08l-.07-5Z" transform="translate(75.53 -50.11)"/><path class="cls-6" d="M1359.43,278l5.76,21.5a.18.18,0,0,1-.3.16l-21.69-23.43" transform="translate(75.53 -50.11)"/><line class="cls-6" x1="1419.46" y1="241.9" x2="1440.08" y2="249.78"/><path class="cls-3" d="M1349,284.15l9.06,10.05a1.39,1.39,0,0,0,2,.11h0a1.39,1.39,0,0,0,.1-2l-9.06-10.05a1.39,1.39,0,0,0-2-.1h0A1.39,1.39,0,0,0,1349,284.15Z" transform="translate(75.53 -50.11)"/><path class="cls-7" d="M1369.57,339.32V305.43a5.2,5.2,0,0,0-5.19-5.19h-.25a.54.54,0,0,1-.56-.54h0a.54.54,0,0,1,.52-.55h.29a6.29,6.29,0,0,1,6.28,6.28v33.89Z" transform="translate(75.53 -50.11)"/><path class="cls-3" d="M1238.56,176.48h60.82s-.45-7.35-11.72-7.35c0,0-2.85-9.16-14.41-9.16-5.43,0-8.86.9-13.07,4.5C1260.18,164.47,1238.56,161.89,1238.56,176.48Z" transform="translate(75.53 -50.11)"/><path class="cls-3" d="M249.15,75.3H156.4s.68-11.22,17.86-11.22c0,0,4.35-14,22-14,8.27,0,13.51,1.38,19.92,6.87C216.17,57,249.15,53,249.15,75.3Z" transform="translate(75.53 -50.11)"/><path class="cls-5" d="M1076.68,559.11l57.73-162c7-20.4,24.7-33.91,44.5-33.91h62.65a45.44,45.44,0,0,0,33.61-15.32h0a45.44,45.44,0,0,1,33.62-15.33h135V559.11Z" transform="translate(75.53 -50.11)"/><path class="cls-4" d="M214.84,565.94c-6.65,0-8.7,1.28-13.76,6.23s-9.44,2.12-11.58-.07c-2.35-2.4-4.68-6.33-11.33-6.37S169.48,567,164.41,572s-9.44,2.13-11.58-.06c-2.35-2.4-4.68-6.34-11.33-6.37l.51,0c-6.65,0-8.69,1.29-13.76,6.23s-9.44,2.13-11.58-.07c-2.35-2.4-4.68-6.33-11.33-6.37s-8.69,1.29-13.76,6.23-9.44,2.13-11.58-.07c-2.34-2.4-4.68-6.33-11.33-6.37h.42c-6.65,0-8.7,1.28-13.76,6.22s-9.44,2.13-11.58-.06c-2.35-2.4-4.69-6.34-11.33-6.37s-8.7,1.28-13.76,6.22S9.22,573.22,7.08,571c-2.35-2.41-4.18-6.34-10.83-6.38h0v-7.93h218.6Z" transform="translate(75.53 -50.11)"/><path class="cls-4" d="M429.25,565.94c-6.66,0-8.7,1.29-13.78,6.23s-9.45,2.13-11.6-.07c-2.35-2.4-4.69-6.33-11.34-6.37S383.82,567,378.74,572s-9.45,2.12-11.59-.07c-2.35-2.4-4.69-6.33-11.35-6.37h.51c-6.66,0-8.71,1.28-13.78,6.22s-9.45,2.13-11.6-.07c-2.35-2.4-4.69-6.33-11.34-6.37s-8.71,1.29-13.79,6.23-9.45,2.13-11.59-.07c-2.35-2.4-4.69-6.33-11.35-6.37h.41c-6.65,0-8.7,1.28-13.78,6.22s-9.45,2.13-11.59-.06c-2.35-2.4-4.69-6.33-11.35-6.37s-8.71,1.28-13.78,6.22-9.45,2.13-11.6-.06c-2.35-2.41-4.18-6.34-10.84-6.38h0v-7.93H429.27Z" transform="translate(75.53 -50.11)"/><path class="cls-4" d="M525.12,573c-5.08,4.94-9.45,2.13-11.6-.07-2.35-2.4-4.69-6.33-11.35-6.37s-8.7,1.28-13.78,6.23-9.45,2.13-11.59-.07c-2.35-2.4-4.69-6.33-11.35-6.37H466c-6.66,0-8.71,1.28-13.78,6.22s-9.45,2.13-11.6-.06c-2.35-2.4-4.69-6.34-11.35-6.37s-8.7,1.28-13.78,6.22-9.45,2.13-11.6-.07c-2.34-2.4-4.68-6.33-11.34-6.37h.41c-6.65,0-8.7,1.28-13.78,6.23s-9.45,2.13-11.6-.07c-2.34-2.4-4.68-6.33-11.34-6.37s-8.71,1.28-13.78,6.22-9.45,2.13-11.6-.06c-2.35-2.4-4.19-6.34-10.84-6.37v-8H519.86S530.19,568,525.12,573Z" transform="translate(75.53 -50.11)"/><path class="cls-4" d="M-3.31,509.9H423.16c3.7,0,6.7,3.93,6.7,8.78h0c0,4.85,3,8.78,6.7,8.78H488a30.6,30.6,0,0,1,13.43,3.15A33.32,33.32,0,0,1,518,549.31l4.52,12.3H-3.31Z" transform="translate(75.53 -50.11)"/></g><path class="cls-7" d="M340.39,360.29a4.12,4.12,0,0,0-4.12-2,133.8,133.8,0,0,1-18,1c-9.75,0-12,3.61-14.54,7.78-1.06,1.73-2.15,3.51-3.09,5.45h0a44.48,44.48,0,0,0-5.35,3.19,20.45,20.45,0,0,0-8.94,10.7,34.08,34.08,0,0,0,.15,22.12h0a9.45,9.45,0,0,1-.81,7.65,8.78,8.78,0,0,1-5.86,4.27,7.59,7.59,0,0,1-6.27-1.34c-3.71-2.8-5.88-9.24-6.64-19.69-1-13.19-1.71-23.58-10.84-31.16h0a27,27,0,0,0-18.24-7.93,29.67,29.67,0,0,0-19.06,5.87c-12.93,9.67-12.78,24.62.45,44.43,8.32,12.46,14.59,21.15,19.17,27.49,2.23,3.1,4,5.55,5.45,7.66a17,17,0,0,1,.38,19c-1.75,2.67-5.34,5.74-9.66,5.57-2.49-.09-6.09-1.34-9.1-6.79-5.49-9.94-6.45-16.44-7.39-22.73a58.09,58.09,0,0,0-5.29-18.64c-4.06-8.62-9.26-13.68-15.45-15.06-9.58-2.13-18.68,5.29-18.77,5.36a18.32,18.32,0,0,0-5.14,9.89c-1.69,8.76,2.07,19.3,10.87,30.49a30.94,30.94,0,0,1,6.18,13.46,17.48,17.48,0,0,1-.7,8.43,11.73,11.73,0,0,1-5.37,6.91c-3.25,1.68-8.79,2-16.78-6.22a27.45,27.45,0,0,1-7-11.58c-.5,7,1.86,14.71,11.32,20.95l.29.16c7.42,3.44,13.28,4.72,17.75,3.2,3.51-1.19,6.27-4.17,8.21-8.85a27.17,27.17,0,0,0-2-24.44c-.74-1.22-1.52-2.47-2.31-3.75-5.69-9.15-11.57-18.61-9.69-24.52A6.63,6.63,0,0,1,188,422.5a8.11,8.11,0,0,1,7.22.16c3.81,2.09,6.53,7.55,8.06,16.24a84.68,84.68,0,0,0,6.15,20.22c6.47,14.31,17.49,31,33.29,29.19,10.6-1.2,17.9-5.78,21.72-13.61,5.9-12.11,1.83-28.14-1.55-33.64-4.68-7.61-9.15-12.62-13.88-17.92a156.18,156.18,0,0,1-16.86-21.69c-5.82-9.09-3.34-14.3-.22-17.07,3.45-3.08,7.47-4.22,11-3.12s6.36,4.42,7.52,9.06c4,16.23,8.93,28.7,20.86,40.67,5.69,5.71,13.91,11.56,20.73,7,7.71-5.19,10.82-22.54,6.05-33.75-2.43-5.71-2.4-10.17.08-13.26,2.08-2.57,5.7-3.95,11-3.94h0a23.31,23.31,0,0,1,6.33.33,2,2,0,0,1,.33.09c3.27,1.23,9.5,1.69,14.5-8.93,1.57-3.34,6.1-9.19,9.62-13.5a4.15,4.15,0,0,0,.37-4.7Z" transform="translate(75.53 -50.11)"/><g class="cls-8"><path class="cls-5" d="M268.66,429.53l-72.12.05-58.78-38.47h-25L83,367.57,53.27,391.11l-53.2-44-33.38,26.27-24.1-13.29-18.12,13.74V513.16H351.18l-.06-2.36a83.18,83.18,0,0,0-82.46-81.27Z" transform="translate(75.53 -50.11)"/></g><polygon class="cls-4" points="160.64 146.14 170.5 177.87 201.06 164.83 185.6 194.24 216.43 206.63 184.69 216.49 197.74 247.05 168.33 231.58 155.94 262.41 146.08 230.68 115.52 243.72 130.98 214.31 100.15 201.92 131.88 192.06 118.84 161.5 148.25 176.97 160.64 146.14"/><path class="cls-5" d="M102.88,359.5l20.4,10.4c1.58.81,2.68,1,4.51,2.83a10.49,10.49,0,0,1,2.39,4.53,10.93,10.93,0,0,1-14.63,13.1,10.19,10.19,0,0,1-1.24-.61l-.09.13a10.46,10.46,0,0,1-.65,2.32,11,11,0,0,1-14.24,6,10.52,10.52,0,0,1-6.49-12.82l0-.08,1.78-4.66Z" transform="translate(75.53 -50.11)"/><path class="cls-6" d="M117.57,367.86,115,390a.18.18,0,0,1-.34,0l-11.52-29.77" transform="translate(75.53 -50.11)"/><line class="cls-6" x1="173.53" y1="325.02" x2="189.79" y2="339.95"/><path class="cls-3" d="M105.64,369.71l4.72,12.68a1.39,1.39,0,0,0,1.78.82h0a1.39,1.39,0,0,0,.81-1.78l-4.71-12.69a1.39,1.39,0,0,0-1.78-.81h0A1.39,1.39,0,0,0,105.64,369.71Z" transform="translate(75.53 -50.11)"/><path class="cls-7" d="M104.38,428.56l12.5-31.5a5.18,5.18,0,0,0-2.9-6.73l-.24-.09a.54.54,0,0,1-.33-.71h0a.55.55,0,0,1,.69-.32l.28.1a6.3,6.3,0,0,1,3.52,8.15L105.39,429Z" transform="translate(75.53 -50.11)"/><path class="cls-4" d="M232.19,172.36a57.59,57.59,0,0,1,23.33-44.05,57.72,57.72,0,1,0,34,104.1c-.65,0-1.3,0-1.95,0A57.73,57.73,0,0,1,232.19,172.36Z" transform="translate(75.53 -50.11)"/><path class="cls-5" d="M1121.22,172.12a16,16,0,0,0-24.58-.11h-.05a16,16,0,0,0-24.58.11h16.22c2.2,3.51,5.15,5.68,8.41,5.68s6.22-2.17,8.41-5.68Z" transform="translate(75.53 -50.11)"/><path class="cls-7" d="M1336.44,537a88.46,88.46,0,0,0-176.91,0v20.69h176.91Z" transform="translate(75.53 -50.11)"/><path class="cls-9" d="M1290.35,556l22.05,3.3h74.24v-109a85.89,85.89,0,0,0-11.81,2.28c3,15.71,10.06,52.59,10.06,53.2-.37-.74-10.32-35.12-15.11-51.72a111,111,0,0,0-17.93,7.63l25.37,53.25-28.84-51.35a142.36,142.36,0,0,0-13.45,8.67c-9.66,7-17.38,16.24-23.58,26.43l66.57,47.42-69-43.33a156.38,156.38,0,0,0-11.47,26.33l67.54,22.6-69.71-15.82C1293.2,543.08,1291.57,550,1290.35,556Z" transform="translate(75.53 -50.11)"/><path class="cls-9" d="M1184.7,555.41l-13.26,1.91h-44.66v-63a53.48,53.48,0,0,1,7.11,1.31c-1.82,9.08-6.05,30.39-6.05,30.75.22-.44,6.2-20.3,9.08-29.89a67.37,67.37,0,0,1,10.79,4.41l-15.26,30.77L1149.8,502a89,89,0,0,1,8.08,5,52.48,52.48,0,0,1,14.19,15.28l-40,27.4,41.47-25a89,89,0,0,1,6.9,15.21l-40.63,13.06,41.93-9.14C1183,547.94,1184,551.91,1184.7,555.41Z" transform="translate(75.53 -50.11)"/><path class="cls-9" d="M326.65,531l-13.31,1.58-44.64-1.11,1.56-63a55.38,55.38,0,0,1,7.07,1.5c-2,9-6.8,30.22-6.81,30.58.24-.43,6.71-20.13,9.83-29.65A68.37,68.37,0,0,1,291,475.54l-16,30.38,18.07-29.23a86.8,86.8,0,0,1,8,5.21,52.22,52.22,0,0,1,13.8,15.62l-40.7,26.4,42.07-24a88.08,88.08,0,0,1,6.52,15.37L281.8,527.34l42.14-8.09C325.12,523.44,326,527.43,326.65,531Z" transform="translate(75.53 -50.11)"/><path class="cls-9" d="M214.36,531.06l13.31,1.58,44.64-1.1-1.56-63a55.38,55.38,0,0,0-7.07,1.5c2,9,6.8,30.22,6.81,30.58-.24-.42-6.71-20.13-9.83-29.65A68.37,68.37,0,0,0,250,475.65L266,506,247.93,476.8a86.8,86.8,0,0,0-8,5.21,52.22,52.22,0,0,0-13.8,15.62l40.7,26.4L224.8,500a88.08,88.08,0,0,0-6.52,15.37l40.93,12.06-42.14-8.1C215.89,523.55,215,527.54,214.36,531.06Z" transform="translate(75.53 -50.11)"/><path class="cls-9" d="M112.91,525.42l-8.71,1L75,525.73l1-41.21a36,36,0,0,1,4.62,1c-1.33,5.91-4.45,19.78-4.45,20,.15-.28,4.38-13.17,6.43-19.4a43.51,43.51,0,0,1,7,3.06L79.12,509l11.82-19.12a54.76,54.76,0,0,1,5.21,3.4,34.13,34.13,0,0,1,9,10.23L78.55,520.82l27.53-15.71a58.46,58.46,0,0,1,4.27,10.06l-26.78,7.89,27.57-5.3C111.91,520.5,112.48,523.12,112.91,525.42Z" transform="translate(75.53 -50.11)"/><path class="cls-9" d="M39.44,525.49l8.71,1,29.2-.73-1-41.21a35.8,35.8,0,0,0-4.63,1c1.33,5.91,4.45,19.78,4.46,20-.16-.28-4.39-13.17-6.43-19.4a45,45,0,0,0-7,3.06l10.48,19.88L61.41,490a54.94,54.94,0,0,0-5.21,3.41,34.09,34.09,0,0,0-9,10.22L73.8,520.89l-27.53-15.7A57.81,57.81,0,0,0,42,515.25l26.79,7.88-27.58-5.3C40.44,520.58,39.87,523.19,39.44,525.49Z" transform="translate(75.53 -50.11)"/><path class="cls-10" d="M138.26,387.77l-39.21,3.68c-3,.29-4.9-.14-9,1.65a18.08,18.08,0,0,0-6.68,5.73A18.77,18.77,0,0,0,98.44,429a18.62,18.62,0,0,0,2.37-.18l0,.25a18.78,18.78,0,0,0,18.51,22.78c9.48-.07,17.45-6.4,18.5-16.37a.66.66,0,0,0,0-.14l.12-8.57Z" transform="translate(75.53 -50.11)"/><path class="cls-6" d="M109.48,391.8l-9.88,37a.29.29,0,0,0,.5.28l37.29-40.27" transform="translate(75.53 -50.11)"/><line class="cls-6" x1="211.68" y1="365.72" x2="176.22" y2="379.28"/><path class="cls-3" d="M127.36,402.33l-15.57,17.28a2.4,2.4,0,0,1-3.37.17h0a2.38,2.38,0,0,1-.17-3.36l15.58-17.28a2.38,2.38,0,0,1,3.36-.17h0A2.38,2.38,0,0,1,127.36,402.33Z" transform="translate(75.53 -50.11)"/><path class="cls-7" d="M92.06,526.88v-88A8.92,8.92,0,0,1,101,430h.44a.93.93,0,0,0,1-.93h0a.94.94,0,0,0-.9-.94l-.51,0A10.8,10.8,0,0,0,90.19,438.9v88Z" transform="translate(75.53 -50.11)"/></g></g></svg>