<svg xmlns="http://www.w3.org/2000/svg" xmlns:xlink="http://www.w3.org/1999/xlink" viewBox="0 0 1447.5 529.08"><defs><style>.cls-1,.cls-14{fill:none;}.cls-2{clip-path:url(#clip-path);}.cls-3{fill:#f7f7f7;}.cls-4{fill:#fdf6e6;}.cls-5{fill:#a09f9f;}.cls-6{fill:#9f9e9e;}.cls-7{fill:#dfdfdf;}.cls-8{fill:#6b6a6a;}.cls-9{fill:#fbf5e7;}.cls-10{fill:#606060;}.cls-11{fill:#bebebe;}.cls-12{fill:#213039;}.cls-13{fill:#ffeddd;opacity:0.37;}.cls-14{stroke:#a09f9f;stroke-miterlimit:10;stroke-width:2px;}</style><clipPath id="clip-path" transform="translate(3.75 -50.11)"><rect class="cls-1" width="1440" height="579.19"/></clipPath></defs><g id="Capa_2" data-name="Capa 2"><g id="Arte"><g class="cls-2"><path class="cls-3" d="M99.5,149.5H233.6s-1-16.23-25.83-16.23c0,0-6.29-20.2-31.78-20.2-12,0-19.54,2-28.81,9.94C147.18,123,99.5,117.31,99.5,149.5Z" transform="translate(3.75 -50.11)"/><path class="cls-3" d="M1028.76,403c-11,5.95-28.71,5.95-39.67,0l-39-21.21c-11-5.95-28.71-5.95-39.67,0l-141.58,77c-11,6-28.72,6-39.67,0l-60.77-33c-10.95-6-28.71-6-39.66,0l-39.28,21.35c-11,6-28.72,6-39.67,0L355,341.21c-11-5.95-28.71-5.95-39.67,0l-62.63,34.05c-5.26,2.86-12.4,4.47-19.84,4.47L46.28,203.28c-16.79-11-49.59-4.51-49.59,9.76V543.69h0v15.42l1440,2V454.81Z" transform="translate(3.75 -50.11)"/><path class="cls-3" d="M647.52,567.22c-6.63,0-8.68,1.29-13.73,6.23s-9.42,2.13-11.57-.07c-2.34-2.4-4.67-6.33-11.31-6.37s-8.67,1.28-13.73,6.23-9.42,2.13-11.57-.07c-2.34-2.4-4.67-6.33-11.31-6.37h.51c-6.63,0-8.68,1.28-13.74,6.22s-9.42,2.13-11.56-.06c-2.34-2.4-4.67-6.34-11.31-6.37s-8.68,1.28-13.73,6.22-9.42,2.13-11.57-.07c-2.34-2.4-4.67-6.33-11.31-6.37H502c-6.64,0-8.68,1.29-13.74,6.23s-9.42,2.13-11.56-.07c-2.34-2.4-4.68-6.33-11.31-6.37s-8.68,1.28-13.74,6.23-9.42,2.13-11.56-.07c-2.34-2.4-4.17-6.33-10.81-6.37h0V558H647.55Z" transform="translate(3.75 -50.11)"/><path class="cls-3" d="M792.33,566.8h.5c-6.64,0-8.69,1.28-13.76,6.22s-9.43,2.13-11.58-.06c-2.34-2.4-4.68-6.34-11.32-6.37s-8.7,1.28-13.76,6.22-9.44,2.13-11.58-.07c-2.35-2.4-4.69-6.33-11.33-6.37h.41c-6.65,0-8.69,1.28-13.76,6.23s-9.43,2.13-11.58-.07c-2.34-2.4-4.68-6.33-11.33-6.37s-8.69,1.28-13.76,6.22-9.43,2.13-11.58-.06c-2.34-2.4-4.2-5-10.85-5.09l0-9.23H791.52" transform="translate(3.75 -50.11)"/><path class="cls-4" d="M1437.45,570.22c-6.65,0-8.7,1.29-13.76,6.23s-9.44,2.13-11.58-.07c-2.35-2.4-4.68-6.33-11.33-6.37s-8.69,1.28-13.76,6.23-9.44,2.13-11.58-.07c-2.35-2.4-4.68-6.33-11.33-6.37h.51c-6.65,0-8.69,1.28-13.76,6.22s-9.44,2.13-11.58-.06c-2.35-2.4-4.68-6.34-11.33-6.37s-8.69,1.28-13.76,6.22-9.44,2.13-11.58-.07c-2.34-2.4-4.68-6.33-11.33-6.37h.42c-6.65,0-8.7,1.28-13.77,6.23s-9.43,2.13-11.57-.07c-2.35-2.4-4.69-6.33-11.33-6.37s-8.7,1.28-13.76,6.22-9.44,2.13-11.58-.06c-2.35-2.4-4.18-6.33-10.83-6.37h0V561h218.6Z" transform="translate(3.75 -50.11)"/><path class="cls-4" d="M1219.89,570.22c-6.64,0-8.69,1.29-13.76,6.23s-9.43,2.13-11.58-.07c-2.34-2.4-4.68-6.33-11.33-6.37s-8.69,1.28-13.76,6.23-9.43,2.13-11.58-.07c-2.34-2.4-4.68-6.33-11.32-6.37h.5c-6.64,0-8.69,1.28-13.76,6.22s-9.43,2.13-11.58-.06c-2.34-2.4-4.68-6.34-11.32-6.37s-8.7,1.28-13.76,6.22-9.44,2.13-11.58-.07c-2.35-2.4-4.69-6.33-11.33-6.37h.41c-6.65,0-8.69,1.28-13.76,6.23s-9.43,2.13-11.58-.07c-2.34-2.4-4.68-6.33-11.33-6.37s-8.69,1.28-13.76,6.22-9.43,2.13-11.58-.06c-2.34-2.4-4.18-6.33-10.82-6.37l10.83-9,207.78,1Z" transform="translate(3.75 -50.11)"/><path class="cls-3" d="M1012.16,560.12a11,11,0,0,1-7.16,10.13c-2.31.9-4.26,2.53-7.15,5.24-5.26,4.94-9.8,2.13-12-.07-2.44-2.4-4.87-6.33-11.77-6.37s-9,1.28-14.29,6.22-9.79,2.13-12-.07c-2.43-2.4-4.86-6.33-11.76-6.37h.52c-6.9,0-9,1.28-14.28,6.22s-9.8,2.13-12-.07c-2.43-2.4-4.86-6.33-11.76-6.37s-9,1.28-14.29,6.22-9.8,2.13-12-.07c-2.44-2.4-4.86-6.33-11.77-6.37h.43c-6.9,0-9,1.28-14.28,6.22s-9.8,2.13-12-.07c-2.43-2.4-4.86-6.33-11.76-6.37s-9,1.28-14.29,6.22-9.8,2.13-12-.07c-2.44-2.4-4.34-6.33-11.25-6.37v-8l227,0Z" transform="translate(3.75 -50.11)"/><path class="cls-4" d="M1443.75,298.33H1206.49c-28.11,0-55.08,7.28-75,20.23h0c-19.88,12.95-31,30.52-31,48.83V561.61h343.26Z" transform="translate(3.75 -50.11)"/><path class="cls-3" d="M1238.56,176.48h60.82s-.45-7.35-11.72-7.35c0,0-2.85-9.16-14.41-9.16-5.43,0-8.86.9-13.07,4.5C1260.18,164.47,1238.56,161.89,1238.56,176.48Z" transform="translate(3.75 -50.11)"/><path class="cls-3" d="M249.15,75.3H156.4s.68-11.22,17.86-11.22c0,0,4.35-14,22-14,8.27,0,13.51,1.38,19.92,6.87C216.17,57,249.15,53,249.15,75.3Z" transform="translate(3.75 -50.11)"/><path class="cls-5" d="M1076.68,559.11l57.73-162c7-20.4,24.7-33.91,44.5-33.91h62.65a45.44,45.44,0,0,0,33.61-15.32h0a45.44,45.44,0,0,1,33.62-15.33h135V559.11Z" transform="translate(3.75 -50.11)"/><path class="cls-4" d="M1050.11,503.1c3.25-5.13,7.72-8,12.38-8h79.64c2.52,0,4.56-3.12,4.56-7s2-7,4.56-7h288.38v80.51H1033.5L1012.14,560Z" transform="translate(3.75 -50.11)"/><path class="cls-4" d="M214.84,565.94c-6.65,0-8.7,1.28-13.76,6.23s-9.44,2.12-11.58-.07c-2.35-2.4-4.68-6.33-11.33-6.37S169.48,567,164.41,572s-9.44,2.13-11.58-.06c-2.35-2.4-4.68-6.34-11.33-6.37l.51,0c-6.65,0-8.69,1.29-13.76,6.23s-9.44,2.13-11.58-.07c-2.35-2.4-4.68-6.33-11.33-6.37s-8.69,1.29-13.76,6.23-9.44,2.13-11.58-.07c-2.34-2.4-4.68-6.33-11.33-6.37h.42c-6.65,0-8.7,1.28-13.76,6.22s-9.44,2.13-11.58-.06c-2.35-2.4-4.69-6.34-11.33-6.37s-8.7,1.28-13.76,6.22S9.22,573.22,7.08,571c-2.35-2.41-4.18-6.34-10.83-6.38h0v-7.93h218.6Z" transform="translate(3.75 -50.11)"/><path class="cls-4" d="M429.25,565.94c-6.66,0-8.7,1.29-13.78,6.23s-9.45,2.13-11.6-.07c-2.35-2.4-4.69-6.33-11.34-6.37S383.82,567,378.74,572s-9.45,2.12-11.59-.07c-2.35-2.4-4.69-6.33-11.35-6.37h.51c-6.66,0-8.71,1.28-13.78,6.22s-9.45,2.13-11.6-.07c-2.35-2.4-4.69-6.33-11.34-6.37s-8.71,1.29-13.79,6.23-9.45,2.13-11.59-.07c-2.35-2.4-4.69-6.33-11.35-6.37h.41c-6.65,0-8.7,1.28-13.78,6.22s-9.45,2.13-11.59-.06c-2.35-2.4-4.69-6.33-11.35-6.37s-8.71,1.28-13.78,6.22-9.45,2.13-11.6-.06c-2.35-2.41-4.18-6.34-10.84-6.38h0v-7.93H429.27Z" transform="translate(3.75 -50.11)"/><path class="cls-4" d="M525.12,573c-5.08,4.94-9.45,2.13-11.6-.07-2.35-2.4-4.69-6.33-11.35-6.37s-8.7,1.28-13.78,6.23-9.45,2.13-11.59-.07c-2.35-2.4-4.69-6.33-11.35-6.37H466c-6.66,0-8.71,1.28-13.78,6.22s-9.45,2.13-11.6-.06c-2.35-2.4-4.69-6.34-11.35-6.37s-8.7,1.28-13.78,6.22-9.45,2.13-11.6-.07c-2.34-2.4-4.68-6.33-11.34-6.37h.41c-6.65,0-8.7,1.28-13.78,6.23s-9.45,2.13-11.6-.07c-2.34-2.4-4.68-6.33-11.34-6.37s-8.71,1.28-13.78,6.22-9.45,2.13-11.6-.06c-2.35-2.4-4.19-6.34-10.84-6.37v-8H519.86S530.19,568,525.12,573Z" transform="translate(3.75 -50.11)"/><path class="cls-4" d="M-3.31,509.9H423.16c3.7,0,6.7,3.93,6.7,8.78h0c0,4.85,3,8.78,6.7,8.78H488a30.6,30.6,0,0,1,13.43,3.15A33.32,33.32,0,0,1,518,549.31l4.52,12.3H-3.31Z" transform="translate(3.75 -50.11)"/></g><path class="cls-6" d="M17.58,370.81H243.74a69,69,0,0,1,69,69v45.94a0,0,0,0,1,0,0H17.58a0,0,0,0,1,0,0v-115A0,0,0,0,1,17.58,370.81Z"/><path class="cls-7" d="M30.93,475.32c10.33.06,13.5-1.95,21.37-9.44s14.66-3.23,18,.1c3.64,3.65,7.27,9.61,17.59,9.67s13.5-1.95,21.37-9.44,14.66-3.23,18,.1c3.64,3.65,7.27,9.61,17.59,9.67l-.79,0c10.33.05,13.5-1.95,21.37-9.44s14.66-3.23,18,.1c3.64,3.64,7.27,9.6,17.59,9.66s13.5-1.94,21.37-9.43,14.66-3.23,18,.1c.68.68,23.73,23.84,24.44,24.63,9.65,10.84,51.21,29.75,51.1,44.27l-58.83.77H12.55L13,475.15Z" transform="translate(3.75 -50.11)"/><rect class="cls-8" x="14.4" y="461.13" width="111.81" height="37.69" transform="translate(144.36 909.84) rotate(-180)"/><rect class="cls-9" x="164.64" y="237.75" width="0.71" height="32.54"/><rect class="cls-9" x="150.38" y="304.49" width="32.54" height="0.71" transform="translate(-167.2 336.8) rotate(-75)"/><rect class="cls-9" x="155.41" y="306.58" width="32.54" height="0.71" transform="translate(-176.22 252.03) rotate(-60)"/><rect class="cls-9" x="159.73" y="309.89" width="32.54" height="0.71" transform="translate(-164.08 165.2) rotate(-45)"/><rect class="cls-9" x="163.04" y="314.21" width="32.54" height="0.71" transform="translate(-129.51 81.69) rotate(-30)"/><rect class="cls-9" x="165.13" y="319.25" width="32.54" height="0.71" transform="translate(-72.79 7.73) rotate(-15)"/><rect class="cls-9" x="142.82" y="298.3" width="0.71" height="32.54" transform="matrix(0.5, -0.87, 0.87, 0.5, -197.09, 231.19)"/><rect class="cls-9" x="140.54" y="304.11" width="0.71" height="32.54" transform="translate(-198.98 336.67) rotate(-77.2)"/><rect class="cls-9" x="146.14" y="293.98" width="0.71" height="32.54" transform="translate(-172.72 144.34) rotate(-45)"/><rect class="cls-9" x="150.46" y="290.66" width="0.71" height="32.54" transform="translate(-129.49 66.39) rotate(-29.99)"/><rect class="cls-9" x="155.49" y="288.58" width="0.71" height="32.54" transform="matrix(0.97, -0.26, 0.26, 0.97, -69.84, 0.61)"/><circle class="cls-6" cx="164.82" cy="274.17" r="6.76"/><path class="cls-8" d="M161.07,359.92a74,74,0,0,1-63.33-35.64H224.41A74,74,0,0,1,161.07,359.92Z" transform="translate(3.75 -50.11)"/><path class="cls-8" d="M164.27,286.11a3,3,0,1,0-3,3A3,3,0,0,0,164.27,286.11Z" transform="translate(3.75 -50.11)"/><path class="cls-8" d="M154.65,289.13a3,3,0,1,0-3,3A3,3,0,0,0,154.65,289.13Z" transform="translate(3.75 -50.11)"/><path class="cls-8" d="M145.7,292.84a3,3,0,1,0-3,3A3,3,0,0,0,145.7,292.84Z" transform="translate(3.75 -50.11)"/><path class="cls-8" d="M138,298.74a3,3,0,1,0-3,3A3,3,0,0,0,138,298.74Z" transform="translate(3.75 -50.11)"/><path class="cls-8" d="M132.11,306.43a3,3,0,1,0-3,3A3,3,0,0,0,132.11,306.43Z" transform="translate(3.75 -50.11)"/><path class="cls-8" d="M128.06,316.77a3,3,0,1,0-3,3A3,3,0,0,0,128.06,316.77Z" transform="translate(3.75 -50.11)"/><path class="cls-8" d="M173.88,289.13a3,3,0,1,0-3,3A3,3,0,0,0,173.88,289.13Z" transform="translate(3.75 -50.11)"/><path class="cls-8" d="M182.83,292.84a3,3,0,1,0-3,3A3,3,0,0,0,182.83,292.84Z" transform="translate(3.75 -50.11)"/><path class="cls-8" d="M190.52,298.74a3,3,0,1,0-3,3A3,3,0,0,0,190.52,298.74Z" transform="translate(3.75 -50.11)"/><path class="cls-8" d="M196.42,306.44a3,3,0,1,0-3,3A3,3,0,0,0,196.42,306.44Z" transform="translate(3.75 -50.11)"/><path class="cls-8" d="M200.13,315.39a3,3,0,1,0-3,3A3,3,0,0,0,200.13,315.39Z" transform="translate(3.75 -50.11)"/><path class="cls-9" d="M178.81,456.06a5.07,5.07,0,1,1,5.06,5.07A5.07,5.07,0,0,1,178.81,456.06Z" transform="translate(3.75 -50.11)"/><path class="cls-9" d="M178.81,468.73a5.07,5.07,0,1,1,5.06,5.07A5.07,5.07,0,0,1,178.81,468.73Z" transform="translate(3.75 -50.11)"/><path class="cls-9" d="M178.81,493.79a5.07,5.07,0,1,1,5.06,5.07A5.07,5.07,0,0,1,178.81,493.79Z" transform="translate(3.75 -50.11)"/><path class="cls-9" d="M155.85,451.47l3.49-3.5h21.94s7-.14,8.66-8.8H151.66l-10.82,10.67" transform="translate(3.75 -50.11)"/><polyline class="cls-10" points="167.42 302.83 167.43 359.01 162.23 359.01 162.21 303.85"/><path class="cls-7" d="M139.9,369.93a23.81,23.81,0,0,1,23.81,23.8h0v7.52l-45-31.32Z" transform="translate(3.75 -50.11)"/><path class="cls-10" d="M163.71,401.25l0,93.05h-5.21l0-89.67v-3.38h-16a24,24,0,0,1-6.66-.94c-.7-.21-1.39-.45-2.07-.71a27.13,27.13,0,0,1-2.62-1.22,24.35,24.35,0,0,1-7-5.79,23.75,23.75,0,0,1-5.43-15.15v-7.51Z" transform="translate(3.75 -50.11)"/><path class="cls-7" d="M162.43,388a22.63,22.63,0,0,1,22.63-22.63h20.13l-42.76,29.77Z" transform="translate(3.75 -50.11)"/><path class="cls-10" d="M163.54,394.37l41.65-29v7a22.31,22.31,0,0,1-2.66,10.51,22.06,22.06,0,0,1-6.74,7.54c-.44.32-.9.61-1.37.9a22,22,0,0,1-11.28,3.09Z" transform="translate(3.75 -50.11)"/><path class="cls-7" d="M148.19,407.93a14.86,14.86,0,0,1,14.86,14.86h0v4.69L135,407.93Z" transform="translate(3.75 -50.11)"/><path class="cls-10" d="M163.05,427.48v58.07h-3.25V427.48h-10a14.92,14.92,0,0,1-4.15-.59c-.44-.13-.87-.27-1.3-.44a16.09,16.09,0,0,1-1.63-.76,15.88,15.88,0,0,1-2.37-1.6,14.93,14.93,0,0,1-5.4-11.47v-4.69Z" transform="translate(3.75 -50.11)"/><path class="cls-7" d="M162.26,419.21a14.12,14.12,0,0,1,14.12-14.12h12.56l-26.68,18.58Z" transform="translate(3.75 -50.11)"/><path class="cls-10" d="M163,423.19l26-18.1v4.34a13.77,13.77,0,0,1-.62,4.09,13.79,13.79,0,0,1-5.25,7.18c-.27.19-.56.38-.86.56a13.72,13.72,0,0,1-7,1.93Z" transform="translate(3.75 -50.11)"/><polyline class="cls-4" points="159.89 400.92 187.83 400.92 187.83 448.7 135.02 448.7 135.02 411.02 144.59 399.73"/><circle class="cls-11" cx="135.01" cy="431.05" r="10"/><polygon class="cls-6" points="129.36 434.32 136.97 432.85 135.27 424.57 133.85 424.87 135.26 431.71 129.09 432.9 129.36 434.32"/><circle class="cls-9" cx="187.62" cy="431.01" r="5.07"/><path class="cls-7" d="M1265.49,388.08l.16,0h0c13.1,2.73,24.27,10.29,35.35,18.27l.7.5c6.91,5,13.79,10.09,21.09,14.24a127.22,127.22,0,0,0,11.57,5.77l.79.35c9.47,4.13,19.31,7.49,28.81,11.58,3.94,1.7,7.82,3.52,11.64,5.49.29.15.58.3.86.46l.58.3c1,.51,1.92,1,2.88,1.56h0q2.46,1.33,4.87,2.77c.87.5,1.73,1,2.58,1.54a171.26,171.26,0,0,1,16.19,11.19c.27.19.53.4.8.6a163.16,163.16,0,0,1,17.49,15.92,24.75,24.75,0,0,0,18,7.78h0V444.64c-1.16-1.89-2.34-3.74-3.61-5.55-.89-1.29-1.81-2.55-2.75-3.8h0c-1-1.37-2.1-2.74-3.19-4.08-.19-.24-.39-.47-.58-.72-1.88-2.25-3.82-4.45-5.86-6.56-2.72-2.89-5.6-5.63-8.59-8.25a144.14,144.14,0,0,0-49.84-28.27c-.7-.24-1.38-.46-2.07-.67-5.93-1.9-11.71-3.49-17.43-4.75h0c-1.6-.36-3.18-.69-4.77-1-2.64-.51-5.26-1-7.89-1.32h0a144.74,144.74,0,0,0-23.37-1.39l-1.17,0a161.44,161.44,0,0,0-25.75,2.93c-8.19,1.58-13.54,4.48-17.52,6l0,0A.4.4,0,0,0,1265.49,388.08Z" transform="translate(3.75 -50.11)"/><path class="cls-12" d="M1439.83,472.79v-1.61q-4.33-7.23-9.29-14h0a3.43,3.43,0,0,0-.32-.43h0c-2-2.81-4.18-5.57-6.38-8.24q-.3-.39-.63-.78h0q-3-3.56-6.08-6.95l-.07-.09q-5.9-6.43-12.33-12.22-4.31-3.92-8.83-7.48a.81.81,0,0,1-.1-.09q-3.42-2.7-7-5.21l0,0,0,0-.2-.14q-5.76-4.1-11.81-7.69l0,0q-1.95-1.15-3.91-2.25c-2.49-1.37-5-2.7-7.58-3.94h0l-.91-.44-.81-.41h0c-4-1.87-8-3.59-12.1-5.12h0c-1.94-.75-3.92-1.45-5.89-2.11-.67-.23-1.34-.46-2-.67h0a167.07,167.07,0,0,0-26.32-6.2l-1.14-.17a155.27,155.27,0,0,0-50.62.88h-.07a.42.42,0,0,0-.33.48.41.41,0,0,0,.48.33l.18,0h0a154.09,154.09,0,0,1,51.14-.71l.12,0h0q6.46.94,12.85,2.46h0c.41.08.81.18,1.21.28,4.68,1.11,9.3,2.45,13.86,4a164.07,164.07,0,0,1,17.9,7.16l.83.39,2.41,1.16c2.16,1.08,4.29,2.21,6.41,3.38A166.07,166.07,0,0,1,1389,416.76c.09.05.16.11.25.17,2,1.4,3.88,2.85,5.76,4.36a.62.62,0,0,1,.18.14q4.47,3.51,8.71,7.33c2.13,1.91,4.23,3.87,6.27,5.91l0,0h0c.08.06.16.15.24.22,2,1.94,3.88,3.93,5.74,6l.08.09a183.19,183.19,0,0,1,13,15.8,9.4,9.4,0,0,1,.57.76" transform="translate(3.75 -50.11)"/><path class="cls-12" d="M1301,406.38l.69.5a108.91,108.91,0,0,1,29.09-16.53.41.41,0,0,0,.22-.19.42.42,0,0,0,0-.33.41.41,0,0,0-.54-.24c-.24.08-.48.18-.71.28A109,109,0,0,0,1301,406.38Z" transform="translate(3.75 -50.11)"/><path class="cls-12" d="M1308.69,378.32a56.37,56.37,0,0,1,7.32,8.12c.2.26.39.53.58.8a.46.46,0,0,0,.21.16l.12,0h0a.34.34,0,0,0,.23-.08.4.4,0,0,0,.1-.57l-.11-.15a54.55,54.55,0,0,0-7.29-8.33Z" transform="translate(3.75 -50.11)"/><path class="cls-12" d="M1334.37,426.89l.79.35c4.34-4.69,9-8.85,13.11-12.52,5.08-4.54,10.09-9,15.33-13,.24-.2.49-.39.73-.56a3.75,3.75,0,0,1,.33-.26.41.41,0,0,0-.5-.66l-.66.51h0l-.72.57c-5.15,4-10.06,8.37-15,12.82C1343.53,417.84,1338.79,422.09,1334.37,426.89Z" transform="translate(3.75 -50.11)"/><path class="cls-12" d="M1423.29,448.94h.09a.42.42,0,0,0,.41-.3c0-.06,0-.11,0-.17a89.53,89.53,0,0,1,6.45-17.27c-.19-.24-.38-.49-.58-.73a91.42,91.42,0,0,0-6.5,17.21c-.08.25-.14.51-.21.76A.4.4,0,0,0,1423.29,448.94Z" transform="translate(3.75 -50.11)"/><path class="cls-8" d="M1340,389.37c9.78,10.36,32.45,28,32.45,28l14,11.19a8.51,8.51,0,0,0-.5,1.44h0c-.64,2.43-1,7.53,4.56,12.41s16.37,1,33.44-3.5c12.87-3.38,23.09-11,4.2-15.67,0,0,1.4-26.58-16.8-38.06s-38.05-18.75-42.54-22.11-3.91-9.24-10.34-12.31-9.52.84-14.83.84-14.85-4.22-16.92,1.44a4,4,0,0,0-.16.52C1324.92,360,1330.24,379,1340,389.37Z" transform="translate(3.75 -50.11)"/><path class="cls-13" d="M1340,389.37c9.78,10.36,32.45,28,32.45,28l14,11.19a8.51,8.51,0,0,0-.5,1.44,40.77,40.77,0,0,1,10.65-9.5c-13-7.93-25.88-16.17-37.54-26s-22.1-21.28-29.41-34.64a30.39,30.39,0,0,1-2.93-6.82,4,4,0,0,0-.16.52C1324.92,360,1330.24,379,1340,389.37Z" transform="translate(3.75 -50.11)"/><circle class="cls-4" cx="1355.91" cy="329.92" r="11.47"/><path class="cls-8" d="M1393.21,442.68s-9.38,14.13-10.36,12.87,5.32-12.73,5.32-12.73-11.76,6.16-12.88,4.62,10.36-7.84,10.36-7.84-13.15.42-13.43-1.26,15.81-5.87,15.81-5.87Z" transform="translate(3.75 -50.11)"/><path class="cls-8" d="M1379.35,397.76s11.9,17.91,9.94,23.93-28.83,2.38-35.26,1.4-14.56-5-14.42-5.88,11.9,1.82,11.9,1.82-10.78-8.39-9.24-9.79,12.18,6.15,12.18,6.15-5.46-10.63-4.34-11.19,8.53,9.52,8.53,9.52l14.56,1.11-11.76-19.59,15.11,1Z" transform="translate(3.75 -50.11)"/><path class="cls-8" d="M1387.24,427.6c-4.25,3.62-1.54,10.64,2.5,14.16,4.53,3.95,11,3,16.29,1.63,9.76-2.54,20.76-3.52,29.47-9,3.68-2.32,4.16-5.73.18-8.24-8.15-5.15-17.21-2.3-25.39,1.1-1.2.5-5.85,3.29-7.3,2.75C1403,430,1410.42,407.88,1387.24,427.6Z" transform="translate(3.75 -50.11)"/><path class="cls-7" d="M1305.41,454.73l-10.67,15.19-56,44.77-52.31-62.58a72.89,72.89,0,0,1,8.15-5.82c7.75,10.84,25.94,36.25,26.31,36.61-.24-.66-15.26-26.38-22.52-38.81a93.13,93.13,0,0,1,14.9-6.42l17.55,45.85-14.42-46.86a119.5,119.5,0,0,1,13-3.13c9.74-1.83,19.77-1.16,29.47,1l3.84.91a130.53,130.53,0,0,1,22.45,8.2l-25.14,53.7,30.48-51.11C1296,449,1301.05,452,1305.41,454.73Z" transform="translate(3.75 -50.11)"/><line class="cls-14" x1="1242.63" y1="463.51" x2="1242.63" y2="508.45"/><polygon class="cls-5" points="1234.15 454.65 1242.45 464.57 1254.88 454.65 1234.15 454.65"/></g></g></svg>