<svg xmlns="http://www.w3.org/2000/svg" xmlns:xlink="http://www.w3.org/1999/xlink" viewBox="0 0 1447.5 529.08"><defs><style>.cls-1,.cls-10{fill:none;}.cls-2{clip-path:url(#clip-path);}.cls-3{fill:#f7f7f7;}.cls-4{fill:#fdf6e6;}.cls-5{fill:#a09f9f;}.cls-6{fill:#606060;}.cls-7{fill:#494949;}.cls-8{clip-path:url(#clip-path-2);}.cls-9{fill:#6b6a6a;}.cls-10{stroke:#213039;stroke-miterlimit:10;stroke-width:5px;}.cls-11{fill:#213039;}</style><clipPath id="clip-path" transform="translate(3.75 -50.11)"><rect class="cls-1" width="1440" height="579.19"/></clipPath><clipPath id="clip-path-2" transform="translate(3.75 -50.11)"><rect class="cls-1" x="1122.22" y="460.12" width="160.78" height="86.68"/></clipPath></defs><g id="Capa_2" data-name="Capa 2"><g id="Arte"><g class="cls-2"><path class="cls-3" d="M99.5,149.5H233.6s-1-16.23-25.83-16.23c0,0-6.29-20.2-31.78-20.2-12,0-19.54,2-28.81,9.94C147.18,123,99.5,117.31,99.5,149.5Z" transform="translate(3.75 -50.11)"/><path class="cls-3" d="M1028.76,403c-11,5.95-28.71,5.95-39.67,0l-39-21.21c-11-5.95-28.71-5.95-39.67,0l-141.58,77c-11,6-28.72,6-39.67,0l-60.77-33c-10.95-6-28.71-6-39.66,0l-39.28,21.35c-11,6-28.72,6-39.67,0L355,341.21c-11-5.95-28.71-5.95-39.67,0l-62.63,34.05c-5.26,2.86-12.4,4.47-19.84,4.47L46.28,203.28c-16.79-11-49.59-4.51-49.59,9.76V543.69h0v15.42l1440,2V454.81Z" transform="translate(3.75 -50.11)"/><path class="cls-3" d="M647.52,567.22c-6.63,0-8.68,1.29-13.73,6.23s-9.42,2.13-11.57-.07c-2.34-2.4-4.67-6.33-11.31-6.37s-8.67,1.28-13.73,6.23-9.42,2.13-11.57-.07c-2.34-2.4-4.67-6.33-11.31-6.37h.51c-6.63,0-8.68,1.28-13.74,6.22s-9.42,2.13-11.56-.06c-2.34-2.4-4.67-6.34-11.31-6.37s-8.68,1.28-13.73,6.22-9.42,2.13-11.57-.07c-2.34-2.4-4.67-6.33-11.31-6.37H502c-6.64,0-8.68,1.29-13.74,6.23s-9.42,2.13-11.56-.07c-2.34-2.4-4.68-6.33-11.31-6.37s-8.68,1.28-13.74,6.23-9.42,2.13-11.56-.07c-2.34-2.4-4.17-6.33-10.81-6.37h0V558H647.55Z" transform="translate(3.75 -50.11)"/><path class="cls-3" d="M792.33,566.8h.5c-6.64,0-8.69,1.28-13.76,6.22s-9.43,2.13-11.58-.06c-2.34-2.4-4.68-6.34-11.32-6.37s-8.7,1.28-13.76,6.22-9.44,2.13-11.58-.07c-2.35-2.4-4.69-6.33-11.33-6.37h.41c-6.65,0-8.69,1.28-13.76,6.23s-9.43,2.13-11.58-.07c-2.34-2.4-4.68-6.33-11.33-6.37s-8.69,1.28-13.76,6.22-9.43,2.13-11.58-.06c-2.34-2.4-4.2-5-10.85-5.09l0-9.23H791.52" transform="translate(3.75 -50.11)"/><path class="cls-4" d="M1440.15,571.05c-6.65,0-11.4.46-16.46,5.4s-9.44,2.13-11.58-.07c-2.35-2.4-4.68-6.33-11.33-6.37s-8.69,1.28-13.76,6.23-9.44,2.13-11.58-.07c-2.35-2.4-4.68-6.33-11.33-6.37h.51c-6.65,0-8.69,1.28-13.76,6.22s-9.44,2.13-11.58-.06c-2.35-2.4-4.68-6.34-11.33-6.37s-8.69,1.28-13.76,6.22-9.44,2.13-11.58-.07c-2.34-2.4-4.68-6.33-11.33-6.37h.42c-6.65,0-8.7,1.28-13.77,6.23s-9.43,2.13-11.57-.07c-2.35-2.4-4.69-6.33-11.33-6.37s-8.7,1.28-13.76,6.22-9.44,2.13-11.58-.06c-2.35-2.4-4.18-6.33-10.83-6.37h0V561l221.3.83Z" transform="translate(3.75 -50.11)"/><path class="cls-4" d="M1219.89,570.22c-6.64,0-8.69,1.29-13.76,6.23s-9.43,2.13-11.58-.07c-2.34-2.4-4.68-6.33-11.33-6.37s-8.69,1.28-13.76,6.23-9.43,2.13-11.58-.07c-2.34-2.4-4.68-6.33-11.32-6.37h.5c-6.64,0-8.69,1.28-13.76,6.22s-9.43,2.13-11.58-.06c-2.34-2.4-4.68-6.34-11.32-6.37s-8.7,1.28-13.76,6.22-9.44,2.13-11.58-.07c-2.35-2.4-4.69-6.33-11.33-6.37h.41c-6.65,0-8.69,1.28-13.76,6.23s-9.43,2.13-11.58-.07c-2.34-2.4-4.68-6.33-11.33-6.37s-8.69,1.28-13.76,6.22-9.43,2.13-11.58-.06c-2.34-2.4-4.18-6.33-10.82-6.37l10.83-9,207.78,1Z" transform="translate(3.75 -50.11)"/><path class="cls-3" d="M1012.16,560.12a11,11,0,0,1-7.16,10.13c-2.31.9-4.26,2.53-7.15,5.24-5.26,4.94-9.8,2.13-12-.07-2.44-2.4-4.87-6.33-11.77-6.37s-9,1.28-14.29,6.22-9.79,2.13-12-.07c-2.43-2.4-4.86-6.33-11.76-6.37h.52c-6.9,0-9,1.28-14.28,6.22s-9.8,2.13-12-.07c-2.43-2.4-4.86-6.33-11.76-6.37s-9,1.28-14.29,6.22-9.8,2.13-12-.07c-2.44-2.4-4.86-6.33-11.77-6.37h.43c-6.9,0-9,1.28-14.28,6.22s-9.8,2.13-12-.07c-2.43-2.4-4.86-6.33-11.76-6.37s-9,1.28-14.29,6.22-9.8,2.13-12-.07c-2.44-2.4-4.34-6.33-11.25-6.37v-8l227,0Z" transform="translate(3.75 -50.11)"/><path class="cls-3" d="M1443.75,298.33H1206.49c-28.11,0-55.08,7.28-75,20.23h0c-19.88,12.95-31,30.52-31,48.83V561.61h343.26Z" transform="translate(3.75 -50.11)"/><path class="cls-3" d="M1238.56,176.48h60.82s-.45-7.35-11.72-7.35c0,0-2.85-9.16-14.41-9.16-5.43,0-8.86.9-13.07,4.5C1260.18,164.47,1238.56,161.89,1238.56,176.48Z" transform="translate(3.75 -50.11)"/><path class="cls-3" d="M249.15,75.3H156.4s.68-11.22,17.86-11.22c0,0,4.35-14,22-14,8.27,0,13.51,1.38,19.92,6.87C216.17,57,249.15,53,249.15,75.3Z" transform="translate(3.75 -50.11)"/><path class="cls-4" d="M1076.68,563.11l57.73-162c7-20.4,24.7-33.91,44.5-33.91h62.65a45.44,45.44,0,0,0,33.61-15.32h0a45.44,45.44,0,0,1,33.62-15.33h135V563.11Z" transform="translate(3.75 -50.11)"/><path class="cls-4" d="M214.84,565.94c-6.65,0-8.7,1.28-13.76,6.23s-9.44,2.12-11.58-.07c-2.35-2.4-4.68-6.33-11.33-6.37S169.48,567,164.41,572s-9.44,2.13-11.58-.06c-2.35-2.4-4.68-6.34-11.33-6.37l.51,0c-6.65,0-8.69,1.29-13.76,6.23s-9.44,2.13-11.58-.07c-2.35-2.4-4.68-6.33-11.33-6.37s-8.69,1.29-13.76,6.23-9.44,2.13-11.58-.07c-2.34-2.4-4.68-6.33-11.33-6.37h.42c-6.65,0-8.7,1.28-13.76,6.22s-9.44,2.13-11.58-.06c-2.35-2.4-4.69-6.34-11.33-6.37s-8.7,1.28-13.76,6.22S9.22,573.22,7.08,571c-2.35-2.41-4.18-6.34-10.83-6.38h0v-7.93h218.6Z" transform="translate(3.75 -50.11)"/><path class="cls-4" d="M429.25,565.94c-6.66,0-8.71,1.29-13.78,6.23s-9.45,2.13-11.6-.07c-2.35-2.4-4.69-6.33-11.34-6.37S383.82,567,378.74,572s-9.45,2.12-11.59-.07c-2.35-2.4-4.69-6.33-11.35-6.37h.51c-6.66,0-8.71,1.28-13.78,6.22s-9.45,2.13-11.6-.07c-2.35-2.4-4.69-6.33-11.35-6.37s-8.7,1.29-13.78,6.23-9.45,2.13-11.59-.07c-2.35-2.4-4.69-6.33-11.35-6.37h.41c-6.65,0-8.7,1.28-13.78,6.22s-9.45,2.13-11.59-.06c-2.35-2.4-4.69-6.33-11.35-6.37s-8.71,1.28-13.78,6.22-9.45,2.13-11.6-.06c-2.35-2.41-4.18-6.34-10.84-6.38h0v-7.93H429.27Z" transform="translate(3.75 -50.11)"/><path class="cls-4" d="M525.12,573c-5.08,4.94-9.45,2.13-11.6-.07-2.35-2.4-4.69-6.33-11.35-6.37s-8.7,1.28-13.78,6.23-9.45,2.13-11.59-.07c-2.35-2.4-4.69-6.33-11.35-6.37H466c-6.66,0-8.71,1.28-13.78,6.22s-9.45,2.13-11.6-.06c-2.35-2.4-4.69-6.34-11.35-6.37s-8.7,1.28-13.78,6.22-9.45,2.13-11.6-.07c-2.34-2.4-4.68-6.33-11.34-6.37h.41c-6.65,0-8.7,1.28-13.78,6.23s-9.45,2.13-11.6-.07c-2.34-2.4-4.68-6.33-11.34-6.37s-8.71,1.28-13.78,6.22-9.45,2.13-11.6-.06c-2.35-2.4-4.19-6.34-10.84-6.37v-8H519.86S530.19,568,525.12,573Z" transform="translate(3.75 -50.11)"/><path class="cls-4" d="M-3.31,509.9H423.16c3.7,0,6.7,3.93,6.7,8.78h0c0,4.85,3,8.78,6.7,8.78H488a30.6,30.6,0,0,1,13.43,3.15A33.32,33.32,0,0,1,518,549.31l4.52,12.3H-3.31Z" transform="translate(3.75 -50.11)"/></g><polyline class="cls-5" points="18.57 478.2 506.63 478.2 506.63 310.81 416.01 380.62 331.33 380.62 262.05 327.25 232.66 327.25 197.67 298.14 162.68 327.25 100.12 272.81 60.86 305.31 32.52 288.87 4.28 305.93 5.25 478.2 18.57 478.2"/><polyline class="cls-5" points="1429.07 495.91 1086.13 495.91 1111.94 398.33 1182.19 344.96 1211.99 344.96 1247.47 315.85 1282.94 344.96 1346.38 290.52 1386.19 323.02 1414.92 306.58 1443.56 323.64 1444.03 496.22 1429.07 495.91"/><path class="cls-6" d="M1320.12,495.64h-4c0-.13,0-.25,0-.38a16.75,16.75,0,0,0-16.75-16.75l-58.71-.19a16.75,16.75,0,0,0-16.75,16.75c0,.13,0,.27,0,.4l-11.56,0a16.75,16.75,0,1,0,0,33.5h0a16.73,16.73,0,0,0,16.74,16.36l73.53.2a16.74,16.74,0,0,0,16.74-16.37h.78a16.75,16.75,0,1,0,0-33.49Z" transform="translate(3.75 -50.11)"/><polygon class="cls-7" points="1288.65 414.26 1369.14 414.26 1403.48 375.62 1322.99 375.62 1288.65 414.26"/><polygon class="cls-3" points="1326.58 379.26 1297.76 410.4 1297.76 496.52 1355.39 496.52 1355.39 410.4 1326.58 379.26"/><rect class="cls-7" x="1355.39" y="410.4" width="76.85" height="86.12"/><polygon class="cls-6" points="1437.05 414.26 1355.39 414.26 1322.21 375.62 1402.71 375.62 1437.05 414.26"/><rect class="cls-7" x="1311.23" y="422.88" width="4.86" height="11.92"/><rect class="cls-7" x="1337.51" y="422.88" width="4.86" height="11.92"/><rect class="cls-7" x="1311.23" y="444.52" width="4.86" height="11.92"/><rect class="cls-7" x="1337.51" y="444.52" width="4.86" height="11.92"/><rect class="cls-4" x="1366.44" y="422.88" width="4.86" height="11.92"/><rect class="cls-4" x="1366.44" y="444.52" width="4.86" height="11.92"/><path class="cls-7" d="M1331.11,546.59h-16.56v-25.5a8.27,8.27,0,0,1,8.28-8.27h0a8.28,8.28,0,0,1,8.28,8.27Z" transform="translate(3.75 -50.11)"/><g class="cls-8"><path class="cls-9" d="M1222.42,530.54h-3.17c0-.1,0-.2,0-.3a13.11,13.11,0,0,0-13.1-13.1l-45.92-.15a13.1,13.1,0,0,0-13.09,13.1v.32l-9,0a13.1,13.1,0,0,0,0,26.19h0a13.1,13.1,0,0,0,13.09,12.8l57.51.15a13.1,13.1,0,0,0,13.09-12.8h.61a13.1,13.1,0,0,0,0-26.2Z" transform="translate(3.75 -50.11)"/></g><path class="cls-4" d="M1127.82,472.81c9.45,8.22,12.57,20.1,12.57,20.1s-12.2-1.45-21.65-9.66-12.56-20.1-12.56-20.1S1118.37,464.59,1127.82,472.81Z" transform="translate(3.75 -50.11)"/><path class="cls-6" d="M1182.27,442.26a42,42,0,1,0-84,0Z" transform="translate(3.75 -50.11)"/><path class="cls-4" d="M1167.12,442.26a26.87,26.87,0,0,0-53.73,0Z" transform="translate(3.75 -50.11)"/><path class="cls-4" d="M1153.43,505.74a49.55,49.55,0,0,0-13.18,19.4,45.88,45.88,0,0,0,34.21-29.76A49.59,49.59,0,0,0,1153.43,505.74Z" transform="translate(3.75 -50.11)"/><line class="cls-10" x1="1144.14" y1="392.15" x2="1144.14" y2="512.06"/><line class="cls-10" x1="1098.08" y1="392.15" x2="1189.93" y2="392.15"/><rect class="cls-4" x="1389.39" y="422.74" width="4.89" height="11.99"/><rect class="cls-4" x="1389.39" y="444.5" width="4.89" height="11.99"/><polygon class="cls-9" points="220.18 477.82 249.97 472.12 224.63 455.45 254.34 461.58 237.3 436.48 262.4 453.51 256.27 423.81 272.94 449.15 278.64 419.36 284.34 449.15 301.01 423.81 294.88 453.51 319.97 436.48 302.94 461.58 332.64 455.45 307.3 472.12 337.09 477.82 220.18 477.82"/><path class="cls-9" d="M233.9,409.61c-13.65,11.87-18.24,28.93-18.24,28.93s17.54-2.18,31.18-14.05,18.24-28.94,18.24-28.94S247.55,397.73,233.9,409.61Z" transform="translate(3.75 -50.11)"/><path class="cls-6" d="M197.2,397.54c13.65,11.88,18.24,28.94,18.24,28.94s-17.54-2.18-31.18-14.05S166,383.49,166,383.49,183.55,385.67,197.2,397.54Z" transform="translate(3.75 -50.11)"/><path class="cls-11" d="M215.62,551.63a1.34,1.34,0,0,0,1.35-1.35V383.53a1.35,1.35,0,0,0-2.7,0V550.28A1.35,1.35,0,0,0,215.62,551.63Z" transform="translate(3.75 -50.11)"/><circle class="cls-6" cx="219.37" cy="301.36" r="34.74"/><path class="cls-4" d="M179.11,367.49,252.29,337s-.36-18.61-21.5-21.4l-30.18,73.31S182.47,388.53,179.11,367.49Z" transform="translate(3.75 -50.11)"/><path class="cls-4" d="M231.15,388.91l-30.51-73.19s-18.61.37-21.4,21.51l73.32,30.17S252.19,385.55,231.15,388.91Z" transform="translate(3.75 -50.11)"/><circle class="cls-5" cx="219.37" cy="301.36" r="14.61"/><path class="cls-9" d="M52.28,364.7c10.06,8.75,9.53,25.83,9.53,25.83s-16.84,2.88-26.9-5.87-9.53-25.83-9.53-25.83S42.22,355.94,52.28,364.7Z" transform="translate(3.75 -50.11)"/><path class="cls-6" d="M71.4,397.3c-10.07,8.76-9.54,25.83-9.54,25.83s16.84,2.89,26.9-5.86,9.54-25.83,9.54-25.83S81.46,388.55,71.4,397.3Z" transform="translate(3.75 -50.11)"/><path class="cls-11" d="M61.81,546.87a1.34,1.34,0,0,0,1.35-1.35V349.33a1.35,1.35,0,1,0-2.69,0V545.52A1.34,1.34,0,0,0,61.81,546.87Z" transform="translate(3.75 -50.11)"/><circle class="cls-6" cx="65.56" cy="256.22" r="46.6"/><path class="cls-11" d="M61.81,361.86a1.34,1.34,0,0,0,1.35-1.35V254.15a1.35,1.35,0,1,0-2.69,0V360.51A1.34,1.34,0,0,0,61.81,361.86Z" transform="translate(3.75 -50.11)"/><path class="cls-11" d="M8.63,308.68H115a1.35,1.35,0,0,0,0-2.7H8.63a1.35,1.35,0,0,0,0,2.7Z" transform="translate(3.75 -50.11)"/><path class="cls-11" d="M99.42,346.29a1.36,1.36,0,0,0,1-2.31l-75.21-75.2a1.34,1.34,0,0,0-1.9,1.9l75.2,75.21A1.38,1.38,0,0,0,99.42,346.29Z" transform="translate(3.75 -50.11)"/><path class="cls-11" d="M24.21,346.29a1.34,1.34,0,0,0,.95-.4l75.21-75.21a1.35,1.35,0,0,0-1.91-1.9L23.26,344a1.36,1.36,0,0,0,.95,2.31Z" transform="translate(3.75 -50.11)"/><circle class="cls-5" cx="65.56" cy="256.22" r="19.59"/><circle class="cls-4" cx="65.56" cy="256.22" r="12.6"/><polygon class="cls-6" points="23.56 501.36 73.2 492.06 30.98 464.88 80.48 474.88 52.09 433.96 93.91 461.73 83.69 413.3 111.47 454.62 120.97 406.05 130.47 454.62 158.25 413.3 148.03 461.73 189.85 433.96 161.47 474.88 210.97 464.88 168.74 492.06 218.38 501.36 23.56 501.36"/></g></g></svg>