<svg xmlns="http://www.w3.org/2000/svg" xmlns:xlink="http://www.w3.org/1999/xlink" viewBox="0 0 1447.5 529.08"><defs><style>.cls-1{fill:none;}.cls-2{clip-path:url(#clip-path);}.cls-3{fill:#f7f7f7;}.cls-4{fill:#fdf6e6;}.cls-5{fill:#a09f9f;}.cls-6{fill:#e5e5e5;}.cls-7{fill:#6b6a6a;}.cls-8{fill:#9f9e9e;}.cls-9{fill:#dfdfdf;}.cls-10{fill:#fbf5e7;}.cls-11{fill:#eee;}</style><clipPath id="clip-path" transform="translate(1.93 -50.11)"><rect class="cls-1" x="1.82" width="1440" height="579.19"/></clipPath></defs><g id="Capa_2" data-name="Capa 2"><g id="Arte"><g class="cls-2"><path class="cls-3" d="M101.32,149.5h134.1s-1-16.23-25.83-16.23c0,0-6.29-20.2-31.78-20.2-12,0-19.54,2-28.81,9.94C149,123,101.32,117.31,101.32,149.5Z" transform="translate(1.93 -50.11)"/><path class="cls-3" d="M1030.58,403c-10.95,5.95-28.71,5.95-39.67,0l-39-21.21c-10.95-5.95-28.71-5.95-39.67,0l-141.58,77c-11,6-28.72,6-39.67,0l-60.77-33c-11-6-28.71-6-39.66,0l-39.28,21.35c-11,6-28.72,6-39.67,0L356.83,341.21c-11-5.95-28.72-5.95-39.67,0l-62.63,34.05c-5.26,2.86-12.4,4.47-19.84,4.47L48.1,203.28c-16.79-11-49.59-4.51-49.59,9.76V543.69h0v15.42l1440,2V454.81Z" transform="translate(1.93 -50.11)"/><path class="cls-3" d="M649.34,567.22c-6.63,0-8.68,1.29-13.74,6.23s-9.42,2.13-11.56-.07c-2.34-2.4-4.67-6.33-11.31-6.37s-8.68,1.28-13.73,6.23-9.43,2.13-11.57-.07c-2.34-2.4-4.67-6.33-11.31-6.37h.51c-6.64,0-8.68,1.28-13.74,6.22s-9.42,2.13-11.56-.06c-2.34-2.4-4.67-6.34-11.31-6.37s-8.68,1.28-13.74,6.22-9.42,2.13-11.56-.07c-2.34-2.4-4.67-6.33-11.31-6.37h.42c-6.64,0-8.68,1.29-13.74,6.23s-9.42,2.13-11.56-.07c-2.34-2.4-4.68-6.33-11.31-6.37s-8.68,1.28-13.74,6.23-9.42,2.13-11.56-.07c-2.34-2.4-4.17-6.33-10.81-6.37h0V558H649.37Z" transform="translate(1.93 -50.11)"/><path class="cls-3" d="M794.15,566.8h.5c-6.64,0-8.69,1.28-13.76,6.22s-9.43,2.13-11.58-.06c-2.34-2.4-4.68-6.34-11.32-6.37s-8.7,1.28-13.77,6.22-9.43,2.13-11.57-.07c-2.35-2.4-4.69-6.33-11.33-6.37h.41c-6.65,0-8.69,1.28-13.76,6.23s-9.44,2.13-11.58-.07c-2.34-2.4-4.68-6.33-11.33-6.37s-8.69,1.28-13.76,6.22-9.43,2.13-11.58-.06c-2.34-2.4-4.2-5-10.85-5.09l0-9.23H793.34" transform="translate(1.93 -50.11)"/><path class="cls-4" d="M1439.27,570.22c-6.65,0-8.7,1.29-13.76,6.23s-9.44,2.13-11.58-.07c-2.35-2.4-4.68-6.33-11.33-6.37s-8.69,1.28-13.76,6.23-9.44,2.13-11.58-.07c-2.35-2.4-4.68-6.33-11.33-6.37h.51c-6.65,0-8.69,1.28-13.76,6.22s-9.44,2.13-11.58-.06c-2.35-2.4-4.68-6.34-11.33-6.37s-8.69,1.28-13.76,6.22-9.44,2.13-11.58-.07c-2.35-2.4-4.68-6.33-11.33-6.37h.41c-6.64,0-8.69,1.28-13.76,6.23s-9.43,2.13-11.58-.07c-2.34-2.4-4.68-6.33-11.32-6.37s-8.7,1.28-13.76,6.22-9.44,2.13-11.58-.06c-2.35-2.4-4.18-6.33-10.83-6.37h0V561h218.6Z" transform="translate(1.93 -50.11)"/><path class="cls-4" d="M1221.71,570.22c-6.65,0-8.69,1.29-13.76,6.23s-9.43,2.13-11.58-.07c-2.34-2.4-4.68-6.33-11.33-6.37s-8.69,1.28-13.76,6.23-9.43,2.13-11.58-.07c-2.34-2.4-4.68-6.33-11.32-6.37h.5c-6.64,0-8.69,1.28-13.76,6.22s-9.43,2.13-11.58-.06c-2.34-2.4-4.68-6.34-11.32-6.37s-8.7,1.28-13.77,6.22-9.43,2.13-11.57-.07c-2.35-2.4-4.69-6.33-11.33-6.37h.41c-6.65,0-8.69,1.28-13.76,6.23s-9.43,2.13-11.58-.07c-2.34-2.4-4.68-6.33-11.33-6.37s-8.69,1.28-13.76,6.22-9.43,2.13-11.58-.06c-2.34-2.4-4.18-6.33-10.82-6.37l10.83-9,207.78,1Z" transform="translate(1.93 -50.11)"/><path class="cls-3" d="M1014,560.12a11,11,0,0,1-7.16,10.13c-2.31.9-4.26,2.53-7.15,5.24-5.26,4.94-9.8,2.13-12-.07-2.44-2.4-4.87-6.33-11.77-6.37s-9,1.28-14.29,6.22-9.79,2.13-12-.07c-2.43-2.4-4.86-6.33-11.76-6.37h.52c-6.9,0-9,1.28-14.28,6.22s-9.8,2.13-12-.07c-2.43-2.4-4.86-6.33-11.76-6.37s-9,1.28-14.29,6.22-9.8,2.13-12-.07c-2.44-2.4-4.87-6.33-11.77-6.37h.43c-6.9,0-9,1.28-14.28,6.22s-9.8,2.13-12-.07c-2.43-2.4-4.86-6.33-11.76-6.37s-9,1.28-14.29,6.22-9.8,2.13-12-.07c-2.44-2.4-4.35-6.33-11.25-6.37v-8l227,0Z" transform="translate(1.93 -50.11)"/><polygon class="cls-5" points="1241.51 250.85 1238.36 250.85 1233.92 236.5 1237.07 236.5 1241.51 250.85"/><polygon class="cls-5" points="1251.45 250.85 1248.3 250.85 1243.87 236.5 1247.01 236.5 1251.45 250.85"/><polygon class="cls-6" points="1224.93 222.01 1224.93 198.56 1214.99 198.56 1224.93 222.01"/><path class="cls-7" d="M1219.61,271.67a18.59,18.59,0,1,0,37.18,0v-8.14l0-.16a8.22,8.22,0,0,0-8.22-8.22h-11.44l5.84,5.07V268h-23.53Z" transform="translate(1.93 -50.11)"/><path class="cls-4" d="M1243.07,260.62a5.43,5.43,0,1,0,5.43-5.43l-.47,0h-5v5.65" transform="translate(1.93 -50.11)"/><path class="cls-4" d="M1213.3,268H1243V284.7Z" transform="translate(1.93 -50.11)"/><path class="cls-6" d="M1243,268a8.36,8.36,0,0,1,0,16.72" transform="translate(1.93 -50.11)"/><path class="cls-4" d="M1445.57,298.33H1208.31c-28.11,0-55.08,7.28-75,20.23h0c-19.87,12.95-31,30.52-31,48.83V561.61h343.26Z" transform="translate(1.93 -50.11)"/><path class="cls-3" d="M1240.37,176.48h60.83s-.45-7.35-11.72-7.35c0,0-2.85-9.16-14.41-9.16-5.43,0-8.87.9-13.07,4.5C1262,164.47,1240.37,161.89,1240.37,176.48Z" transform="translate(1.93 -50.11)"/><path class="cls-3" d="M251,75.3H158.22s.68-11.22,17.86-11.22c0,0,4.35-14,22-14,8.27,0,13.51,1.38,19.92,6.87C218,57,251,53,251,75.3Z" transform="translate(1.93 -50.11)"/><circle class="cls-7" cx="1300.01" cy="229.54" r="29.13"/><rect class="cls-5" x="1298.66" y="233.93" width="2.7" height="54.01"/><path class="cls-5" d="M1078.5,559.11l57.73-162c7-20.4,24.7-33.91,44.5-33.91h62.64A45.45,45.45,0,0,0,1277,347.88h0a45.44,45.44,0,0,1,33.62-15.33h135V559.11Z" transform="translate(1.93 -50.11)"/><path class="cls-4" d="M1051.93,503.1c3.25-5.13,7.72-8,12.38-8H1144c2.51,0,4.56-3.12,4.56-7s2-7,4.55-7h288.39v80.51H1035.32L1014,560Z" transform="translate(1.93 -50.11)"/><polygon class="cls-7" points="1359.53 315.06 1437.36 430.44 1281.71 430.44 1359.53 315.06"/><path class="cls-4" d="M1357.6,365.18s-15.46,41.56-2.79,54.23c18.66,18.65,35.35,3.73,41.15,26.21s30.2,21.18,30.2,21.18Z" transform="translate(1.93 -50.11)"/><rect class="cls-6" x="1274.44" y="385.22" width="4.89" height="4.89" transform="translate(101.8 966.32) rotate(-45)"/><rect class="cls-6" x="1287.39" y="385.22" width="4.89" height="4.89" transform="translate(105.6 975.49) rotate(-45)"/><rect class="cls-6" x="1235.57" y="385.22" width="4.89" height="4.89" transform="translate(90.41 938.82) rotate(-45)"/><rect class="cls-6" x="1248.52" y="385.22" width="4.89" height="4.89" transform="translate(94.21 948) rotate(-45)"/><rect class="cls-6" x="1261.48" y="385.22" width="4.89" height="4.89" transform="translate(98.02 957.18) rotate(-45)"/><polyline class="cls-4" points="1263.99 372.67 1263.99 396.49 1267.15 396.49 1267.16 362.98"/><line class="cls-4" x1="1264" y1="362.35" x2="1264" y2="372.67"/><path class="cls-7" d="M1276.54,422.79a14.46,14.46,0,0,0-14.47,14.46h0v4.57l27.33-19Z" transform="translate(1.93 -50.11)"/><path class="cls-4" d="M1262.07,441.92v48.51l.85.49c.32.2.78.43,1.13.6l1.18.52,0-48.17v-2.05h9.69a14.21,14.21,0,0,0,4-.58,11,11,0,0,0,1.26-.43,12.78,12.78,0,0,0,1.59-.74,14.4,14.4,0,0,0,2.31-1.56,14,14,0,0,0,2-2,14.41,14.41,0,0,0,3.3-9.2v-4.56Z" transform="translate(1.93 -50.11)"/><path class="cls-7" d="M1262.07,433.38a12.25,12.25,0,0,0-12.25-12.26h-10.9l23.15,16.13Z" transform="translate(1.93 -50.11)"/><path class="cls-4" d="M1262.07,437.25l-23.15-16.13V425a12.18,12.18,0,0,0,1.48,5.85,12.55,12.55,0,0,0,1.9,2.61,12,12,0,0,0,1.84,1.58c.25.18.5.34.77.5a12.2,12.2,0,0,0,6.27,1.72Z" transform="translate(1.93 -50.11)"/><path class="cls-7" d="M1264.79,416.7a45,45,0,0,0,38.48-21.65h-77A45,45,0,0,0,1264.79,416.7Z" transform="translate(1.93 -50.11)"/><polygon class="cls-7" points="1154.29 430.99 1174.79 427.06 1157.35 415.59 1177.8 419.81 1166.07 402.53 1183.35 414.26 1179.13 393.81 1190.6 411.25 1194.53 390.75 1198.45 411.25 1209.92 393.81 1205.7 414.26 1222.98 402.53 1211.26 419.81 1231.7 415.59 1214.26 427.06 1234.77 430.99 1154.29 430.99"/><path class="cls-4" d="M216.66,565.94c-6.65,0-8.7,1.28-13.76,6.23s-9.44,2.12-11.58-.07c-2.35-2.4-4.68-6.33-11.33-6.37S171.3,567,166.23,572s-9.44,2.13-11.58-.06c-2.35-2.4-4.68-6.34-11.33-6.37l.51,0c-6.65,0-8.69,1.29-13.76,6.23s-9.44,2.13-11.58-.07c-2.35-2.4-4.68-6.33-11.33-6.37s-8.69,1.29-13.76,6.23-9.44,2.13-11.58-.07c-2.34-2.4-4.68-6.33-11.33-6.37h.41c-6.64,0-8.69,1.28-13.76,6.22s-9.43,2.13-11.58-.06c-2.34-2.4-4.68-6.34-11.32-6.37s-8.7,1.28-13.76,6.22S11,573.22,8.9,571c-2.35-2.41-4.18-6.34-10.83-6.38h0v-7.93h218.6Z" transform="translate(1.93 -50.11)"/><path class="cls-4" d="M431.07,565.94c-6.66,0-8.71,1.29-13.78,6.23s-9.45,2.13-11.6-.07c-2.35-2.4-4.69-6.33-11.35-6.37s-8.7,1.28-13.78,6.23-9.45,2.12-11.59-.07c-2.35-2.4-4.69-6.33-11.35-6.37h.51c-6.66,0-8.71,1.28-13.78,6.22s-9.45,2.13-11.6-.07c-2.35-2.4-4.69-6.33-11.35-6.37s-8.7,1.29-13.78,6.23-9.45,2.13-11.59-.07c-2.35-2.4-4.69-6.33-11.35-6.37h.41c-6.65,0-8.7,1.28-13.78,6.22s-9.45,2.13-11.59-.06c-2.35-2.4-4.69-6.33-11.35-6.37s-8.71,1.28-13.78,6.22-9.45,2.13-11.6-.06c-2.35-2.41-4.19-6.34-10.84-6.38h0v-7.93H431.09Z" transform="translate(1.93 -50.11)"/><path class="cls-4" d="M526.94,573c-5.08,4.94-9.45,2.13-11.6-.07-2.35-2.4-4.69-6.33-11.35-6.37s-8.7,1.28-13.78,6.23-9.45,2.13-11.6-.07c-2.34-2.4-4.68-6.33-11.34-6.37h.51c-6.66,0-8.71,1.28-13.78,6.22s-9.45,2.13-11.6-.06c-2.35-2.4-4.69-6.34-11.35-6.37s-8.7,1.28-13.78,6.22-9.45,2.13-11.6-.07c-2.34-2.4-4.68-6.33-11.34-6.37h.41c-6.66,0-8.7,1.28-13.78,6.23s-9.45,2.13-11.6-.07c-2.34-2.4-4.68-6.33-11.34-6.37s-8.71,1.28-13.78,6.22-9.45,2.13-11.6-.06c-2.35-2.4-4.19-6.34-10.84-6.37v-8H521.67S532,568,526.94,573Z" transform="translate(1.93 -50.11)"/><path class="cls-4" d="M-1.49,509.9H425c3.7,0,6.7,3.93,6.7,8.78h0c0,4.85,3,8.78,6.7,8.78H489.8a30.6,30.6,0,0,1,13.43,3.15,33.36,33.36,0,0,1,16.54,18.7l4.52,12.3H-1.49Z" transform="translate(1.93 -50.11)"/></g><path class="cls-8" d="M17.58,370.81H243.74a69,69,0,0,1,69,69v45.94a0,0,0,0,1,0,0H17.58a0,0,0,0,1,0,0v-115A0,0,0,0,1,17.58,370.81Z"/><path class="cls-9" d="M141.05,475.32c10.32.06,13.5-1.95,21.37-9.44s14.65-3.23,18,.1c3.64,3.65,7.28,9.61,17.6,9.67s13.5-1.95,21.37-9.44,14.65-3.23,18,.1C241,470,244.63,475.92,255,476l-.79,0c10.32.05,13.5-1.95,21.37-9.44s14.65-3.23,18,.1c3.65,3.64,7.28,9.6,17.6,9.66s13.5-1.94,21.37-9.43,14.65-3.23,18,.1c.68.68,23.73,23.84,24.44,24.63,9.65,10.84,51.2,29.75,51.1,44.27l-58.84.77H122.67l.42-61.51Z" transform="translate(1.93 -50.11)"/><path class="cls-7" d="M182.09,420.92h-3.52v-4.51a23.1,23.1,0,0,0-23.07-23.06H136.65A15.09,15.09,0,0,1,135,363.27V337.34h3.51v29.34h-1.76a11.58,11.58,0,0,0,0,23.15H155.5a26.62,26.62,0,0,1,26.59,26.58Z" transform="translate(1.93 -50.11)"/><path class="cls-9" d="M163.34,370.59a30.24,30.24,0,0,1,22-5.39l-34.08,24.51A30.27,30.27,0,0,1,163.34,370.59Z" transform="translate(1.93 -50.11)"/><path class="cls-8" d="M135.36,310.49a4.12,4.12,0,1,1,4.12-4.11A4.11,4.11,0,0,1,135.36,310.49Z" transform="translate(1.93 -50.11)"/><circle class="cls-8" cx="123.01" cy="260.78" r="4.12"/><circle class="cls-8" cx="149.38" cy="260.78" r="4.12"/><path class="cls-7" d="M86.47,320.7a55,55,0,0,0,49.42,30.79l-.27-30.79Z" transform="translate(1.93 -50.11)"/><path class="cls-9" d="M135.89,351.49a55,55,0,0,0,49.43-30.79h-49.7Z" transform="translate(1.93 -50.11)"/><path class="cls-9" d="M0,536.66l1.42-138H13.48A137.76,137.76,0,0,1,151.24,536.37h0Z" transform="translate(1.93 -50.11)"/><path class="cls-10" d="M60.73,427.21H14.19L1.82,453.14v16.41H69.33V431.32A5.28,5.28,0,0,0,60.73,427.21Z" transform="translate(1.93 -50.11)"/><path class="cls-10" d="M80.85,465.71a34.43,34.43,0,0,1,25-6.13L67.08,487.46A34.42,34.42,0,0,1,80.85,465.71Z" transform="translate(1.93 -50.11)"/><path class="cls-10" d="M82.19,490.13a34.42,34.42,0,0,1,25-6.13L68.41,511.88A34.44,34.44,0,0,1,82.19,490.13Z" transform="translate(1.93 -50.11)"/><path class="cls-7" d="M54.57,467.19a34.43,34.43,0,0,0-25-6.13l38.77,27.88A34.42,34.42,0,0,0,54.57,467.19Z" transform="translate(1.93 -50.11)"/><path class="cls-7" d="M54.57,491.61a34.43,34.43,0,0,0-25-6.13l38.77,27.88A34.42,34.42,0,0,0,54.57,491.61Z" transform="translate(1.93 -50.11)"/><rect class="cls-10" x="67.53" y="396.08" width="4.11" height="90.18"/><path class="cls-7" d="M66.41,437.71s-23.1,1.35-28.18-3.19-4-25.71-4-25.71,26.29-5.43,32-.32S66.41,437.71,66.41,437.71Z" transform="translate(1.93 -50.11)"/><path class="cls-9" d="M66.41,437.71s23.27.88,28.25-3.77,3.52-25.78,3.52-25.78-26.39-4.89-32,.33S66.41,437.71,66.41,437.71Z" transform="translate(1.93 -50.11)"/><path class="cls-8" d="M82.54,436.83a16.22,16.22,0,1,1-32.43,0" transform="translate(1.93 -50.11)"/><path class="cls-11" d="M153.39,450.51a.41.41,0,0,1-.43-.4l-.46-15.82-3.57-3.06a.42.42,0,0,1,.55-.63l3.84,3.3.48,16.18a.42.42,0,0,1-.41.43Z" transform="translate(1.93 -50.11)"/><path class="cls-11" d="M155.93,450.53a.4.4,0,0,1-.42-.4L155,433.92l4.62-3.64a.4.4,0,0,1,.58.06.43.43,0,0,1-.07.59l-4.28,3.39.46,15.78a.41.41,0,0,1-.4.43Z" transform="translate(1.93 -50.11)"/><path class="cls-11" d="M154.79,464s.62-1.42,1.36-3.63l-2.78,0C154.16,462.64,154.79,464,154.79,464Z" transform="translate(1.93 -50.11)"/><path class="cls-11" d="M157.52,456.06l-5.65.08c.24.88.5,1.71.75,2.5l4.23-.06C157.08,457.79,157.31,457,157.52,456.06Z" transform="translate(1.93 -50.11)"/><path class="cls-11" d="M158.17,453.74c1.07-6.46.84-13.87.86-16.84l-9.64-.08a90.27,90.27,0,0,0,1.7,16.93c.07.34.15.68.23,1l6.69-.09C158.06,454.36,158.12,454.06,158.17,453.74Z" transform="translate(1.93 -50.11)"/><path class="cls-7" d="M130.52,445.23l23.74.19s-5.76-8.31-11.59-8.36S130.6,445.31,130.52,445.23Z" transform="translate(1.93 -50.11)"/><path class="cls-9" d="M154.27,445.42l-23.74-.19s5.76,8.32,11.59,8.36S154.19,445.34,154.27,445.42Z" transform="translate(1.93 -50.11)"/><path class="cls-7" d="M154.17,445l23.74.18s-5.76-8.31-11.59-8.36S154.25,445.1,154.17,445Z" transform="translate(1.93 -50.11)"/><path class="cls-9" d="M177.92,445.2,154.18,445s5.76,8.31,11.59,8.36S177.84,445.12,177.92,445.2Z" transform="translate(1.93 -50.11)"/><path class="cls-11" d="M201,450.51a.41.41,0,0,1-.43-.4l-.46-15.82-3.57-3.06a.42.42,0,1,1,.55-.63l3.84,3.3.48,16.18a.42.42,0,0,1-.41.43Z" transform="translate(1.93 -50.11)"/><path class="cls-11" d="M203.52,450.53a.4.4,0,0,1-.42-.4l-.48-16.21,4.61-3.64a.42.42,0,0,1,.59.06.43.43,0,0,1-.07.59l-4.28,3.39.46,15.78a.41.41,0,0,1-.4.43Z" transform="translate(1.93 -50.11)"/><path class="cls-11" d="M202.38,464s.62-1.42,1.36-3.63l-2.79,0C201.75,462.64,202.38,464,202.38,464Z" transform="translate(1.93 -50.11)"/><path class="cls-11" d="M205.11,456.06l-5.65.08c.24.88.49,1.71.75,2.5l4.23-.06C204.67,457.79,204.9,457,205.11,456.06Z" transform="translate(1.93 -50.11)"/><path class="cls-11" d="M205.76,453.74c1.07-6.46.84-13.87.86-16.84l-9.64-.08a90.27,90.27,0,0,0,1.7,16.93c.07.34.15.68.23,1l6.69-.09C205.65,454.36,205.71,454.06,205.76,453.74Z" transform="translate(1.93 -50.11)"/><path class="cls-7" d="M178.11,445.23l23.74.19s-5.76-8.31-11.59-8.36S178.19,445.31,178.11,445.23Z" transform="translate(1.93 -50.11)"/><path class="cls-9" d="M201.86,445.42l-23.74-.19s5.76,8.32,11.59,8.36S201.78,445.34,201.86,445.42Z" transform="translate(1.93 -50.11)"/><path class="cls-7" d="M201.76,445l23.74.18s-5.76-8.31-11.59-8.36S201.84,445.1,201.76,445Z" transform="translate(1.93 -50.11)"/><path class="cls-9" d="M225.51,445.2,201.76,445s5.77,8.31,11.6,8.36S225.43,445.12,225.51,445.2Z" transform="translate(1.93 -50.11)"/><path class="cls-11" d="M248,450.51a.4.4,0,0,1-.42-.4l-.47-15.82-3.56-3.06a.41.41,0,0,1,0-.59.42.42,0,0,1,.59,0l3.85,3.3.47,16.18a.41.41,0,0,1-.41.43Z" transform="translate(1.93 -50.11)"/><path class="cls-11" d="M250.53,450.53a.41.41,0,0,1-.42-.4l-.48-16.21,4.62-3.64a.4.4,0,0,1,.58.06.42.42,0,0,1-.06.59l-4.29,3.39.46,15.78a.41.41,0,0,1-.4.43Z" transform="translate(1.93 -50.11)"/><path class="cls-11" d="M249.39,464s.62-1.42,1.36-3.63l-2.78,0C248.76,462.64,249.39,464,249.39,464Z" transform="translate(1.93 -50.11)"/><path class="cls-11" d="M252.12,456.06l-5.65.08c.25.88.5,1.71.75,2.5l4.24-.06Q251.81,457.4,252.12,456.06Z" transform="translate(1.93 -50.11)"/><path class="cls-11" d="M252.77,453.74c1.08-6.46.84-13.87.87-16.84l-9.65-.08a90.27,90.27,0,0,0,1.7,16.93c.07.34.15.68.23,1l6.69-.09C252.67,454.36,252.72,454.06,252.77,453.74Z" transform="translate(1.93 -50.11)"/><path class="cls-7" d="M225.12,445.23l23.74.19s-5.76-8.31-11.59-8.36S225.2,445.31,225.12,445.23Z" transform="translate(1.93 -50.11)"/><path class="cls-9" d="M248.87,445.42l-23.74-.19s5.76,8.32,11.59,8.36S248.79,445.34,248.87,445.42Z" transform="translate(1.93 -50.11)"/><path class="cls-7" d="M248.77,445l23.74.18s-5.76-8.31-11.59-8.36S248.85,445.1,248.77,445Z" transform="translate(1.93 -50.11)"/><path class="cls-9" d="M272.52,445.2,248.78,445s5.76,8.31,11.59,8.36S272.44,445.12,272.52,445.2Z" transform="translate(1.93 -50.11)"/></g></g></svg>