<svg xmlns="http://www.w3.org/2000/svg" xmlns:xlink="http://www.w3.org/1999/xlink" viewBox="0 0 1443.52 536.71"><defs><style>.cls-1{fill:none;}.cls-2{clip-path:url(#clip-path);}.cls-3{fill:#a09f9f;}.cls-4{fill:#f7f7f7;}.cls-5{fill:#fdf6e6;}.cls-6{fill:#6b6a6a;}.cls-7{clip-path:url(#clip-path-2);}.cls-8{fill:#606060;}.cls-9{fill:#4c4c4c;}.cls-10{fill:#213039;}.cls-11{clip-path:url(#clip-path-3);}</style><clipPath id="clip-path" transform="translate(3.75 -65.49)"><rect class="cls-1" width="1440" height="579.19"/></clipPath><clipPath id="clip-path-2" transform="translate(3.75 -65.49)"><path class="cls-1" d="M1304.28,508c-1.9-1-3.88-2.13-5.89-3.22-14.45-7.85-29.4-16-31.36-25.21a10.08,10.08,0,0,1,2.08-8.44,12.37,12.37,0,0,1,9.69-5.24c6.65-.1,14.36,5.09,23,15.46a129.59,129.59,0,0,0,23.43,22.18c19.38,14.09,46.59,27.89,66.19,13.58,13.15-9.58,19.38-21.17,18.54-34.43-1.32-20.53-18.82-38.72-27.46-43.46-12-6.57-21.65-9.83-31.93-13.29-11.19-3.77-22.77-7.66-38.74-16.05-14.58-7.66-15.22-16.45-13.18-22.47,2.26-6.7,6.73-11.24,12.26-12.47s11.78,1.07,16.82,6.36c17.61,18.48,33.51,31.31,58.37,38.19,11.86,3.28,27.17,4.83,32.75-6.42,6.31-12.7-2.67-38.06-17.46-49.33-7.53-5.74-10.85-11.68-9.88-17.65.81-5,4.56-9.54,11.63-13.54h0a35.92,35.92,0,0,1,8.65-4.35,4.05,4.05,0,0,1,.5-.12c5.26-.84,13.88-4.93,12.49-22.8-.43-5.62,1.16-16.79,2.57-25.16a6.35,6.35,0,0,0-3-6.52h0a6.28,6.28,0,0,0-7,.46,204.17,204.17,0,0,1-23.13,15c-12.94,7.36-13.16,13.81-13.42,21.29-.1,3.09-.21,6.28,0,9.56h0a71,71,0,0,0-4.69,8.28,31.27,31.27,0,0,0-3.78,20.95c2,11,7.71,20.84,16.89,29.21h0a14.43,14.43,0,0,1,4.7,10.75,13.41,13.41,0,0,1-4.55,10.09,11.55,11.55,0,0,1-9.34,3c-7-.91-14.76-7.82-23.66-21.11-11.23-16.77-20.07-30-37.9-33.15h0a41.14,41.14,0,0,0-30.17,3.24,45.29,45.29,0,0,0-20.86,22.17c-9.85,22.59,1.63,42.3,34.13,58.59,20.45,10.25,35.32,17.05,46.18,22,5.31,2.42,9.49,4.33,13,6a25.93,25.93,0,0,1,14.85,24.9c-.3,4.87-2.75,11.65-8.61,14.7-3.38,1.75-9.1,2.81-17.19-2.14-14.79-9.05-21-17-27-24.59-5.28-6.74-10.28-13.11-21.08-20.72-11.9-8.36-22.61-11.16-31.86-8.32-14.33,4.41-20.78,21.11-20.85,21.28s-2.61,7.42.64,17c4.38,12.89,17.32,24,37.44,32.25"/></clipPath><clipPath id="clip-path-3" transform="translate(3.75 -65.49)"><path class="cls-1" d="M1252.28,437.55a150.71,150.71,0,0,0-148.1,122.85h296.2A150.73,150.73,0,0,0,1252.28,437.55Z"/></clipPath></defs><g id="Capa_2" data-name="Capa 2"><g id="Arte"><g class="cls-2"><path class="cls-3" d="M61.75,243.17h134.1s-1-16.23-25.82-16.23c0,0-6.29-20.2-31.79-20.2-12,0-19.54,2-28.81,9.94C109.43,216.68,61.75,211,61.75,243.17Z" transform="translate(3.75 -65.49)"/><path class="cls-4" d="M1028.76,403c-11,5.95-28.71,5.95-39.67,0l-39-21.21c-11-5.95-28.71-5.95-39.67,0l-141.58,77c-11,6-28.72,6-39.67,0l-60.77-33c-10.95-6-28.71-6-39.66,0l-39.28,21.35c-11,6-28.72,6-39.67,0L355,341.21c-11-5.95-28.71-5.95-39.67,0l-62.63,34.05c-5.26,2.86-12.4,4.47-19.84,4.47L46.28,203.28c-16.79-11-49.59-4.51-49.59,9.76V543.69h0v15.42l1440,2V454.81Z" transform="translate(3.75 -65.49)"/><path class="cls-4" d="M647.52,567.22c-6.63,0-8.68,1.29-13.73,6.23s-9.42,2.13-11.57-.07c-2.34-2.4-4.67-6.33-11.31-6.37s-8.67,1.28-13.73,6.23-9.42,2.13-11.57-.07c-2.34-2.4-4.67-6.33-11.31-6.37h.51c-6.63,0-8.68,1.28-13.74,6.22s-9.42,2.13-11.56-.06c-2.34-2.4-4.67-6.34-11.31-6.37s-8.68,1.28-13.73,6.22-9.42,2.13-11.57-.07c-2.34-2.4-4.67-6.33-11.31-6.37H502c-6.64,0-8.68,1.29-13.74,6.23s-9.42,2.13-11.56-.07c-2.34-2.4-4.68-6.33-11.31-6.37s-8.68,1.28-13.74,6.23-9.42,2.13-11.56-.07c-2.34-2.4-4.17-6.33-10.81-6.37h0V558H647.55Z" transform="translate(3.75 -65.49)"/><path class="cls-4" d="M792.33,566.8h.5c-6.64,0-8.69,1.28-13.76,6.22s-9.43,2.13-11.58-.06c-2.34-2.4-4.68-6.34-11.32-6.37s-8.7,1.28-13.76,6.22-9.44,2.13-11.58-.07c-2.35-2.4-4.69-6.33-11.33-6.37h.41c-6.65,0-8.69,1.28-13.76,6.23s-9.43,2.13-11.58-.07c-2.34-2.4-4.68-6.33-11.33-6.37s-8.69,1.28-13.76,6.22-9.43,2.13-11.58-.06c-2.34-2.4-4.2-5-10.85-5.09l0-9.23H791.52" transform="translate(3.75 -65.49)"/><path class="cls-5" d="M1437.45,570.22c-6.65,0-8.7,1.29-13.76,6.23s-9.44,2.13-11.58-.07c-2.35-2.4-4.68-6.33-11.33-6.37s-8.69,1.28-13.76,6.23-9.44,2.13-11.58-.07c-2.35-2.4-4.68-6.33-11.33-6.37h.51c-6.65,0-8.69,1.28-13.76,6.22s-9.44,2.13-11.58-.06c-2.35-2.4-4.68-6.34-11.33-6.37s-8.69,1.28-13.76,6.22-9.44,2.13-11.58-.07c-2.34-2.4-4.68-6.33-11.33-6.37h.42c-6.65,0-8.7,1.28-13.77,6.23s-9.43,2.13-11.57-.07c-2.35-2.4-4.69-6.33-11.33-6.37s-8.7,1.28-13.76,6.22-9.44,2.13-11.58-.06c-2.35-2.4-4.18-6.33-10.83-6.37h0V561h218.6Z" transform="translate(3.75 -65.49)"/><path class="cls-5" d="M1219.89,570.22c-6.64,0-8.69,1.29-13.76,6.23s-9.43,2.13-11.58-.07c-2.34-2.4-4.68-6.33-11.33-6.37s-8.69,1.28-13.76,6.23-9.43,2.13-11.58-.07c-2.34-2.4-4.68-6.33-11.32-6.37h.5c-6.64,0-8.69,1.28-13.76,6.22s-9.43,2.13-11.58-.06c-2.34-2.4-4.68-6.34-11.32-6.37s-8.7,1.28-13.76,6.22-9.44,2.13-11.58-.07c-2.35-2.4-4.69-6.33-11.33-6.37h.41c-6.65,0-8.69,1.28-13.76,6.23s-9.43,2.13-11.58-.07c-2.34-2.4-4.68-6.33-11.33-6.37s-8.69,1.28-13.76,6.22-9.43,2.13-11.58-.06c-2.34-2.4-4.18-6.33-10.82-6.37l10.83-9,207.78,1Z" transform="translate(3.75 -65.49)"/><path class="cls-4" d="M1012.16,560.12a11,11,0,0,1-7.16,10.13c-2.31.9-4.26,2.53-7.15,5.24-5.26,4.94-9.8,2.13-12-.07-2.44-2.4-4.87-6.33-11.77-6.37s-9,1.28-14.29,6.22-9.79,2.13-12-.07c-2.43-2.4-4.86-6.33-11.76-6.37h.52c-6.9,0-9,1.28-14.28,6.22s-9.8,2.13-12-.07c-2.43-2.4-4.86-6.33-11.76-6.37s-9,1.28-14.29,6.22-9.8,2.13-12-.07c-2.44-2.4-4.86-6.33-11.77-6.37h.43c-6.9,0-9,1.28-14.28,6.22s-9.8,2.13-12-.07c-2.43-2.4-4.86-6.33-11.76-6.37s-9,1.28-14.29,6.22-9.8,2.13-12-.07c-2.44-2.4-4.34-6.33-11.25-6.37v-8l227,0Z" transform="translate(3.75 -65.49)"/><path class="cls-4" d="M1238.56,176.48h60.82s-.45-7.35-11.72-7.35c0,0-2.85-9.16-14.41-9.16-5.43,0-8.86.9-13.07,4.5C1260.18,164.47,1238.56,161.89,1238.56,176.48Z" transform="translate(3.75 -65.49)"/><path class="cls-6" d="M224,217.91H131.23s.69-11.23,17.87-11.23c0,0,4.35-14,22-14,8.28,0,13.51,1.38,19.93,6.87C191,199.58,224,195.64,224,217.91Z" transform="translate(3.75 -65.49)"/><path class="cls-4" d="M155.48,90.68H62.73s.68-11.22,17.86-11.22c0,0,4.35-14,22-14,8.27,0,13.51,1.37,19.92,6.87C122.5,72.36,155.48,68.42,155.48,90.68Z" transform="translate(3.75 -65.49)"/><path class="cls-4" d="M377.77,129.83H285s.69-11.22,17.86-11.22c0,0,4.35-14,22-14,8.27,0,13.51,1.37,19.92,6.87C344.79,111.51,377.77,107.56,377.77,129.83Z" transform="translate(3.75 -65.49)"/><path class="cls-5" d="M214.84,565.94c-6.65,0-8.7,1.28-13.76,6.23s-9.44,2.12-11.58-.07c-2.35-2.4-4.68-6.33-11.33-6.37S169.48,567,164.41,572s-9.44,2.13-11.58-.06c-2.35-2.4-4.68-6.34-11.33-6.37l.51,0c-6.65,0-8.69,1.29-13.76,6.23s-9.44,2.13-11.58-.07c-2.35-2.4-4.68-6.33-11.33-6.37s-8.69,1.29-13.76,6.23-9.44,2.13-11.58-.07c-2.34-2.4-4.68-6.33-11.33-6.37h.42c-6.65,0-8.7,1.28-13.76,6.22s-9.44,2.13-11.58-.06c-2.35-2.4-4.69-6.34-11.33-6.37s-8.7,1.28-13.76,6.22S9.22,573.22,7.08,571c-2.35-2.41-4.18-6.34-10.83-6.38h0v-7.93h218.6Z" transform="translate(3.75 -65.49)"/><path class="cls-5" d="M429.25,565.94c-6.66,0-8.7,1.29-13.78,6.23s-9.45,2.13-11.6-.07c-2.35-2.4-4.69-6.33-11.34-6.37S383.82,567,378.74,572s-9.45,2.12-11.59-.07c-2.35-2.4-4.69-6.33-11.35-6.37h.51c-6.66,0-8.71,1.28-13.78,6.22s-9.45,2.13-11.6-.07c-2.35-2.4-4.69-6.33-11.34-6.37s-8.71,1.29-13.79,6.23-9.45,2.13-11.59-.07c-2.35-2.4-4.69-6.33-11.35-6.37h.41c-6.65,0-8.7,1.28-13.78,6.22s-9.45,2.13-11.59-.06c-2.35-2.4-4.69-6.33-11.35-6.37s-8.71,1.28-13.78,6.22-9.45,2.13-11.6-.06c-2.35-2.41-4.18-6.34-10.84-6.38h0v-7.93H429.27Z" transform="translate(3.75 -65.49)"/><path class="cls-5" d="M525.12,573c-5.08,4.94-9.45,2.13-11.6-.07-2.35-2.4-4.69-6.33-11.35-6.37s-8.7,1.28-13.78,6.23-9.45,2.13-11.59-.07c-2.35-2.4-4.69-6.33-11.35-6.37H466c-6.66,0-8.71,1.28-13.78,6.22s-9.45,2.13-11.6-.06c-2.35-2.4-4.69-6.34-11.35-6.37s-8.7,1.28-13.78,6.22-9.45,2.13-11.6-.07c-2.34-2.4-4.68-6.33-11.34-6.37h.41c-6.65,0-8.7,1.28-13.78,6.23s-9.45,2.13-11.6-.07c-2.34-2.4-4.68-6.33-11.34-6.37s-8.71,1.28-13.78,6.22-9.45,2.13-11.6-.06c-2.35-2.4-4.19-6.34-10.84-6.37v-8H519.86S530.19,568,525.12,573Z" transform="translate(3.75 -65.49)"/><path class="cls-5" d="M-3.31,509.9H423.16c3.7,0,6.7,3.93,6.7,8.78h0c0,4.85,3,8.78,6.7,8.78H488a30.6,30.6,0,0,1,13.43,3.15A33.32,33.32,0,0,1,518,549.31l4.52,12.3H-3.31Z" transform="translate(3.75 -65.49)"/><circle class="cls-5" cx="1273.73" cy="327.86" r="121.63"/></g><polyline class="cls-3" points="18.15 442.86 467.75 442.86 467.75 242.7 384.27 326.18 306.27 326.18 242.45 262.37 215.37 262.37 183.14 227.56 150.91 262.37 93.28 197.28 57.11 236.13 31.01 216.48 4.99 236.88 5.89 442.86 18.15 442.86"/><polyline class="cls-6" points="17.6 443.07 466.52 443.07 466.52 325.75 447.82 344.44 432.03 328.65 391.74 368.94 343.14 368.94 299.79 412.29 260.24 368.61 179.98 368.61 150.65 339.28 139.69 339.28 117.77 317.37 65.56 358.8 17.6 358.8 5.61 358.8 5.61 443.06 17.6 443.06"/><polygon class="cls-5" points="298.96 416.11 209.09 326.24 386.77 326.24 298.96 416.11"/><path class="cls-3" d="M1304.28,508c-1.9-1-3.88-2.13-5.89-3.22-14.45-7.85-29.4-16-31.36-25.21a10.08,10.08,0,0,1,2.08-8.44,12.37,12.37,0,0,1,9.69-5.24c6.65-.1,14.36,5.09,23,15.46a129.59,129.59,0,0,0,23.43,22.18c19.38,14.09,46.59,27.89,66.19,13.58,13.15-9.58,19.38-21.17,18.54-34.43-1.32-20.53-18.82-38.72-27.46-43.46-12-6.57-21.65-9.83-31.93-13.29-11.19-3.77-22.77-7.66-38.74-16.05-14.58-7.66-15.22-16.45-13.18-22.47,2.26-6.7,6.73-11.24,12.26-12.47s11.78,1.07,16.82,6.36c17.61,18.48,33.51,31.31,58.37,38.19,11.86,3.28,27.17,4.83,32.75-6.42,6.31-12.7-2.67-38.06-17.46-49.33-7.53-5.74-10.85-11.68-9.88-17.65.81-5,4.56-9.54,11.63-13.54h0a35.92,35.92,0,0,1,8.65-4.35,4.05,4.05,0,0,1,.5-.12c5.26-.84,13.88-4.93,12.49-22.8-.43-5.62,1.16-16.79,2.57-25.16a6.35,6.35,0,0,0-3-6.52h0a6.28,6.28,0,0,0-7,.46,204.17,204.17,0,0,1-23.13,15c-12.94,7.36-13.16,13.81-13.42,21.29-.1,3.09-.21,6.28,0,9.56h0a71,71,0,0,0-4.69,8.28,31.27,31.27,0,0,0-3.78,20.95c2,11,7.71,20.84,16.89,29.21h0a14.43,14.43,0,0,1,4.7,10.75,13.41,13.41,0,0,1-4.55,10.09,11.55,11.55,0,0,1-9.34,3c-7-.91-14.76-7.82-23.66-21.11-11.23-16.77-20.07-30-37.9-33.15h0a41.14,41.14,0,0,0-30.17,3.24,45.29,45.29,0,0,0-20.86,22.17c-9.85,22.59,1.63,42.3,34.13,58.59,20.45,10.25,35.32,17.05,46.18,22,5.31,2.42,9.49,4.33,13,6a25.93,25.93,0,0,1,14.85,24.9c-.3,4.87-2.75,11.65-8.61,14.7-3.38,1.75-9.1,2.81-17.19-2.14-14.79-9.05-21-17-27-24.59-5.28-6.74-10.28-13.11-21.08-20.72-11.9-8.36-22.61-11.16-31.86-8.32-14.33,4.41-20.78,21.11-20.85,21.28s-2.61,7.42.64,17c4.38,12.89,17.32,24,37.44,32.25" transform="translate(3.75 -65.49)"/><g class="cls-7"><path class="cls-6" d="M1280.17,346.87a29.42,29.42,0,0,0,23.25,16.06c5.91.56,13.27-2.11,13.84-8,.6-6.07-6.3-10-12.27-11.24a52.41,52.41,0,0,0-20.84,0" transform="translate(3.75 -65.49)"/><path class="cls-6" d="M1275.29,348.21c4.82,16.7,33.67,31.43,46.24,14.26,6.1-8.34,1.16-18.55-7.18-22.94-5-2.62-10.43-3.56-16-4-5.94-.49-14.45-1.13-18.6,3.82-2.48,2.95-2.48,7.63,1.25,9.71s6.56,1.32,10.68,1a42.81,42.81,0,0,1,11.36.56c1.78.36,8.64,2.15,6.52,4.33-2.8,2.86-10,.78-13-.47-5.51-2.34-9.19-6.68-12.86-11.2-3.28-4.05-9.79.34-8.46,4.92Z" transform="translate(3.75 -65.49)"/><path class="cls-6" d="M1297.3,391.79c-1.49-2.58-5.83-2.17-7.45.32s-.89,6,1,8.29,4.65,3.69,7.38,4.87a100.56,100.56,0,0,0,19,6.1c2.12.46,4.62.74,6.19-.75,2.43-2.31.43-6.4-1.91-8.81a42.41,42.41,0,0,0-27.75-12.73" transform="translate(3.75 -65.49)"/><path class="cls-6" d="M1299.52,390.49c-1.73-3.87-6.35-5-10.14-3.53-5.49,2.1-6.77,8.63-4.78,13.61,2.28,5.7,7.88,8.5,13.19,10.79,6.32,2.72,13.07,5.33,19.9,6.34,5.52.83,11.48-1.45,12.88-7.4s-2.55-11.46-6.7-15.28a50.4,50.4,0,0,0-16.14-9.94c-5.46-2.11-13.44-5-18.06-.08-1.65,1.76-2.37,4.86-.91,7,3.55,5.16,9.88,4.31,15.34,6.27s8.73,5.3,13.13,8.5a2.94,2.94,0,0,1,.58.78q.92,1.89,2-2c-.15-.35-3.12-.53-3.66-.65-3.25-.73-6.47-1.61-9.63-2.65a54.82,54.82,0,0,1-8.16-3.15c-1.22-.63-2.9-1.45-3.59-2.71-.57-1.06-1.16-4,1.19-2.34s4.45-1.44,3.52-3.52Z" transform="translate(3.75 -65.49)"/><path class="cls-6" d="M1373.71,431.94l22,33.94c2.34,3.6,4.76,7.29,8.27,9.75s8.43,3.44,12.11,1.23c3.13-1.87,4.73-5.67,4.73-9.31a22.51,22.51,0,0,0-3.08-10.37,51.34,51.34,0,0,0-37-26.28" transform="translate(3.75 -65.49)"/><path class="cls-6" d="M1371.24,433.38c3.59,7.59,7.87,14.66,12.18,21.86,3.72,6.21,7.15,12.77,11.42,18.63,3.72,5.11,8.63,9.14,15.12,9.79a14.85,14.85,0,0,0,14.79-7.81c6.16-11.62-2.3-25.42-10-34a56.27,56.27,0,0,0-32.1-17.67c-8.82-1.52-12.55,12-3.72,13.47a48.12,48.12,0,0,1,22.73,10c5.25,4.27,15.1,14.1,13,21.71-3.11,11.26-17-9.58-18.94-12.38-6.45-9.21-12.65-18.53-20-27.07-2.25-2.61-5.8.72-4.49,3.47Z" transform="translate(3.75 -65.49)"/><path class="cls-6" d="M1361.28,456.24a39.49,39.49,0,0,1,19.6,21.94c1.36,3.78,2.11,8,.84,11.8s-5,7-9,6.49q-5.31-19.11-10.61-38.22" transform="translate(3.75 -65.49)"/><path class="cls-6" d="M1358.59,458.92c4.63,5.08,9.82,8.8,13.49,14.85,1.81,3,8.12,16.62.6,16.39l6.09,4.63-5.49-20.08c-1.67-6.12-2.52-14.14-6.35-19.29-3.4-4.57-9.92-2.92-10.49,2.83-.63,6.41,2.77,13.75,4.49,19.86l5.66,20a6.45,6.45,0,0,0,6.09,4.64,15.33,15.33,0,0,0,13.93-8.4c3.14-6,2-13.21-.4-19.24-4.14-10.4-13.27-21.29-24.93-22.71-3.52-.43-4.67,4.3-2.69,6.48Z" transform="translate(3.75 -65.49)"/><path class="cls-6" d="M1369.28,348c3.78,2.43,9.18.13,11.52-3.71s2.41-8.61,2.12-13.1c-.16-2.6-1.18-5.94-3.78-5.93-2,0-3.22,2.08-4.06,3.87l-7.83,16.73" transform="translate(3.75 -65.49)"/><path class="cls-6" d="M1367.82,351.07c5.28,4.74,12.86,2.29,16.92-2.84,4.35-5.47,5.51-14.32,3.75-21-1.89-7.14-9.9-11.06-15.85-5.58-2.9,2.66-4.36,6.82-6,10.3-1.86,4-4.24,8-5.28,12.28-1.73,7,7.16,10.1,11.13,4.7,2.28-3.1,3.66-7,5.3-10.46.83-1.78,1.62-3.57,2.44-5.36.27-.63.56-1.25.87-1.87q-5.47-3-4.3-.06c-.41,1.07.21,3.28.19,4.54,0,1.89,0,4-1,5.75-1.41,2.41-4,3.19-6.59,3.62s-3.46,4.29-1.58,6Z" transform="translate(3.75 -65.49)"/><path class="cls-6" d="M1412.11,364.12c-5.49-.11-8.15,7.22-6.64,12.5s5.36,9.69,6.7,15,0,10.8.09,16.23,2.18,11.63,7.32,13.39c6.34,2.18,12.94-4.37,13.49-11.05s-2.92-13-6.28-18.77l-14.55-25.15" transform="translate(3.75 -65.49)"/><path class="cls-6" d="M1413.05,360.73c-5.71-1.88-10.23,2.26-12.24,7.36-2.69,6.84-.12,12.83,2.93,19a21.38,21.38,0,0,1,2.6,11.67c-.23,3.89-.85,7.72-.46,11.62.62,6.2,3.21,12.4,8.71,15.77,5.85,3.59,13,2.3,18.12-2,5.64-4.75,7.83-11.92,6.83-19.1-1.14-8.1-5.78-15.17-9.79-22.13-4.17-7.26-7.71-16.51-14.81-21.3-3.25-2.19-8.32.68-8,4.62.43,5.94,3.31,10.13,6.24,15.18s5.81,9.87,8.63,14.85c2.15,3.81,5.29,8.82,4.62,13.43-.32,2.15-2.58,6.28-5.23,5s-2.39-7.18-2.3-9.58c.19-5.32.7-10.78-1-15.93-1.88-5.79-12.73-17.62-4-22.07,2.84-1.45,1.86-5.54-.84-6.42Z" transform="translate(3.75 -65.49)"/></g><polygon class="cls-5" points="240.24 308.44 258.44 328.6 220.35 328.6 240.24 308.44"/><polygon class="cls-5" points="200.73 389.38 182.53 369.22 220.61 369.22 200.73 389.38"/><path class="cls-5" d="M146.79,414.94,128.58,391.3h45.6L172,434.77l-13.11,0,0,0h-6.12a25.42,25.42,0,0,1-25.43-25.42Z" transform="translate(3.75 -65.49)"/><path class="cls-8" d="M319.23,396.78c-.09-.17-.18-.34-.26-.51-6.22,24.82-57.89,39.86-85.73,38.55l-61.83-.05-.26-43.47H318.91" transform="translate(3.75 -65.49)"/><polygon class="cls-3" points="314.45 330.7 335.04 342.58 355.63 354.47 343.81 330.7 355.63 306.92 335.04 318.81 314.45 330.7"/><path class="cls-9" d="M1252.28,441.25a145.41,145.41,0,0,0-142.89,118.52h285.78A145.41,145.41,0,0,0,1252.28,441.25Z" transform="translate(3.75 -65.49)"/><path class="cls-3" d="M1181.9,448.38l22.2,5.71c0-.32,0-.65,0-1,0-2.63,0-5.45,0-8.43a9.5,9.5,0,0,1-.65-19c-.27-4.06-.65-8.19-1.18-12.34l-31.82,18.81a6.69,6.69,0,0,1-6.81-11.51l35.28-20.85a7.1,7.1,0,0,1,.92-.45h0c-.36-1.64-.77-3.28-1.22-4.89a4.55,4.55,0,0,1-2,.46,4.64,4.64,0,0,1-.84-9.21q-.75-2-1.59-3.9l-26.24,15.5a6.68,6.68,0,0,1-6.8-11.51l26.44-15.62a46.68,46.68,0,0,0-10.12-10.26l-3.36,3.91a5.2,5.2,0,1,1-7.88-6.78l2-2.31c-4-1.64-38.78-1.12-41.8.15l8,4.69a6.69,6.69,0,1,1-6.77,11.53L1113.78,363a52.88,52.88,0,0,0-11,14.69L1132.28,395a6.69,6.69,0,0,1-6.77,11.54l-27.85-16.36a113.86,113.86,0,0,0-3.55,14.43l35.09,20.62a6.69,6.69,0,1,1-6.78,11.53L1092.15,419c-1.19,12.52-1.18,24.65-1.17,34.24l18.16-4.71a6.69,6.69,0,1,1,3.37,12.94l-17.7,4.6c12.7,16.68,52.76,4.27,52.76,4.27s38.67,11.88,52-3.54l-21-5.41a6.69,6.69,0,0,1,3.33-13ZM1128.72,463a5.7,5.7,0,1,1,5.68-5.7A5.7,5.7,0,0,1,1128.72,463Z" transform="translate(3.75 -65.49)"/><path class="cls-10" d="M1147.55,503.52a3.47,3.47,0,0,1-3.47-3.47V364.56a3.47,3.47,0,1,1,6.93,0V500.05A3.46,3.46,0,0,1,1147.55,503.52Z" transform="translate(3.75 -65.49)"/><g class="cls-11"><path class="cls-6" d="M1092.69,515.73h232.54c8.11.11,14.65,7,14.65,15.5s-6.65,15.5-14.84,15.5h-38l0,0c-9.62,0-17.42,8.15-17.42,18.2s7.8,18.21,17.42,18.21h91l-18.22,19H1086.45S1093.06,516.12,1092.69,515.73Z" transform="translate(3.75 -65.49)"/><path class="cls-6" d="M1388.06,438.54H1246a11.48,11.48,0,0,0,.14,22.94h28.15l0,0c7.12,0,12.9,6,12.9,13.47s-5.78,13.46-12.9,13.46h-157.6l13.48,14.09h262.58S1387.78,438.83,1388.06,438.54Z" transform="translate(3.75 -65.49)"/></g></g></g></svg>