<svg xmlns="http://www.w3.org/2000/svg" xmlns:xlink="http://www.w3.org/1999/xlink" viewBox="0 0 1519.28 529.08"><defs><style>.cls-1{fill:none;}.cls-2{clip-path:url(#clip-path);}.cls-3{fill:#f7f7f7;}.cls-4{fill:#fdf6e6;}.cls-5{clip-path:url(#clip-path-2);}.cls-6{fill:#a09f9f;}.cls-7{fill:#444;}.cls-8{fill:#6b6a6a;}.cls-9{fill:#faf8d8;}.cls-10{fill:#494949;}.cls-11{fill:#e65c5b;}.cls-12{fill:#606060;}.cls-13{fill:#213039;}</style><clipPath id="clip-path" transform="translate(65.58 -50.11)"><rect class="cls-1" x="9.95" width="1440" height="579.19"/></clipPath><clipPath id="clip-path-2" transform="translate(65.58 -50.11)"><polygon class="cls-1" points="9.95 341.28 446.21 341.28 446.54 511.01 9.95 510.93 9.95 341.28"/></clipPath></defs><g id="Capa_2" data-name="Capa 2"><g id="Arte"><g class="cls-2"><path class="cls-3" d="M109.45,149.5h134.1s-1-16.23-25.83-16.23c0,0-6.29-20.2-31.78-20.2-12,0-19.54,2-28.81,9.94C157.13,123,109.45,117.31,109.45,149.5Z" transform="translate(65.58 -50.11)"/><path class="cls-3" d="M1038.71,403c-11,5.95-28.71,5.95-39.67,0L960,381.8c-10.95-5.95-28.71-5.95-39.67,0l-141.59,77c-10.95,6-28.71,6-39.66,0l-60.77-33c-11-6-28.71-6-39.66,0L599.4,447.09c-11,6-28.72,6-39.67,0L365,341.21c-11-5.95-28.72-5.95-39.67,0l-62.63,34.05c-5.26,2.86-12.4,4.47-19.84,4.47L56.23,203.28c-16.79-11-49.59-4.51-49.59,9.76V543.69h0v15.42l1440,2V454.81Z" transform="translate(65.58 -50.11)"/><path class="cls-3" d="M657.47,567.22c-6.63,0-8.68,1.29-13.74,6.23s-9.42,2.13-11.56-.07c-2.34-2.4-4.67-6.33-11.31-6.37s-8.68,1.28-13.74,6.23-9.42,2.13-11.56-.07c-2.34-2.4-4.67-6.33-11.31-6.37h.51c-6.64,0-8.68,1.28-13.74,6.22s-9.42,2.13-11.56-.06c-2.34-2.4-4.67-6.34-11.31-6.37s-8.68,1.28-13.74,6.22-9.42,2.13-11.56-.07c-2.34-2.4-4.67-6.33-11.31-6.37H512c-6.64,0-8.68,1.29-13.74,6.23s-9.42,2.13-11.56-.07c-2.34-2.4-4.68-6.33-11.31-6.37s-8.68,1.28-13.74,6.23-9.42,2.13-11.56-.07c-2.34-2.4-4.17-6.33-10.81-6.37h0V558H657.5Z" transform="translate(65.58 -50.11)"/><path class="cls-3" d="M802.27,566.8h.51c-6.64,0-8.69,1.28-13.76,6.22s-9.43,2.13-11.58-.06c-2.34-2.4-4.68-6.34-11.33-6.37s-8.69,1.28-13.76,6.22-9.43,2.13-11.58-.07c-2.34-2.4-4.68-6.33-11.32-6.37h.41c-6.65,0-8.69,1.28-13.76,6.23s-9.44,2.13-11.58-.07c-2.34-2.4-4.68-6.33-11.33-6.37s-8.69,1.28-13.76,6.22-9.43,2.13-11.58-.06c-2.34-2.4-4.2-5-10.85-5.09l0-9.23H801.47" transform="translate(65.58 -50.11)"/><path class="cls-4" d="M1447.4,570.22c-6.65,0-8.7,1.29-13.76,6.23s-9.44,2.13-11.58-.07c-2.35-2.4-4.69-6.33-11.33-6.37s-8.7,1.28-13.76,6.23-9.44,2.13-11.58-.07c-2.35-2.4-4.68-6.33-11.33-6.37h.51c-6.65,0-8.7,1.28-13.76,6.22s-9.44,2.13-11.58-.06c-2.35-2.4-4.68-6.34-11.33-6.37s-8.69,1.28-13.76,6.22-9.44,2.13-11.58-.07c-2.35-2.4-4.68-6.33-11.33-6.37h.41c-6.64,0-8.69,1.28-13.76,6.23s-9.43,2.13-11.58-.07c-2.34-2.4-4.68-6.33-11.32-6.37s-8.7,1.28-13.76,6.22-9.44,2.13-11.58-.06c-2.35-2.4-4.18-6.33-10.83-6.37h0V561h218.6Z" transform="translate(65.58 -50.11)"/><path class="cls-4" d="M1229.84,570.22c-6.65,0-8.69,1.29-13.76,6.23s-9.43,2.13-11.58-.07c-2.34-2.4-4.68-6.33-11.33-6.37s-8.69,1.28-13.76,6.23-9.43,2.13-11.58-.07c-2.34-2.4-4.68-6.33-11.33-6.37h.51c-6.64,0-8.69,1.28-13.76,6.22s-9.43,2.13-11.58-.06c-2.34-2.4-4.68-6.34-11.33-6.37s-8.69,1.28-13.76,6.22-9.43,2.13-11.58-.07c-2.34-2.4-4.68-6.33-11.32-6.37h.41c-6.65,0-8.69,1.28-13.76,6.23s-9.44,2.13-11.58-.07c-2.34-2.4-4.68-6.33-11.33-6.37s-8.69,1.28-13.76,6.22-9.43,2.13-11.58-.06c-2.34-2.4-4.18-6.33-10.82-6.37l10.83-9,207.77,1Z" transform="translate(65.58 -50.11)"/><path class="cls-3" d="M1022.11,560.12a11,11,0,0,1-7.16,10.13c-2.31.9-4.26,2.53-7.15,5.24-5.26,4.94-9.8,2.13-12-.07-2.44-2.4-4.87-6.33-11.77-6.37s-9,1.28-14.29,6.22-9.79,2.13-12-.07c-2.43-2.4-4.86-6.33-11.76-6.37h.52c-6.9,0-9,1.28-14.28,6.22s-9.8,2.13-12-.07c-2.43-2.4-4.86-6.33-11.76-6.37s-9,1.28-14.29,6.22-9.8,2.13-12-.07c-2.44-2.4-4.87-6.33-11.77-6.37h.43c-6.9,0-9,1.28-14.29,6.22s-9.79,2.13-12-.07c-2.43-2.4-4.86-6.33-11.76-6.37s-9,1.28-14.29,6.22-9.8,2.13-12-.07c-2.44-2.4-4.35-6.33-11.25-6.37v-8l227,0Z" transform="translate(65.58 -50.11)"/><path class="cls-3" d="M1453.7,298.33H1216.44c-28.11,0-55.08,7.28-75,20.23h0c-19.87,12.95-31,30.52-31,48.83V561.61H1453.7Z" transform="translate(65.58 -50.11)"/><path class="cls-3" d="M1248.5,176.48h60.83s-.46-7.35-11.72-7.35c0,0-2.85-9.16-14.42-9.16-5.42,0-8.86.9-13.06,4.5C1270.13,164.47,1248.5,161.89,1248.5,176.48Z" transform="translate(65.58 -50.11)"/><path class="cls-3" d="M259.1,75.3H166.35s.68-11.22,17.86-11.22c0,0,4.35-14,22-14,8.27,0,13.51,1.38,19.92,6.87C226.12,57,259.1,53,259.1,75.3Z" transform="translate(65.58 -50.11)"/><path class="cls-4" d="M224.79,565.94c-6.65,0-8.7,1.28-13.76,6.23s-9.44,2.12-11.58-.07c-2.35-2.4-4.69-6.33-11.33-6.37s-8.7,1.28-13.76,6.22-9.44,2.13-11.58-.06c-2.35-2.4-4.68-6.34-11.33-6.37l.51,0c-6.65,0-8.7,1.29-13.76,6.23s-9.44,2.13-11.58-.07c-2.35-2.4-4.68-6.33-11.33-6.37s-8.69,1.29-13.76,6.23-9.44,2.13-11.58-.07c-2.35-2.4-4.68-6.33-11.33-6.37H79c-6.64,0-8.69,1.28-13.76,6.22s-9.43,2.13-11.58-.06c-2.34-2.4-4.68-6.34-11.32-6.37s-8.7,1.28-13.76,6.22S19.17,573.22,17,571c-2.35-2.41-4.18-6.34-10.83-6.38h0v-7.93h218.6Z" transform="translate(65.58 -50.11)"/><path class="cls-4" d="M439.2,565.94c-6.66,0-8.71,1.29-13.78,6.23s-9.45,2.13-11.6-.07c-2.35-2.4-4.69-6.33-11.35-6.37s-8.7,1.28-13.78,6.23-9.45,2.12-11.59-.07c-2.35-2.4-4.69-6.33-11.35-6.37h.51c-6.66,0-8.71,1.28-13.78,6.22s-9.45,2.13-11.6-.07c-2.35-2.4-4.69-6.33-11.35-6.37s-8.7,1.29-13.78,6.23-9.45,2.13-11.6-.07c-2.34-2.4-4.68-6.33-11.34-6.37h.41c-6.65,0-8.7,1.28-13.78,6.22s-9.45,2.13-11.6-.06c-2.34-2.4-4.68-6.33-11.34-6.37s-8.71,1.28-13.78,6.22-9.45,2.13-11.6-.06c-2.35-2.41-4.19-6.34-10.84-6.38h0v-7.93H439.22Z" transform="translate(65.58 -50.11)"/><path class="cls-4" d="M535.07,573c-5.08,4.94-9.45,2.13-11.6-.07-2.35-2.4-4.69-6.33-11.35-6.37s-8.7,1.28-13.78,6.23-9.45,2.13-11.6-.07c-2.34-2.4-4.68-6.33-11.34-6.37h.51c-6.66,0-8.71,1.28-13.78,6.22s-9.45,2.13-11.6-.06c-2.35-2.4-4.69-6.34-11.35-6.37s-8.7,1.28-13.78,6.22-9.45,2.13-11.6-.07c-2.34-2.4-4.68-6.33-11.34-6.37h.41c-6.66,0-8.7,1.28-13.78,6.23s-9.45,2.13-11.6-.07c-2.34-2.4-4.69-6.33-11.34-6.37s-8.71,1.28-13.78,6.22-9.45,2.13-11.6-.06c-2.35-2.4-4.19-6.34-10.84-6.37v-8H529.8S540.14,568,535.07,573Z" transform="translate(65.58 -50.11)"/><path class="cls-4" d="M6.63,509.9H433.11c3.7,0,6.7,3.93,6.7,8.78h0c0,4.85,3,8.78,6.7,8.78h51.42a30.6,30.6,0,0,1,13.43,3.15,33.36,33.36,0,0,1,16.54,18.7l4.52,12.3H6.63Z" transform="translate(65.58 -50.11)"/></g><g class="cls-5"><path class="cls-6" d="M278.61,429.53l-72.12.05-58.78-38.47h-25L93,367.57,63.22,391.11,10,347.1l-33.38,26.27-24.1-13.29-18.12,13.74V513.16H361.13l-.06-2.36a83.18,83.18,0,0,0-82.46-81.27Z" transform="translate(65.58 -50.11)"/></g><path class="cls-6" d="M159.55,247.36h-5.19c0-.17,0-.33,0-.49a21.45,21.45,0,0,0-21.45-21.45l-75.21-.25a21.46,21.46,0,0,0-21.46,21.45c0,.18,0,.35,0,.52l-14.81,0a21.46,21.46,0,0,0,0,42.91h0a21.45,21.45,0,0,0,21.44,21l94.2.25a21.45,21.45,0,0,0,21.44-21h1a21.46,21.46,0,1,0,0-42.91Z" transform="translate(65.58 -50.11)"/><path class="cls-7" d="M97.09,329V518.57H85.18V304.93l-32-32.05H40.36a.91.91,0,1,1,0-1.82h11L36.22,256a.91.91,0,1,1,1.29-1.28l27.79,27.8,14.25-14.21L58.25,247a.89.89,0,0,1,0-1.28.91.91,0,0,1,1.29,0L80.84,267l9-9a.91.91,0,0,1,1.29,0,.89.89,0,0,1,0,1.28L66.59,283.76,91,308.22l36-35.94-15.25-15.21a.91.91,0,0,1-.37-.21,1,1,0,0,1-.21-.36l-9.66-9.64a.89.89,0,0,1,0-1.28.91.91,0,0,1,1.29,0l9.3,9.28,9.76-9.74a.92.92,0,0,1,1.29,0,.91.91,0,0,1,0,1.29l-9.76,9.73L128.31,271l13.1-13.07,1.29,1.29L97.09,304.75Z" transform="translate(65.58 -50.11)"/><polygon class="cls-8" points="273.82 470.13 161.33 470.13 161.33 242.5 217.57 202.55 273.82 229.95 273.82 470.13"/><polygon class="cls-9" points="273.82 229.95 406.49 246.32 406.49 470.13 273.82 470.13 273.82 229.95"/><polygon class="cls-10" points="273.82 229.95 406.49 244.32 406.49 470.13 273.82 470.13 273.82 229.95"/><polygon class="cls-4" points="214.66 198.4 154.12 248.46 154.12 254.67 214.66 204.61 214.66 198.4"/><rect class="cls-4" x="185.28" y="406.39" width="36.05" height="63.74"/><rect class="cls-4" x="359.85" y="371.23" width="30.78" height="40.14"/><rect class="cls-4" x="301.45" y="371.23" width="30.78" height="40.14"/><polyline class="cls-4" points="359.86 335.99 390.63 335.99 390.63 295.85 359.86 295.85"/><rect class="cls-4" x="301.45" y="295.85" width="30.78" height="40.14"/><polygon class="cls-4" points="273.82 335.78 234.82 360.74 273.82 360.74 273.82 335.78"/><polygon class="cls-11" points="160.37 335.78 138.56 360.74 160.37 360.74 160.37 335.78"/><polygon class="cls-3" points="234.82 360.74 121.37 360.74 160.37 335.78 273.82 335.78 234.82 360.74"/><polygon class="cls-9" points="431.27 261.75 431.27 267.96 288.44 267.96 214.66 204.61 214.66 198.4 431.27 261.75"/><polygon class="cls-8" points="214.66 198.4 288.44 261.75 431.27 261.75 357.49 198.4 214.66 198.4"/><rect class="cls-9" x="122.6" y="360.74" width="11.78" height="109.39"/><rect class="cls-9" x="133.64" y="360.74" width="11.78" height="109.39"/><rect class="cls-3" x="133.64" y="360.74" width="11.78" height="109.39"/><polygon class="cls-9" points="376.24 241.13 365.46 241.13 354.41 230.07 354.41 189.99 376.24 189.99 376.24 241.13"/><rect class="cls-6" x="364.45" y="189.99" width="11.78" height="51.15"/><rect class="cls-9" x="238.26" y="360.74" width="11.78" height="109.39"/><rect class="cls-9" x="249.3" y="360.74" width="11.78" height="109.39"/><rect class="cls-4" x="249.3" y="360.74" width="11.78" height="109.39"/><circle class="cls-4" cx="210.02" cy="246.67" r="12.77"/><polyline class="cls-4" points="1494.59 521.27 1123.54 521.59 1163.83 358.26 1237.1 302.59 1268.18 302.59 1305.18 272.23 1342.19 302.59 1408.35 245.82 1449.87 279.71 1479.84 262.56 1509.7 280.36 1510.19 521.59 1439.5 521.59"/><polyline class="cls-6" points="1494.59 468.14 1136.91 468.14 1163.83 358.26 1237.1 302.59 1268.18 302.59 1305.18 272.23 1342.19 302.59 1408.35 245.82 1449.87 279.71 1479.84 262.56 1509.7 280.36 1510.19 468.47 1439.5 468.47"/><path class="cls-8" d="M1350.27,374.39c-13.64,11.87-18.23,28.93-18.23,28.93s17.53-2.18,31.18-14.05,18.24-28.94,18.24-28.94S1363.92,362.51,1350.27,374.39Z" transform="translate(65.58 -50.11)"/><path class="cls-12" d="M1313.58,362.32c13.65,11.88,18.24,28.94,18.24,28.94s-17.54-2.18-31.19-14.05-18.24-28.94-18.24-28.94S1299.93,350.45,1313.58,362.32Z" transform="translate(65.58 -50.11)"/><path class="cls-13" d="M1332,516.41a1.35,1.35,0,0,0,1.35-1.34V348.31a1.35,1.35,0,1,0-2.7,0V515.07A1.34,1.34,0,0,0,1332,516.41Z" transform="translate(65.58 -50.11)"/><circle class="cls-12" cx="1397.58" cy="266.14" r="34.74"/><path class="cls-4" d="M1295.49,332.27l73.18-30.51s-.36-18.61-21.5-21.4L1317,353.67S1298.85,353.31,1295.49,332.27Z" transform="translate(65.58 -50.11)"/><path class="cls-4" d="M1347.53,353.69,1317,280.5s-18.62.37-21.41,21.51l73.32,30.17S1368.56,350.33,1347.53,353.69Z" transform="translate(65.58 -50.11)"/><circle class="cls-6" cx="1397.58" cy="266.14" r="14.61"/><path class="cls-8" d="M1168.65,336.48c10.06,8.75,9.54,25.83,9.54,25.83s-16.84,2.88-26.9-5.87-9.54-25.83-9.54-25.83S1158.59,327.72,1168.65,336.48Z" transform="translate(65.58 -50.11)"/><path class="cls-12" d="M1187.77,369.08c-10.06,8.76-9.53,25.83-9.53,25.83s16.84,2.89,26.9-5.86,9.53-25.83,9.53-25.83S1197.83,360.33,1187.77,369.08Z" transform="translate(65.58 -50.11)"/><path class="cls-13" d="M1178.19,518.65a1.34,1.34,0,0,0,1.35-1.35V321.11a1.35,1.35,0,1,0-2.7,0V517.3A1.34,1.34,0,0,0,1178.19,518.65Z" transform="translate(65.58 -50.11)"/><circle class="cls-12" cx="1243.77" cy="228" r="46.6"/><path class="cls-13" d="M1178.19,333.64a1.34,1.34,0,0,0,1.35-1.35V225.93a1.35,1.35,0,1,0-2.7,0V332.29A1.34,1.34,0,0,0,1178.19,333.64Z" transform="translate(65.58 -50.11)"/><path class="cls-13" d="M1125,280.46h106.36a1.35,1.35,0,1,0,0-2.7H1125a1.35,1.35,0,1,0,0,2.7Z" transform="translate(65.58 -50.11)"/><path class="cls-13" d="M1215.79,318.07a1.32,1.32,0,0,0,1-.4,1.35,1.35,0,0,0,0-1.91l-75.21-75.2a1.35,1.35,0,1,0-1.91,1.9l75.21,75.21A1.32,1.32,0,0,0,1215.79,318.07Z" transform="translate(65.58 -50.11)"/><path class="cls-13" d="M1140.59,318.07a1.32,1.32,0,0,0,1-.4l75.21-75.21a1.35,1.35,0,1,0-1.91-1.9l-75.21,75.2a1.36,1.36,0,0,0,0,1.91A1.34,1.34,0,0,0,1140.59,318.07Z" transform="translate(65.58 -50.11)"/><circle class="cls-6" cx="1243.77" cy="228" r="19.59"/><circle class="cls-4" cx="1243.77" cy="228" r="12.6"/><path class="cls-6" d="M1261.48,154.32a.92.92,0,0,1-.94-.9l-1-35.31-8-6.84a.93.93,0,1,1,1.21-1.41l8.59,7.38,1.06,36.12a.93.93,0,0,1-.91,1Z" transform="translate(65.58 -50.11)"/><path class="cls-6" d="M1267.16,154.37a.93.93,0,0,1-.94-.91l-1.06-36.18,10.29-8.14a.93.93,0,1,1,1.16,1.46l-9.56,7.56,1,35.25a.93.93,0,0,1-.91,1Z" transform="translate(65.58 -50.11)"/><path class="cls-6" d="M1264.62,184.51s1.38-3.17,3-8.12l-6.22.08C1263.21,181.39,1264.62,184.51,1264.62,184.51Z" transform="translate(65.58 -50.11)"/><path class="cls-6" d="M1270.71,166.71l-12.61.18c.54,2,1.1,3.82,1.66,5.56l9.46-.12C1269.73,170.56,1270.24,168.69,1270.71,166.71Z" transform="translate(65.58 -50.11)"/><path class="cls-6" d="M1272.17,161.54c2.39-14.44,1.87-31,1.92-37.62l-21.53-.17a201.31,201.31,0,0,0,3.79,37.81c.16.75.33,1.5.51,2.24l14.94-.21C1271.92,162.91,1272.05,162.23,1272.17,161.54Z" transform="translate(65.58 -50.11)"/><path class="cls-12" d="M1210.43,142.53l53,.42s-12.87-18.56-25.89-18.66S1210.61,142.71,1210.43,142.53Z" transform="translate(65.58 -50.11)"/><path class="cls-10" d="M1263.45,143l-53-.41s12.87,18.56,25.89,18.66S1263.27,142.77,1263.45,143Z" transform="translate(65.58 -50.11)"/><path class="cls-12" d="M1263.23,142.05l53,.42s-12.87-18.56-25.89-18.67S1263.41,142.23,1263.23,142.05Z" transform="translate(65.58 -50.11)"/><path class="cls-10" d="M1316.25,142.47l-53-.42s12.87,18.56,25.89,18.66S1316.07,142.29,1316.25,142.47Z" transform="translate(65.58 -50.11)"/></g></g></svg>