<svg xmlns="http://www.w3.org/2000/svg" xmlns:xlink="http://www.w3.org/1999/xlink" viewBox="0 0 1447.5 529.08"><defs><style>.cls-1,.cls-8{fill:none;}.cls-2{clip-path:url(#clip-path);}.cls-3{fill:#f7f7f7;}.cls-4{fill:#fdf6e6;}.cls-5{fill:#606060;}.cls-6{fill:#a09f9f;}.cls-7{fill:#6b6a6a;}.cls-8{stroke:#213039;stroke-miterlimit:10;}.cls-9{fill:#c4d65c;}.cls-10{fill:#b4ce53;}</style><clipPath id="clip-path" transform="translate(3.56 -50.11)"><rect class="cls-1" x="0.19" width="1440" height="579.19"/></clipPath></defs><g id="Capa_2" data-name="Capa 2"><g id="Arte"><g class="cls-2"><path class="cls-3" d="M99.69,149.5h134.1s-1-16.23-25.82-16.23c0,0-6.29-20.2-31.79-20.2-12,0-19.54,2-28.81,9.94C147.37,123,99.69,117.31,99.69,149.5Z" transform="translate(3.56 -50.11)"/><path class="cls-3" d="M1029,403c-11,5.95-28.71,5.95-39.67,0l-39-21.21c-10.95-5.95-28.71-5.95-39.66,0L769,458.77c-11,6-28.72,6-39.67,0l-60.76-33c-11-6-28.72-6-39.67,0l-39.28,21.35c-11,6-28.72,6-39.67,0L355.2,341.21c-10.95-5.95-28.71-5.95-39.67,0L252.9,375.26c-5.26,2.86-12.39,4.47-19.83,4.47L46.48,203.28c-16.8-11-49.6-4.51-49.6,9.76V543.69h0v15.42l1440,2V454.81Z" transform="translate(3.56 -50.11)"/><path class="cls-3" d="M647.72,567.22c-6.64,0-8.68,1.29-13.74,6.23s-9.42,2.13-11.56-.07c-2.34-2.4-4.68-6.33-11.31-6.37s-8.68,1.28-13.74,6.23-9.42,2.13-11.56-.07c-2.34-2.4-4.68-6.33-11.31-6.37h.5c-6.63,0-8.67,1.28-13.73,6.22s-9.42,2.13-11.56-.06c-2.34-2.4-4.68-6.34-11.31-6.37s-8.68,1.28-13.74,6.22-9.42,2.13-11.56-.07c-2.34-2.4-4.68-6.33-11.31-6.37h.41c-6.64,0-8.68,1.29-13.74,6.23s-9.42,2.13-11.56-.07c-2.34-2.4-4.67-6.33-11.31-6.37s-8.68,1.28-13.74,6.23-9.42,2.13-11.56-.07c-2.34-2.4-4.17-6.33-10.81-6.37h0V558H647.74Z" transform="translate(3.56 -50.11)"/><path class="cls-3" d="M792.52,566.8H793c-6.65,0-8.7,1.28-13.76,6.22s-9.44,2.13-11.58-.06c-2.35-2.4-4.68-6.34-11.33-6.37s-8.69,1.28-13.76,6.22-9.44,2.13-11.58-.07c-2.35-2.4-4.68-6.33-11.33-6.37h.41c-6.64,0-8.69,1.28-13.76,6.23s-9.43,2.13-11.58-.07c-2.34-2.4-4.68-6.33-11.33-6.37s-8.69,1.28-13.76,6.22-9.43,2.13-11.58-.06c-2.34-2.4-4.2-5-10.84-5.09l0-9.23H791.71" transform="translate(3.56 -50.11)"/><path class="cls-4" d="M1437.64,570.22c-6.65,0-8.69,1.29-13.76,6.23s-9.44,2.13-11.58-.07c-2.35-2.4-4.68-6.33-11.33-6.37s-8.69,1.28-13.76,6.23-9.44,2.13-11.58-.07c-2.34-2.4-4.68-6.33-11.33-6.37h.51c-6.65,0-8.69,1.28-13.76,6.22s-9.44,2.13-11.58-.06c-2.34-2.4-4.68-6.34-11.33-6.37s-8.69,1.28-13.76,6.22-9.43,2.13-11.58-.07c-2.34-2.4-4.68-6.33-11.33-6.37h.42c-6.65,0-8.7,1.28-13.76,6.23s-9.44,2.13-11.58-.07c-2.35-2.4-4.68-6.33-11.33-6.37s-8.69,1.28-13.76,6.22-9.44,2.13-11.58-.06c-2.35-2.4-4.18-6.33-10.83-6.37h0V561h218.6Z" transform="translate(3.56 -50.11)"/><path class="cls-4" d="M1220.09,570.22c-6.65,0-8.7,1.29-13.77,6.23s-9.43,2.13-11.57-.07c-2.35-2.4-4.69-6.33-11.33-6.37s-8.7,1.28-13.76,6.23-9.44,2.13-11.58-.07c-2.35-2.4-4.68-6.33-11.33-6.37h.51c-6.65,0-8.7,1.28-13.76,6.22s-9.44,2.13-11.58-.06c-2.35-2.4-4.68-6.34-11.33-6.37s-8.69,1.28-13.76,6.22-9.44,2.13-11.58-.07c-2.35-2.4-4.68-6.33-11.33-6.37h.41c-6.64,0-8.69,1.28-13.76,6.23s-9.43,2.13-11.58-.07c-2.34-2.4-4.68-6.33-11.33-6.37s-8.69,1.28-13.76,6.22-9.43,2.13-11.58-.06c-2.34-2.4-4.17-6.33-10.82-6.37l10.83-9,207.78,1Z" transform="translate(3.56 -50.11)"/><path class="cls-3" d="M1012.35,560.12a11,11,0,0,1-7.16,10.13c-2.31.9-4.25,2.53-7.15,5.24-5.26,4.94-9.79,2.13-12-.07-2.44-2.4-4.86-6.33-11.77-6.37s-9,1.28-14.28,6.22-9.8,2.13-12-.07c-2.43-2.4-4.86-6.33-11.76-6.37h.53c-6.91,0-9,1.28-14.29,6.22s-9.8,2.13-12-.07c-2.44-2.4-4.87-6.33-11.77-6.37s-9,1.28-14.29,6.22-9.79,2.13-12-.07c-2.43-2.4-4.86-6.33-11.77-6.37H861c-6.91,0-9,1.28-14.29,6.22s-9.8,2.13-12-.07c-2.43-2.4-4.86-6.33-11.76-6.37s-9,1.28-14.29,6.22-9.79,2.13-12-.07c-2.44-2.4-4.34-6.33-11.24-6.37v-8l227,0Z" transform="translate(3.56 -50.11)"/><path class="cls-4" d="M1443.94,298.33H1206.68c-28.11,0-55.07,7.28-75,20.23h0c-19.88,12.95-31,30.52-31,48.83V561.61h343.26Z" transform="translate(3.56 -50.11)"/><path class="cls-3" d="M1238.75,176.48h60.82s-.45-7.35-11.72-7.35c0,0-2.85-9.16-14.41-9.16-5.43,0-8.86.9-13.07,4.5C1260.37,164.47,1238.75,161.89,1238.75,176.48Z" transform="translate(3.56 -50.11)"/><path class="cls-3" d="M249.34,75.3H156.59s.69-11.22,17.86-11.22c0,0,4.35-14,22-14,8.27,0,13.51,1.38,19.92,6.87C216.36,57,249.34,53,249.34,75.3Z" transform="translate(3.56 -50.11)"/><path class="cls-4" d="M215,565.94c-6.65,0-8.69,1.28-13.76,6.23s-9.44,2.12-11.58-.07c-2.34-2.4-4.68-6.33-11.33-6.37S169.67,567,164.6,572s-9.44,2.13-11.58-.06c-2.34-2.4-4.68-6.34-11.33-6.37l.51,0c-6.65,0-8.69,1.29-13.76,6.23s-9.44,2.13-11.58-.07c-2.34-2.4-4.68-6.33-11.33-6.37s-8.69,1.29-13.76,6.23-9.43,2.13-11.58-.07c-2.34-2.4-4.68-6.33-11.33-6.37h.42c-6.65,0-8.69,1.28-13.76,6.22s-9.44,2.13-11.58-.06c-2.35-2.4-4.68-6.34-11.33-6.37s-8.69,1.28-13.76,6.22S9.41,573.22,7.27,571c-2.35-2.41-4.18-6.34-10.83-6.38h0v-7.93h218.6Z" transform="translate(3.56 -50.11)"/><path class="cls-4" d="M429.44,565.94c-6.66,0-8.7,1.29-13.78,6.23s-9.45,2.13-11.6-.07c-2.34-2.4-4.68-6.33-11.34-6.37S384,567,378.94,572s-9.45,2.12-11.6-.07c-2.35-2.4-4.69-6.33-11.35-6.37h.51c-6.66,0-8.7,1.28-13.78,6.22s-9.45,2.13-11.6-.07c-2.34-2.4-4.69-6.33-11.34-6.37s-8.71,1.29-13.78,6.23-9.45,2.13-11.6-.07c-2.35-2.4-4.69-6.33-11.35-6.37h.42c-6.66,0-8.71,1.28-13.78,6.22s-9.45,2.13-11.6-.06c-2.35-2.4-4.69-6.33-11.35-6.37s-8.7,1.28-13.78,6.22-9.45,2.13-11.6-.06c-2.35-2.41-4.18-6.34-10.84-6.38h0v-7.93H429.47Z" transform="translate(3.56 -50.11)"/><path class="cls-4" d="M525.31,573c-5.08,4.94-9.45,2.13-11.6-.07-2.35-2.4-4.69-6.33-11.34-6.37s-8.71,1.28-13.79,6.23-9.44,2.13-11.59-.07c-2.35-2.4-4.69-6.33-11.35-6.37h.51c-6.66,0-8.71,1.28-13.78,6.22s-9.45,2.13-11.6-.06c-2.35-2.4-4.69-6.34-11.34-6.37s-8.71,1.28-13.79,6.22-9.45,2.13-11.59-.07c-2.35-2.4-4.69-6.33-11.35-6.37h.42c-6.66,0-8.71,1.28-13.79,6.23s-9.45,2.13-11.59-.07c-2.35-2.4-4.69-6.33-11.35-6.37s-8.71,1.28-13.78,6.22-9.45,2.13-11.6-.06c-2.35-2.4-4.18-6.34-10.84-6.37v-8H520.05S530.39,568,525.31,573Z" transform="translate(3.56 -50.11)"/><path class="cls-4" d="M-3.12,509.9H423.35c3.7,0,6.7,3.93,6.7,8.78h0c0,4.85,3,8.78,6.7,8.78h51.43a30.59,30.59,0,0,1,13.42,3.15,33.37,33.37,0,0,1,16.55,18.7l4.51,12.3H-3.12Z" transform="translate(3.56 -50.11)"/><path class="cls-1" d="M118,437.06h-.06c0,.67.06,1,.06,1s0-.36.05-1Z" transform="translate(3.56 -50.11)"/><path class="cls-5" d="M144.84,356.1a3,3,0,0,0,.06-.51c-.33,0-.66.05-1,.05a10.44,10.44,0,0,1-4.6-1.07,2.29,2.29,0,0,0-.09.28l-8.49,38.37a63.76,63.76,0,0,1,8.42-11.4Z" transform="translate(3.56 -50.11)"/><path class="cls-5" d="M118,437.06H118a111.28,111.28,0,0,1,2.83-18.33V333a2.58,2.58,0,0,0,0-.4,10.7,10.7,0,0,1-2.84.4,10.59,10.59,0,0,1-2.84-.4,2.58,2.58,0,0,0,0,.4v85.78a112,112,0,0,1,2.82,18.33Z" transform="translate(3.56 -50.11)"/><path class="cls-5" d="M96.7,354.85c0-.1-.06-.18-.09-.28a10.47,10.47,0,0,1-4.6,1.07c-.34,0-.67,0-1-.05a3,3,0,0,0,.06.51l5.69,25.71a64.12,64.12,0,0,1,8.42,11.4Z" transform="translate(3.56 -50.11)"/><path class="cls-6" d="M118,438.09l72.2-72.2c-24.21-3.25-40.3,4.47-51,15.93a63.76,63.76,0,0,0-8.42,11.4,93.9,93.9,0,0,0-9.89,25.51A111.28,111.28,0,0,0,118,437.06C118,437.73,118,438.09,118,438.09Z" transform="translate(3.56 -50.11)"/><path class="cls-4" d="M118,438.09s59.56,55.77,102.11-.24c-11.16-14.54-23.43-21.47-35.48-23.79l25.28-8.15a2.88,2.88,0,1,0-1.77-5.48l-27,8.7a51.74,51.74,0,0,1-3.25,4.07C156.86,436.9,118,438.09,118,438.09Z" transform="translate(3.56 -50.11)"/><path class="cls-4" d="M15.86,437.85c42.55,56,102.1.24,102.1.24S79.05,436.9,58.07,413.2h0q-1.71-1.93-3.25-4.07l-27-8.7A2.88,2.88,0,0,0,26,405.91l25.29,8.15c-9.52,1.83-19.16,6.54-28.29,15.6a79.7,79.7,0,0,0-5.81,6.49C16.77,436.71,16.31,437.26,15.86,437.85Z" transform="translate(3.56 -50.11)"/><path class="cls-7" d="M58.07,413.2c21,23.7,59.89,24.89,59.89,24.89l-72.2-72.2c-2.54,18.94,1.63,32.92,9.05,43.24q1.55,2.13,3.25,4.07Z" transform="translate(3.56 -50.11)"/><path class="cls-7" d="M118,438.09s38.9-1.19,59.89-24.89a51.74,51.74,0,0,0,3.25-4.07c7.43-10.31,11.6-24.29,9.06-43.24Z" transform="translate(3.56 -50.11)"/><path class="cls-6" d="M118,438.09s0-.36-.06-1a112,112,0,0,0-2.82-18.33,94.12,94.12,0,0,0-9.9-25.52,64.12,64.12,0,0,0-8.42-11.4c-10.7-11.45-26.8-19.17-51-15.92Z" transform="translate(3.56 -50.11)"/><path class="cls-6" d="M120.8,332.55a10.28,10.28,0,1,0-2.84.4A10.63,10.63,0,0,0,120.8,332.55Z" transform="translate(3.56 -50.11)"/><path class="cls-6" d="M144.9,355.59a10.32,10.32,0,1,0-1,.05C144.24,355.64,144.57,355.62,144.9,355.59Z" transform="translate(3.56 -50.11)"/><path class="cls-6" d="M96.61,354.57a10.52,10.52,0,1,0-5.6,1c.33,0,.66.05,1,.05A10.47,10.47,0,0,0,96.61,354.57Z" transform="translate(3.56 -50.11)"/></g><path class="cls-6" d="M1392.66,418.36c-22.5,0-22.5,24-45,24s-22.5-24-45-24-22.51,24-45,24-22.5-24-45-24-22.5,24-45,24-22.51-24-45-24c-22.29,0-22.51,23.53-44.37,24-21.87-.45-22.09-24-44.38-24-22.5,0-22.5,24-45,24s-22.5-24-45-24-22.51,24-45,24-22.5-24-45-24-22.5,24-45,24-22.51-24-45-24-22.51,24-45,24-22.51-24-45-24-22.5,24-45,24-22.51-24-45-24-22.5,24-45,24-22.5-24-45-24-22.5,24-45,24-22.5-24-45-24c-22.28,0-22.51,23.53-44.37,24-21.86-.45-22.09-24-44.38-24-22.5,0-22.5,24-45,24s-22.5-24-45-24-22.5,24-45,24-22.5-24-45-24-22.51,24-45,24-22.5-24-45-24-22.5,24-45,24v56.86H1437.67V442.36C1415.17,442.36,1415.17,418.36,1392.66,418.36Z" transform="translate(3.56 -50.11)"/><line class="cls-8" x1="1201.5" y1="328.14" x2="1201.5" y2="379.55"/><line class="cls-8" x1="1216.68" y1="330.14" x2="1203.38" y2="379.8"/><line class="cls-8" x1="1230.83" y1="336" x2="1205.13" y2="380.53"/><line class="cls-8" x1="1242.99" y1="345.33" x2="1206.63" y2="381.68"/><line class="cls-8" x1="1252.31" y1="357.48" x2="1207.79" y2="383.19"/><line class="cls-8" x1="1258.17" y1="371.63" x2="1208.51" y2="384.94"/><line class="cls-8" x1="1195.2" y1="383.19" x2="1150.68" y2="357.48"/><line class="cls-8" x1="1194.41" y1="385.21" x2="1144.28" y2="373.81"/><line class="cls-8" x1="1196.36" y1="381.68" x2="1160" y2="345.33"/><line class="cls-8" x1="1197.86" y1="380.53" x2="1172.16" y2="336"/><line class="cls-8" x1="1199.62" y1="379.8" x2="1186.31" y2="330.14"/><path class="cls-5" d="M1197.67,492.1a117,117,0,0,1-100.08-56.3h200.15A117,117,0,0,1,1197.67,492.1Z" transform="translate(3.56 -50.11)"/><path class="cls-5" d="M1187.53,380.25a4.78,4.78,0,1,0-4.78,4.78A4.78,4.78,0,0,0,1187.53,380.25Z" transform="translate(3.56 -50.11)"/><path class="cls-5" d="M1173.38,386.12a4.78,4.78,0,1,0-4.78,4.77A4.78,4.78,0,0,0,1173.38,386.12Z" transform="translate(3.56 -50.11)"/><path class="cls-5" d="M1161.22,395.44a4.78,4.78,0,1,0-4.77,4.78A4.77,4.77,0,0,0,1161.22,395.44Z" transform="translate(3.56 -50.11)"/><path class="cls-5" d="M1151.9,407.59a4.78,4.78,0,1,0-4.78,4.78A4.77,4.77,0,0,0,1151.9,407.59Z" transform="translate(3.56 -50.11)"/><path class="cls-5" d="M1145.5,423.92a4.78,4.78,0,1,0-4.78,4.77A4.78,4.78,0,0,0,1145.5,423.92Z" transform="translate(3.56 -50.11)"/><path class="cls-7" d="M1392.66,457c-22.5,0-22.5,24-45,24s-22.5-24-45-24-22.51,24-45,24-22.5-24-45-24-22.5,24-45,24-22.51-24-45-24c-22.29,0-22.51,23.52-44.37,24-21.87-.46-22.09-24-44.38-24-22.5,0-22.5,24-45,24s-22.5-24-45-24-22.51,24-45,24-22.5-24-45-24-22.5,24-45,24-22.51-24-45-24-22.51,24-45,24-22.51-24-45-24-22.5,24-45,24-22.51-24-45-24-22.5,24-45,24-22.5-24-45-24-22.5,24-45,24-22.5-24-45-24c-22.28,0-22.51,23.52-44.37,24-21.86-.46-22.09-24-44.38-24-22.5,0-22.5,24-45,24s-22.5-24-45-24-22.5,24-45,24-22.5-24-45-24-22.51,24-45,24-22.5-24-45-24-22.5,24-45,24v56.85H1437.67V481C1415.17,481,1415.17,457,1392.66,457Z" transform="translate(3.56 -50.11)"/><path class="cls-3" d="M151.26,432.68s-9.43,15.08.75,27.64c-8.17-8.7-24.93-14-37.34-4.81C115.27,454.86,134.65,434.16,151.26,432.68Z" transform="translate(3.56 -50.11)"/><path class="cls-4" d="M199,496.26c-6.63.22-22,0-33.77-5.76,2.66-3,7.58-11.83,7.88-13.72.26-1.71-5.33-7.28-8-10.71,9.36-4.66,21-5.74,28.77-5.87a21.1,21.1,0,0,0-8.14,16.43C185.68,485.2,191.09,492.63,199,496.26Z" transform="translate(3.56 -50.11)"/><path class="cls-3" d="M165.05,466.07a32.71,32.71,0,0,0-6.06,3.84c4.83,6.13,7.45,7,7.45,7l0,0a.2.2,0,0,1-.06.09l-.05.09a74,74,0,0,1-7.19,9.55l.73.56a32.25,32.25,0,0,0,5.35,3.26c2.66-3,7.58-11.83,7.88-13.72C173.34,475.07,167.75,469.5,165.05,466.07Z" transform="translate(3.56 -50.11)"/><path class="cls-3" d="M159.12,486.68l.73.56c-3.9,5.64-9.1,12.42-14.3,17-7.61,6.68-1.42,13.77-1.42,13.77-15.68-3-39.13-26.87-39.77-27.53C117.68,500.3,139.25,508.81,159.12,486.68Z" transform="translate(3.56 -50.11)"/><path class="cls-9" d="M166.44,476.93l0,0a.28.28,0,0,1-.06.09l-.05.09a74,74,0,0,1-7.19,9.55c-19.87,22.13-41.44,13.62-54.76,3.79a0,0,0,0,0,0,0,59.79,59.79,0,0,1-12.54-12.08c-.58-.86,21-21.46,22.85-22.86h0c12.41-9.23,29.17-3.89,37.34,4.81a.32.32,0,0,0,.08.09c.28.36.6.71.93,1.07a19,19,0,0,1,1.47,2c1.66,2.6,3.17,4.71,4.5,6.42C163.82,476,166.44,476.93,166.44,476.93Zm-9.59,2.4c1.19-3.14-11-20.83-27.32-20.83-10.38,0-15.35,7.38-21.68,10.88-12.38,6.85.63,25,23.49,25.66C141.52,495.34,152.51,490.75,156.85,479.33Z" transform="translate(3.56 -50.11)"/><path class="cls-5" d="M166.44,476.93l0,0a.28.28,0,0,1-.06.09l-.05.09a74,74,0,0,1-7.19,9.55c-19.87,22.13-41.44,13.62-54.76,3.79a0,0,0,0,0,0,0,59.79,59.79,0,0,1-12.54-12.08c-.58-.86,21-21.46,22.85-22.86h0c12.41-9.23,29.17-3.89,37.34,4.81a.32.32,0,0,0,.08.09c.28.36.6.71.93,1.07a19,19,0,0,1,1.47,2c1.66,2.6,3.17,4.71,4.5,6.42C163.82,476,166.44,476.93,166.44,476.93Z" transform="translate(3.56 -50.11)"/><path class="cls-10" d="M152.09,460.41c.32.36.64.71.93,1.07C152.69,461.12,152.37,460.77,152.09,460.41Z" transform="translate(3.56 -50.11)"/><path class="cls-4" d="M166.36,477l-.05.09a74,74,0,0,1-7.19,9.55c-19.87,22.13-41.44,13.62-54.76,3.79a0,0,0,0,0,0,0,59.79,59.79,0,0,1-12.54-12.08l74.63-1.45,0,0A.28.28,0,0,1,166.36,477Z" transform="translate(3.56 -50.11)"/><path class="cls-6" d="M282.39,342.12l1.78,5.67a56.39,56.39,0,0,1,7.7-.55v-7.49A25,25,0,0,0,282.39,342.12Z" transform="translate(3.56 -50.11)"/><path class="cls-6" d="M301.22,347.78a96.12,96.12,0,0,1,9.76,1.74l1.49-8.37a109.61,109.61,0,0,0-11.25-1.4" transform="translate(3.56 -50.11)"/><path class="cls-6" d="M322.18,343.14l-3.48,8.43c2.58.76,5.16,1.6,7.73,2.5l6.1-8.23C328.89,344.8,325.43,343.9,322.18,343.14Z" transform="translate(3.56 -50.11)"/><path class="cls-6" d="M342.83,349l-7.72,8.3c2.19.85,4.37,1.73,6.53,2.6l9.12-8.21C348,350.72,345.39,349.82,342.83,349Z" transform="translate(3.56 -50.11)"/><path class="cls-5" d="M323,383c2.55-.58,5.05-1.17,7.47-1.79l13.78,4.8h0c-.75.51-14.83,9.56-28.1-1.6h0C318.44,383.92,320.73,383.44,323,383Z" transform="translate(3.56 -50.11)"/><path class="cls-6" d="M355.91,373.38c6.08-2.16,9.74-3.69,9.74-3.69H243.73c13.77,20.18,45,19.87,72.38,14.67,2.33-.44,4.62-.92,6.88-1.41,2.55-.58,5.05-1.17,7.47-1.79C340.64,378.57,349.58,375.63,355.91,373.38Z" transform="translate(3.56 -50.11)"/><path class="cls-5" d="M365.65,369.69s-3.66,1.53-9.74,3.69c11.25,6.67,22.18,15.71,32.57,14.7l-16.61-18.32L388.48,351c-9.91-.71-21.88,7.86-33.23,14.52h0c-4.45-1.83-9-3.75-13.61-5.66-2.16-.87-4.34-1.75-6.53-2.6-2.87-1.12-5.78-2.2-8.68-3.22-2.57-.9-5.15-1.74-7.73-2.5s-5.15-1.45-7.72-2.05a96.12,96.12,0,0,0-9.76-1.74,72,72,0,0,0-9.35-.54,56.39,56.39,0,0,0-7.7.55c-2.35.33-4.48.69-6.42,1.08-16.87,3.4-20.2,9.26-34,20.82Zm0,0h0c-1.69-.64-3.41-1.31-5.14-2C362.24,368.38,364,369.05,365.65,369.69Z" transform="translate(3.56 -50.11)"/><path class="cls-5" d="M1319.91,409.17h0c1.76,10.72,14.49,12.88,14.49,12.88a27.1,27.1,0,0,1-6.09-9.95C1325.34,411.17,1322.54,410.18,1319.91,409.17Z" transform="translate(3.56 -50.11)"/><path class="cls-5" d="M1339.25,415.13c-2.11-.49-4.14-1-6.13-1.58h0c2.12,5.93,8.32,8.32,8.32,8.32-2.32-4.05-2.2-6.74-2.2-6.74Z" transform="translate(3.56 -50.11)"/><path class="cls-7" d="M1300.25,395h0a34.1,34.1,0,0,1,19.8-8.26c.85-.06,1.72-.1,2.58-.1,18.76-.1,37.89,13.7,49.7,24.18,2.18,1.94,4.1,3.76,5.74,5.36,3.59,3.52,5.76,6,6,6.23h0l-87.88-23.79C1296.57,398.11,1298.56,396.37,1300.25,395Z" transform="translate(3.56 -50.11)"/><path class="cls-5" d="M1387,406.83a16.6,16.6,0,0,0-6,.69,58,58,0,0,0-8.71,3.25c-11.81-10.48-30.94-24.28-49.7-24.18-.86,0-1.73,0-2.58.1C1357.65,366.41,1387,406.83,1387,406.83Z" transform="translate(3.56 -50.11)"/><path class="cls-5" d="M1387,424c-.18-.26-2.1-2.93-5.34-6.78,8.87-1.44,19,.92,26.54,3.46a93.76,93.76,0,0,1,11.42,4.66l-15.47,5.13,8.63,13a72.08,72.08,0,0,1-11.78-4.13c-6.81-3-15.29-8-21.85-15.49q3.87.2,7.87.13Z" transform="translate(3.56 -50.11)"/></g></g></svg>