<svg xmlns="http://www.w3.org/2000/svg" xmlns:xlink="http://www.w3.org/1999/xlink" viewBox="0 0 1447.5 529.08"><defs><style>.cls-1,.cls-9{fill:none;}.cls-2{clip-path:url(#clip-path);}.cls-3{fill:#f7f7f7;}.cls-4{fill:#fdf6e6;}.cls-5{fill:#6b6a6a;}.cls-10,.cls-6{fill:#213039;}.cls-7{fill:#606060;}.cls-8{fill:#aad6d0;}.cls-10,.cls-9{stroke:#213039;stroke-miterlimit:10;}.cls-9{stroke-width:3px;}.cls-11{fill:#a09f9f;}</style><clipPath id="clip-path" transform="translate(3.75 -50.11)"><rect class="cls-1" width="1440" height="579.19"/></clipPath></defs><g id="Capa_2" data-name="Capa 2"><g id="Arte"><g class="cls-2"><path class="cls-3" d="M99.5,149.5H233.6s-1-16.23-25.83-16.23c0,0-6.29-20.2-31.78-20.2-12,0-19.54,2-28.81,9.94C147.18,123,99.5,117.31,99.5,149.5Z" transform="translate(3.75 -50.11)"/><path class="cls-3" d="M1028.76,403c-11,5.95-28.71,5.95-39.67,0l-39-21.21c-11-5.95-28.71-5.95-39.67,0l-141.58,77c-11,6-28.72,6-39.67,0l-60.77-33c-10.95-6-28.71-6-39.66,0l-39.28,21.35c-11,6-28.72,6-39.67,0L355,341.21c-11-5.95-28.71-5.95-39.67,0l-62.63,34.05c-5.26,2.86-12.4,4.47-19.84,4.47L46.28,203.28c-16.79-11-49.59-4.51-49.59,9.76V543.69h0v15.42l1440,2V454.81Z" transform="translate(3.75 -50.11)"/><path class="cls-3" d="M647.52,567.22c-6.63,0-8.68,1.29-13.73,6.23s-9.42,2.13-11.57-.07c-2.34-2.4-4.67-6.33-11.31-6.37s-8.67,1.28-13.73,6.23-9.42,2.13-11.57-.07c-2.34-2.4-4.67-6.33-11.31-6.37h.51c-6.63,0-8.68,1.28-13.74,6.22s-9.42,2.13-11.56-.06c-2.34-2.4-4.67-6.34-11.31-6.37s-8.68,1.28-13.73,6.22-9.42,2.13-11.57-.07c-2.34-2.4-4.67-6.33-11.31-6.37H502c-6.64,0-8.68,1.29-13.74,6.23s-9.42,2.13-11.56-.07c-2.34-2.4-4.68-6.33-11.31-6.37s-8.68,1.28-13.74,6.23-9.42,2.13-11.56-.07c-2.34-2.4-4.17-6.33-10.81-6.37h0V558H647.55Z" transform="translate(3.75 -50.11)"/><path class="cls-3" d="M792.33,566.8h.5c-6.64,0-8.69,1.28-13.76,6.22s-9.43,2.13-11.58-.06c-2.34-2.4-4.68-6.34-11.32-6.37s-8.7,1.28-13.76,6.22-9.44,2.13-11.58-.07c-2.35-2.4-4.69-6.33-11.33-6.37h.41c-6.65,0-8.69,1.28-13.76,6.23s-9.43,2.13-11.58-.07c-2.34-2.4-4.68-6.33-11.33-6.37s-8.69,1.28-13.76,6.22-9.43,2.13-11.58-.06c-2.34-2.4-4.2-5-10.85-5.09l0-9.23H791.52" transform="translate(3.75 -50.11)"/><path class="cls-4" d="M1437.45,570.22c-6.65,0-8.7,1.29-13.76,6.23s-9.44,2.13-11.58-.07c-2.35-2.4-4.68-6.33-11.33-6.37s-8.69,1.28-13.76,6.23-9.44,2.13-11.58-.07c-2.35-2.4-4.68-6.33-11.33-6.37h.51c-6.65,0-8.69,1.28-13.76,6.22s-9.44,2.13-11.58-.06c-2.35-2.4-4.68-6.34-11.33-6.37s-8.69,1.28-13.76,6.22-9.44,2.13-11.58-.07c-2.34-2.4-4.68-6.33-11.33-6.37h.42c-6.65,0-8.7,1.28-13.77,6.23s-9.43,2.13-11.57-.07c-2.35-2.4-4.69-6.33-11.33-6.37s-8.7,1.28-13.76,6.22-9.44,2.13-11.58-.06c-2.35-2.4-4.18-6.33-10.83-6.37h0V561h218.6Z" transform="translate(3.75 -50.11)"/><path class="cls-4" d="M1219.89,570.22c-6.64,0-8.69,1.29-13.76,6.23s-9.43,2.13-11.58-.07c-2.34-2.4-4.68-6.33-11.33-6.37s-8.69,1.28-13.76,6.23-9.43,2.13-11.58-.07c-2.34-2.4-4.68-6.33-11.32-6.37h.5c-6.64,0-8.69,1.28-13.76,6.22s-9.43,2.13-11.58-.06c-2.34-2.4-4.68-6.34-11.32-6.37s-8.7,1.28-13.76,6.22-9.44,2.13-11.58-.07c-2.35-2.4-4.69-6.33-11.33-6.37h.41c-6.65,0-8.69,1.28-13.76,6.23s-9.43,2.13-11.58-.07c-2.34-2.4-4.68-6.33-11.33-6.37s-8.69,1.28-13.76,6.22-9.43,2.13-11.58-.06c-2.34-2.4-4.18-6.33-10.82-6.37l10.83-9,207.78,1Z" transform="translate(3.75 -50.11)"/><path class="cls-3" d="M1012.16,560.12a11,11,0,0,1-7.16,10.13c-2.31.9-4.26,2.53-7.15,5.24-5.26,4.94-9.8,2.13-12-.07-2.44-2.4-4.87-6.33-11.77-6.37s-9,1.28-14.29,6.22-9.79,2.13-12-.07c-2.43-2.4-4.86-6.33-11.76-6.37h.52c-6.9,0-9,1.28-14.28,6.22s-9.8,2.13-12-.07c-2.43-2.4-4.86-6.33-11.76-6.37s-9,1.28-14.29,6.22-9.8,2.13-12-.07c-2.44-2.4-4.86-6.33-11.77-6.37h.43c-6.9,0-9,1.28-14.28,6.22s-9.8,2.13-12-.07c-2.43-2.4-4.86-6.33-11.76-6.37s-9,1.28-14.29,6.22-9.8,2.13-12-.07c-2.44-2.4-4.34-6.33-11.25-6.37v-8l227,0Z" transform="translate(3.75 -50.11)"/><path class="cls-4" d="M1443.75,298.33H1206.49c-28.11,0-55.08,7.28-75,20.23h0c-19.88,12.95-31,30.52-31,48.83V561.61h343.26Z" transform="translate(3.75 -50.11)"/><path class="cls-3" d="M1238.56,176.48h60.82s-.45-7.35-11.72-7.35c0,0-2.85-9.16-14.41-9.16-5.43,0-8.86.9-13.07,4.5C1260.18,164.47,1238.56,161.89,1238.56,176.48Z" transform="translate(3.75 -50.11)"/><path class="cls-3" d="M249.15,75.3H156.4s.68-11.22,17.86-11.22c0,0,4.35-14,22-14,8.27,0,13.51,1.38,19.92,6.87C216.17,57,249.15,53,249.15,75.3Z" transform="translate(3.75 -50.11)"/><path class="cls-4" d="M214.84,565.94c-6.65,0-8.7,1.28-13.76,6.23s-9.44,2.12-11.58-.07c-2.35-2.4-4.68-6.33-11.33-6.37S169.48,567,164.41,572s-9.44,2.13-11.58-.06c-2.35-2.4-4.68-6.34-11.33-6.37l.51,0c-6.65,0-8.69,1.29-13.76,6.23s-9.44,2.13-11.58-.07c-2.35-2.4-4.68-6.33-11.33-6.37s-8.69,1.29-13.76,6.23-9.44,2.13-11.58-.07c-2.34-2.4-4.68-6.33-11.33-6.37h.42c-6.65,0-8.7,1.28-13.76,6.22s-9.44,2.13-11.58-.06c-2.35-2.4-4.69-6.34-11.33-6.37s-8.7,1.28-13.76,6.22S9.22,573.22,7.08,571c-2.35-2.41-4.18-6.34-10.83-6.38h0v-7.93h218.6Z" transform="translate(3.75 -50.11)"/><path class="cls-4" d="M429.25,565.94c-6.66,0-8.71,1.29-13.78,6.23s-9.45,2.13-11.6-.07c-2.35-2.4-4.69-6.33-11.34-6.37S383.82,567,378.74,572s-9.45,2.12-11.59-.07c-2.35-2.4-4.69-6.33-11.35-6.37h.51c-6.66,0-8.71,1.28-13.78,6.22s-9.45,2.13-11.6-.07c-2.35-2.4-4.69-6.33-11.35-6.37s-8.7,1.29-13.78,6.23-9.45,2.13-11.59-.07c-2.35-2.4-4.69-6.33-11.35-6.37h.41c-6.65,0-8.7,1.28-13.78,6.22s-9.45,2.13-11.59-.06c-2.35-2.4-4.69-6.33-11.35-6.37s-8.71,1.28-13.78,6.22-9.45,2.13-11.6-.06c-2.35-2.41-4.18-6.34-10.84-6.38h0v-7.93H429.27Z" transform="translate(3.75 -50.11)"/><path class="cls-4" d="M525.12,573c-5.08,4.94-9.45,2.13-11.6-.07-2.35-2.4-4.69-6.33-11.35-6.37s-8.7,1.28-13.78,6.23-9.45,2.13-11.59-.07c-2.35-2.4-4.69-6.33-11.35-6.37H466c-6.66,0-8.71,1.28-13.78,6.22s-9.45,2.13-11.6-.06c-2.35-2.4-4.69-6.34-11.35-6.37s-8.7,1.28-13.78,6.22-9.45,2.13-11.6-.07c-2.34-2.4-4.68-6.33-11.34-6.37h.41c-6.65,0-8.7,1.28-13.78,6.23s-9.45,2.13-11.6-.07c-2.34-2.4-4.68-6.33-11.34-6.37s-8.71,1.28-13.78,6.22-9.45,2.13-11.6-.06c-2.35-2.4-4.19-6.34-10.84-6.37v-8H519.86S530.19,568,525.12,573Z" transform="translate(3.75 -50.11)"/><path class="cls-4" d="M-3.31,509.9H423.16c3.7,0,6.7,3.93,6.7,8.78h0c0,4.85,3,8.78,6.7,8.78H488a30.6,30.6,0,0,1,13.43,3.15A33.32,33.32,0,0,1,518,549.31l4.52,12.3H-3.31Z" transform="translate(3.75 -50.11)"/></g><path class="cls-4" d="M1120.44,417.88c6.65,0,8.69-1.34,13.73-6.31s9.42-2.18,11.58,0c2.36,2.39,4.72,6.31,11.36,6.31s8.69-1.34,13.73-6.31,9.42-2.18,11.58,0c2.36,2.39,4.72,6.31,11.36,6.31h-.51c6.65,0,8.69-1.33,13.73-6.3s9.42-2.19,11.58,0c2.36,2.38,4.72,6.3,11.36,6.3s8.69-1.33,13.73-6.3,9.42-2.19,11.58,0c2.36,2.38,4.71,6.3,11.36,6.3h-.41c6.65,0,8.68-1.34,13.72-6.31s9.43-2.18,11.58,0c2.36,2.39,4.72,6.31,11.37,6.31s8.68-1.34,13.72-6.31,9.42-2.18,11.58,0c2.36,2.39,4.22,6.31,10.86,6.31v9l-218.56.2Z" transform="translate(3.75 -50.11)"/><path class="cls-4" d="M1440,427l-103.74.1,0-9.23c6.65,0,8.69-1.34,13.72-6.31s9.43-2.18,11.58,0c2.36,2.39,4.72,6.31,11.37,6.31s8.68-1.34,13.72-6.31,9.43-2.18,11.58,0c2.36,2.39,4.72,6.31,11.37,6.31h-.51c6.65,0,8.69-1.33,13.72-6.3s9.43-2.19,11.58,0A65.09,65.09,0,0,0,1440,416" transform="translate(3.75 -50.11)"/><path class="cls-5" d="M1193.39,352.41l21.06-9.07c-.2-.26-.39-.53-.6-.79-1.61-2.08-3.34-4.31-5.19-6.65a9.5,9.5,0,0,1-12.13-14.61c-2.69-3-5.53-6.08-8.48-9l-13.66,34.36a6.69,6.69,0,1,1-12.43-4.95l15.15-38.07a6.54,6.54,0,0,1,.45-.92h0q-1.95-1.62-4-3.12a4.56,4.56,0,0,1-1.3,1.58,4.64,4.64,0,0,1-6.3-6.77c-1.2-.74-2.41-1.45-3.64-2.11l-11.27,28.31a6.68,6.68,0,1,1-12.42-4.94L1150,287.08a46.58,46.58,0,0,0-14.28-1.93l-.27,5.16a5.2,5.2,0,0,1-10.38-.54l.16-3c-4.15,1.14-31.35,22.84-33,25.69l9.18-1.17a6.68,6.68,0,1,1,1.69,13.26l-15.9,2a52.87,52.87,0,0,0,.28,18.34l33.94-4.35a6.69,6.69,0,0,1,1.7,13.27l-32,4.1a111.92,111.92,0,0,0,6,13.59l40.37-5.16a6.68,6.68,0,1,1,1.69,13.26l-34.82,4.46c6.71,10.63,14.14,20.22,20,27.8L1135.91,397a6.69,6.69,0,0,1,10.59,8.18l-11.19,14.47c20.25,5.42,44.34-28.91,44.34-28.91s37.85-14.26,39-34.64l-20,8.59a6.69,6.69,0,1,1-5.3-12.28Zm-33.11,44.1a5.69,5.69,0,1,1,1-8A5.69,5.69,0,0,1,1160.28,396.51Z" transform="translate(3.75 -50.11)"/><path class="cls-6" d="M1200,417a3.47,3.47,0,0,1-4.86-.62l-82.91-107.17a3.46,3.46,0,1,1,5.48-4.24l82.91,107.17A3.46,3.46,0,0,1,1200,417Z" transform="translate(3.75 -50.11)"/><path class="cls-7" d="M1290.39,340a9.45,9.45,0,0,1-11.57,6.73l-29.73-7.85c5.88,28.27,61.82,40.31,61.82,40.31s40.88,43,68.08,31.18l-18.67-17.9a9.46,9.46,0,1,1,13.1-13.66l19.16,18.37c6.64-11.84,15-26.8,22.2-43.08l-49.65,1a9.46,9.46,0,1,1-.4-18.91l57.56-1.21a162.44,162.44,0,0,0,5.59-20.27l-45.69.95a9.46,9.46,0,0,1-.39-18.92l48.39-1a74.84,74.84,0,0,0-3.43-25.72l-22.69.48a9.46,9.46,0,1,1-.4-18.91l13.09-.28c-2.85-3.65-45.44-28.32-51.49-29.06l.86,4.23a7.35,7.35,0,1,1-14.41,2.93l-1.45-7.16a66,66,0,0,0-19.57,5.68l21.84,37.54a9.46,9.46,0,1,1-16.35,9.52l-21.68-37.25c-1.58,1.18-3.13,2.42-4.66,3.7a6.57,6.57,0,1,1-9.55,8.86q-2.49,2.52-4.88,5.19h0a9.44,9.44,0,0,1,.83,1.2l29.16,50.1a9.46,9.46,0,1,1-16.36,9.51l-26.3-45.2c-3.51,4.75-6.83,9.6-10,14.41a13.44,13.44,0,0,1-13.91,23c-2.1,3.65-4.06,7.13-5.88,10.38-.23.41-.45.82-.67,1.23l31.36,8.29A9.46,9.46,0,0,1,1290.39,340Zm45.75,32.25a8.06,8.06,0,1,1,3.08,11A8.06,8.06,0,0,1,1336.14,372.2Z" transform="translate(3.75 -50.11)"/><path class="cls-6" d="M1288,420.18a4.89,4.89,0,0,0,6.66-1.88L1388.25,251a4.9,4.9,0,1,0-8.55-4.78l-93.6,167.27A4.9,4.9,0,0,0,1288,420.18Z" transform="translate(3.75 -50.11)"/><path class="cls-7" d="M312.72,130.68A21.76,21.76,0,0,0,309,142.92v22.8h-1.71l-14.17-7.3a18.77,18.77,0,0,0,0,23.59l14.17-7.3H309v22.8a21.76,21.76,0,0,0,3.73,12.24l2.31,2.86a21.93,21.93,0,0,0,3.76,3.17l2.3,1.33a22.63,22.63,0,0,0,3.69,1.45l2.31.53a21.77,21.77,0,0,0,3.81.34V173l13.19-.32a3.31,3.31,0,0,0-3-3.3,5.59,5.59,0,0,0-5.38-4.06H330.9V121a21.77,21.77,0,0,0-3.81.33l-2.31.54a21.3,21.3,0,0,0-3.68,1.44l-2.31,1.34a21.87,21.87,0,0,0-3.76,3.16Z" transform="translate(3.75 -50.11)"/><path class="cls-7" d="M163.74,197.66a17.21,17.21,0,0,0-2.94,9.66v18h-1.35l-11.18-5.76a14.84,14.84,0,0,0,0,18.61l11.18-5.76h1.34v18a17.21,17.21,0,0,0,3,9.65l1.82,2.26a17.67,17.67,0,0,0,3,2.49l1.82,1.05a16.58,16.58,0,0,0,2.91,1.14l1.82.42a17.52,17.52,0,0,0,3,.27v-36.6l10.41-.25a2.61,2.61,0,0,0-2.4-2.6,4.42,4.42,0,0,0-4.25-3.2h-3.76V190a17.52,17.52,0,0,0-3,.26l-1.82.42a18.31,18.31,0,0,0-2.91,1.14l-1.81,1.06a16.49,16.49,0,0,0-3,2.49Z" transform="translate(3.75 -50.11)"/><path class="cls-7" d="M215.59,273.62a14.81,14.81,0,0,0-2.53,8.29v15.44h-1.15l-9.6-5a12.73,12.73,0,0,0,0,16l9.6-4.94h1.15v15.44a14.7,14.7,0,0,0,2.53,8.28l1.56,1.94a14.47,14.47,0,0,0,2.55,2.14l1.56.91a15.45,15.45,0,0,0,2.5,1l1.56.36a14.65,14.65,0,0,0,2.58.23V302.29l8.94-.21a2.25,2.25,0,0,0-2.07-2.24,3.79,3.79,0,0,0-3.64-2.75H227.9v-30a14.65,14.65,0,0,0-2.58.23l-1.56.36a14.58,14.58,0,0,0-2.5,1l-1.56.9a15.39,15.39,0,0,0-2.55,2.14Z" transform="translate(3.75 -50.11)"/><circle class="cls-8" cx="80.72" cy="407" r="42.01"/><circle class="cls-5" cx="178.42" cy="407.69" r="31.31" transform="translate(-255.47 438.3) rotate(-76.81)"/><line class="cls-9" x1="80.72" y1="413.32" x2="80.72" y2="491.21"/><rect class="cls-6" x="180.22" y="361.23" width="3.89" height="135.37"/><path class="cls-6" d="M177.58,515.1a45.21,45.21,0,0,1-22.94-26l3.74-1.09-1.87.54,1.87-.54c.05.16,4.88,16,20.88,23.59Z" transform="translate(3.75 -50.11)"/><rect class="cls-6" x="166.31" y="460.97" width="50.07" height="3.89" transform="translate(-300.16 337.73) rotate(-58.92)"/><circle class="cls-7" cx="80.72" cy="407" r="42.01"/><rect class="cls-10" x="78.77" y="413.32" width="3.89" height="77.89"/><path class="cls-5" d="M1131.43,537l.21-.06h0c17.51-5.37,35.94-3.59,54.55-1.26.38,0,.78.09,1.17.14,11.6,1.46,23.27,3.09,34.78,3.29a171.75,171.75,0,0,0,17.72-.67c.39,0,.77-.07,1.17-.09,14.1-1.27,28.12-3.72,42.23-5q8.77-.84,17.59-1.06l1.35,0h.89c1.51,0,3,0,4.49,0h0q3.84,0,7.69.12c1.38,0,2.74.09,4.11.17a235.69,235.69,0,0,1,26.89,2.83l1.35.21a225.22,225.22,0,0,1,31.61,7.71,33.61,33.61,0,0,0,26.7-2.46h0l-28.09-50.68c-2.64-1.52-5.31-3-8-4.33-1.92-1-3.86-1.89-5.83-2.79h0c-2.17-1-4.35-1.94-6.56-2.83l-1.18-.49c-3.75-1.49-7.56-2.86-11.41-4.08-5.2-1.69-10.48-3.11-15.81-4.3a196.58,196.58,0,0,0-78.58-1.27c-1,.18-2,.37-2.93.56-8.36,1.63-16.34,3.53-24,5.8h0c-2.16.63-4.26,1.27-6.36,2-3.5,1.13-6.94,2.33-10.32,3.63h0a194,194,0,0,0-28.88,13.79l-1.38.81a216.8,216.8,0,0,0-28.81,20.62c-8.73,7.34-13.18,14.4-16.88,18.92,0,0,0,0,0,.06A.55.55,0,0,0,1131.43,537Z" transform="translate(3.75 -50.11)"/><path class="cls-6" d="M1396.78,524.24l-1.08-2q-10-5.89-20.53-10.84h0a5.16,5.16,0,0,0-.67-.32h0c-4.32-2.06-8.73-4-13.16-5.76l-1.28-.52v0q-5.92-2.35-11.93-4.4l-.14-.06q-11.39-3.89-23-6.65-7.79-1.89-15.58-3.22l-.18,0q-5.91-1-11.81-1.71h-.06s0,0,0,0-.22,0-.33,0q-9.64-1.15-19.29-1.5h-.06c-2.08-.07-4.13-.12-6.19-.13-3.9,0-7.82.05-11.7.24h0l-1.39.06c-.41,0-.83,0-1.25.05h0q-9,.53-17.91,1.8h0c-2.82.38-5.66.84-8.46,1.34-1,.16-1.9.34-2.84.52h0A225,225,0,0,0,1192.2,501c-.48.16-1,.35-1.46.54a208.82,208.82,0,0,0-59.93,34.6l-.08.07a.56.56,0,0,0-.07.79.55.55,0,0,0,.79.08l.19-.15h0a208.25,208.25,0,0,1,60.66-34.74.85.85,0,0,0,.17-.06h0q8.35-3.12,17-5.53h0c.55-.17,1.1-.32,1.65-.46,6.33-1.75,12.75-3.19,19.24-4.36a223.05,223.05,0,0,1,26.2-3.17l1.26-.08,3.66-.18c3.31-.12,6.61-.17,9.94-.15a227,227,0,0,1,26.86,1.8,2.91,2.91,0,0,1,.4.05c3.27.4,6.55.88,9.82,1.46a1.45,1.45,0,0,1,.3.05q7.71,1.29,15.34,3.12c3.84.91,7.66,1.9,11.47,3h.07a3.45,3.45,0,0,1,.43.12q5.47,1.57,10.88,3.42l.16.06a254.48,254.48,0,0,1,26.17,10.54,12.82,12.82,0,0,1,1.18.55" transform="translate(3.75 -50.11)"/><path class="cls-6" d="M1186.2,535.69l1.17.15A148,148,0,0,1,1211,496.53a.61.61,0,0,0,.13-.39.53.53,0,0,0-.2-.41.55.55,0,0,0-.8.06c-.23.27-.45.55-.66.82A148.84,148.84,0,0,0,1186.2,535.69Z" transform="translate(3.75 -50.11)"/><path class="cls-6" d="M1176.52,496.58a77.58,77.58,0,0,1,14.21,5c.41.19.83.38,1.23.59a.57.57,0,0,0,.36,0,.38.38,0,0,0,.15,0h0a.51.51,0,0,0,.22-.24.57.57,0,0,0-.26-.76l-.24-.11a75.62,75.62,0,0,0-14.31-5.27Z" transform="translate(3.75 -50.11)"/><path class="cls-6" d="M1239.86,538.46l1.18-.1c2-8.56,4.81-16.69,7.26-23.86,3-8.87,6-17.55,9.57-26,.16-.4.32-.79.49-1.16.07-.19.15-.36.22-.54a.57.57,0,0,0-1-.47c-.15.35-.3.7-.44,1.06h0c-.17.38-.33.77-.49,1.17-3.45,8.29-6.41,16.81-9.38,25.51C1244.74,521.42,1241.91,529.71,1239.86,538.46Z" transform="translate(3.75 -50.11)"/><path class="cls-6" d="M1361,506.29l.12-.05a.57.57,0,0,0,.28-.64,1.55,1.55,0,0,0-.06-.23,125,125,0,0,1-3.9-25.22c-.38-.17-.78-.33-1.18-.49a127.58,127.58,0,0,0,3.79,25.17c.08.36.17.71.26,1.06A.57.57,0,0,0,1361,506.29Z" transform="translate(3.75 -50.11)"/><circle class="cls-8" cx="247.18" cy="365.84" r="54.37"/><circle class="cls-11" cx="112.12" cy="351.98" r="40.52" transform="translate(-73.58 -15.26) rotate(-13.19)"/><line class="cls-9" x1="247.18" y1="374.03" x2="247.18" y2="474.84"/><rect class="cls-6" x="113.35" y="306.6" width="5.04" height="175.22"/><path class="cls-6" d="M113.2,491c22.81-10.86,29.42-32.74,29.69-33.67l-4.83-1.41,2.42.7-2.42-.71c-.06.21-6.31,20.68-27,30.54Z" transform="translate(3.75 -50.11)"/><rect class="cls-6" x="92.88" y="391.07" width="5.04" height="64.81" transform="translate(-201.15 59.91) rotate(-31.08)"/><circle class="cls-11" cx="247.18" cy="365.84" r="54.37"/><rect class="cls-10" x="244.66" y="374.03" width="5.04" height="100.81"/><path class="cls-11" d="M1140.18,401.94l.26.06h0c22.19,4.62,41.09,17.43,59.85,30.93.39.27.79.56,1.18.85,11.69,8.42,23.35,17.07,35.71,24.1a215.14,215.14,0,0,0,19.58,9.77c.45.2.88.38,1.33.59,16,7,32.69,12.68,48.78,19.61,6.67,2.87,13.23,5.95,19.69,9.29.5.25,1,.5,1.47.77.32.16.64.34,1,.52,1.65.86,3.26,1.72,4.87,2.63h0q4.17,2.26,8.25,4.68c1.47.86,2.93,1.72,4.36,2.62a290.3,290.3,0,0,1,27.42,18.94c.45.32.9.68,1.35,1a275.31,275.31,0,0,1,29.6,26.95,41.92,41.92,0,0,0,30.4,13.17h0V497.69c-2-3.19-4-6.33-6.11-9.4-1.51-2.17-3-4.3-4.65-6.42h0c-1.76-2.34-3.55-4.65-5.4-6.91-.32-.41-.66-.81-1-1.22q-4.77-5.73-9.92-11.12c-4.61-4.88-9.49-9.52-14.54-13.95a244.24,244.24,0,0,0-84.36-47.86c-1.19-.4-2.35-.78-3.52-1.13-10-3.21-19.82-5.9-29.5-8h0c-2.71-.61-5.38-1.16-8.07-1.67-4.46-.86-8.91-1.61-13.36-2.22h0a245.26,245.26,0,0,0-39.56-2.37l-2,.06a273.69,273.69,0,0,0-43.6,5c-13.86,2.68-22.92,7.59-29.64,10.23,0,0,0,0-.06.05A.67.67,0,0,0,1140.18,401.94Z" transform="translate(3.75 -50.11)"/><path class="cls-6" d="M1435.29,545.34v-2.73q-7.33-12.23-15.73-23.72v0a7.54,7.54,0,0,0-.53-.73h0c-3.45-4.76-7.07-9.42-10.8-13.94-.34-.45-.7-.88-1.07-1.33h0q-5-6-10.28-11.77a.89.89,0,0,0-.13-.14q-10-10.9-20.87-20.7-7.29-6.62-14.94-12.66c-.05,0-.12-.09-.18-.14q-5.77-4.57-11.76-8.83l-.06,0s0,0,0,0-.24-.16-.34-.23q-9.77-6.94-20-13s0,0-.07,0c-2.21-1.31-4.39-2.56-6.62-3.8-4.21-2.33-8.5-4.57-12.82-6.67h0l-1.54-.75c-.45-.24-.92-.47-1.38-.68h0q-10.07-4.77-20.48-8.68l0,0c-3.28-1.26-6.63-2.46-10-3.57-1.13-.39-2.26-.77-3.39-1.13h0a282.46,282.46,0,0,0-44.57-10.49c-.63-.11-1.27-.2-1.92-.29a262.33,262.33,0,0,0-85.69,1.49l-.12,0a.69.69,0,1,0,.25,1.36l.3-.05h0a261.18,261.18,0,0,1,86.57-1.2l.21,0h0c7.28,1.08,14.55,2.46,21.75,4.16h0c.7.15,1.38.31,2.07.49,7.9,1.88,15.72,4.14,23.45,6.72a281.21,281.21,0,0,1,30.29,12.12c.47.22.93.45,1.42.67,1.36.64,2.71,1.31,4.07,2,3.66,1.83,7.26,3.73,10.85,5.72a281.6,281.6,0,0,1,28,17.83,2.71,2.71,0,0,1,.41.28c3.3,2.37,6.57,4.83,9.76,7.38a1.78,1.78,0,0,1,.31.23q7.55,5.94,14.74,12.41c3.6,3.24,7.15,6.56,10.61,10a.09.09,0,0,1,.06,0l0,0,.39.38q5,4.92,9.72,10.09a1.77,1.77,0,0,1,.14.16,315,315,0,0,1,22,26.74c.34.43.66.86.95,1.29" transform="translate(3.75 -50.11)"/><path class="cls-6" d="M1200.31,432.93c.39.28.78.55,1.17.85a184,184,0,0,1,49.25-28,.66.66,0,0,0,.37-.33.68.68,0,0,0,0-.56.69.69,0,0,0-.91-.41c-.41.15-.82.32-1.21.49A184.46,184.46,0,0,0,1200.31,432.93Z" transform="translate(3.75 -50.11)"/><path class="cls-6" d="M1213.3,385.43a94.55,94.55,0,0,1,12.4,13.75c.33.44.67.89,1,1.35a.68.68,0,0,0,.35.26.78.78,0,0,0,.21,0h0a.65.65,0,0,0,.39-.13.69.69,0,0,0,.16-1c0-.09-.13-.16-.18-.26a93.56,93.56,0,0,0-12.34-14.1Z" transform="translate(3.75 -50.11)"/><path class="cls-6" d="M1256.78,467.64c.44.21.89.39,1.33.6,7.35-7.94,15.24-15,22.19-21.19,8.61-7.68,17.09-15.16,26-22.06.41-.34.82-.65,1.23-.95.18-.17.37-.3.55-.44a.69.69,0,0,0,.13-1,.71.71,0,0,0-1-.13l-1.12.87h0l-1.23,1c-8.72,6.81-17,14.16-25.47,21.69C1272.29,452.34,1264.25,459.52,1256.78,467.64Z" transform="translate(3.75 -50.11)"/><path class="cls-6" d="M1407.29,505h.17a.7.7,0,0,0,.68-.52c0-.09.06-.18.08-.27A150.76,150.76,0,0,1,1419.13,475l-1-1.22a154.4,154.4,0,0,0-11,29.13c-.13.43-.24.85-.35,1.28A.7.7,0,0,0,1407.29,505Z" transform="translate(3.75 -50.11)"/></g></g></svg>