<svg xmlns="http://www.w3.org/2000/svg" xmlns:xlink="http://www.w3.org/1999/xlink" viewBox="0 0 1444.52 529.08"><defs><style>.cls-1,.cls-8{fill:none;}.cls-2{clip-path:url(#clip-path);}.cls-3{fill:#f7f7f7;}.cls-4{fill:#fdf6e6;}.cls-5{fill:#606060;}.cls-6{fill:#a09f9f;}.cls-7{fill:#6b6a6a;}.cls-8{stroke:#606060;stroke-miterlimit:10;}.cls-9{fill:#1c303f;}.cls-10{fill:#fbf5e7;}.cls-11{fill:#9f9e9e;}.cls-12{fill:#dfdfdf;}</style><clipPath id="clip-path" transform="translate(3.75 -50.11)"><rect class="cls-1" width="1440" height="579.19"/></clipPath></defs><g id="Capa_2" data-name="Capa 2"><g id="Arte"><g class="cls-2"><path class="cls-3" d="M99.5,149.5H233.6s-1-16.23-25.83-16.23c0,0-6.29-20.2-31.78-20.2-12,0-19.54,2-28.81,9.94C147.18,123,99.5,117.31,99.5,149.5Z" transform="translate(3.75 -50.11)"/><path class="cls-3" d="M1028.76,403c-11,5.95-28.71,5.95-39.67,0l-39-21.21c-11-5.95-28.71-5.95-39.67,0l-141.58,77c-11,6-28.72,6-39.67,0l-60.77-33c-10.95-6-28.71-6-39.66,0l-39.28,21.35c-11,6-28.72,6-39.67,0L355,341.21c-11-5.95-28.71-5.95-39.67,0l-62.63,34.05c-5.26,2.86-12.4,4.47-19.84,4.47L46.28,203.28c-16.79-11-49.59-4.51-49.59,9.76V543.69h0v15.42l1440,2V454.81Z" transform="translate(3.75 -50.11)"/><path class="cls-3" d="M647.52,567.22c-6.63,0-8.68,1.29-13.73,6.23s-9.42,2.13-11.57-.07c-2.34-2.4-4.67-6.33-11.31-6.37s-8.67,1.28-13.73,6.23-9.42,2.13-11.57-.07c-2.34-2.4-4.67-6.33-11.31-6.37h.51c-6.63,0-8.68,1.28-13.74,6.22s-9.42,2.13-11.56-.06c-2.34-2.4-4.67-6.34-11.31-6.37s-8.68,1.28-13.73,6.22-9.42,2.13-11.57-.07c-2.34-2.4-4.67-6.33-11.31-6.37H502c-6.64,0-8.68,1.29-13.74,6.23s-9.42,2.13-11.56-.07c-2.34-2.4-4.68-6.33-11.31-6.37s-8.68,1.28-13.74,6.23-9.42,2.13-11.56-.07c-2.34-2.4-4.17-6.33-10.81-6.37h0V558H647.55Z" transform="translate(3.75 -50.11)"/><path class="cls-3" d="M792.33,566.8h.5c-6.64,0-8.69,1.28-13.76,6.22s-9.43,2.13-11.58-.06c-2.34-2.4-4.68-6.34-11.32-6.37s-8.7,1.28-13.76,6.22-9.44,2.13-11.58-.07c-2.35-2.4-4.69-6.33-11.33-6.37h.41c-6.65,0-8.69,1.28-13.76,6.23s-9.43,2.13-11.58-.07c-2.34-2.4-4.68-6.33-11.33-6.37s-8.69,1.28-13.76,6.22-9.43,2.13-11.58-.06c-2.34-2.4-4.2-5-10.85-5.09l0-9.23H791.52" transform="translate(3.75 -50.11)"/><path class="cls-3" d="M1437.45,570.22c-6.65,0-8.7,1.29-13.76,6.23s-9.44,2.13-11.58-.07c-2.35-2.4-4.68-6.33-11.33-6.37s-8.69,1.28-13.76,6.23-9.44,2.13-11.58-.07c-2.35-2.4-4.68-6.33-11.33-6.37h.51c-6.65,0-8.69,1.28-13.76,6.22s-9.44,2.13-11.58-.06c-2.35-2.4-4.68-6.34-11.33-6.37s-8.69,1.28-13.76,6.22-9.44,2.13-11.58-.07c-2.34-2.4-4.68-6.33-11.33-6.37h.42c-6.65,0-8.7,1.28-13.77,6.23s-9.43,2.13-11.57-.07c-2.35-2.4-4.69-6.33-11.33-6.37s-8.7,1.28-13.76,6.22-9.44,2.13-11.58-.06c-2.35-2.4-4.18-6.33-10.83-6.37h0V561h218.6Z" transform="translate(3.75 -50.11)"/><path class="cls-3" d="M1219.89,570.22c-6.64,0-8.69,1.29-13.76,6.23s-9.43,2.13-11.58-.07c-2.34-2.4-4.68-6.33-11.33-6.37s-8.69,1.28-13.76,6.23-9.43,2.13-11.58-.07c-2.34-2.4-4.68-6.33-11.32-6.37h.5c-6.64,0-8.69,1.28-13.76,6.22s-9.43,2.13-11.58-.06c-2.34-2.4-4.68-6.34-11.32-6.37s-8.7,1.28-13.76,6.22-9.44,2.13-11.58-.07c-2.35-2.4-4.69-6.33-11.33-6.37h.41c-6.65,0-8.69,1.28-13.76,6.23s-9.43,2.13-11.58-.07c-2.34-2.4-4.68-6.33-11.33-6.37s-8.69,1.28-13.76,6.22-9.43,2.13-11.58-.06c-2.34-2.4-4.18-6.33-10.82-6.37l10.83-9,207.78,1Z" transform="translate(3.75 -50.11)"/><path class="cls-3" d="M1012.16,560.12a11,11,0,0,1-7.16,10.13c-2.31.9-4.26,2.53-7.15,5.24-5.26,4.94-9.8,2.13-12-.07-2.44-2.4-4.87-6.33-11.77-6.37s-9,1.28-14.29,6.22-9.79,2.13-12-.07c-2.43-2.4-4.86-6.33-11.76-6.37h.52c-6.9,0-9,1.28-14.28,6.22s-9.8,2.13-12-.07c-2.43-2.4-4.86-6.33-11.76-6.37s-9,1.28-14.29,6.22-9.8,2.13-12-.07c-2.44-2.4-4.86-6.33-11.77-6.37h.43c-6.9,0-9,1.28-14.28,6.22s-9.8,2.13-12-.07c-2.43-2.4-4.86-6.33-11.76-6.37s-9,1.28-14.29,6.22-9.8,2.13-12-.07c-2.44-2.4-4.34-6.33-11.25-6.37v-8l227,0Z" transform="translate(3.75 -50.11)"/><path class="cls-3" d="M1238.56,176.48h60.82s-.45-7.35-11.72-7.35c0,0-2.85-9.16-14.41-9.16-5.43,0-8.86.9-13.07,4.5C1260.18,164.47,1238.56,161.89,1238.56,176.48Z" transform="translate(3.75 -50.11)"/><path class="cls-3" d="M249.15,75.3H156.4s.68-11.22,17.86-11.22c0,0,4.35-14,22-14,8.27,0,13.51,1.38,19.92,6.87C216.17,57,249.15,53,249.15,75.3Z" transform="translate(3.75 -50.11)"/><path class="cls-4" d="M214.84,565.94c-6.65,0-8.7,1.28-13.76,6.23s-9.44,2.12-11.58-.07c-2.35-2.4-4.68-6.33-11.33-6.37S169.48,567,164.41,572s-9.44,2.13-11.58-.06c-2.35-2.4-4.68-6.34-11.33-6.37l.51,0c-6.65,0-8.69,1.29-13.76,6.23s-9.44,2.13-11.58-.07c-2.35-2.4-4.68-6.33-11.33-6.37s-8.69,1.29-13.76,6.23-9.44,2.13-11.58-.07c-2.34-2.4-4.68-6.33-11.33-6.37h.42c-6.65,0-8.7,1.28-13.76,6.22s-9.44,2.13-11.58-.06c-2.35-2.4-4.69-6.34-11.33-6.37s-8.7,1.28-13.76,6.22S9.22,573.22,7.08,571c-2.35-2.41-4.18-6.34-10.83-6.38h0v-7.93h218.6Z" transform="translate(3.75 -50.11)"/><path class="cls-4" d="M429.25,565.94c-6.66,0-8.7,1.29-13.78,6.23s-9.45,2.13-11.6-.07c-2.35-2.4-4.69-6.33-11.34-6.37S383.82,567,378.74,572s-9.45,2.12-11.59-.07c-2.35-2.4-4.69-6.33-11.35-6.37h.51c-6.66,0-8.71,1.28-13.78,6.22s-9.45,2.13-11.6-.07c-2.35-2.4-4.69-6.33-11.34-6.37s-8.71,1.29-13.79,6.23-9.45,2.13-11.59-.07c-2.35-2.4-4.69-6.33-11.35-6.37h.41c-6.65,0-8.7,1.28-13.78,6.22s-9.45,2.13-11.59-.06c-2.35-2.4-4.69-6.33-11.35-6.37s-8.71,1.28-13.78,6.22-9.45,2.13-11.6-.06c-2.35-2.41-4.18-6.34-10.84-6.38h0v-7.93H429.27Z" transform="translate(3.75 -50.11)"/><path class="cls-4" d="M525.12,573c-5.08,4.94-9.45,2.13-11.6-.07-2.35-2.4-4.69-6.33-11.35-6.37s-8.7,1.28-13.78,6.23-9.45,2.13-11.59-.07c-2.35-2.4-4.69-6.33-11.35-6.37H466c-6.66,0-8.71,1.28-13.78,6.22s-9.45,2.13-11.6-.06c-2.35-2.4-4.69-6.34-11.35-6.37s-8.7,1.28-13.78,6.22-9.45,2.13-11.6-.07c-2.34-2.4-4.68-6.33-11.34-6.37h.41c-6.65,0-8.7,1.28-13.78,6.23s-9.45,2.13-11.6-.07c-2.34-2.4-4.68-6.33-11.34-6.37s-8.71,1.28-13.78,6.22-9.45,2.13-11.6-.06c-2.35-2.4-4.19-6.34-10.84-6.37v-8H519.86S530.19,568,525.12,573Z" transform="translate(3.75 -50.11)"/><path class="cls-4" d="M-3.31,509.9H423.16c3.7,0,6.7,3.93,6.7,8.78h0c0,4.85,3,8.78,6.7,8.78H488a30.6,30.6,0,0,1,13.43,3.15A33.32,33.32,0,0,1,518,549.31l4.52,12.3H-3.31Z" transform="translate(3.75 -50.11)"/><rect class="cls-5" x="342.18" y="434.77" width="3.87" height="3.87" transform="translate(282.39 938.7) rotate(-135)"/><rect class="cls-5" x="331.93" y="434.77" width="3.87" height="3.87" transform="translate(264.89 931.46) rotate(-135)"/><rect class="cls-5" x="372.92" y="434.77" width="3.87" height="3.87" transform="translate(334.88 960.45) rotate(-135)"/><rect class="cls-5" x="362.67" y="434.77" width="3.87" height="3.87" transform="translate(317.38 953.2) rotate(-135)"/><rect class="cls-5" x="352.43" y="434.77" width="3.87" height="3.87" transform="translate(299.88 945.95) rotate(-135)"/><polyline class="cls-5" points="359.58 406.21 359.58 433.21 357.08 433.21 357.08 406.7"/><path class="cls-6" d="M344.38,464.48a11.45,11.45,0,0,1,11.45,11.44h0v3.62l-21.62-15.06Z" transform="translate(3.75 -50.11)"/><path class="cls-5" d="M355.83,479.94v38.38l-2.51-.09V479.54h-7.67a11.3,11.3,0,0,1-3.2-.46,8.25,8.25,0,0,1-1-.34,10.33,10.33,0,0,1-1.26-.58,12,12,0,0,1-1.83-1.24,11.43,11.43,0,0,1-4.16-8.82v-3.62Z" transform="translate(3.75 -50.11)"/><path class="cls-6" d="M355.83,472.86a9.69,9.69,0,0,1,9.69-9.69h8.62l-18.31,12.75Z" transform="translate(3.75 -50.11)"/><path class="cls-5" d="M355.83,475.92l18.31-12.75v3.06a9.79,9.79,0,0,1-.43,2.88,9.79,9.79,0,0,1-3.7,5.06c-.2.14-.4.27-.61.39a9.57,9.57,0,0,1-4.95,1.36Z" transform="translate(3.75 -50.11)"/><path class="cls-6" d="M353.68,459.67a35.57,35.57,0,0,1-30.44-17.13h60.88A35.58,35.58,0,0,1,353.68,459.67Z" transform="translate(3.75 -50.11)"/></g><circle class="cls-4" cx="188.95" cy="276.32" r="122.45"/><path class="cls-6" d="M256.23,225.51l-9.14,15.83a18.14,18.14,0,0,1-33.39-5" transform="translate(3.75 -50.11)"/><path class="cls-5" d="M213.7,236.32a18.14,18.14,0,0,1,26.76-19.77l1.42.66,14.35,8.3" transform="translate(3.75 -50.11)"/><path class="cls-6" d="M267.37,231.93l-8,16.44a18.14,18.14,0,0,0,22.85,24.86" transform="translate(3.75 -50.11)"/><path class="cls-7" d="M282.22,273.23A18.14,18.14,0,0,0,283.63,240l-1.35-.82-14.91-7.25" transform="translate(3.75 -50.11)"/><polyline class="cls-8" points="266.87 171.56 290.81 130.13 284.13 110.71"/><polyline class="cls-8" points="270.95 173.92 294.88 132.49 315.05 128.57"/><path class="cls-9" d="M268.82,196.65a167.28,167.28,0,0,0-12.73,28.82,117.06,117.06,0,0,0-4.55,22,100.67,100.67,0,0,0,16-15.51c7.64-9.43,14-21.58,16.79-26.35Z" transform="translate(3.75 -50.11)"/><path class="cls-6" d="M229.9,127.61l26.23,98s-40.58-14.93-47-39S230.31,127.85,229.9,127.61Z" transform="translate(3.75 -50.11)"/><path class="cls-7" d="M256.14,225.66l-26.23-98s40.57,14.93,47,39S255.73,225.42,256.14,225.66Z" transform="translate(3.75 -50.11)"/><path class="cls-6" d="M365.28,205.82l-98,26.24s33.2,27.7,57.27,21.25S364.86,205.58,365.28,205.82Z" transform="translate(3.75 -50.11)"/><path class="cls-5" d="M267.22,232.06l98-26.23s-33.2-27.7-57.27-21.26S267.64,232.3,267.22,232.06Z" transform="translate(3.75 -50.11)"/><path class="cls-6" d="M166.66,336.88l3.09,10.31a10.68,10.68,0,0,1-15.63,12.27" transform="translate(3.75 -50.11)"/><path class="cls-5" d="M154.12,359.46a10.58,10.58,0,0,1-4.83-6.14,10.69,10.69,0,0,1,7.16-13.3l.86-.34,9.35-2.8" transform="translate(3.75 -50.11)"/><path class="cls-6" d="M173.91,334.7l3.81,10.07a10.67,10.67,0,0,0,19.87.24" transform="translate(3.75 -50.11)"/><path class="cls-7" d="M197.59,345a10.67,10.67,0,0,0-13.67-14l-.89.25-9.12,3.45" transform="translate(3.75 -50.11)"/><polyline class="cls-8" points="171.55 282.27 163.46 255.29 152.45 250.31"/><polyline class="cls-8" points="174.2 281.48 166.12 254.5 172.58 244.28"/><path class="cls-9" d="M159.38,319.84a98.31,98.31,0,0,0,7.2,17.09,68.84,68.84,0,0,0,7.58,10.81,59.57,59.57,0,0,0-.2-13.09c-1-7.08-3.58-14.72-4.51-17.83Z" transform="translate(3.75 -50.11)"/><path class="cls-6" d="M114.09,308.64,166.67,337S143.9,348.33,131,341.37,114.36,308.56,114.09,308.64Z" transform="translate(3.75 -50.11)"/><path class="cls-7" d="M166.69,337l-52.58-28.33s22.77-11.36,35.68-4.4S166.42,337.06,166.69,337Z" transform="translate(3.75 -50.11)"/><path class="cls-6" d="M202.25,282.23l-28.34,52.58s25.27-3,32.22-15.95S202,282.31,202.25,282.23Z" transform="translate(3.75 -50.11)"/><path class="cls-5" d="M173.9,334.82l28.34-52.58s-25.27,3-32.23,15.95S174.17,334.74,173.9,334.82Z" transform="translate(3.75 -50.11)"/><path class="cls-6" d="M238.34,421.41l-3.74,5.76a6.82,6.82,0,0,1-12.43-2.54" transform="translate(3.75 -50.11)"/><path class="cls-5" d="M222.17,424.63a6.82,6.82,0,0,1,10.42-6.89l.53.28,5.22,3.39" transform="translate(3.75 -50.11)"/><path class="cls-6" d="M242.39,424l-3.32,6a6.81,6.81,0,0,0,8.09,9.77" transform="translate(3.75 -50.11)"/><path class="cls-7" d="M247.16,439.82a6.81,6.81,0,0,0,1.17-12.44l-.49-.33-5.45-3" transform="translate(3.75 -50.11)"/><polyline class="cls-8" points="244.75 369.99 254.53 354.92 252.41 347.5"/><polyline class="cls-8" points="246.23 370.96 256.02 355.88 263.66 354.81"/><path class="cls-9" d="M243.62,410.83a63.89,63.89,0,0,0-5.34,10.56,44.45,44.45,0,0,0-2.13,8.15,37.78,37.78,0,0,0,6.29-5.5,74,74,0,0,0,6.81-9.56Z" transform="translate(3.75 -50.11)"/><path class="cls-6" d="M230.37,384.17l7.93,37.29s-14.93-6.4-16.88-15.55S230.52,384.27,230.37,384.17Z" transform="translate(3.75 -50.11)"/><path class="cls-7" d="M238.3,421.46l-7.93-37.28s14.93,6.39,16.88,15.55S238.15,421.37,238.3,421.46Z" transform="translate(3.75 -50.11)"/><path class="cls-6" d="M279.63,416.15l-37.29,7.93s11.92,11,21.07,9.09S279.48,416.05,279.63,416.15Z" transform="translate(3.75 -50.11)"/><path class="cls-5" d="M242.33,424.08l37.29-7.93s-11.92-11-21.07-9.09S242.48,424.18,242.33,424.08Z" transform="translate(3.75 -50.11)"/><rect class="cls-5" x="48.79" y="402.42" width="6.38" height="6.38" transform="translate(-194.31 679.07) rotate(-135)"/><rect class="cls-5" x="31.88" y="402.42" width="6.38" height="6.38" transform="translate(-223.2 667.11) rotate(-135)"/><rect class="cls-5" x="99.55" y="402.42" width="6.38" height="6.38" transform="translate(-107.67 714.96) rotate(-135)"/><rect class="cls-5" x="82.63" y="402.42" width="6.38" height="6.38" transform="translate(-136.55 703) rotate(-135)"/><rect class="cls-5" x="65.71" y="402.42" width="6.38" height="6.38" transform="translate(-165.44 691.03) rotate(-135)"/><polyline class="cls-5" points="75.08 387.88 75.09 432.45 70.96 432.45 70.95 388.7"/><path class="cls-6" d="M52.44,451.47a18.88,18.88,0,0,1,18.88,18.89h0v6L35.64,451.47Z" transform="translate(3.75 -50.11)"/><path class="cls-5" d="M71.32,477l0,63.35-4.13-.15,0-61.18v-2.69H54.53a18.77,18.77,0,0,1-5.28-.75c-.56-.16-1.11-.35-1.65-.56a17.71,17.71,0,0,1-2.07-1,18.91,18.91,0,0,1-9.89-16.6v-6Z" transform="translate(3.75 -50.11)"/><path class="cls-6" d="M71.32,465.31a16,16,0,0,1,16-16h14.23L71.32,470.36Z" transform="translate(3.75 -50.11)"/><path class="cls-5" d="M71.32,470.36l30.24-21.06v5.05a15.9,15.9,0,0,1-.72,4.76A15.54,15.54,0,0,1,99.63,462a16,16,0,0,1-4.89,5.48c-.33.23-.66.45-1,.65a16,16,0,0,1-8.19,2.25Z" transform="translate(3.75 -50.11)"/><path class="cls-6" d="M67.78,443.53a58.74,58.74,0,0,1-50.25-28.27H118A58.74,58.74,0,0,1,67.78,443.53Z" transform="translate(3.75 -50.11)"/><rect class="cls-5" x="144.74" y="439.84" width="4.8" height="4.8" transform="translate(-57.79 808.87) rotate(-135)"/><rect class="cls-5" x="132.02" y="439.84" width="4.8" height="4.8" transform="translate(-79.49 799.88) rotate(-135)"/><rect class="cls-5" x="182.88" y="439.84" width="4.8" height="4.8" transform="translate(7.33 835.84) rotate(-135)"/><rect class="cls-5" x="170.16" y="439.84" width="4.8" height="4.8" transform="translate(-14.38 826.85) rotate(-135)"/><rect class="cls-5" x="157.45" y="439.84" width="4.8" height="4.8" transform="translate(-36.09 817.86) rotate(-135)"/><polyline class="cls-5" points="165.42 416.46 165.43 449.96 162.32 449.96 162.32 417.07"/><path class="cls-6" d="M147.47,476.7a14.2,14.2,0,0,1,14.2,14.19h0v4.49L134.85,476.7Z" transform="translate(3.75 -50.11)"/><path class="cls-5" d="M161.67,495.87v47.61l-3.11-.11v-48h-9.51a14.06,14.06,0,0,1-4-.57,12.9,12.9,0,0,1-1.24-.42,12.32,12.32,0,0,1-1.56-.73,14.41,14.41,0,0,1-2.26-1.52,14.66,14.66,0,0,1-1.93-1.93,14.16,14.16,0,0,1-3.24-9V476.7Z" transform="translate(3.75 -50.11)"/><path class="cls-6" d="M161.67,487.1a12,12,0,0,1,12-12h10.7l-22.72,15.82Z" transform="translate(3.75 -50.11)"/><path class="cls-5" d="M161.67,490.89l22.72-15.82v3.8a12,12,0,0,1-3.32,8.3,12.77,12.77,0,0,1-1.81,1.55q-.36.25-.75.48a11.9,11.9,0,0,1-6.15,1.69Z" transform="translate(3.75 -50.11)"/><path class="cls-6" d="M159,470.73a44.13,44.13,0,0,1-37.76-21.24h75.52A44.13,44.13,0,0,1,159,470.73Z" transform="translate(3.75 -50.11)"/><polyline class="cls-4" points="1423.1 473.92 1065.42 473.92 1092.34 372.14 1165.6 316.48 1196.69 316.48 1233.69 286.11 1270.69 316.48 1336.86 259.7 1378.37 293.6 1408.34 276.45 1438.21 294.24 1438.7 474.24 1423.1 473.92"/><rect class="cls-10" x="1152.24" y="237.46" width="0.8" height="37.08"/><rect class="cls-10" x="1142.33" y="288.38" width="0.8" height="37.08" transform="translate(-36.75 256.11) rotate(-15)"/><rect class="cls-10" x="1136.6" y="290.75" width="0.81" height="37.08" transform="translate(1.43 559.83) rotate(-30)"/><rect class="cls-10" x="1131.67" y="294.53" width="0.8" height="37.08" transform="translate(113.96 842.09) rotate(-45)"/><rect class="cls-10" x="1127.9" y="299.46" width="0.81" height="37.08" transform="translate(292.51 1086.02) rotate(-60)"/><rect class="cls-10" x="1125.52" y="305.19" width="0.8" height="37.08" transform="translate(525.56 1277.39) rotate(-75)"/><rect class="cls-10" x="1150.94" y="317.59" width="37.08" height="0.81" transform="translate(1.4 577.12) rotate(-29.99)"/><rect class="cls-10" x="1153.54" y="324.21" width="37.08" height="0.81" transform="translate(-39.04 217.66) rotate(-12.8)"/><rect class="cls-10" x="1147.16" y="312.67" width="37.08" height="0.8" transform="translate(123.8 865.86) rotate(-45)"/><rect class="cls-10" x="1142.24" y="308.89" width="37.08" height="0.81" transform="translate(316.36 1109.88) rotate(-60.01)"/><rect class="cls-10" x="1136.51" y="306.51" width="37.08" height="0.8" transform="translate(563.39 1293.06) rotate(-75)"/><circle class="cls-11" cx="1152.83" cy="278.95" r="7.7"/><path class="cls-7" d="M1149.08,369.67a84.37,84.37,0,0,0,72.17-40.6H1076.91A84.37,84.37,0,0,0,1149.08,369.67Z" transform="translate(3.75 -50.11)"/><path class="cls-7" d="M1145.45,285.57a3.44,3.44,0,1,1,3.44,3.44A3.44,3.44,0,0,1,1145.45,285.57Z" transform="translate(3.75 -50.11)"/><path class="cls-7" d="M1156.4,289a3.45,3.45,0,1,1,3.44,3.44A3.44,3.44,0,0,1,1156.4,289Z" transform="translate(3.75 -50.11)"/><path class="cls-7" d="M1166.6,293.24a3.45,3.45,0,1,1,3.45,3.44A3.46,3.46,0,0,1,1166.6,293.24Z" transform="translate(3.75 -50.11)"/><path class="cls-7" d="M1175.37,300a3.45,3.45,0,1,1,3.44,3.45A3.44,3.44,0,0,1,1175.37,300Z" transform="translate(3.75 -50.11)"/><path class="cls-7" d="M1182.09,308.73a3.45,3.45,0,1,1,3.45,3.44A3.44,3.44,0,0,1,1182.09,308.73Z" transform="translate(3.75 -50.11)"/><path class="cls-7" d="M1186.71,320.5a3.45,3.45,0,1,1,3.44,3.44A3.45,3.45,0,0,1,1186.71,320.5Z" transform="translate(3.75 -50.11)"/><path class="cls-7" d="M1134.49,289a3.45,3.45,0,1,1,3.45,3.44A3.45,3.45,0,0,1,1134.49,289Z" transform="translate(3.75 -50.11)"/><path class="cls-7" d="M1124.29,293.24a3.45,3.45,0,1,1,3.44,3.44A3.45,3.45,0,0,1,1124.29,293.24Z" transform="translate(3.75 -50.11)"/><path class="cls-7" d="M1115.52,300a3.45,3.45,0,1,1,3.45,3.45A3.45,3.45,0,0,1,1115.52,300Z" transform="translate(3.75 -50.11)"/><path class="cls-7" d="M1108.8,308.73a3.45,3.45,0,1,1,3.44,3.44A3.44,3.44,0,0,1,1108.8,308.73Z" transform="translate(3.75 -50.11)"/><path class="cls-7" d="M1104.57,318.93a3.45,3.45,0,1,1,3.45,3.45A3.44,3.44,0,0,1,1104.57,318.93Z" transform="translate(3.75 -50.11)"/><polyline class="cls-5" points="1149.87 311.61 1149.86 375.63 1155.79 375.63 1155.81 312.78"/><path class="cls-12" d="M1173.21,381.08a27.13,27.13,0,0,0-27.13,27.13h0v8.56l51.25-35.69Z" transform="translate(3.75 -50.11)"/><path class="cls-5" d="M1146.08,416.77l0,106H1152l0-102.19v-3.85h18.18a27.14,27.14,0,0,0,7.59-1.07c.8-.24,1.59-.51,2.36-.81a26.08,26.08,0,0,0,3-1.39,27.83,27.83,0,0,0,4.33-2.92,27.22,27.22,0,0,0,9.87-20.94v-8.56Z" transform="translate(3.75 -50.11)"/><path class="cls-12" d="M1147.53,401.67a25.79,25.79,0,0,0-25.79-25.79h-22.92l48.71,33.94Z" transform="translate(3.75 -50.11)"/><path class="cls-5" d="M1146.27,408.94l-47.45-33.06v7.93a25.15,25.15,0,0,0,1.12,7.47,24.33,24.33,0,0,0,1.91,4.51,25.2,25.2,0,0,0,3.9,5.36,25.89,25.89,0,0,0,3.77,3.24c.51.36,1,.7,1.57,1a25,25,0,0,0,12.85,3.53Z" transform="translate(3.75 -50.11)"/><path class="cls-12" d="M1163.76,424.39a16.93,16.93,0,0,0-16.93,16.93h0v5.34l32-22.27Z" transform="translate(3.75 -50.11)"/><path class="cls-5" d="M1146.83,446.66v66.18h3.7V446.66h11.35a16.86,16.86,0,0,0,4.74-.67,15,15,0,0,0,1.47-.5,15.74,15.74,0,0,0,1.86-.87,17,17,0,0,0,2.7-1.82,16.66,16.66,0,0,0,2.3-2.3,16.88,16.88,0,0,0,3.86-10.77v-5.34Z" transform="translate(3.75 -50.11)"/><path class="cls-12" d="M1147.74,437.24a16.09,16.09,0,0,0-16.1-16.09h-14.31l30.41,21.17Z" transform="translate(3.75 -50.11)"/><path class="cls-5" d="M1147,441.77l-29.62-20.62v5a15.65,15.65,0,0,0,.71,4.66,15.46,15.46,0,0,0,1.18,2.81,16.09,16.09,0,0,0,2.44,3.34,15.57,15.57,0,0,0,2.35,2c.32.23.65.44,1,.64a15.61,15.61,0,0,0,8,2.2Z" transform="translate(3.75 -50.11)"/><rect class="cls-10" x="1375.77" y="342.18" width="0.56" height="25.83"/><rect class="cls-10" x="1367.73" y="392.85" width="0.56" height="25.83" transform="translate(-54.66 317.78) rotate(-15)"/><rect class="cls-10" x="1363.74" y="394.51" width="0.56" height="25.83" transform="translate(-17.22 686.48) rotate(-30)"/><rect class="cls-10" x="1360.31" y="397.14" width="0.56" height="25.83" transform="translate(112.31 1032.08) rotate(-45)"/><rect class="cls-10" x="1357.67" y="400.57" width="0.56" height="25.83" transform="translate(324.64 1332.66) rotate(-60)"/><rect class="cls-10" x="1356.02" y="404.57" width="0.56" height="25.83" transform="translate(605.75 1569.4) rotate(-75)"/><rect class="cls-10" x="1373.73" y="413.21" width="25.83" height="0.56" transform="translate(-17.25 698.48) rotate(-29.99)"/><rect class="cls-10" x="1375.54" y="417.82" width="25.83" height="0.56" transform="translate(-54.38 267.93) rotate(-12.8)"/><rect class="cls-10" x="1371.1" y="409.78" width="25.83" height="0.56" transform="translate(119.16 1048.64) rotate(-45)"/><rect class="cls-10" x="1367.67" y="407.14" width="25.83" height="0.56" transform="translate(341.29 1349.32) rotate(-60.01)"/><rect class="cls-10" x="1363.67" y="405.49" width="25.83" height="0.56" transform="translate(632.11 1580.32) rotate(-75)"/><circle class="cls-11" cx="1376.19" cy="371.09" r="5.36"/><path class="cls-7" d="M1372.44,449.49a58.77,58.77,0,0,0,50.28-28.29H1322.15A58.77,58.77,0,0,0,1372.44,449.49Z" transform="translate(3.75 -50.11)"/><path class="cls-7" d="M1369.9,390.89a2.4,2.4,0,1,1,2.4,2.4A2.41,2.41,0,0,1,1369.9,390.89Z" transform="translate(3.75 -50.11)"/><path class="cls-7" d="M1377.53,393.29a2.4,2.4,0,1,1,2.4,2.4A2.41,2.41,0,0,1,1377.53,393.29Z" transform="translate(3.75 -50.11)"/><path class="cls-7" d="M1384.64,396.24a2.4,2.4,0,1,1,2.4,2.4A2.4,2.4,0,0,1,1384.64,396.24Z" transform="translate(3.75 -50.11)"/><path class="cls-7" d="M1390.75,400.92a2.4,2.4,0,1,1,2.4,2.4A2.4,2.4,0,0,1,1390.75,400.92Z" transform="translate(3.75 -50.11)"/><path class="cls-7" d="M1395.43,407a2.4,2.4,0,1,1,2.4,2.4A2.4,2.4,0,0,1,1395.43,407Z" transform="translate(3.75 -50.11)"/><path class="cls-7" d="M1398.65,415.23a2.4,2.4,0,1,1,2.4,2.4A2.4,2.4,0,0,1,1398.65,415.23Z" transform="translate(3.75 -50.11)"/><path class="cls-7" d="M1362.27,393.29a2.4,2.4,0,1,1,2.4,2.4A2.4,2.4,0,0,1,1362.27,393.29Z" transform="translate(3.75 -50.11)"/><path class="cls-7" d="M1355.16,396.24a2.4,2.4,0,1,1,2.4,2.4A2.39,2.39,0,0,1,1355.16,396.24Z" transform="translate(3.75 -50.11)"/><path class="cls-7" d="M1349.05,400.92a2.4,2.4,0,1,1,2.4,2.4A2.41,2.41,0,0,1,1349.05,400.92Z" transform="translate(3.75 -50.11)"/><path class="cls-7" d="M1344.37,407a2.4,2.4,0,1,1,2.4,2.4A2.4,2.4,0,0,1,1344.37,407Z" transform="translate(3.75 -50.11)"/><path class="cls-7" d="M1341.42,414.14a2.4,2.4,0,1,1,2.4,2.4A2.41,2.41,0,0,1,1341.42,414.14Z" transform="translate(3.75 -50.11)"/><polyline class="cls-5" points="1374.12 393.84 1374.11 438.45 1378.25 438.45 1378.26 394.66"/><path class="cls-12" d="M1389.25,457.44a18.91,18.91,0,0,0-18.91,18.9h0v6l35.71-24.87Z" transform="translate(3.75 -50.11)"/><path class="cls-5" d="M1370.34,482.31v73.88h4.13l0-71.19v-2.69h12.67a18.89,18.89,0,0,0,5.29-.75c.56-.16,1.1-.35,1.64-.56a18.9,18.9,0,0,0,5.09-3,18.29,18.29,0,0,0,2.56-2.57,18.78,18.78,0,0,0,4.32-12v-6Z" transform="translate(3.75 -50.11)"/><path class="cls-12" d="M1371.36,471.79a18,18,0,0,0-18-18h-16l33.95,23.64Z" transform="translate(3.75 -50.11)"/><path class="cls-5" d="M1370.48,476.85l-33.07-23v5.53a17.5,17.5,0,0,0,.79,5.2,17.08,17.08,0,0,0,1.32,3.14,17.33,17.33,0,0,0,2.72,3.73,17.15,17.15,0,0,0,2.63,2.26c.35.25.72.49,1.09.71a17.44,17.44,0,0,0,9,2.46Z" transform="translate(3.75 -50.11)"/><path class="cls-12" d="M1382.66,487.62a11.79,11.79,0,0,0-11.79,11.79h0v3.73l22.28-15.52Z" transform="translate(3.75 -50.11)"/><path class="cls-5" d="M1370.87,503.14v46.11h2.57l0-44.44v-1.67h7.9a11.55,11.55,0,0,0,3.3-.47c.35-.1.69-.22,1-.35a12.8,12.8,0,0,0,1.3-.61,11.71,11.71,0,0,0,1.88-1.27,11.94,11.94,0,0,0,1.59-1.59,11.73,11.73,0,0,0,2.7-7.51v-3.72Z" transform="translate(3.75 -50.11)"/><path class="cls-12" d="M1371.5,496.57a11.21,11.21,0,0,0-11.22-11.21h-10l21.19,14.75Z" transform="translate(3.75 -50.11)"/><path class="cls-5" d="M1371,499.73l-20.64-14.37v3.45a11.26,11.26,0,0,0,.49,3.25,11.66,11.66,0,0,0,.83,1.95,10.64,10.64,0,0,0,1.7,2.33,10.45,10.45,0,0,0,1.64,1.41c.22.16.45.31.68.45a10.89,10.89,0,0,0,5.59,1.53Z" transform="translate(3.75 -50.11)"/><path class="cls-5" d="M1296.89,188.84a59.3,59.3,0,0,1,0,118.6" transform="translate(3.75 -50.11)"/><path class="cls-6" d="M1296.89,307.44a59.3,59.3,0,0,1,0-118.6" transform="translate(3.75 -50.11)"/><path class="cls-6" d="M1440.77,282.7H1330.42s.82-13.35,21.25-13.35c0,0,5.18-16.62,26.16-16.62,9.84,0,16.08,1.63,23.71,8.17C1401.54,260.9,1440.77,256.21,1440.77,282.7Z" transform="translate(3.75 -50.11)"/><path class="cls-4" d="M1266,243.25h-79.15s.58-9.48,15.24-9.48c0,0,3.72-11.8,18.76-11.8,7.06,0,11.53,1.16,17,5.8C1237.85,227.77,1266,224.44,1266,243.25Z" transform="translate(3.75 -50.11)"/></g></g></svg>