<svg xmlns="http://www.w3.org/2000/svg" xmlns:xlink="http://www.w3.org/1999/xlink" viewBox="0 0 1519.28 529.08"><defs><style>.cls-1{fill:none;}.cls-2{clip-path:url(#clip-path);}.cls-3{fill:#f7f7f7;}.cls-4{fill:#fdf6e6;}.cls-5{fill:#a09f9f;}.cls-6{clip-path:url(#clip-path-2);}.cls-7{fill:#606060;}.cls-8{fill:#fbf5e7;}.cls-9{fill:#bebebe;}</style><clipPath id="clip-path" transform="translate(75.53 -50.11)"><rect class="cls-1" width="1440" height="579.19"/></clipPath><clipPath id="clip-path-2" transform="translate(75.53 -50.11)"><polygon class="cls-1" points="0 341.28 436.26 341.28 436.59 511.01 0 510.93 0 341.28"/></clipPath></defs><g id="Capa_2" data-name="Capa 2"><g id="Arte"><g class="cls-2"><path class="cls-3" d="M99.5,149.5H233.6s-1-16.23-25.83-16.23c0,0-6.29-20.2-31.78-20.2-12,0-19.54,2-28.81,9.94C147.18,123,99.5,117.31,99.5,149.5Z" transform="translate(75.53 -50.11)"/><path class="cls-3" d="M1028.76,403c-11,5.95-28.71,5.95-39.67,0l-39-21.21c-11-5.95-28.71-5.95-39.67,0l-141.58,77c-11,6-28.72,6-39.67,0l-60.77-33c-10.95-6-28.71-6-39.66,0l-39.28,21.35c-11,6-28.72,6-39.67,0L355,341.21c-11-5.95-28.71-5.95-39.67,0l-62.63,34.05c-5.26,2.86-12.4,4.47-19.84,4.47L46.28,203.28c-16.79-11-49.59-4.51-49.59,9.76V543.69h0v15.42l1440,2V454.81Z" transform="translate(75.53 -50.11)"/><path class="cls-3" d="M647.52,567.22c-6.63,0-8.67,1.29-13.73,6.23s-9.42,2.13-11.57-.07c-2.34-2.4-4.67-6.33-11.31-6.37s-8.67,1.28-13.73,6.23-9.42,2.13-11.56-.07c-2.35-2.4-4.68-6.33-11.32-6.37h.51c-6.63,0-8.68,1.28-13.74,6.22s-9.42,2.13-11.56-.06c-2.34-2.4-4.67-6.34-11.31-6.37s-8.67,1.28-13.73,6.22-9.42,2.13-11.57-.07c-2.34-2.4-4.67-6.33-11.31-6.37H502c-6.64,0-8.68,1.29-13.74,6.23s-9.42,2.13-11.56-.07c-2.34-2.4-4.67-6.33-11.31-6.37s-8.68,1.28-13.74,6.23-9.42,2.13-11.56-.07c-2.34-2.4-4.17-6.33-10.81-6.37h0V558H647.55Z" transform="translate(75.53 -50.11)"/><path class="cls-3" d="M792.33,566.8h.5c-6.64,0-8.69,1.28-13.76,6.22s-9.43,2.13-11.58-.06c-2.34-2.4-4.68-6.34-11.32-6.37s-8.7,1.28-13.76,6.22-9.44,2.13-11.58-.07c-2.35-2.4-4.69-6.33-11.33-6.37h.41c-6.65,0-8.69,1.28-13.76,6.23s-9.43,2.13-11.58-.07c-2.34-2.4-4.68-6.33-11.33-6.37s-8.69,1.28-13.76,6.22-9.43,2.13-11.58-.06c-2.34-2.4-4.2-5-10.85-5.09l0-9.23H791.52" transform="translate(75.53 -50.11)"/><path class="cls-4" d="M1437.45,570.22c-6.65,0-8.7,1.29-13.76,6.23s-9.44,2.13-11.58-.07c-2.35-2.4-4.68-6.33-11.33-6.37s-8.69,1.28-13.76,6.23-9.44,2.13-11.58-.07c-2.35-2.4-4.68-6.33-11.33-6.37h.51c-6.65,0-8.69,1.28-13.76,6.22s-9.44,2.13-11.58-.06c-2.35-2.4-4.68-6.34-11.33-6.37s-8.69,1.28-13.76,6.22-9.44,2.13-11.58-.07c-2.34-2.4-4.68-6.33-11.33-6.37h.42c-6.65,0-8.7,1.28-13.77,6.23s-9.43,2.13-11.57-.07c-2.35-2.4-4.69-6.33-11.33-6.37s-8.7,1.28-13.76,6.22-9.44,2.13-11.58-.06c-2.35-2.4-4.18-6.33-10.83-6.37h0V561h218.6Z" transform="translate(75.53 -50.11)"/><path class="cls-4" d="M1219.89,570.22c-6.64,0-8.69,1.29-13.76,6.23s-9.43,2.13-11.58-.07c-2.34-2.4-4.68-6.33-11.33-6.37s-8.69,1.28-13.76,6.23-9.43,2.13-11.58-.07c-2.34-2.4-4.68-6.33-11.32-6.37h.5c-6.64,0-8.69,1.28-13.76,6.22s-9.43,2.13-11.58-.06c-2.34-2.4-4.68-6.34-11.32-6.37s-8.7,1.28-13.76,6.22-9.44,2.13-11.58-.07c-2.35-2.4-4.69-6.33-11.33-6.37h.41c-6.65,0-8.69,1.28-13.76,6.23s-9.43,2.13-11.58-.07c-2.34-2.4-4.68-6.33-11.33-6.37s-8.69,1.28-13.76,6.22-9.43,2.13-11.58-.06c-2.34-2.4-4.18-6.33-10.82-6.37l10.83-9,207.78,1Z" transform="translate(75.53 -50.11)"/><path class="cls-3" d="M1012.16,560.12a11,11,0,0,1-7.16,10.13c-2.31.9-4.26,2.53-7.15,5.24-5.26,4.94-9.8,2.13-12-.07-2.44-2.4-4.87-6.33-11.77-6.37s-9,1.28-14.29,6.22-9.79,2.13-12-.07c-2.43-2.4-4.86-6.33-11.76-6.37h.52c-6.9,0-9,1.28-14.28,6.22s-9.8,2.13-12-.07c-2.43-2.4-4.86-6.33-11.76-6.37s-9,1.28-14.29,6.22-9.8,2.13-12-.07c-2.44-2.4-4.86-6.33-11.77-6.37h.43c-6.9,0-9,1.28-14.28,6.22s-9.8,2.13-12-.07c-2.43-2.4-4.86-6.33-11.76-6.37s-9,1.28-14.29,6.22-9.8,2.13-12-.07c-2.44-2.4-4.34-6.33-11.25-6.37v-8l227,0Z" transform="translate(75.53 -50.11)"/><path class="cls-4" d="M1443.75,298.33H1206.49c-28.11,0-55.08,7.28-75,20.23h0c-19.88,12.95-31,30.52-31,48.83V561.61h343.26Z" transform="translate(75.53 -50.11)"/><path class="cls-3" d="M1238.56,176.48h60.82s-.45-7.35-11.72-7.35c0,0-2.85-9.16-14.41-9.16-5.43,0-8.86.9-13.07,4.5C1260.18,164.47,1238.56,161.89,1238.56,176.48Z" transform="translate(75.53 -50.11)"/><path class="cls-3" d="M249.15,75.3H156.4s.68-11.22,17.86-11.22c0,0,4.35-14,22-14,8.27,0,13.51,1.38,19.92,6.87C216.17,57,249.15,53,249.15,75.3Z" transform="translate(75.53 -50.11)"/><path class="cls-5" d="M1076.68,559.11l57.73-162c7-20.4,24.7-33.91,44.5-33.91h62.65a45.44,45.44,0,0,0,33.61-15.32h0a45.44,45.44,0,0,1,33.62-15.33h135V559.11Z" transform="translate(75.53 -50.11)"/><path class="cls-4" d="M214.84,565.94c-6.65,0-8.7,1.28-13.76,6.23s-9.44,2.12-11.58-.07c-2.35-2.4-4.68-6.33-11.33-6.37S169.48,567,164.41,572s-9.44,2.13-11.58-.06c-2.35-2.4-4.68-6.34-11.33-6.37l.51,0c-6.65,0-8.69,1.29-13.76,6.23s-9.44,2.13-11.58-.07c-2.35-2.4-4.68-6.33-11.33-6.37s-8.69,1.29-13.76,6.23-9.44,2.13-11.58-.07c-2.34-2.4-4.68-6.33-11.33-6.37h.42c-6.65,0-8.7,1.28-13.76,6.22s-9.44,2.13-11.58-.06c-2.35-2.4-4.69-6.34-11.33-6.37s-8.7,1.28-13.76,6.22S9.22,573.22,7.08,571c-2.35-2.41-4.18-6.34-10.83-6.38h0v-7.93h218.6Z" transform="translate(75.53 -50.11)"/><path class="cls-4" d="M429.25,565.94c-6.66,0-8.7,1.29-13.78,6.23s-9.45,2.13-11.6-.07c-2.35-2.4-4.69-6.33-11.34-6.37S383.82,567,378.74,572s-9.45,2.12-11.59-.07c-2.35-2.4-4.69-6.33-11.35-6.37h.51c-6.66,0-8.71,1.28-13.78,6.22s-9.45,2.13-11.6-.07c-2.35-2.4-4.69-6.33-11.34-6.37s-8.71,1.29-13.79,6.23-9.45,2.13-11.59-.07c-2.35-2.4-4.69-6.33-11.35-6.37h.41c-6.65,0-8.7,1.28-13.78,6.22s-9.45,2.13-11.59-.06c-2.35-2.4-4.69-6.33-11.35-6.37s-8.71,1.28-13.78,6.22-9.45,2.13-11.6-.06c-2.35-2.41-4.18-6.34-10.84-6.38h0v-7.93H429.27Z" transform="translate(75.53 -50.11)"/><path class="cls-4" d="M525.12,573c-5.08,4.94-9.45,2.13-11.6-.07-2.35-2.4-4.69-6.33-11.35-6.37s-8.7,1.28-13.78,6.23-9.45,2.13-11.59-.07c-2.35-2.4-4.69-6.33-11.35-6.37H466c-6.66,0-8.71,1.28-13.78,6.22s-9.45,2.13-11.6-.06c-2.35-2.4-4.69-6.34-11.35-6.37s-8.7,1.28-13.78,6.22-9.45,2.13-11.6-.07c-2.34-2.4-4.68-6.33-11.34-6.37h.41c-6.65,0-8.7,1.28-13.78,6.23s-9.45,2.13-11.6-.07c-2.34-2.4-4.68-6.33-11.34-6.37s-8.71,1.28-13.78,6.22-9.45,2.13-11.6-.06c-2.35-2.4-4.19-6.34-10.84-6.37v-8H519.86S530.19,568,525.12,573Z" transform="translate(75.53 -50.11)"/><path class="cls-4" d="M-3.31,509.9H423.16c3.7,0,6.7,3.93,6.7,8.78h0c0,4.85,3,8.78,6.7,8.78H488a30.6,30.6,0,0,1,13.43,3.15A33.32,33.32,0,0,1,518,549.31l4.52,12.3H-3.31Z" transform="translate(75.53 -50.11)"/></g><g class="cls-6"><path class="cls-5" d="M268.66,429.53l-72.12.05-58.78-38.47h-25L83,367.57,53.27,391.11l-53.2-44-33.38,26.27-24.1-13.29-18.12,13.74V513.16H351.18l-.06-2.36a83.18,83.18,0,0,0-82.46-81.27Z" transform="translate(75.53 -50.11)"/></g><path class="cls-7" d="M1343.93,391.12h95.51a0,0,0,0,1,0,0V524.75a35.89,35.89,0,0,1-35.89,35.89h-59.61a0,0,0,0,1,0,0V391.12A0,0,0,0,1,1343.93,391.12Z" transform="translate(2858.9 901.65) rotate(-180)"/><path class="cls-7" d="M1178.26,391.12h94.31a0,0,0,0,1,0,0V560.64a0,0,0,0,1,0,0h-56a38.29,38.29,0,0,1-38.29-38.29V391.12A0,0,0,0,1,1178.26,391.12Z" transform="translate(2526.36 901.65) rotate(-180)"/><path class="cls-8" d="M1213.07,542c24.63-.43,28.45,0,28.45,0a40.48,40.48,0,0,1,37-21.24c26.76.43,29.73,13.17,29.73,13.17s3-12.74,29.73-13.17a40.46,40.46,0,0,1,37,21.24s3.83-.43,28.46,0c18.31.32,30.51,13.83,35.57,20.76H1177.49C1182.56,555.82,1194.76,542.31,1213.07,542Z" transform="translate(75.53 -50.11)"/><path class="cls-7" d="M1331.74,504.05a1.58,1.58,0,0,0,1.58-1.58V449.29a1.58,1.58,0,1,0-3.16,0v53.18A1.58,1.58,0,0,0,1331.74,504.05Z" transform="translate(75.53 -50.11)"/><path class="cls-7" d="M1330.16,421.54a1.58,1.58,0,0,0,1.58-1.58V409.1a1.58,1.58,0,1,0-3.16,0V420A1.58,1.58,0,0,0,1330.16,421.54Z" transform="translate(75.53 -50.11)"/><path class="cls-7" d="M1284.84,445.1a1.58,1.58,0,0,0,1.58-1.58V421.8a1.58,1.58,0,0,0-3.16,0v21.72A1.58,1.58,0,0,0,1284.84,445.1Z" transform="translate(75.53 -50.11)"/><path class="cls-7" d="M1283.26,523.15a1.58,1.58,0,0,0,1.58-1.58V491.09a1.58,1.58,0,1,0-3.16,0v30.48A1.58,1.58,0,0,0,1283.26,523.15Z" transform="translate(75.53 -50.11)"/><path class="cls-3" d="M1303.62,490.73c-7.38-12.22-7.43,20.39-7.43,20.39s-8.9-42.06,6.41-71.13l4.65,50.45Z" transform="translate(75.53 -50.11)"/><path class="cls-3" d="M1311.83,490.73c7.39-12.22,7.43,20.39,7.43,20.39s10.54-42.5-4.76-71.57l-6.29,50.89Z" transform="translate(75.53 -50.11)"/><path class="cls-7" d="M1304.73,488.39c-5.62,10-1.87,25.12-1.87,25.12s3.41-8.44,5.13-10.33c0,0,3.92,5.67,5.22,10.33,0,0,2.94-14.36-2.22-25.12Z" transform="translate(75.53 -50.11)"/><path class="cls-7" d="M1307.87,495.64s-21.09-40.25,1.94-67.64C1309.81,428,1327.1,455.21,1307.87,495.64Z" transform="translate(75.53 -50.11)"/><path class="cls-7" d="M1309.81,428l-1.94,67.64C1327.1,455.21,1309.81,428,1309.81,428Z" transform="translate(75.53 -50.11)"/><path class="cls-9" d="M1150.61,467.78V559h9.54V448.51l25.67-25.68h10.24a.73.73,0,0,0,0-1.46h-8.78l12.09-12.11a.72.72,0,0,0,0-1,.73.73,0,0,0-1,0l-22.26,22.27-11.42-11.39,17.07-17a.74.74,0,0,0,0-1,.72.72,0,0,0-1,0l-17.07,17-7.21-7.19a.72.72,0,0,0-1,0,.71.71,0,0,0,0,1l19.66,19.61-19.59,19.6-28.83-28.79,12.22-12.19a.67.67,0,0,0,.29-.17.77.77,0,0,0,.17-.29l7.74-7.71a.74.74,0,0,0,0-1,.72.72,0,0,0-1,0l-7.46,7.43-7.82-7.8a.74.74,0,0,0-1,0,.72.72,0,0,0,0,1l7.82,7.8-11.93,11.89-10.49-10.47-1,1,36.54,36.49Z" transform="translate(75.53 -50.11)"/><path class="cls-3" d="M1112.14,384.14h3.41c0-.11,0-.21,0-.32a14.09,14.09,0,0,1,14.12-14.07l49.48-.16a14.09,14.09,0,0,1,14.12,14.07c0,.11,0,.23,0,.34l9.74,0a14.08,14.08,0,1,1,0,28.15h0a14.09,14.09,0,0,1-14.11,13.75l-62,.17a14.1,14.1,0,0,1-14.11-13.76h-.65a14.07,14.07,0,1,1,0-28.14Z" transform="translate(75.53 -50.11)"/><path class="cls-7" d="M254.11,393.51h5v-21a20.49,20.49,0,0,0-18.86-20.4c-.53,0-15-.06-15.52-.06v5c.71,0,15.31,0,16,.14a15.46,15.46,0,0,1,13.36,15.3Z" transform="translate(75.53 -50.11)"/><rect class="cls-7" x="329.65" y="292.45" width="5.02" height="168.45"/><path class="cls-7" d="M249.2,421.27a23.18,23.18,0,0,0-16.83-4.13l26.1,18.77a23.14,23.14,0,0,0-9.27-14.64" transform="translate(75.53 -50.11)"/><path class="cls-3" d="M265.67,462.2a23.14,23.14,0,0,1,16.83-4.13l-26.1,18.77a23.11,23.11,0,0,1,9.27-14.64" transform="translate(75.53 -50.11)"/><path class="cls-7" d="M265.72,378.35a23.13,23.13,0,0,0-7.55,15.6L282,372.34a23.1,23.1,0,0,0-16.25,6" transform="translate(75.53 -50.11)"/><path class="cls-7" d="M216.08,366.27a11.69,11.69,0,0,0,0-23.37H201.77L197.42,340v9.68l-5,5,4.59,4.6v10.49l5.16-3.09Z" transform="translate(75.53 -50.11)"/><path class="cls-7" d="M244.67,334.15a11.69,11.69,0,0,0,23.37,0V319.84l2.91-4.35h-9.68l-5-5-4.6,4.59H241.21l3.08,5.16Z" transform="translate(75.53 -50.11)"/><path class="cls-5" d="M188.22,357a2.1,2.1,0,1,0-1.28-2.67,2.1,2.1,0,0,0,1.28,2.67" transform="translate(75.53 -50.11)"/><path class="cls-5" d="M191.13,347.69a2.09,2.09,0,1,0-1.28-2.67,2.08,2.08,0,0,0,1.28,2.67" transform="translate(75.53 -50.11)"/><path class="cls-5" d="M191.13,364.92a2.09,2.09,0,1,0-1.28-2.67,2.09,2.09,0,0,0,1.28,2.67" transform="translate(75.53 -50.11)"/><path class="cls-7" d="M257.66,444.88v5h-21a20.49,20.49,0,0,1-20.4-18.86c-.05-.53-.07-15-.07-15.52h5c0,.71.05,15.31.14,16a15.48,15.48,0,0,0,15.31,13.36Z" transform="translate(75.53 -50.11)"/><path class="cls-7" d="M230.42,406.85a11.69,11.69,0,0,1-23.37,0V392.54l-2.91-4.35h9.68l5-5,4.6,4.59h10.48L230.8,393Z" transform="translate(75.53 -50.11)"/><path class="cls-5" d="M221.11,379a2.1,2.1,0,1,1-2.67-1.27,2.1,2.1,0,0,1,2.67,1.27" transform="translate(75.53 -50.11)"/><path class="cls-5" d="M211.84,381.9a2.09,2.09,0,1,1-2.67-1.28,2.1,2.1,0,0,1,2.67,1.28" transform="translate(75.53 -50.11)"/><path class="cls-5" d="M229.07,381.9a2.09,2.09,0,1,1-2.68-1.28,2.1,2.1,0,0,1,2.68,1.28" transform="translate(75.53 -50.11)"/><path class="cls-5" d="M254.32,304.27A2.1,2.1,0,1,0,257,303a2.1,2.1,0,0,0-2.68,1.28" transform="translate(75.53 -50.11)"/><path class="cls-5" d="M263.59,307.18a2.1,2.1,0,1,0,2.68-1.28,2.1,2.1,0,0,0-2.68,1.28" transform="translate(75.53 -50.11)"/><path class="cls-5" d="M246.37,307.18A2.09,2.09,0,1,0,249,305.9a2.08,2.08,0,0,0-2.67,1.28" transform="translate(75.53 -50.11)"/><path class="cls-7" d="M89.59,230.3a59.3,59.3,0,1,1,0,118.6" transform="translate(75.53 -50.11)"/><path class="cls-5" d="M89.59,348.9a59.3,59.3,0,0,1,0-118.6" transform="translate(75.53 -50.11)"/><path class="cls-5" d="M223.69,304.58H113.34s.82-13.35,21.25-13.35c0,0,5.18-16.62,26.16-16.62,9.85,0,16.08,1.64,23.71,8.17C184.46,282.78,223.69,278.09,223.69,304.58Z" transform="translate(75.53 -50.11)"/></g></g></svg>