<svg xmlns="http://www.w3.org/2000/svg" xmlns:xlink="http://www.w3.org/1999/xlink" viewBox="0 0 2357.89 575.67"><defs><style>.cls-1,.cls-12{fill:none;}.cls-2{clip-path:url(#clip-path);}.cls-3{fill:#f7f7f7;}.cls-4{fill:#fdf6e6;}.cls-5{fill:#6b6a6a;}.cls-6{clip-path:url(#clip-path-2);}.cls-7{fill:#a09f9f;}.cls-8{fill:#606060;}.cls-9{fill:#dfdfdf;}.cls-10{fill:#213039;}.cls-11{fill:#ffeddd;opacity:0.37;}.cls-12{stroke:#606060;stroke-miterlimit:10;}.cls-13{fill:#1c303f;}</style><clipPath id="clip-path" transform="translate(3.75 -3.52)"><rect class="cls-1" width="1440" height="579.19"/></clipPath><clipPath id="clip-path-2" transform="translate(3.75 -3.52)"><rect class="cls-1" x="1004.14" y="350.19" width="438.29" height="217.05"/></clipPath></defs><g id="Capa_2" data-name="Capa 2"><g id="Arte"><g class="cls-2"><path class="cls-3" d="M99.5,149.5H233.6s-1-16.23-25.83-16.23c0,0-6.29-20.2-31.78-20.2-12,0-19.54,2-28.81,9.94C147.18,123,99.5,117.31,99.5,149.5Z" transform="translate(3.75 -3.52)"/><path class="cls-3" d="M1028.76,403c-11,5.95-28.71,5.95-39.67,0l-39-21.21c-11-5.95-28.71-5.95-39.67,0l-141.58,77c-11,6-28.72,6-39.67,0l-60.77-33c-10.95-6-28.71-6-39.66,0l-39.28,21.35c-11,6-28.72,6-39.67,0L355,341.21c-11-5.95-28.71-5.95-39.67,0l-62.63,34.05c-5.26,2.86-12.4,4.47-19.84,4.47L46.28,203.28c-16.79-11-49.59-4.51-49.59,9.76V543.69h0v15.42l1440,2V454.81Z" transform="translate(3.75 -3.52)"/><path class="cls-3" d="M647.52,567.22c-6.63,0-8.68,1.29-13.73,6.23s-9.42,2.13-11.57-.07c-2.34-2.4-4.67-6.33-11.31-6.37s-8.67,1.28-13.73,6.23-9.42,2.13-11.57-.07c-2.34-2.4-4.67-6.33-11.31-6.37h.51c-6.63,0-8.68,1.28-13.74,6.22s-9.42,2.13-11.56-.06c-2.34-2.4-4.67-6.34-11.31-6.37s-8.68,1.28-13.73,6.22-9.42,2.13-11.57-.07c-2.34-2.4-4.67-6.33-11.31-6.37H502c-6.64,0-8.68,1.29-13.74,6.23s-9.42,2.13-11.56-.07c-2.34-2.4-4.68-6.33-11.31-6.37s-8.68,1.28-13.74,6.23-9.42,2.13-11.56-.07c-2.34-2.4-4.17-6.33-10.81-6.37h0V558H647.55Z" transform="translate(3.75 -3.52)"/><path class="cls-3" d="M792.33,566.8h.5c-6.64,0-8.69,1.28-13.76,6.22s-9.43,2.13-11.58-.06c-2.34-2.4-4.68-6.34-11.32-6.37s-8.7,1.28-13.76,6.22-9.44,2.13-11.58-.07c-2.35-2.4-4.69-6.33-11.33-6.37h.41c-6.65,0-8.69,1.28-13.76,6.23s-9.43,2.13-11.58-.07c-2.34-2.4-4.68-6.33-11.33-6.37s-8.69,1.28-13.76,6.22-9.43,2.13-11.58-.06c-2.34-2.4-4.2-5-10.85-5.09l0-9.23H791.52" transform="translate(3.75 -3.52)"/><path class="cls-4" d="M1437.45,570.22c-6.65,0-8.7,1.29-13.76,6.23s-9.44,2.13-11.58-.07c-2.35-2.4-4.68-6.33-11.33-6.37s-8.69,1.28-13.76,6.23-9.44,2.13-11.58-.07c-2.35-2.4-4.68-6.33-11.33-6.37h.51c-6.65,0-8.69,1.28-13.76,6.22s-9.44,2.13-11.58-.06c-2.35-2.4-4.68-6.34-11.33-6.37s-8.69,1.28-13.76,6.22-9.44,2.13-11.58-.07c-2.34-2.4-4.68-6.33-11.33-6.37h.42c-6.65,0-8.7,1.28-13.77,6.23s-9.43,2.13-11.57-.07c-2.35-2.4-4.69-6.33-11.33-6.37s-8.7,1.28-13.76,6.22-9.44,2.13-11.58-.06c-2.35-2.4-4.18-6.33-10.83-6.37h0V561h218.6Z" transform="translate(3.75 -3.52)"/><path class="cls-4" d="M1219.89,570.22c-6.64,0-8.69,1.29-13.76,6.23s-9.43,2.13-11.58-.07c-2.34-2.4-4.68-6.33-11.33-6.37s-8.69,1.28-13.76,6.23-9.43,2.13-11.58-.07c-2.34-2.4-4.68-6.33-11.32-6.37h.5c-6.64,0-8.69,1.28-13.76,6.22s-9.43,2.13-11.58-.06c-2.34-2.4-4.68-6.34-11.32-6.37s-8.7,1.28-13.76,6.22-9.44,2.13-11.58-.07c-2.35-2.4-4.69-6.33-11.33-6.37h.41c-6.65,0-8.69,1.28-13.76,6.23s-9.43,2.13-11.58-.07c-2.34-2.4-4.68-6.33-11.33-6.37s-8.69,1.28-13.76,6.22-9.43,2.13-11.58-.06c-2.34-2.4-4.18-6.33-10.82-6.37l10.83-9,207.78,1Z" transform="translate(3.75 -3.52)"/><path class="cls-3" d="M1012.16,560.12a11,11,0,0,1-7.16,10.13c-2.31.9-4.26,2.53-7.15,5.24-5.26,4.94-9.8,2.13-12-.07-2.44-2.4-4.87-6.33-11.77-6.37s-9,1.28-14.29,6.22-9.79,2.13-12-.07c-2.43-2.4-4.86-6.33-11.76-6.37h.52c-6.9,0-9,1.28-14.28,6.22s-9.8,2.13-12-.07c-2.43-2.4-4.86-6.33-11.76-6.37s-9,1.28-14.29,6.22-9.8,2.13-12-.07c-2.44-2.4-4.86-6.33-11.77-6.37h.43c-6.9,0-9,1.28-14.28,6.22s-9.8,2.13-12-.07c-2.43-2.4-4.86-6.33-11.76-6.37s-9,1.28-14.29,6.22-9.8,2.13-12-.07c-2.44-2.4-4.34-6.33-11.25-6.37v-8l227,0Z" transform="translate(3.75 -3.52)"/><path class="cls-4" d="M1443.75,298.33H1206.49c-28.11,0-55.08,7.28-75,20.23h0c-19.88,12.95-31,30.52-31,48.83V561.61h343.26Z" transform="translate(3.75 -3.52)"/><path class="cls-3" d="M1238.56,176.48h60.82s-.45-7.35-11.72-7.35c0,0-2.85-9.16-14.41-9.16-5.43,0-8.86.9-13.07,4.5C1260.18,164.47,1238.56,161.89,1238.56,176.48Z" transform="translate(3.75 -3.52)"/><path class="cls-3" d="M249.15,75.3H156.4s.68-11.22,17.86-11.22c0,0,4.35-14,22-14,8.27,0,13.51,1.38,19.92,6.87C216.17,57,249.15,53,249.15,75.3Z" transform="translate(3.75 -3.52)"/><path class="cls-4" d="M214.84,565.94c-6.65,0-8.7,1.28-13.76,6.23s-9.44,2.12-11.58-.07c-2.35-2.4-4.68-6.33-11.33-6.37S169.48,567,164.41,572s-9.44,2.13-11.58-.06c-2.35-2.4-4.68-6.34-11.33-6.37l.51,0c-6.65,0-8.69,1.29-13.76,6.23s-9.44,2.13-11.58-.07c-2.35-2.4-4.68-6.33-11.33-6.37s-8.69,1.29-13.76,6.23-9.44,2.13-11.58-.07c-2.34-2.4-4.68-6.33-11.33-6.37h.42c-6.65,0-8.7,1.28-13.76,6.22s-9.44,2.13-11.58-.06c-2.35-2.4-4.69-6.34-11.33-6.37s-8.7,1.28-13.76,6.22S9.22,573.22,7.08,571c-2.35-2.41-4.18-6.34-10.83-6.38h0v-7.93h218.6Z" transform="translate(3.75 -3.52)"/><path class="cls-4" d="M429.25,565.94c-6.66,0-8.71,1.29-13.78,6.23s-9.45,2.13-11.6-.07c-2.35-2.4-4.69-6.33-11.34-6.37S383.82,567,378.74,572s-9.45,2.12-11.59-.07c-2.35-2.4-4.69-6.33-11.35-6.37h.51c-6.66,0-8.71,1.28-13.78,6.22s-9.45,2.13-11.6-.07c-2.35-2.4-4.69-6.33-11.35-6.37s-8.7,1.29-13.78,6.23-9.45,2.13-11.59-.07c-2.35-2.4-4.69-6.33-11.35-6.37h.41c-6.65,0-8.7,1.28-13.78,6.22s-9.45,2.13-11.59-.06c-2.35-2.4-4.69-6.33-11.35-6.37s-8.71,1.28-13.78,6.22-9.45,2.13-11.6-.06c-2.35-2.41-4.18-6.34-10.84-6.38h0v-7.93H429.27Z" transform="translate(3.75 -3.52)"/><path class="cls-4" d="M525.12,573c-5.08,4.94-9.45,2.13-11.6-.07-2.35-2.4-4.69-6.33-11.35-6.37s-8.7,1.28-13.78,6.23-9.45,2.13-11.59-.07c-2.35-2.4-4.69-6.33-11.35-6.37H466c-6.66,0-8.71,1.28-13.78,6.22s-9.45,2.13-11.6-.06c-2.35-2.4-4.69-6.34-11.35-6.37s-8.7,1.28-13.78,6.22-9.45,2.13-11.6-.07c-2.34-2.4-4.68-6.33-11.34-6.37h.41c-6.65,0-8.7,1.28-13.78,6.23s-9.45,2.13-11.6-.07c-2.34-2.4-4.68-6.33-11.34-6.37s-8.71,1.28-13.78,6.22-9.45,2.13-11.6-.06c-2.35-2.4-4.19-6.34-10.84-6.37v-8H519.86S530.19,568,525.12,573Z" transform="translate(3.75 -3.52)"/><path class="cls-4" d="M-3.31,509.9H423.16c3.7,0,6.7,3.93,6.7,8.78h0c0,4.85,3,8.78,6.7,8.78H488a30.6,30.6,0,0,1,13.43,3.15A33.32,33.32,0,0,1,518,549.31l4.52,12.3H-3.31Z" transform="translate(3.75 -3.52)"/></g><path class="cls-5" d="M1394.8,433.77c-22.5,0-22.5,24-45,24s-22.5-24-45-24-22.51,24-45,24-22.5-24-45-24-22.5,24-45,24-22.51-24-45-24c-22.29,0-22.51,23.53-44.37,24-21.87-.45-22.09-24-44.38-24-22.5,0-22.5,24-45,24s-22.49-24-45-24-22.51,24-45,24-22.5-24-45-24-22.5,24-45,24-22.51-24-45-24-22.51,24-45,24-22.51-24-45-24-22.5,24-45,24-22.51-24-45-24-22.5,24-45,24-22.5-24-45-24-22.5,24-45,24-22.5-24-45-24c-22.28,0-22.51,23.53-44.37,24-21.86-.45-22.09-24-44.38-24-22.5,0-22.5,24-45,24s-22.5-24-45-24-22.5,24-45,24-22.5-24-45-24-22.51,24-45,24-22.5-24-45-24-22.5,24-45,24v56.86H1439.81V457.77C1417.31,457.77,1417.31,433.77,1394.8,433.77Z" transform="translate(3.75 -3.52)"/><g class="cls-6"><path class="cls-7" d="M2309.13,350.19c-22.5,0-22.5,24-45,24s-22.5-24-45-24-22.5,24-45,24-22.5-24-45-24-22.5,24-45,24-22.5-24-45-24c-22.29,0-22.52,23.52-44.38,24-21.86-.45-22.09-24-44.37-24-22.5,0-22.5,24-45,24s-22.5-24-45-24-22.5,24-45,24-22.5-24-45-24-22.5,24-45,24-22.5-24-45-24-22.51,24-45,24-22.51-24-45-24-22.5,24-45,24-22.51-24-45-24-22.51,24-45,24-22.5-24-45-24-22.5,24-45,24-22.51-24-45-24c-22.28,0-22.51,23.52-44.37,24-21.86-.45-22.09-24-44.38-24-22.5,0-22.5,24-45,24s-22.5-24-45-24-22.51,24-45,24-22.5-24-45-24-22.51,24-45,24-22.51-24-45-24-22.51,24-45,24V562.33H2354.14V374.19C2331.64,374.19,2331.64,350.19,2309.13,350.19Z" transform="translate(3.75 -3.52)"/></g><circle class="cls-4" cx="1249" cy="131.59" r="98.44"/><circle class="cls-5" cx="1223.98" cy="106.57" r="73.43"/><path class="cls-8" d="M1133.77,436.16h0c4.51,9.88,17.35,8.64,17.35,8.64a27.17,27.17,0,0,1-8.47-8C1139.53,436.67,1136.57,436.44,1133.77,436.16Z" transform="translate(3.75 -3.52)"/><path class="cls-8" d="M1154,436.86c-2.16.07-4.26.09-6.32.07h0c3.59,5.17,10.21,5.86,10.21,5.86-3.31-3.31-3.89-5.93-3.89-5.93Z" transform="translate(3.75 -3.52)"/><path class="cls-4" d="M1111.08,427.56h0a34.1,34.1,0,0,1,17-13.14c.81-.28,1.63-.55,2.47-.77,18.08-5,40.15,3.32,54.29,10.35,2.61,1.3,4.94,2.56,6.94,3.68,4.39,2.45,7.12,4.27,7.39,4.45h-91C1108.35,431.57,1109.82,429.38,1111.08,427.56Z" transform="translate(3.75 -3.52)"/><path class="cls-8" d="M1197.92,416.37a16.39,16.39,0,0,0-5.56,2.22,58.83,58.83,0,0,0-7.56,5.41c-14.14-7-36.21-15.35-54.29-10.35-.84.22-1.66.49-2.47.77C1159,385,1197.92,416.37,1197.92,416.37Z" transform="translate(3.75 -3.52)"/><path class="cls-8" d="M1202.37,432.91c-.25-.21-2.8-2.28-6.93-5.14,8.19-3.71,18.57-4.08,26.53-3.6a92.47,92.47,0,0,1,12.23,1.52l-13.59,9L1232.35,445a71.39,71.39,0,0,1-12.45-.91c-7.37-1.15-16.85-3.68-25.14-9.24,2.52-.55,5.06-1.2,7.63-1.93Z" transform="translate(3.75 -3.52)"/><path class="cls-8" d="M1304.33,528.43h0c4.51,9.88,17.35,8.65,17.35,8.65a27.29,27.29,0,0,1-8.47-8C1310.1,528.94,1307.13,528.72,1304.33,528.43Z" transform="translate(3.75 -3.52)"/><path class="cls-8" d="M1324.56,529.13c-2.17.07-4.27.09-6.33.07h0c3.59,5.17,10.21,5.86,10.21,5.86-3.3-3.3-3.88-5.93-3.88-5.93Z" transform="translate(3.75 -3.52)"/><path class="cls-4" d="M1281.64,519.83h0a34.14,34.14,0,0,1,16.95-13.14c.81-.28,1.64-.55,2.47-.77,18.08-5,40.15,3.32,54.3,10.35,2.6,1.3,4.93,2.56,6.93,3.68,4.39,2.46,7.12,4.27,7.39,4.45h-91C1278.91,523.84,1280.39,521.65,1281.64,519.83Z" transform="translate(3.75 -3.52)"/><path class="cls-8" d="M1368.48,508.64a16.59,16.59,0,0,0-5.56,2.22,57.57,57.57,0,0,0-7.55,5.41c-14.15-7-36.22-15.35-54.3-10.35-.83.22-1.66.49-2.47.77C1329.59,477.3,1368.48,508.64,1368.48,508.64Z" transform="translate(3.75 -3.52)"/><path class="cls-8" d="M1372.93,525.18c-.25-.2-2.79-2.27-6.93-5.14,8.19-3.71,18.57-4.08,26.53-3.6a92.8,92.8,0,0,1,12.24,1.52l-13.59,9,11.73,10.32a71.39,71.39,0,0,1-12.45-.91c-7.36-1.15-16.84-3.68-25.14-9.24,2.52-.55,5.07-1.2,7.63-1.93Z" transform="translate(3.75 -3.52)"/><path class="cls-9" d="M231.5,386.71l-.21,0h0c-17.13,3.57-31.73,13.46-46.23,23.9-.3.2-.6.42-.91.65-9,6.51-18,13.19-27.58,18.62-4.91,2.79-10,5.26-15.13,7.55l-1,.45c-12.38,5.41-25.25,9.8-37.68,15.15Q95,456.39,87.5,460.24l-1.14.6-.74.4c-1.28.66-2.53,1.33-3.77,2h0q-3.21,1.74-6.37,3.61c-1.13.67-2.26,1.33-3.36,2a227.11,227.11,0,0,0-21.19,14.63l-1,.79A214.16,214.16,0,0,0,27,505.15,32.35,32.35,0,0,1,3.52,515.32h0V460.67c1.51-2.46,3.06-4.89,4.72-7.26,1.17-1.67,2.36-3.32,3.59-5h0c1.36-1.8,2.74-3.59,4.17-5.34.25-.31.51-.62.76-.94,2.46-3,5-5.82,7.66-8.59,3.56-3.77,7.33-7.35,11.24-10.77a188.65,188.65,0,0,1,65.17-37c.91-.31,1.81-.6,2.71-.87,7.75-2.48,15.31-4.56,22.79-6.21h0c2.09-.47,4.15-.9,6.23-1.29,3.45-.66,6.89-1.25,10.32-1.72h0a188.9,188.9,0,0,1,30.56-1.82l1.52,0a211.11,211.11,0,0,1,33.68,3.83c10.71,2.07,17.7,5.86,22.9,7.9l0,0A.52.52,0,0,1,231.5,386.71Z" transform="translate(3.75 -3.52)"/><path class="cls-10" d="M3.52,497.48v-2.11q5.67-9.45,12.15-18.32v0a5.45,5.45,0,0,1,.41-.57h0c2.66-3.67,5.46-7.27,8.34-10.76.26-.35.54-.68.83-1h0c2.58-3.1,5.22-6.14,7.94-9.09l.09-.11q7.71-8.41,16.13-16c3.75-3.4,7.61-6.66,11.54-9.78l.14-.11q4.47-3.52,9.09-6.81s0,0,0,0l0,0c.08-.07.18-.12.26-.18q7.55-5.36,15.45-10.06l0,0c1.71-1,3.4-2,5.11-2.94,3.26-1.8,6.57-3.53,9.91-5.15h0l1.19-.59c.35-.18.71-.36,1.07-.52h0c5.18-2.45,10.45-4.7,15.82-6.71h0c2.54-1,5.13-1.9,7.71-2.76.87-.3,1.74-.59,2.62-.87h0A218.7,218.7,0,0,1,164,384.79l1.48-.22a202.78,202.78,0,0,1,66.19,1.15l.1,0a.53.53,0,1,1-.2,1.05l-.23,0h0a201.76,201.76,0,0,0-66.87-.93l-.16,0h0q-8.43,1.25-16.8,3.21h0c-.54.11-1.06.24-1.59.38-6.11,1.45-12.15,3.2-18.12,5.19a215.37,215.37,0,0,0-23.4,9.37l-1.09.51c-1.06.5-2.1,1-3.15,1.52-2.82,1.42-5.61,2.88-8.38,4.42A217,217,0,0,0,70,424.22a3.05,3.05,0,0,0-.32.22c-2.55,1.83-5.07,3.73-7.53,5.7a1.08,1.08,0,0,0-.24.18q-5.84,4.59-11.39,9.58c-2.78,2.51-5.53,5.07-8.2,7.73l0,0v0A4.11,4.11,0,0,0,42,448c-2.56,2.53-5.07,5.14-7.51,7.8l-.11.12a241.79,241.79,0,0,0-17,20.66c-.26.33-.51.66-.74,1" transform="translate(3.75 -3.52)"/><path class="cls-10" d="M185,410.64l-.9.66a142.24,142.24,0,0,0-38-21.61.57.57,0,0,1-.29-.26.5.5,0,0,1,0-.43.54.54,0,0,1,.7-.32c.32.12.63.25.93.38A142.76,142.76,0,0,1,185,410.64Z" transform="translate(3.75 -3.52)"/><path class="cls-10" d="M175,374a72.53,72.53,0,0,0-9.58,10.62c-.26.34-.52.69-.76,1.05a.52.52,0,0,1-.27.2.9.9,0,0,1-.16,0h0a.43.43,0,0,1-.3-.11.51.51,0,0,1-.13-.74c0-.07.1-.13.14-.2a72.15,72.15,0,0,1,9.53-10.89Z" transform="translate(3.75 -3.52)"/><path class="cls-10" d="M141.42,437.46l-1,.46c-5.68-6.14-11.77-11.57-17.14-16.37-6.65-5.93-13.2-11.71-20-17-.32-.26-.63-.5-1-.73-.14-.13-.29-.23-.43-.35a.53.53,0,0,1-.1-.76.54.54,0,0,1,.74-.1l.86.68h0c.31.24.63.48.94.74,6.74,5.26,13.16,10.94,19.68,16.76A239.92,239.92,0,0,1,141.42,437.46Z" transform="translate(3.75 -3.52)"/><path class="cls-10" d="M25.15,466.3H25a.56.56,0,0,1-.53-.4,1.66,1.66,0,0,0-.06-.21A116.72,116.72,0,0,0,16,443.11c.24-.32.5-.63.76-.95a120,120,0,0,1,8.5,22.5c.1.33.18.66.27,1A.53.53,0,0,1,25.15,466.3Z" transform="translate(3.75 -3.52)"/><path class="cls-5" d="M134,388.4C121.21,401.94,91.57,425,91.57,425l-18.3,14.63a11.3,11.3,0,0,1,.66,1.88v0c.83,3.18,1.34,9.84-6,16.22C60.8,464,46.55,459,24.23,453.17c-16.82-4.42-30.2-14.45-5.49-20.5,0,0-1.83-34.76,22-49.76S90.47,358.38,96.33,354s5.12-12.09,13.53-16.1S122.3,339,129.25,339c6.77,0,19.41-5.52,22.12,1.89a3.59,3.59,0,0,1,.21.68C153.78,350,146.83,374.85,134,388.4Z" transform="translate(3.75 -3.52)"/><path class="cls-11" d="M134,388.4C121.21,401.94,91.57,425,91.57,425l-18.3,14.63a11.3,11.3,0,0,1,.66,1.88A54,54,0,0,0,60,429.07c17-10.36,33.84-21.14,49.09-34S138,367.27,147.54,349.8a39.63,39.63,0,0,0,3.83-8.92,3.59,3.59,0,0,1,.21.68C153.78,350,146.83,374.85,134,388.4Z" transform="translate(3.75 -3.52)"/><circle class="cls-4" cx="121.91" cy="372.67" r="15"/><path class="cls-5" d="M64.49,458.11S76.74,476.59,78,475s-7-16.66-7-16.66,15.37,8.06,16.84,6-13.54-10.24-13.54-10.24,17.2.54,17.56-1.65-20.67-7.69-20.67-7.69Z" transform="translate(3.75 -3.52)"/><path class="cls-5" d="M82.6,399.38s-15.55,23.42-13,31.28,37.69,3.12,46.11,1.83,19-6.58,18.85-7.68S119,427.19,119,427.19s14.09-11,12.08-12.81-15.92,8.05-15.92,8.05,7.14-13.91,5.67-14.64-11.16,12.44-11.16,12.44l-19,1.47L106,396.08l-19.76,1.28Z" transform="translate(3.75 -3.52)"/><path class="cls-5" d="M72.28,438.4c5.56,4.73,2,13.91-3.27,18.51-5.92,5.16-14.33,3.93-21.3,2.12-12.76-3.31-27.14-4.6-38.53-11.78-4.81-3-5.45-7.5-.24-10.79,10.66-6.72,22.51-3,33.21,1.45,1.56.65,7.64,4.3,9.54,3.59C51.69,441.5,42,412.61,72.28,438.4Z" transform="translate(3.75 -3.52)"/><path class="cls-7" d="M1126.63,101.42l-9.14,15.83a18.14,18.14,0,0,1-33.39-5" transform="translate(3.75 -3.52)"/><path class="cls-8" d="M1084.1,112.23a18.14,18.14,0,0,1,26.75-19.77l1.43.67,14.35,8.29" transform="translate(3.75 -3.52)"/><path class="cls-7" d="M1137.77,107.84l-8,16.44a18.15,18.15,0,0,0,22.85,24.87" transform="translate(3.75 -3.52)"/><path class="cls-5" d="M1152.62,149.15a18.15,18.15,0,0,0,1.41-33.24l-1.35-.81-14.91-7.26" transform="translate(3.75 -3.52)"/><polyline class="cls-12" points="1137.27 94.07 1161.21 52.64 1154.53 33.22"/><polyline class="cls-12" points="1141.35 96.42 1165.28 54.99 1185.45 51.08"/><path class="cls-13" d="M1139.22,72.56a167.64,167.64,0,0,0-12.73,28.82,117.22,117.22,0,0,0-4.55,22,100.67,100.67,0,0,0,16-15.51c7.64-9.43,14-21.58,16.79-26.34Z" transform="translate(3.75 -3.52)"/><path class="cls-7" d="M1100.3,3.52l26.23,98s-40.58-14.93-47-39S1100.71,3.76,1100.3,3.52Z" transform="translate(3.75 -3.52)"/><path class="cls-5" d="M1126.54,101.58l-26.23-98s40.57,14.94,47,39S1126.13,101.33,1126.54,101.58Z" transform="translate(3.75 -3.52)"/><path class="cls-7" d="M1235.68,81.74l-98,26.23s33.21,27.7,57.28,21.26S1235.26,81.5,1235.68,81.74Z" transform="translate(3.75 -3.52)"/><path class="cls-8" d="M1137.62,108l98-26.24s-33.2-27.69-57.27-21.25S1138,108.22,1137.62,108Z" transform="translate(3.75 -3.52)"/><path class="cls-7" d="M130.91,235.57l-7.62,8.88a11.61,11.61,0,0,1-20.42-7.1" transform="translate(3.75 -3.52)"/><path class="cls-8" d="M102.87,237.35A11.61,11.61,0,0,1,122,228.08l.82.58,8,6.91" transform="translate(3.75 -3.52)"/><path class="cls-7" d="M137.16,240.93l-7,9.4a11.61,11.61,0,0,0,11.44,18.33" transform="translate(3.75 -3.52)"/><path class="cls-5" d="M141.62,268.66a11.6,11.6,0,0,0,4.81-20.74l-.75-.67-8.52-6.32" transform="translate(3.75 -3.52)"/><polyline class="cls-12" points="139.44 230.46 159.39 207.22 157.48 194.21"/><polyline class="cls-12" points="141.73 232.42 161.68 209.18 174.82 209.1"/><path class="cls-13" d="M142.23,218.91a107.44,107.44,0,0,0-11.41,16.62,74.77,74.77,0,0,0-5.45,13.29,64.63,64.63,0,0,0,11.87-7.88c5.92-5,11.37-11.91,13.67-14.59Z" transform="translate(3.75 -3.52)"/><path class="cls-7" d="M125.9,170.88l4.93,64.76s-23.77-14.18-25-30.08S126.13,171.08,125.9,170.88Z" transform="translate(3.75 -3.52)"/><path class="cls-5" d="M130.83,235.66l-4.93-64.77s23.76,14.19,25,30.09S130.6,235.46,130.83,235.66Z" transform="translate(3.75 -3.52)"/><path class="cls-7" d="M201.83,236.06,137.06,241s17.62,21.34,33.52,20.13S201.6,235.86,201.83,236.06Z" transform="translate(3.75 -3.52)"/><path class="cls-8" d="M137.05,241l64.76-4.93s-17.62-21.34-33.52-20.13S137.28,241.19,137.05,241Z" transform="translate(3.75 -3.52)"/><path class="cls-7" d="M339.53,84.64,325.47,90a14.92,14.92,0,0,1-18.69-20.55" transform="translate(3.75 -3.52)"/><path class="cls-8" d="M306.78,69.43a14.93,14.93,0,0,1,27.34,1.3l.56,1.16,4.85,12.75" transform="translate(3.75 -3.52)"/><path class="cls-7" d="M343.3,94.52l-13.65,6.33a14.93,14.93,0,0,0,1.66,27.73" transform="translate(3.75 -3.52)"/><path class="cls-5" d="M331.31,128.58a14.93,14.93,0,0,0,18.17-20.47l-.44-1.22L343.3,94.52" transform="translate(3.75 -3.52)"/><polyline class="cls-12" points="349.66 82.25 386.45 68.26 392.29 52.4"/><polyline class="cls-12" points="351.04 85.87 387.83 71.88 402.73 79.86"/><path class="cls-13" d="M362.55,72.77a136.83,136.83,0,0,0-23.1,11.77,96.08,96.08,0,0,0-14.31,11.65,83.22,83.22,0,0,0,18.24-1.6c9.77-2,20.16-6.48,24.4-8.09Z" transform="translate(3.75 -3.52)"/><path class="cls-7" d="M373.59,8.5l-34.2,76.17s-18.12-30.61-9.73-49.31S373.73,8.87,373.59,8.5Z" transform="translate(3.75 -3.52)"/><path class="cls-5" d="M339.39,84.69,373.58,8.52s18.13,30.61,9.73,49.31S339.25,84.32,339.39,84.69Z" transform="translate(3.75 -3.52)"/><path class="cls-7" d="M419.32,128.73,343.15,94.54s6.79,34.92,25.5,43.31S419.18,128.36,419.32,128.73Z" transform="translate(3.75 -3.52)"/><path class="cls-8" d="M343.13,94.53l76.17,34.19s-6.8-34.92-25.5-43.31S343.27,94.9,343.13,94.53Z" transform="translate(3.75 -3.52)"/></g></g></svg>