<svg xmlns="http://www.w3.org/2000/svg" xmlns:xlink="http://www.w3.org/1999/xlink" viewBox="0 0 1619.95 529.08"><defs><style>.cls-1{fill:none;}.cls-2{clip-path:url(#clip-path);}.cls-3{fill:#f7f7f7;}.cls-4{fill:#fdf6e6;}.cls-5{fill:#a09f9f;}.cls-6{clip-path:url(#clip-path-2);}.cls-7{fill:#6b6a6a;}.cls-8{fill:#606060;}.cls-9{fill:#fff;}</style><clipPath id="clip-path" transform="translate(176.2 -50.11)"><rect class="cls-1" width="1440" height="579.19"/></clipPath><clipPath id="clip-path-2" transform="translate(176.2 -50.11)"><polygon class="cls-1" points="0 341.28 323.25 341.28 323.58 511.01 0 510.93 0 341.28"/></clipPath></defs><g id="Capa_2" data-name="Capa 2"><g id="Arte"><g class="cls-2"><path class="cls-3" d="M99.5,149.5H233.6s-1-16.23-25.83-16.23c0,0-6.29-20.2-31.78-20.2-12,0-19.54,2-28.81,9.94C147.18,123,99.5,117.31,99.5,149.5Z" transform="translate(176.2 -50.11)"/><path class="cls-3" d="M1028.76,403c-11,5.95-28.71,5.95-39.67,0l-39-21.21c-11-5.95-28.71-5.95-39.67,0l-141.58,77c-11,6-28.72,6-39.67,0l-60.77-33c-10.95-6-28.71-6-39.66,0l-39.28,21.35c-11,6-28.72,6-39.67,0L355,341.21c-11-5.95-28.71-5.95-39.67,0l-62.63,34.05c-5.26,2.86-12.4,4.47-19.84,4.47L46.28,203.28c-16.79-11-49.59-4.51-49.59,9.76V543.69h0v15.42l1440,2V454.81Z" transform="translate(176.2 -50.11)"/><path class="cls-3" d="M647.52,567.22c-6.63,0-8.67,1.29-13.73,6.23s-9.42,2.13-11.57-.07c-2.34-2.4-4.67-6.33-11.31-6.37s-8.67,1.28-13.73,6.23-9.42,2.13-11.56-.07c-2.35-2.4-4.68-6.33-11.32-6.37h.51c-6.63,0-8.68,1.28-13.74,6.22s-9.42,2.13-11.56-.06c-2.34-2.4-4.67-6.34-11.31-6.37s-8.67,1.28-13.73,6.22-9.42,2.13-11.57-.07c-2.34-2.4-4.67-6.33-11.31-6.37H502c-6.64,0-8.68,1.29-13.74,6.23s-9.42,2.13-11.56-.07c-2.34-2.4-4.67-6.33-11.31-6.37s-8.68,1.28-13.74,6.23-9.42,2.13-11.56-.07c-2.34-2.4-4.17-6.33-10.81-6.37h0V558H647.55Z" transform="translate(176.2 -50.11)"/><path class="cls-3" d="M792.33,566.8h.5c-6.64,0-8.69,1.28-13.76,6.22s-9.43,2.13-11.58-.06c-2.34-2.4-4.68-6.34-11.32-6.37s-8.7,1.28-13.76,6.22-9.44,2.13-11.58-.07c-2.35-2.4-4.69-6.33-11.33-6.37h.41c-6.65,0-8.69,1.28-13.76,6.23s-9.43,2.13-11.58-.07c-2.34-2.4-4.68-6.33-11.33-6.37s-8.69,1.28-13.76,6.22-9.43,2.13-11.58-.06c-2.34-2.4-4.2-5-10.85-5.09l0-9.23H791.52" transform="translate(176.2 -50.11)"/><path class="cls-4" d="M1437.45,570.22c-6.65,0-8.7,1.29-13.76,6.23s-9.44,2.13-11.58-.07c-2.35-2.4-4.68-6.33-11.33-6.37s-8.69,1.28-13.76,6.23-9.44,2.13-11.58-.07c-2.35-2.4-4.68-6.33-11.33-6.37h.51c-6.65,0-8.69,1.28-13.76,6.22s-9.44,2.13-11.58-.06c-2.35-2.4-4.68-6.34-11.33-6.37s-8.69,1.28-13.76,6.22-9.44,2.13-11.58-.07c-2.34-2.4-4.68-6.33-11.33-6.37h.42c-6.65,0-8.7,1.28-13.77,6.23s-9.43,2.13-11.57-.07c-2.35-2.4-4.69-6.33-11.33-6.37s-8.7,1.28-13.76,6.22-9.44,2.13-11.58-.06c-2.35-2.4-4.18-6.33-10.83-6.37h0V561h218.6Z" transform="translate(176.2 -50.11)"/><path class="cls-4" d="M1219.89,570.22c-6.64,0-8.69,1.29-13.76,6.23s-9.43,2.13-11.58-.07c-2.34-2.4-4.68-6.33-11.33-6.37s-8.69,1.28-13.76,6.23-9.43,2.13-11.58-.07c-2.34-2.4-4.68-6.33-11.32-6.37h.5c-6.64,0-8.69,1.28-13.76,6.22s-9.43,2.13-11.58-.06c-2.34-2.4-4.68-6.34-11.32-6.37s-8.7,1.28-13.76,6.22-9.44,2.13-11.58-.07c-2.35-2.4-4.69-6.33-11.33-6.37h.41c-6.65,0-8.69,1.28-13.76,6.23s-9.43,2.13-11.58-.07c-2.34-2.4-4.68-6.33-11.33-6.37s-8.69,1.28-13.76,6.22-9.43,2.13-11.58-.06c-2.34-2.4-4.18-6.33-10.82-6.37l10.83-9,207.78,1Z" transform="translate(176.2 -50.11)"/><path class="cls-3" d="M1012.16,560.12a11,11,0,0,1-7.16,10.13c-2.31.9-4.26,2.53-7.15,5.24-5.26,4.94-9.8,2.13-12-.07-2.44-2.4-4.87-6.33-11.77-6.37s-9,1.28-14.29,6.22-9.79,2.13-12-.07c-2.43-2.4-4.86-6.33-11.76-6.37h.52c-6.9,0-9,1.28-14.28,6.22s-9.8,2.13-12-.07c-2.43-2.4-4.86-6.33-11.76-6.37s-9,1.28-14.29,6.22-9.8,2.13-12-.07c-2.44-2.4-4.86-6.33-11.77-6.37h.43c-6.9,0-9,1.28-14.28,6.22s-9.8,2.13-12-.07c-2.43-2.4-4.86-6.33-11.76-6.37s-9,1.28-14.29,6.22-9.8,2.13-12-.07c-2.44-2.4-4.34-6.33-11.25-6.37v-8l227,0Z" transform="translate(176.2 -50.11)"/><path class="cls-4" d="M1443.75,298.33H1206.49c-28.11,0-55.08,7.28-75,20.23h0c-19.88,12.95-31,30.52-31,48.83V561.61h343.26Z" transform="translate(176.2 -50.11)"/><path class="cls-3" d="M1238.56,176.48h60.82s-.45-7.35-11.72-7.35c0,0-2.85-9.16-14.41-9.16-5.43,0-8.86.9-13.07,4.5C1260.18,164.47,1238.56,161.89,1238.56,176.48Z" transform="translate(176.2 -50.11)"/><path class="cls-3" d="M249.15,75.3H156.4s.68-11.22,17.86-11.22c0,0,4.35-14,22-14,8.27,0,13.51,1.38,19.92,6.87C216.17,57,249.15,53,249.15,75.3Z" transform="translate(176.2 -50.11)"/><path class="cls-5" d="M1076.68,559.11l57.73-162c7-20.4,24.7-33.91,44.5-33.91h62.65a45.44,45.44,0,0,0,33.61-15.32h0a45.44,45.44,0,0,1,33.62-15.33h135V559.11Z" transform="translate(176.2 -50.11)"/><path class="cls-4" d="M1050.11,503.1c3.25-5.13,7.72-8,12.38-8h79.64c2.52,0,4.56-3.12,4.56-7s2-7,4.56-7h288.38v80.51H1033.5L1012.14,560Z" transform="translate(176.2 -50.11)"/><path class="cls-4" d="M214.84,565.94c-6.65,0-8.7,1.28-13.76,6.23s-9.44,2.12-11.58-.07c-2.35-2.4-4.68-6.33-11.33-6.37S169.48,567,164.41,572s-9.44,2.13-11.58-.06c-2.35-2.4-4.68-6.34-11.33-6.37l.51,0c-6.65,0-8.69,1.29-13.76,6.23s-9.44,2.13-11.58-.07c-2.35-2.4-4.68-6.33-11.33-6.37s-8.69,1.29-13.76,6.23-9.44,2.13-11.58-.07c-2.34-2.4-4.68-6.33-11.33-6.37h.42c-6.65,0-8.7,1.28-13.76,6.22s-9.44,2.13-11.58-.06c-2.35-2.4-4.69-6.34-11.33-6.37s-8.7,1.28-13.76,6.22S9.22,573.22,7.08,571c-2.35-2.41-4.18-6.34-10.83-6.38h0v-7.93h218.6Z" transform="translate(176.2 -50.11)"/><path class="cls-4" d="M429.25,565.94c-6.66,0-8.7,1.29-13.78,6.23s-9.45,2.13-11.6-.07c-2.35-2.4-4.69-6.33-11.34-6.37S383.82,567,378.74,572s-9.45,2.12-11.59-.07c-2.35-2.4-4.69-6.33-11.35-6.37h.51c-6.66,0-8.71,1.28-13.78,6.22s-9.45,2.13-11.6-.07c-2.35-2.4-4.69-6.33-11.34-6.37s-8.71,1.29-13.79,6.23-9.45,2.13-11.59-.07c-2.35-2.4-4.69-6.33-11.35-6.37h.41c-6.65,0-8.7,1.28-13.78,6.22s-9.45,2.13-11.59-.06c-2.35-2.4-4.69-6.33-11.35-6.37s-8.71,1.28-13.78,6.22-9.45,2.13-11.6-.06c-2.35-2.41-4.18-6.34-10.84-6.38h0v-7.93H429.27Z" transform="translate(176.2 -50.11)"/><path class="cls-4" d="M525.12,573c-5.08,4.94-9.45,2.13-11.6-.07-2.35-2.4-4.69-6.33-11.35-6.37s-8.7,1.28-13.78,6.23-9.45,2.13-11.59-.07c-2.35-2.4-4.69-6.33-11.35-6.37H466c-6.66,0-8.71,1.28-13.78,6.22s-9.45,2.13-11.6-.06c-2.35-2.4-4.69-6.34-11.35-6.37s-8.7,1.28-13.78,6.22-9.45,2.13-11.6-.07c-2.34-2.4-4.68-6.33-11.34-6.37h.41c-6.65,0-8.7,1.28-13.78,6.23s-9.45,2.13-11.6-.07c-2.34-2.4-4.68-6.33-11.34-6.37s-8.71,1.28-13.78,6.22-9.45,2.13-11.6-.06c-2.35-2.4-4.19-6.34-10.84-6.37v-8H519.86S530.19,568,525.12,573Z" transform="translate(176.2 -50.11)"/><path class="cls-4" d="M-3.31,509.9H423.16c3.7,0,6.7,3.93,6.7,8.78h0c0,4.85,3,8.78,6.7,8.78H488a30.6,30.6,0,0,1,13.43,3.15A33.32,33.32,0,0,1,518,549.31l4.52,12.3H-3.31Z" transform="translate(176.2 -50.11)"/></g><g class="cls-6"><path class="cls-5" d="M168,429.53l-72.12.05L37.09,391.11h-25l-29.75-23.54L-47.4,391.11l-53.2-44L-134,373.37l-24.1-13.29-18.12,13.74V513.16H250.51l-.06-2.36A83.18,83.18,0,0,0,168,429.53Z" transform="translate(176.2 -50.11)"/><polygon class="cls-3" points="245.12 463.05 131.14 384.33 356.5 384.33 245.12 463.05"/></g><rect class="cls-7" x="86.29" y="303.28" width="7.39" height="7.39" transform="translate(-14.5 103.43) rotate(-45)"/><rect class="cls-7" x="105.87" y="303.28" width="7.39" height="7.39" transform="translate(-8.77 117.27) rotate(-45)"/><rect class="cls-7" x="27.58" y="303.28" width="7.39" height="7.39" transform="translate(-31.7 61.91) rotate(-45)"/><rect class="cls-7" x="47.15" y="303.28" width="7.39" height="7.39" transform="translate(-25.97 75.75) rotate(-45)"/><rect class="cls-7" x="66.72" y="303.28" width="7.39" height="7.39" transform="translate(-20.24 89.59) rotate(-45)"/><polyline class="cls-5" points="243.81 294.32 243.8 345.89 248.58 345.89 248.59 295.27"/><path class="cls-4" d="M89.54,361.2A21.94,21.94,0,0,0,67.6,383.14h0v6.93l41.45-28.87Z" transform="translate(176.2 -50.11)"/><path class="cls-5" d="M67.63,390.07l0,39.51h4.77l0-36.55v-3.1H87.05a22,22,0,0,0,6.11-.87c.65-.19,1.28-.41,1.91-.65a23.76,23.76,0,0,0,2.4-1.12,21.67,21.67,0,0,0,3.48-2.35,22.45,22.45,0,0,0,3-3,21.73,21.73,0,0,0,5-13.9v-6.89Z" transform="translate(176.2 -50.11)"/><path class="cls-5" d="M67.62,376A18.52,18.52,0,0,0,49.1,357.52H32.64l35,24.36Z" transform="translate(176.2 -50.11)"/><path class="cls-4" d="M67.62,381.88l-35-24.36v5.84a18.56,18.56,0,0,0,.83,5.51,18.36,18.36,0,0,0,1.4,3.32,19.05,19.05,0,0,0,2.88,3.95,18.73,18.73,0,0,0,2.78,2.39c.37.26.76.51,1.15.75a18.45,18.45,0,0,0,9.47,2.6Z" transform="translate(176.2 -50.11)"/><path class="cls-5" d="M71.72,350.84a68,68,0,0,0,58.13-32.71H13.58A68,68,0,0,0,71.72,350.84Z" transform="translate(176.2 -50.11)"/><path class="cls-8" d="M1175.92,419.58c0-25.79,20.47-46.7,45.72-46.7s45.73,20.91,45.73,46.7-20.47,46.71-45.73,46.71-45.72-20.91-45.72-46.71" transform="translate(176.2 -50.11)"/><polygon class="cls-3" points="1472.83 312.96 1395 430.8 1550.65 430.8 1472.83 312.96"/><path class="cls-7" d="M1296.62,363.07s15.46,42.45,2.79,55.39c-18.65,19.05-35.35,3.81-41.15,26.77s-30.19,21.63-30.19,21.63Z" transform="translate(176.2 -50.11)"/><polygon class="cls-3" points="1368.68 389.45 1341.38 430.8 1396 430.8 1368.68 389.45"/><path class="cls-7" d="M1192.48,439.56s5.43,14.9,1,19.44c-6.54,6.68-12.4,1.33-14.44,9.39s-10.59,7.59-10.59,7.59Z" transform="translate(176.2 -50.11)"/><polygon class="cls-3" points="1577.02 389.45 1549.71 430.8 1604.33 430.8 1577.02 389.45"/><path class="cls-7" d="M1400.82,439.56s5.42,14.9,1,19.44c-6.55,6.68-12.41,1.33-14.45,9.39s-10.59,7.59-10.59,7.59Z" transform="translate(176.2 -50.11)"/><path class="cls-9" d="M1269.69,444.19a7.24,7.24,0,0,0-6.59-4.35h0a8,8,0,0,1-6.3-2.51,10.07,10.07,0,0,0-8.79-3.51,9.14,9.14,0,0,1-7.81-2.75,13.46,13.46,0,0,0-9.8-4.26c-7.27,0-19.13,3.75-21.47,17.38Z" transform="translate(176.2 -50.11)"/><path class="cls-9" d="M1237.5,392.76a2.91,2.91,0,0,0-2.65-1.75h0a3.24,3.24,0,0,1-2.54-1,4.06,4.06,0,0,0-3.09-1.44l-.45,0a3.69,3.69,0,0,1-3.14-1.11,5.39,5.39,0,0,0-3.94-1.72c-2.93,0-7.71,1.51-8.65,7Z" transform="translate(176.2 -50.11)"/></g></g></svg>