<svg xmlns="http://www.w3.org/2000/svg" xmlns:xlink="http://www.w3.org/1999/xlink" viewBox="0 0 1590.06 529.08"><defs><style>.cls-1,.cls-11,.cls-12,.cls-13,.cls-9{fill:none;}.cls-2{clip-path:url(#clip-path);}.cls-3{fill:#f7f7f7;}.cls-4{fill:#fdf6e6;}.cls-5{fill:#a09f9f;}.cls-6{clip-path:url(#clip-path-2);}.cls-7{fill:#6b6a6a;}.cls-8{fill:#606060;}.cls-9{stroke:#606060;}.cls-11,.cls-12,.cls-13,.cls-9{stroke-miterlimit:10;}.cls-10{clip-path:url(#clip-path-3);}.cls-11{stroke:#213039;stroke-width:5px;}.cls-12,.cls-13{stroke:#a09f9f;}.cls-12{stroke-width:3px;}.cls-13{stroke-width:4px;}</style><clipPath id="clip-path" transform="translate(72.66 -50.11)"><rect class="cls-1" x="2.87" width="1440" height="579.19"/></clipPath><clipPath id="clip-path-2" transform="translate(72.66 -50.11)"><polygon class="cls-1" points="2.87 341.28 439.13 341.28 439.46 511.01 2.87 510.93 2.87 341.28"/></clipPath><clipPath id="clip-path-3" transform="translate(72.66 -50.11)"><polygon class="cls-1" points="1441.86 355.96 1005.6 355.96 1005.27 525.69 1441.86 525.61 1441.86 355.96"/></clipPath></defs><g id="Capa_2" data-name="Capa 2"><g id="Arte"><g class="cls-2"><path class="cls-3" d="M102.37,149.5h134.1s-1-16.23-25.83-16.23c0,0-6.29-20.2-31.78-20.2-12,0-19.54,2-28.81,9.94C150.05,123,102.37,117.31,102.37,149.5Z" transform="translate(72.66 -50.11)"/><path class="cls-3" d="M1031.63,403c-11,5.95-28.71,5.95-39.67,0L953,381.8c-11-5.95-28.71-5.95-39.67,0l-141.58,77c-11,6-28.72,6-39.67,0l-60.77-33c-11-6-28.71-6-39.66,0l-39.28,21.35c-11,6-28.72,6-39.67,0L357.88,341.21c-11-5.95-28.71-5.95-39.67,0l-62.63,34.05c-5.26,2.86-12.4,4.47-19.84,4.47L49.15,203.28C32.36,192.32-.44,198.77-.44,213V543.69h0v15.42l1440,2V454.81Z" transform="translate(72.66 -50.11)"/><path class="cls-3" d="M650.39,567.22c-6.63,0-8.68,1.29-13.74,6.23s-9.42,2.13-11.56-.07c-2.34-2.4-4.67-6.33-11.31-6.37s-8.67,1.28-13.73,6.23-9.42,2.13-11.57-.07c-2.34-2.4-4.67-6.33-11.31-6.37h.51c-6.63,0-8.68,1.28-13.74,6.22s-9.42,2.13-11.56-.06c-2.34-2.4-4.67-6.34-11.31-6.37s-8.68,1.28-13.74,6.22-9.42,2.13-11.56-.07c-2.34-2.4-4.67-6.33-11.31-6.37h.42c-6.64,0-8.68,1.29-13.74,6.23s-9.42,2.13-11.56-.07c-2.34-2.4-4.68-6.33-11.31-6.37s-8.68,1.28-13.74,6.23-9.42,2.13-11.56-.07c-2.34-2.4-4.17-6.33-10.81-6.37h0V558H650.42Z" transform="translate(72.66 -50.11)"/><path class="cls-3" d="M795.2,566.8h.5c-6.64,0-8.69,1.28-13.76,6.22s-9.43,2.13-11.58-.06c-2.34-2.4-4.68-6.34-11.32-6.37s-8.7,1.28-13.76,6.22-9.44,2.13-11.58-.07c-2.35-2.4-4.69-6.33-11.33-6.37h.41c-6.65,0-8.69,1.28-13.76,6.23s-9.43,2.13-11.58-.07c-2.34-2.4-4.68-6.33-11.33-6.37s-8.69,1.28-13.76,6.22-9.43,2.13-11.58-.06c-2.34-2.4-4.2-5-10.85-5.09l0-9.23H794.39" transform="translate(72.66 -50.11)"/><path class="cls-4" d="M1440.32,570.22c-6.65,0-8.7,1.29-13.76,6.23s-9.44,2.13-11.58-.07c-2.35-2.4-4.68-6.33-11.33-6.37s-8.69,1.28-13.76,6.23-9.44,2.13-11.58-.07c-2.35-2.4-4.68-6.33-11.33-6.37h.51c-6.65,0-8.69,1.28-13.76,6.22s-9.44,2.13-11.58-.06c-2.35-2.4-4.68-6.34-11.33-6.37s-8.69,1.28-13.76,6.22-9.44,2.13-11.58-.07c-2.34-2.4-4.68-6.33-11.33-6.37h.42c-6.65,0-8.7,1.28-13.77,6.23s-9.43,2.13-11.57-.07c-2.35-2.4-4.69-6.33-11.33-6.37s-8.7,1.28-13.76,6.22-9.44,2.13-11.58-.06c-2.35-2.4-4.18-6.33-10.83-6.37h0V561h218.6Z" transform="translate(72.66 -50.11)"/><path class="cls-4" d="M1222.76,570.22c-6.64,0-8.69,1.29-13.76,6.23s-9.43,2.13-11.58-.07c-2.34-2.4-4.68-6.33-11.33-6.37s-8.69,1.28-13.76,6.23-9.43,2.13-11.58-.07c-2.34-2.4-4.68-6.33-11.32-6.37h.5c-6.64,0-8.69,1.28-13.76,6.22s-9.43,2.13-11.58-.06c-2.34-2.4-4.68-6.34-11.32-6.37s-8.7,1.28-13.76,6.22-9.44,2.13-11.58-.07c-2.35-2.4-4.69-6.33-11.33-6.37h.41c-6.65,0-8.69,1.28-13.76,6.23s-9.43,2.13-11.58-.07c-2.34-2.4-4.68-6.33-11.33-6.37s-8.69,1.28-13.76,6.22-9.43,2.13-11.58-.06c-2.34-2.4-4.18-6.33-10.82-6.37l10.83-9,207.78,1Z" transform="translate(72.66 -50.11)"/><path class="cls-3" d="M1015,560.12a11,11,0,0,1-7.16,10.13c-2.31.9-4.26,2.53-7.15,5.24-5.26,4.94-9.8,2.13-12-.07-2.44-2.4-4.87-6.33-11.77-6.37s-9,1.28-14.29,6.22-9.79,2.13-12-.07c-2.43-2.4-4.86-6.33-11.76-6.37h.52c-6.9,0-9,1.28-14.28,6.22s-9.8,2.13-12-.07c-2.43-2.4-4.86-6.33-11.76-6.37s-9,1.28-14.29,6.22-9.8,2.13-12-.07c-2.44-2.4-4.86-6.33-11.77-6.37h.43c-6.9,0-9,1.28-14.28,6.22s-9.8,2.13-12-.07c-2.43-2.4-4.86-6.33-11.76-6.37s-9,1.28-14.29,6.22-9.8,2.13-12-.07c-2.44-2.4-4.34-6.33-11.25-6.37v-8l227,0Z" transform="translate(72.66 -50.11)"/><path class="cls-3" d="M1446.62,298.33H1209.36c-28.11,0-55.08,7.28-74.95,20.23h0c-19.88,12.95-31.05,30.52-31.05,48.83V561.61h343.26Z" transform="translate(72.66 -50.11)"/><path class="cls-3" d="M1241.43,176.48h60.82s-.45-7.35-11.72-7.35c0,0-2.85-9.16-14.41-9.16-5.43,0-8.86.9-13.07,4.5C1263.05,164.47,1241.43,161.89,1241.43,176.48Z" transform="translate(72.66 -50.11)"/><path class="cls-3" d="M252,75.3H159.27s.68-11.22,17.86-11.22c0,0,4.35-14,22-14,8.27,0,13.51,1.38,19.92,6.87C219,57,252,53,252,75.3Z" transform="translate(72.66 -50.11)"/><path class="cls-4" d="M217.71,565.94c-6.65,0-8.7,1.28-13.76,6.23s-9.44,2.12-11.58-.07c-2.35-2.4-4.68-6.33-11.33-6.37S172.35,567,167.28,572s-9.44,2.13-11.58-.06c-2.35-2.4-4.68-6.34-11.33-6.37l.51,0c-6.65,0-8.69,1.29-13.76,6.23s-9.44,2.13-11.58-.07c-2.35-2.4-4.68-6.33-11.33-6.37s-8.69,1.29-13.76,6.23-9.44,2.13-11.58-.07c-2.34-2.4-4.68-6.33-11.33-6.37H72c-6.65,0-8.7,1.28-13.77,6.22s-9.43,2.13-11.57-.06c-2.35-2.4-4.69-6.34-11.33-6.37s-8.7,1.28-13.76,6.22S12.09,573.22,10,571c-2.35-2.41-4.18-6.34-10.83-6.38h0v-7.93h218.6Z" transform="translate(72.66 -50.11)"/><path class="cls-4" d="M432.12,565.94c-6.66,0-8.71,1.29-13.78,6.23s-9.45,2.13-11.6-.07c-2.35-2.4-4.69-6.33-11.34-6.37S386.69,567,381.61,572s-9.45,2.12-11.59-.07c-2.35-2.4-4.69-6.33-11.35-6.37h.51c-6.66,0-8.71,1.28-13.78,6.22s-9.45,2.13-11.6-.07c-2.35-2.4-4.69-6.33-11.35-6.37s-8.7,1.29-13.78,6.23-9.45,2.13-11.59-.07c-2.35-2.4-4.69-6.33-11.35-6.37h.41c-6.65,0-8.7,1.28-13.78,6.22s-9.45,2.13-11.59-.06c-2.35-2.4-4.69-6.33-11.35-6.37s-8.71,1.28-13.78,6.22-9.45,2.13-11.6-.06c-2.35-2.41-4.18-6.34-10.84-6.38h0v-7.93H432.14Z" transform="translate(72.66 -50.11)"/><path class="cls-4" d="M528,573c-5.08,4.94-9.45,2.13-11.6-.07-2.35-2.4-4.69-6.33-11.35-6.37s-8.7,1.28-13.78,6.23-9.45,2.13-11.59-.07c-2.35-2.4-4.69-6.33-11.35-6.37h.51c-6.66,0-8.71,1.28-13.78,6.22s-9.45,2.13-11.6-.06c-2.35-2.4-4.69-6.34-11.35-6.37s-8.7,1.28-13.78,6.22-9.45,2.13-11.6-.07c-2.34-2.4-4.68-6.33-11.34-6.37h.41c-6.65,0-8.7,1.28-13.78,6.23s-9.45,2.13-11.6-.07c-2.34-2.4-4.68-6.33-11.34-6.37s-8.71,1.28-13.78,6.22-9.45,2.13-11.6-.06c-2.35-2.4-4.19-6.34-10.84-6.37v-8H522.73S533.06,568,528,573Z" transform="translate(72.66 -50.11)"/><path class="cls-4" d="M-.44,509.9H426c3.7,0,6.7,3.93,6.7,8.78h0c0,4.85,3,8.78,6.7,8.78h51.42a30.6,30.6,0,0,1,13.43,3.15,33.36,33.36,0,0,1,16.54,18.7l4.52,12.3H-.44Z" transform="translate(72.66 -50.11)"/></g><path class="cls-5" d="M337.37,508.38,284.43,398.73c-6.4-18.7-22.65-31.09-40.81-31.09H186.17a41.66,41.66,0,0,1-30.83-14.06h0a41.72,41.72,0,0,0-30.83-14.05H.74V508.38Z" transform="translate(72.66 -50.11)"/><path class="cls-4" d="M1442.87,427l-103.74.1,0-9.23c6.65,0,8.69-1.34,13.72-6.31s9.43-2.18,11.58,0c2.36,2.39,4.72,6.31,11.37,6.31s8.68-1.34,13.72-6.31,9.43-2.18,11.58,0c2.36,2.39,4.72,6.31,11.37,6.31h-.51c6.65,0,8.69-1.33,13.72-6.3s9.43-2.19,11.58,0a65.09,65.09,0,0,0,5.64,4.45" transform="translate(72.66 -50.11)"/><g class="cls-6"><path class="cls-7" d="M271.53,429.53l-72.12.05-58.78-38.47h-25L85.89,367.57,56.14,391.11l-53.2-44-33.38,26.27-24.1-13.29-18.12,13.74V513.16H354.05L354,510.8a83.18,83.18,0,0,0-82.46-81.27Z" transform="translate(72.66 -50.11)"/></g><path class="cls-8" d="M1344.52,388.35a19.55,19.55,0,0,0-5.49,8.78,17.78,17.78,0,0,0,15-13A19.59,19.59,0,0,0,1344.52,388.35Z" transform="translate(72.66 -50.11)"/><path class="cls-8" d="M1320.73,375a18.36,18.36,0,1,1,36.71,0Z" transform="translate(72.66 -50.11)"/><path class="cls-8" d="M1327.35,375a11.74,11.74,0,0,1,23.48,0Z" transform="translate(72.66 -50.11)"/><path class="cls-8" d="M1333.33,402.73a21.64,21.64,0,0,1,5.76,8.48,20.09,20.09,0,0,1-14.95-13A21.54,21.54,0,0,1,1333.33,402.73Z" transform="translate(72.66 -50.11)"/><line class="cls-9" x1="1411.69" y1="324.89" x2="1411.69" y2="377.27"/><line class="cls-9" x1="1431.81" y1="324.89" x2="1391.69" y2="324.89"/><path class="cls-8" d="M1178.3,426.15a15.79,15.79,0,0,0-4.4,7,14.24,14.24,0,0,0,12-10.43A15.72,15.72,0,0,0,1178.3,426.15Z" transform="translate(72.66 -50.11)"/><path class="cls-8" d="M1159.23,415.45a14.72,14.72,0,1,1,29.43,0Z" transform="translate(72.66 -50.11)"/><path class="cls-8" d="M1164.54,415.45a9.41,9.41,0,1,1,18.82,0Z" transform="translate(72.66 -50.11)"/><path class="cls-8" d="M1169.34,437.68a17.44,17.44,0,0,1,4.61,6.8,17.48,17.48,0,0,1-7.37-3.63,17.3,17.3,0,0,1-4.61-6.8A17.34,17.34,0,0,1,1169.34,437.68Z" transform="translate(72.66 -50.11)"/><line class="cls-9" x1="1246.57" y1="365.34" x2="1246.57" y2="407.33"/><line class="cls-9" x1="1262.69" y1="365.34" x2="1230.53" y2="365.34"/><path class="cls-8" d="M1423.66,363.93a15.68,15.68,0,0,0-4.4,7,14.21,14.21,0,0,0,12-10.42A15.76,15.76,0,0,0,1423.66,363.93Z" transform="translate(72.66 -50.11)"/><path class="cls-8" d="M1404.59,353.24a14.72,14.72,0,1,1,29.43,0Z" transform="translate(72.66 -50.11)"/><path class="cls-8" d="M1409.9,353.24a9.41,9.41,0,0,1,18.82,0Z" transform="translate(72.66 -50.11)"/><path class="cls-8" d="M1414.69,375.47a17.4,17.4,0,0,1,4.62,6.79,16.07,16.07,0,0,1-12-10.42A17.28,17.28,0,0,1,1414.69,375.47Z" transform="translate(72.66 -50.11)"/><line class="cls-9" x1="1491.92" y1="303.12" x2="1491.92" y2="345.12"/><line class="cls-9" x1="1508.05" y1="303.12" x2="1475.89" y2="303.12"/><path class="cls-8" d="M1239.82,441.53a15.62,15.62,0,0,0-4.4,7,14.21,14.21,0,0,0,12-10.42A15.72,15.72,0,0,0,1239.82,441.53Z" transform="translate(72.66 -50.11)"/><path class="cls-8" d="M1220.75,430.83a14.72,14.72,0,1,1,29.43,0Z" transform="translate(72.66 -50.11)"/><path class="cls-8" d="M1226.05,430.83a9.41,9.41,0,1,1,18.82,0Z" transform="translate(72.66 -50.11)"/><path class="cls-8" d="M1230.85,453.06a17.31,17.31,0,0,1,4.61,6.79,16.11,16.11,0,0,1-12-10.42A17.34,17.34,0,0,1,1230.85,453.06Z" transform="translate(72.66 -50.11)"/><line class="cls-9" x1="1308.08" y1="380.72" x2="1308.08" y2="422.71"/><line class="cls-9" x1="1324.21" y1="380.72" x2="1292.04" y2="380.72"/><g class="cls-10"><path class="cls-5" d="M1173.2,444.21l72.12.05,58.78-38.47h25l29.75-23.54,29.76,23.54,53.19-44,33.38,26.28,24.1-13.29,18.13,13.74V527.84H1090.69l0-2.36a83.19,83.19,0,0,1,82.46-81.27Z" transform="translate(72.66 -50.11)"/></g><path class="cls-8" d="M1137.19,115.38a22.66,22.66,0,0,0-3.87,12.69v23.64h-1.77l-14.69-7.57a19.46,19.46,0,0,0,0,24.45l14.69-7.56h1.77v23.64a22.61,22.61,0,0,0,3.87,12.68l2.39,3a23.14,23.14,0,0,0,3.9,3.28l2.39,1.38a23.31,23.31,0,0,0,3.82,1.5l2.39.55a22.49,22.49,0,0,0,4,.35v-48.1l13.68-.33a3.43,3.43,0,0,0-3.16-3.42,5.79,5.79,0,0,0-5.57-4.21h-5v-46a23.28,23.28,0,0,0-3.94.34l-2.39.56a22.23,22.23,0,0,0-3.83,1.5l-2.39,1.38a23.07,23.07,0,0,0-3.9,3.28Z" transform="translate(72.66 -50.11)"/><rect class="cls-5" x="1163.69" y="465.14" width="351.48" height="47.65"/><path class="cls-8" d="M186.18,497.65a45.39,45.39,0,1,0-90.78,0v10.61h90.78Z" transform="translate(72.66 -50.11)"/><path class="cls-8" d="M1273.17,550.5c0-29-28.3-52.59-63.22-52.59s-63.22,23.54-63.22,52.59v12.29h126.44Z" transform="translate(72.66 -50.11)"/><polygon class="cls-5" points="280.27 486.23 312.19 480.25 285.04 462.77 316.87 469.2 298.62 442.89 325.51 460.75 318.94 429.61 336.8 456.17 342.91 424.94 349.02 456.17 366.88 429.61 360.31 460.75 387.2 442.89 368.95 469.2 400.78 462.77 373.63 480.25 405.54 486.23 280.27 486.23"/><polygon class="cls-7" points="72.66 289.1 104.58 283.12 77.43 265.65 109.26 272.08 91.01 245.77 117.9 263.62 111.33 232.48 129.19 259.05 135.3 227.82 141.41 259.05 159.27 232.48 152.7 263.62 179.59 245.77 161.34 272.08 193.16 265.65 166.01 283.12 197.93 289.1 72.66 289.1"/><polygon class="cls-7" points="1372.85 512.79 1404.77 506.81 1377.62 489.34 1409.45 495.77 1391.2 469.46 1418.09 487.31 1411.52 456.17 1429.38 482.74 1435.49 451.51 1441.6 482.74 1459.46 456.17 1452.89 487.31 1479.78 469.46 1461.53 495.77 1493.36 489.34 1466.2 506.81 1498.13 512.79 1372.85 512.79"/><path class="cls-4" d="M1377.54,487.18c7.8,6.79,10.38,16.6,10.38,16.6s-10.07-1.19-17.87-8-10.38-16.6-10.38-16.6S1369.74,480.4,1377.54,487.18Z" transform="translate(72.66 -50.11)"/><path class="cls-8" d="M1422.51,462a34.7,34.7,0,0,0-69.4,0Z" transform="translate(72.66 -50.11)"/><path class="cls-4" d="M1410,462a22.19,22.19,0,0,0-44.38,0Z" transform="translate(72.66 -50.11)"/><path class="cls-4" d="M1398.69,514.38a41,41,0,0,0-10.88,16,37.87,37.87,0,0,0,28.25-24.58A40.88,40.88,0,0,0,1398.69,514.38Z" transform="translate(72.66 -50.11)"/><line class="cls-11" x1="1460.58" y1="411.84" x2="1460.58" y2="510.88"/><line class="cls-11" x1="1422.55" y1="411.84" x2="1498.4" y2="411.84"/><path class="cls-5" d="M1176.9,388.12a29.13,29.13,0,0,1,8.17,13.05,26.38,26.38,0,0,1-22.23-19.33A29.09,29.09,0,0,1,1176.9,388.12Z" transform="translate(72.66 -50.11)"/><path class="cls-5" d="M1212.28,368.27a27.3,27.3,0,0,0-54.59,0Z" transform="translate(72.66 -50.11)"/><path class="cls-5" d="M1202.43,368.27a17.45,17.45,0,1,0-34.9,0Z" transform="translate(72.66 -50.11)"/><path class="cls-5" d="M1193.54,409.51a32.16,32.16,0,0,0-8.56,12.6,29.82,29.82,0,0,0,22.23-19.33A32.17,32.17,0,0,0,1193.54,409.51Z" transform="translate(72.66 -50.11)"/><line class="cls-12" x1="1257.73" y1="318.16" x2="1257.73" y2="396.06"/><line class="cls-13" x1="1227.81" y1="318.16" x2="1287.48" y2="318.16"/><path class="cls-5" d="M1310.93,381.13a29.06,29.06,0,0,0-8.16,13.05A26.36,26.36,0,0,0,1325,374.85,29.13,29.13,0,0,0,1310.93,381.13Z" transform="translate(72.66 -50.11)"/><path class="cls-5" d="M1275.56,361.28a27.3,27.3,0,0,1,54.59,0Z" transform="translate(72.66 -50.11)"/><path class="cls-5" d="M1285.4,361.28a17.46,17.46,0,0,1,34.91,0Z" transform="translate(72.66 -50.11)"/><path class="cls-5" d="M1294.29,402.52a32.16,32.16,0,0,1,8.56,12.6,29.83,29.83,0,0,1-22.22-19.33A32.1,32.1,0,0,1,1294.29,402.52Z" transform="translate(72.66 -50.11)"/><line class="cls-12" x1="1375.43" y1="311.17" x2="1375.43" y2="389.07"/><line class="cls-13" x1="1405.35" y1="311.17" x2="1345.68" y2="311.17"/><path class="cls-4" d="M1098.76,505.68a29,29,0,0,1,8.13,13,26.28,26.28,0,0,1-22.13-19.25A28.94,28.94,0,0,1,1098.76,505.68Z" transform="translate(72.66 -50.11)"/><path class="cls-8" d="M1134,485.92a27.18,27.18,0,1,0-54.36,0Z" transform="translate(72.66 -50.11)"/><path class="cls-4" d="M1124.18,485.92a17.38,17.38,0,0,0-34.76,0Z" transform="translate(72.66 -50.11)"/><path class="cls-4" d="M1115.32,527a32.06,32.06,0,0,0-8.52,12.55,29.67,29.67,0,0,0,22.13-19.25A32.1,32.1,0,0,0,1115.32,527Z" transform="translate(72.66 -50.11)"/><line class="cls-11" x1="1179.55" y1="435.81" x2="1179.55" y2="513.38"/><line class="cls-11" x1="1149.76" y1="435.81" x2="1209.17" y2="435.81"/></g></g></svg>