<svg xmlns="http://www.w3.org/2000/svg" xmlns:xlink="http://www.w3.org/1999/xlink" viewBox="0 0 1441.22 529.08"><defs><style>.cls-1{fill:none;}.cls-2{clip-path:url(#clip-path);}.cls-3{fill:#f7f7f7;}.cls-4{fill:#a09f9f;}.cls-5{fill:#606060;}.cls-6{fill:#6b6a6a;}.cls-7{fill:#fdf6e6;}.cls-8{clip-path:url(#clip-path-2);}.cls-9{fill:#444;}.cls-10{clip-path:url(#clip-path-3);}.cls-11{clip-path:url(#clip-path-4);}</style><clipPath id="clip-path" transform="translate(3.75 -50.11)"><rect class="cls-1" width="1440" height="579.19"/></clipPath><clipPath id="clip-path-2" transform="translate(3.75 -50.11)"><rect class="cls-1" x="288.02" y="394.96" width="211.81" height="114.19"/></clipPath><clipPath id="clip-path-3" transform="translate(3.75 -50.11)"><rect class="cls-1" x="1.38" y="390.03" width="240.5" height="129.66"/></clipPath><clipPath id="clip-path-4" transform="translate(3.75 -50.11)"><rect class="cls-1" x="6.29" y="419.34" width="195.75" height="105.53" transform="translate(208.33 944.22) rotate(-180)"/></clipPath></defs><g id="Capa_2" data-name="Capa 2"><g id="Arte"><g class="cls-2"><path class="cls-3" d="M99.5,149.5H233.6s-1-16.23-25.83-16.23c0,0-6.29-20.2-31.78-20.2-12,0-19.54,2-28.81,9.94C147.18,123,99.5,117.31,99.5,149.5Z" transform="translate(3.75 -50.11)"/><path class="cls-3" d="M1028.76,403c-11,5.95-28.71,5.95-39.67,0l-39-21.21c-11-5.95-28.71-5.95-39.67,0l-141.58,77c-11,6-28.72,6-39.67,0l-60.77-33c-10.95-6-28.71-6-39.66,0l-39.28,21.35c-11,6-28.72,6-39.67,0L355,341.21c-11-5.95-28.71-5.95-39.67,0l-62.63,34.05c-5.26,2.86-12.4,4.47-19.84,4.47L46.28,203.28c-16.79-11-49.59-4.51-49.59,9.76V543.69h0v15.42l1440,2V454.81Z" transform="translate(3.75 -50.11)"/><path class="cls-3" d="M647.52,567.22c-6.63,0-8.68,1.29-13.73,6.23s-9.42,2.13-11.57-.07c-2.34-2.4-4.67-6.33-11.31-6.37s-8.67,1.28-13.73,6.23-9.42,2.13-11.57-.07c-2.34-2.4-4.67-6.33-11.31-6.37h.51c-6.63,0-8.68,1.28-13.74,6.22s-9.42,2.13-11.56-.06c-2.34-2.4-4.67-6.34-11.31-6.37s-8.68,1.28-13.73,6.22-9.42,2.13-11.57-.07c-2.34-2.4-4.67-6.33-11.31-6.37H502c-6.64,0-8.68,1.29-13.74,6.23s-9.42,2.13-11.56-.07c-2.34-2.4-4.68-6.33-11.31-6.37s-8.68,1.28-13.74,6.23-9.42,2.13-11.56-.07c-2.34-2.4-4.17-6.33-10.81-6.37h0V558H647.55Z" transform="translate(3.75 -50.11)"/><path class="cls-3" d="M792.33,566.8h.5c-6.64,0-8.69,1.28-13.76,6.22s-9.43,2.13-11.58-.06c-2.34-2.4-4.68-6.34-11.32-6.37s-8.7,1.28-13.76,6.22-9.44,2.13-11.58-.07c-2.35-2.4-4.69-6.33-11.33-6.37h.41c-6.65,0-8.69,1.28-13.76,6.23s-9.43,2.13-11.58-.07c-2.34-2.4-4.68-6.33-11.33-6.37s-8.69,1.28-13.76,6.22-9.43,2.13-11.58-.06c-2.34-2.4-4.2-5-10.85-5.09l0-9.23H791.52" transform="translate(3.75 -50.11)"/><path class="cls-3" d="M1437.45,570.22c-6.65,0-8.7,1.29-13.76,6.23s-9.44,2.13-11.58-.07c-2.35-2.4-4.68-6.33-11.33-6.37s-8.69,1.28-13.76,6.23-9.44,2.13-11.58-.07c-2.35-2.4-4.68-6.33-11.33-6.37h.51c-6.65,0-8.69,1.28-13.76,6.22s-9.44,2.13-11.58-.06c-2.35-2.4-4.68-6.34-11.33-6.37s-8.69,1.28-13.76,6.22-9.44,2.13-11.58-.07c-2.34-2.4-4.68-6.33-11.33-6.37h.42c-6.65,0-8.7,1.28-13.77,6.23s-9.43,2.13-11.57-.07c-2.35-2.4-4.69-6.33-11.33-6.37s-8.7,1.28-13.76,6.22-9.44,2.13-11.58-.06c-2.35-2.4-4.18-6.33-10.83-6.37h0V561h218.6Z" transform="translate(3.75 -50.11)"/><path class="cls-3" d="M1219.89,570.22c-6.64,0-8.69,1.29-13.76,6.23s-9.43,2.13-11.58-.07c-2.34-2.4-4.68-6.33-11.33-6.37s-8.69,1.28-13.76,6.23-9.43,2.13-11.58-.07c-2.34-2.4-4.68-6.33-11.32-6.37h.5c-6.64,0-8.69,1.28-13.76,6.22s-9.43,2.13-11.58-.06c-2.34-2.4-4.68-6.34-11.32-6.37s-8.7,1.28-13.76,6.22-9.44,2.13-11.58-.07c-2.35-2.4-4.69-6.33-11.33-6.37h.41c-6.65,0-8.69,1.28-13.76,6.23s-9.43,2.13-11.58-.07c-2.34-2.4-4.68-6.33-11.33-6.37s-8.69,1.28-13.76,6.22-9.43,2.13-11.58-.06c-2.34-2.4-4.18-6.33-10.82-6.37l10.83-9,207.78,1Z" transform="translate(3.75 -50.11)"/><path class="cls-3" d="M1012.16,560.12a11,11,0,0,1-7.16,10.13c-2.31.9-4.26,2.53-7.15,5.24-5.26,4.94-9.8,2.13-12-.07-2.44-2.4-4.87-6.33-11.77-6.37s-9,1.28-14.29,6.22-9.79,2.13-12-.07c-2.43-2.4-4.86-6.33-11.76-6.37h.52c-6.9,0-9,1.28-14.28,6.22s-9.8,2.13-12-.07c-2.43-2.4-4.86-6.33-11.76-6.37s-9,1.28-14.29,6.22-9.8,2.13-12-.07c-2.44-2.4-4.86-6.33-11.77-6.37h.43c-6.9,0-9,1.28-14.28,6.22s-9.8,2.13-12-.07c-2.43-2.4-4.86-6.33-11.76-6.37s-9,1.28-14.29,6.22-9.8,2.13-12-.07c-2.44-2.4-4.34-6.33-11.25-6.37v-8l227,0Z" transform="translate(3.75 -50.11)"/><path class="cls-3" d="M249.15,75.3H156.4s.68-11.22,17.86-11.22c0,0,4.35-14,22-14,8.27,0,13.51,1.38,19.92,6.87C216.17,57,249.15,53,249.15,75.3Z" transform="translate(3.75 -50.11)"/><path class="cls-4" d="M214.84,565.94c-6.65,0-8.7,1.28-13.76,6.23s-9.44,2.12-11.58-.07c-2.35-2.4-4.68-6.33-11.33-6.37S169.48,567,164.41,572s-9.44,2.13-11.58-.06c-2.35-2.4-4.68-6.34-11.33-6.37l.51,0c-6.65,0-8.69,1.29-13.76,6.23s-9.44,2.13-11.58-.07c-2.35-2.4-4.68-6.33-11.33-6.37s-8.69,1.29-13.76,6.23-9.44,2.13-11.58-.07c-2.34-2.4-4.68-6.33-11.33-6.37h.42c-6.65,0-8.7,1.28-13.76,6.22s-9.44,2.13-11.58-.06c-2.35-2.4-4.69-6.34-11.33-6.37s-8.7,1.28-13.76,6.22S9.22,573.22,7.08,571c-2.35-2.41-4.18-6.34-10.83-6.38h0v-7.93h218.6Z" transform="translate(3.75 -50.11)"/><path class="cls-4" d="M429.25,565.94c-6.66,0-8.71,1.29-13.78,6.23s-9.45,2.13-11.6-.07c-2.35-2.4-4.69-6.33-11.34-6.37S383.82,567,378.74,572s-9.45,2.12-11.59-.07c-2.35-2.4-4.69-6.33-11.35-6.37h.51c-6.66,0-8.71,1.28-13.78,6.22s-9.45,2.13-11.6-.07c-2.35-2.4-4.69-6.33-11.35-6.37s-8.7,1.29-13.78,6.23-9.45,2.13-11.59-.07c-2.35-2.4-4.69-6.33-11.35-6.37h.41c-6.65,0-8.7,1.28-13.78,6.22s-9.45,2.13-11.59-.06c-2.35-2.4-4.69-6.33-11.35-6.37s-8.71,1.28-13.78,6.22-9.45,2.13-11.6-.06c-2.35-2.41-4.18-6.34-10.84-6.38h0v-7.93H429.27Z" transform="translate(3.75 -50.11)"/><path class="cls-4" d="M525.12,573c-5.08,4.94-9.45,2.13-11.6-.07-2.35-2.4-4.69-6.33-11.35-6.37s-8.7,1.28-13.78,6.23-9.45,2.13-11.59-.07c-2.35-2.4-4.69-6.33-11.35-6.37H466c-6.66,0-8.71,1.28-13.78,6.22s-9.45,2.13-11.6-.06c-2.35-2.4-4.69-6.34-11.35-6.37s-8.7,1.28-13.78,6.22-9.45,2.13-11.6-.07c-2.34-2.4-4.68-6.33-11.34-6.37h.41c-6.65,0-8.7,1.28-13.78,6.23s-9.45,2.13-11.6-.07c-2.34-2.4-4.68-6.33-11.34-6.37s-8.71,1.28-13.78,6.22-9.45,2.13-11.6-.06c-2.35-2.4-4.19-6.34-10.84-6.37v-8H519.86S530.19,568,525.12,573Z" transform="translate(3.75 -50.11)"/><path class="cls-4" d="M-3.31,509.9H423.16c3.7,0,6.7,3.93,6.7,8.78h0c0,4.85,3,8.78,6.7,8.78H488a30.6,30.6,0,0,1,13.43,3.15A33.32,33.32,0,0,1,518,549.31l4.52,12.3H-3.31Z" transform="translate(3.75 -50.11)"/></g><path class="cls-5" d="M1304.69,425.58l16.19,40.77c7.19,18.09-3.73,35.41-22.31,35.41h0c-18.48,0-36.6-12.71-43.75-30.71l-18.06-45.47Z" transform="translate(3.75 -50.11)"/><path class="cls-5" d="M1295,400.8l16.2,40.77c7.18,18.09-3.73,35.41-22.32,35.41h0c-18.48,0-36.6-12.72-43.74-30.71l-18.06-45.47Z" transform="translate(3.75 -50.11)"/><rect class="cls-4" x="947.68" y="419.82" width="456.17" height="14.48"/><path class="cls-6" d="M1404.9,477.18c0,4-2.15,7.24-4.8,7.24s-4.79-3.25-4.79-7.24,2.15-7.25,4.79-7.25S1404.9,473.18,1404.9,477.18Z" transform="translate(3.75 -50.11)"/><polygon class="cls-7" points="1231.42 418.48 1222.77 418.48 1234.6 386.44 1243.25 386.44 1231.42 418.48"/><path class="cls-7" d="M1203,487.13h-.11a3.26,3.26,0,0,1-3.14-3.36l.16-4.47a13.65,13.65,0,0,1,13.7-13.23h10.62a3.25,3.25,0,0,1,0,6.5H1213.6a7.18,7.18,0,0,0-7.21,7l-.16,4.46A3.25,3.25,0,0,1,1203,487.13Z" transform="translate(3.75 -50.11)"/><path class="cls-7" d="M1236.74,487.13h-.12a3.26,3.26,0,0,1-3.13-3.36l.15-4.47a13.66,13.66,0,0,1,13.71-13.23H1258a3.25,3.25,0,0,1,0,6.5h-10.62a7.18,7.18,0,0,0-7.21,7L1240,484A3.25,3.25,0,0,1,1236.74,487.13Z" transform="translate(3.75 -50.11)"/><path class="cls-4" d="M1260.6,312.9,1312.67,446h-58c-31.85,0-61.86-25.82-67-57.68h0a146,146,0,0,1-.77-42.66l4.34-32.73Z" transform="translate(3.75 -50.11)"/><path class="cls-6" d="M1312.67,446h0L1260.6,312.9h0c-21.46,15.72-27.95,45.05-16.12,72.79l8.18,19.2C1263,429.1,1287.62,446,1312.67,446Z" transform="translate(3.75 -50.11)"/><path class="cls-5" d="M1221.11,258.28c-24.55,0-44.45,17.66-44.45,39.45,0,.71,0,1.42.07,2.12.9,17.76,12.9,33.08,20.91,41.42a25.82,25.82,0,0,1,7.17,17.92h0s60.74-21.13,60.74-61.46C1265.55,275.94,1245.65,258.28,1221.11,258.28Z" transform="translate(3.75 -50.11)"/><polygon class="cls-7" points="1265.07 418.48 1256.43 418.48 1264.86 395.69 1273.5 395.69 1265.07 418.48"/><path class="cls-4" d="M1259.44,294c-2.09-20.16-17.3-27.82-34.63-19a8.2,8.2,0,0,1-7.41,0c-17.33-8.78-32.53-1.12-34.63,19-2.2,21.13,14.33,40.24,38.34,40.24S1261.64,315.13,1259.44,294Z" transform="translate(3.75 -50.11)"/><path class="cls-6" d="M1237.78,280.62a13.6,13.6,0,0,0-13,10.95,3.76,3.76,0,0,1-3.65,3h0a3.77,3.77,0,0,1-3.66-3,13.6,13.6,0,0,0-13-10.95c-7.4,0-13.41,6.4-13.41,14.3s6,14.29,13.41,14.29a12.48,12.48,0,0,0,4.11-.69,21.46,21.46,0,0,1,7.08-1.34h11a21.46,21.46,0,0,1,7.07,1.34,12.53,12.53,0,0,0,4.11.69c7.41,0,13.41-6.4,13.41-14.29S1245.19,280.62,1237.78,280.62Z" transform="translate(3.75 -50.11)"/><path class="cls-7" d="M1221.11,302a7.14,7.14,0,0,0-5.48,2.51,4.15,4.15,0,0,0-.1,5.33l.84,1.06,4.74,11.61,4.73-11.61.84-1.06a4.15,4.15,0,0,0-.1-5.33A7.14,7.14,0,0,0,1221.11,302Z" transform="translate(3.75 -50.11)"/><g class="cls-8"><path class="cls-6" d="M420,487.73h-4.17c0-.13,0-.25,0-.39a17.26,17.26,0,0,0-17.25-17.25l-60.49-.2a17.26,17.26,0,0,0-17.26,17.26c0,.14,0,.28,0,.41l-11.91,0A17.26,17.26,0,0,0,309,522h0a17.26,17.26,0,0,0,17.25,16.86l75.76.2a17.26,17.26,0,0,0,17.24-16.86h.8a17.26,17.26,0,1,0,0-34.51Z" transform="translate(3.75 -50.11)"/></g><circle class="cls-5" cx="194.45" cy="268.4" r="90.43" transform="translate(-129.08 165.99) rotate(-45)"/><circle class="cls-6" cx="198.2" cy="218.28" r="72.62"/><path class="cls-7" d="M194.43,220.4a52.4,52.4,0,0,0-5.73.32,50.49,50.49,0,0,0-23.76,91.14,35.76,35.76,0,0,1,14.85,28.92v4.48h29.32v-4.46c0-11.42,5.58-22.09,15.3-29.27a50.49,50.49,0,0,0-30-91.12Z" transform="translate(3.75 -50.11)"/><path class="cls-4" d="M244.15,315h-3.9c0-.12,0-.24,0-.36a16.13,16.13,0,0,0-16.12-16.13l-56.53-.18a16.13,16.13,0,0,0-16.13,16.12c0,.13,0,.26,0,.39l-11.13,0a16.13,16.13,0,0,0,0,32.25h0a16.12,16.12,0,0,0,16.12,15.76l70.8.18a16.11,16.11,0,0,0,16.11-15.75h.75a16.13,16.13,0,1,0,0-32.25Z" transform="translate(3.75 -50.11)"/><path class="cls-9" d="M197.21,376.37V518.85h-9V358.29l-24.09-24.1h-9.6a.68.68,0,1,1,0-1.36h8.24l-11.35-11.36a.68.68,0,0,1,0-1,.7.7,0,0,1,1,0l20.88,20.9L184,330.72l-16-16a.68.68,0,1,1,1-1l16,16,6.76-6.74a.68.68,0,0,1,1,0,.67.67,0,0,1,0,1l-18.45,18.4,18.38,18.39,27.05-27-11.46-11.43a.66.66,0,0,1-.28-.16.63.63,0,0,1-.16-.27l-7.26-7.24a.68.68,0,0,1,0-1,.7.7,0,0,1,1,0l7,7,7.34-7.32a.7.7,0,0,1,1,0,.68.68,0,0,1,0,1l-7.34,7.31,11.19,11.16,9.85-9.82,1,1-34.28,34.23Z" transform="translate(3.75 -50.11)"/><path class="cls-4" d="M1352,342.4s12.58-38.95-28.34-39Z" transform="translate(3.75 -50.11)"/><path class="cls-6" d="M1352,342.4l-28.34-39C1311.08,342.36,1352,342.4,1352,342.4Z" transform="translate(3.75 -50.11)"/><path class="cls-4" d="M1373.45,146.52s-83.8,7.6-50.88,85Z" transform="translate(3.75 -50.11)"/><path class="cls-6" d="M1373.45,146.52l-50.88,85C1406.37,224,1373.45,146.52,1373.45,146.52Z" transform="translate(3.75 -50.11)"/><path class="cls-4" d="M1145.91,247.06s22.77-41-24.29-52Z" transform="translate(3.75 -50.11)"/><path class="cls-6" d="M1145.91,247.06l-24.29-52C1098.85,236.07,1145.91,247.06,1145.91,247.06Z" transform="translate(3.75 -50.11)"/><path class="cls-7" d="M1216.87,99.93a57.62,57.62,0,0,1,23.34-44.06,57.72,57.72,0,1,0,34,104.1c-.65,0-1.29,0-2,0A57.72,57.72,0,0,1,1216.87,99.93Z" transform="translate(3.75 -50.11)"/><g class="cls-10"><path class="cls-6" d="M151.26,495.37h-4.74c0-.14,0-.29,0-.44a19.59,19.59,0,0,0-19.59-19.59l-68.68-.23a19.61,19.61,0,0,0-19.6,19.6c0,.16,0,.31,0,.47l-13.53,0a19.59,19.59,0,0,0,0,39.18h0a19.59,19.59,0,0,0,19.58,19.14l86,.23a19.59,19.59,0,0,0,19.58-19.15h.91a19.59,19.59,0,1,0,0-39.18Z" transform="translate(3.75 -50.11)"/></g><g class="cls-11"><path class="cls-7" d="M80.05,505.08h3.86c0-.12,0-.24,0-.36a16,16,0,0,1,15.94-16l55.9-.18a16,16,0,0,1,15.95,15.94c0,.13,0,.26,0,.39l11,0a15.95,15.95,0,0,1,0,31.89h0a16,16,0,0,1-15.94,15.58l-70,.19A15.94,15.94,0,0,1,80.79,537h-.74a16,16,0,1,1,0-31.9Z" transform="translate(3.75 -50.11)"/></g></g></g></svg>