<svg xmlns="http://www.w3.org/2000/svg" xmlns:xlink="http://www.w3.org/1999/xlink" viewBox="0 0 1556.57 800.23"><defs><style>.cls-1,.cls-10,.cls-7{fill:none;}.cls-2{clip-path:url(#clip-path);}.cls-3{fill:#f7f7f7;}.cls-4{fill:#fdf6e6;}.cls-5{clip-path:url(#clip-path-2);}.cls-6{fill:#a09f9f;}.cls-10,.cls-7{stroke:#606060;}.cls-10,.cls-13,.cls-7{stroke-miterlimit:10;}.cls-7{stroke-width:2px;}.cls-8{fill:#606060;}.cls-9{fill:#6b6a6a;}.cls-10{stroke-width:4px;}.cls-11{fill:#c4d65c;}.cls-12{fill:#b4ce53;}.cls-13{fill:#0c213b;stroke:#f0cf5f;stroke-width:0.25px;}</style><clipPath id="clip-path" transform="translate(117.8 -50.11)"><rect class="cls-1" x="0.97" width="1440" height="579.19"/></clipPath><clipPath id="clip-path-2" transform="translate(117.8 -50.11)"><rect class="cls-1" width="522.87" height="554.93"/></clipPath></defs><g id="Capa_2" data-name="Capa 2"><g id="Arte"><g class="cls-2"><path class="cls-3" d="M100.47,149.5h134.1s-1-16.23-25.83-16.23c0,0-6.29-20.2-31.78-20.2-12,0-19.54,2-28.81,9.94C148.15,123,100.47,117.31,100.47,149.5Z" transform="translate(117.8 -50.11)"/><path class="cls-3" d="M1029.73,403c-11,5.95-28.71,5.95-39.67,0l-39-21.21c-10.95-5.95-28.71-5.95-39.67,0l-141.58,77c-11,6-28.72,6-39.67,0l-60.77-33c-11-6-28.71-6-39.66,0l-39.28,21.35c-11,6-28.72,6-39.67,0L356,341.21c-11-5.95-28.72-5.95-39.67,0l-62.63,34.05c-5.26,2.86-12.4,4.47-19.84,4.47L47.25,203.28c-16.79-11-49.59-4.51-49.59,9.76V543.69h0v15.42l1440,2V454.81Z" transform="translate(117.8 -50.11)"/><path class="cls-3" d="M648.49,567.22c-6.63,0-8.68,1.29-13.74,6.23s-9.42,2.13-11.56-.07c-2.34-2.4-4.67-6.33-11.31-6.37s-8.67,1.28-13.73,6.23-9.42,2.13-11.57-.07c-2.34-2.4-4.67-6.33-11.31-6.37h.51c-6.64,0-8.68,1.28-13.74,6.22s-9.42,2.13-11.56-.06c-2.34-2.4-4.67-6.34-11.31-6.37s-8.68,1.28-13.74,6.22-9.42,2.13-11.56-.07c-2.34-2.4-4.67-6.33-11.31-6.37H503c-6.64,0-8.68,1.29-13.74,6.23s-9.42,2.13-11.56-.07c-2.34-2.4-4.68-6.33-11.31-6.37s-8.68,1.28-13.74,6.23-9.42,2.13-11.56-.07c-2.34-2.4-4.17-6.33-10.81-6.37h0V558H648.52Z" transform="translate(117.8 -50.11)"/><path class="cls-3" d="M793.3,566.8h.5c-6.64,0-8.69,1.28-13.76,6.22s-9.43,2.13-11.58-.06c-2.34-2.4-4.68-6.34-11.32-6.37s-8.7,1.28-13.77,6.22-9.43,2.13-11.57-.07c-2.35-2.4-4.69-6.33-11.33-6.37h.41c-6.65,0-8.69,1.28-13.76,6.23s-9.43,2.13-11.58-.07c-2.34-2.4-4.68-6.33-11.33-6.37s-8.69,1.28-13.76,6.22-9.43,2.13-11.58-.06c-2.34-2.4-4.2-5-10.85-5.09l0-9.23H792.49" transform="translate(117.8 -50.11)"/><path class="cls-4" d="M1438.42,570.22c-6.65,0-8.7,1.29-13.76,6.23s-9.44,2.13-11.58-.07c-2.35-2.4-4.68-6.33-11.33-6.37s-8.69,1.28-13.76,6.23-9.44,2.13-11.58-.07c-2.35-2.4-4.68-6.33-11.33-6.37h.51c-6.65,0-8.69,1.28-13.76,6.22s-9.44,2.13-11.58-.06c-2.35-2.4-4.68-6.34-11.33-6.37s-8.69,1.28-13.76,6.22-9.44,2.13-11.58-.07c-2.35-2.4-4.68-6.33-11.33-6.37h.41c-6.64,0-8.69,1.28-13.76,6.23s-9.43,2.13-11.58-.07c-2.34-2.4-4.68-6.33-11.32-6.37s-8.7,1.28-13.76,6.22-9.44,2.13-11.58-.06c-2.35-2.4-4.18-6.33-10.83-6.37h0V561h218.6Z" transform="translate(117.8 -50.11)"/><path class="cls-4" d="M1220.86,570.22c-6.65,0-8.69,1.29-13.76,6.23s-9.43,2.13-11.58-.07c-2.34-2.4-4.68-6.33-11.33-6.37s-8.69,1.28-13.76,6.23-9.43,2.13-11.58-.07c-2.34-2.4-4.68-6.33-11.32-6.37h.5c-6.64,0-8.69,1.28-13.76,6.22s-9.43,2.13-11.58-.06c-2.34-2.4-4.68-6.34-11.32-6.37s-8.7,1.28-13.76,6.22-9.44,2.13-11.58-.07c-2.35-2.4-4.69-6.33-11.33-6.37h.41c-6.65,0-8.69,1.28-13.76,6.23s-9.43,2.13-11.58-.07c-2.34-2.4-4.68-6.33-11.33-6.37s-8.69,1.28-13.76,6.22-9.43,2.13-11.58-.06c-2.34-2.4-4.18-6.33-10.82-6.37l10.83-9,207.78,1Z" transform="translate(117.8 -50.11)"/><path class="cls-3" d="M1013.13,560.12a11,11,0,0,1-7.16,10.13c-2.31.9-4.26,2.53-7.15,5.24-5.26,4.94-9.8,2.13-12-.07-2.44-2.4-4.87-6.33-11.77-6.37s-9,1.28-14.29,6.22-9.79,2.13-12-.07c-2.43-2.4-4.86-6.33-11.76-6.37h.52c-6.9,0-9,1.28-14.28,6.22s-9.8,2.13-12-.07c-2.43-2.4-4.86-6.33-11.76-6.37s-9,1.28-14.29,6.22-9.8,2.13-12-.07c-2.44-2.4-4.87-6.33-11.77-6.37h.43c-6.9,0-9,1.28-14.28,6.22s-9.8,2.13-12-.07c-2.43-2.4-4.86-6.33-11.76-6.37s-9,1.28-14.29,6.22-9.8,2.13-12-.07c-2.44-2.4-4.35-6.33-11.25-6.37v-8l227,0Z" transform="translate(117.8 -50.11)"/><path class="cls-3" d="M1239.52,176.48h60.83s-.45-7.35-11.72-7.35c0,0-2.85-9.16-14.41-9.16-5.43,0-8.86.9-13.07,4.5C1261.15,164.47,1239.52,161.89,1239.52,176.48Z" transform="translate(117.8 -50.11)"/><path class="cls-3" d="M250.12,75.3H157.37s.68-11.22,17.86-11.22c0,0,4.35-14,22-14,8.27,0,13.51,1.38,19.92,6.87C217.14,57,250.12,53,250.12,75.3Z" transform="translate(117.8 -50.11)"/><path class="cls-4" d="M1076.5,564l58.88-166.9c7-20.4,24.7-33.91,44.5-33.91h62.64a45.45,45.45,0,0,0,33.62-15.32h0a45.44,45.44,0,0,1,33.62-15.33H1438.6l.17,233.56Z" transform="translate(117.8 -50.11)"/><path class="cls-4" d="M215.81,565.94c-6.65,0-8.7,1.28-13.76,6.23s-9.44,2.12-11.58-.07c-2.35-2.4-4.68-6.33-11.33-6.37S170.45,567,165.38,572s-9.44,2.13-11.58-.06c-2.35-2.4-4.68-6.34-11.33-6.37l.51,0c-6.65,0-8.69,1.29-13.76,6.23s-9.44,2.13-11.58-.07c-2.35-2.4-4.68-6.33-11.33-6.37s-8.69,1.29-13.76,6.23-9.44,2.13-11.58-.07c-2.34-2.4-4.68-6.33-11.33-6.37h.41c-6.64,0-8.69,1.28-13.76,6.22s-9.43,2.13-11.58-.06c-2.34-2.4-4.68-6.34-11.32-6.37s-8.7,1.28-13.76,6.22-9.44,2.13-11.58-.06c-2.35-2.41-4.18-6.34-10.83-6.38h0v-7.93h218.6Z" transform="translate(117.8 -50.11)"/><path class="cls-4" d="M430.22,565.94c-6.66,0-8.71,1.29-13.78,6.23s-9.45,2.13-11.6-.07c-2.35-2.4-4.69-6.33-11.35-6.37s-8.7,1.28-13.78,6.23-9.45,2.12-11.59-.07c-2.35-2.4-4.69-6.33-11.35-6.37h.51c-6.66,0-8.71,1.28-13.78,6.22s-9.45,2.13-11.6-.07c-2.35-2.4-4.69-6.33-11.35-6.37s-8.7,1.29-13.78,6.23-9.45,2.13-11.59-.07c-2.35-2.4-4.69-6.33-11.35-6.37h.41c-6.65,0-8.7,1.28-13.78,6.22s-9.45,2.13-11.59-.06c-2.35-2.4-4.69-6.33-11.35-6.37s-8.71,1.28-13.78,6.22-9.45,2.13-11.6-.06c-2.35-2.41-4.19-6.34-10.84-6.38h0v-7.93H430.24Z" transform="translate(117.8 -50.11)"/><path class="cls-4" d="M526.09,573c-5.08,4.94-9.45,2.13-11.6-.07-2.35-2.4-4.69-6.33-11.35-6.37s-8.7,1.28-13.78,6.23-9.45,2.13-11.6-.07c-2.34-2.4-4.68-6.33-11.34-6.37h.51c-6.66,0-8.71,1.28-13.78,6.22s-9.45,2.13-11.6-.06c-2.35-2.4-4.69-6.34-11.35-6.37s-8.7,1.28-13.78,6.22-9.45,2.13-11.6-.07c-2.34-2.4-4.68-6.33-11.34-6.37h.41c-6.65,0-8.7,1.28-13.78,6.23s-9.45,2.13-11.6-.07c-2.34-2.4-4.68-6.33-11.34-6.37s-8.71,1.28-13.78,6.22-9.45,2.13-11.6-.06c-2.35-2.4-4.19-6.34-10.84-6.37v-8H520.82S531.16,568,526.09,573Z" transform="translate(117.8 -50.11)"/><path class="cls-4" d="M-2.34,509.9H424.13c3.7,0,6.7,3.93,6.7,8.78h0c0,4.85,3,8.78,6.7,8.78H489a30.6,30.6,0,0,1,13.43,3.15,33.36,33.36,0,0,1,16.54,18.7l4.52,12.3H-2.34Z" transform="translate(117.8 -50.11)"/></g><g class="cls-5"><path class="cls-4" d="M-117.8,257.7l47.67-70.91c30.3-42.62,83.56-63.4,134.29-50.72a57.09,57.09,0,0,1,19.35,9.17c41.22,29.3,10.55,72.44,51.77,101.74s71.89-13.83,113.11,15.47,10.55,72.44,51.77,101.75,71.91-13.82,113.14,15.48,10.55,72.44,51.77,101.75S537,467.6,578.2,496.91s41.2,84,82.44,113.3L451.08,850.34c-41.24-29.32-10.57-72.46-51.79-101.76S327.4,762.42,286.16,733.1s-10.56-72.45-51.78-101.75-71.88,13.84-113.13-15.48S107.4,556.27,66.17,527s-68.58,1-109.8-28.31S-54.18,426.21-95.4,396.91Z" transform="translate(117.8 -50.11)"/></g><path class="cls-6" d="M19.88,417.92l56.05,5.26c4.34.41,7-.2,12.87,2.36,3.8,1.66,7,4.92,9.55,8.19a26.84,26.84,0,0,1-21.53,43.19,27.34,27.34,0,0,1-3.4-.25l-.07.35A26.88,26.88,0,0,1,46.88,509.6c-13.54-.1-24.94-9.16-26.45-23.42,0-.06,0-.12,0-.19l-.17-12.26Z" transform="translate(117.8 -50.11)"/><path class="cls-7" d="M61,423.69l14.14,52.83a.43.43,0,0,1-.73.4l-53.3-57.57" transform="translate(117.8 -50.11)"/><line class="cls-7" x1="140.7" y1="407.93" x2="191.4" y2="427.31"/><path class="cls-3" d="M35.46,438.73l22.27,24.71a3.42,3.42,0,0,0,4.81.25h0a3.42,3.42,0,0,0,.25-4.81l-22.28-24.7a3.4,3.4,0,0,0-4.8-.25h0A3.41,3.41,0,0,0,35.46,438.73Z" transform="translate(117.8 -50.11)"/><path class="cls-8" d="M85.93,574.33V491a12.76,12.76,0,0,0-12.74-12.74l-.63,0A1.32,1.32,0,0,1,71.18,477h0a1.34,1.34,0,0,1,1.29-1.34c.24,0,.48,0,.72,0A15.44,15.44,0,0,1,88.61,491v83.31Z" transform="translate(117.8 -50.11)"/><path class="cls-6" d="M191.54,423.51l50.81,4.77c3.94.37,6.35-.18,11.66,2.14,3.45,1.51,6.38,4.46,8.66,7.43A24.33,24.33,0,0,1,243.15,477a24,24,0,0,1-3.07-.22l-.07.32a24.75,24.75,0,0,1,.56,5.34A24.44,24.44,0,0,1,216,506.61c-12.28-.09-22.61-8.3-24-21.22,0-.06,0-.11,0-.17l-.15-11.12Z" transform="translate(117.8 -50.11)"/><path class="cls-7" d="M228.84,428.74l12.81,47.89a.39.39,0,0,1-.66.36l-48.32-52.18" transform="translate(117.8 -50.11)"/><line class="cls-7" x1="312.08" y1="409.77" x2="358.03" y2="427.33"/><path class="cls-3" d="M205.66,442.38l20.19,22.39a3.09,3.09,0,0,0,4.36.23h0a3.09,3.09,0,0,0,.22-4.36l-20.18-22.39a3.1,3.1,0,0,0-4.36-.23h0A3.1,3.1,0,0,0,205.66,442.38Z" transform="translate(117.8 -50.11)"/><path class="cls-8" d="M251.41,565.29V489.78a11.56,11.56,0,0,0-11.54-11.55h-.57A1.2,1.2,0,0,1,238,477h0a1.23,1.23,0,0,1,1.17-1.22h.66a14,14,0,0,1,14,14v75.51Z" transform="translate(117.8 -50.11)"/><path class="cls-6" d="M1097.89,468.25l36.28,3.41c2.81.26,4.53-.14,8.32,1.52a16.88,16.88,0,0,1,6.18,5.3,17.37,17.37,0,0,1-13.93,28,19.8,19.8,0,0,1-2.2-.16l0,.23a17.11,17.11,0,0,1,.4,3.81,17.45,17.45,0,0,1-17.53,17.27c-8.76-.07-16.14-5.93-17.12-15.16v-.12l-.12-7.94Z" transform="translate(117.8 -50.11)"/><path class="cls-7" d="M1124.52,472l9.15,34.2a.28.28,0,0,1-.47.26l-34.51-37.27" transform="translate(117.8 -50.11)"/><line class="cls-7" x1="1217.64" y1="444.11" x2="1250.45" y2="456.65"/><path class="cls-3" d="M1108,481.72l14.42,16a2.21,2.21,0,0,0,3.11.16h0a2.21,2.21,0,0,0,.16-3.11l-14.42-16a2.21,2.21,0,0,0-3.11-.16h0A2.21,2.21,0,0,0,1108,481.72Z" transform="translate(117.8 -50.11)"/><path class="cls-8" d="M1140.64,569.49V515.56a8.26,8.26,0,0,0-8.25-8.24H1132a.86.86,0,0,1-.89-.87h0a.88.88,0,0,1,.83-.87h.47a10,10,0,0,1,10,10v53.93Z" transform="translate(117.8 -50.11)"/><path class="cls-6" d="M1179.74,221.24l50.81,4.78c3.93.36,6.35-.19,11.66,2.13,3.44,1.51,6.38,4.46,8.66,7.43a24.33,24.33,0,0,1-19.52,39.15,24.14,24.14,0,0,1-3.08-.23l-.07.32a23.55,23.55,0,0,1,.56,5.34,24.44,24.44,0,0,1-24.54,24.19c-12.28-.09-22.61-8.3-24-21.23a.91.91,0,0,1,0-.17l-.16-11.11Z" transform="translate(117.8 -50.11)"/><path class="cls-7" d="M1217,226.47l12.82,47.89a.39.39,0,0,1-.66.37l-48.32-52.19" transform="translate(117.8 -50.11)"/><line class="cls-7" x1="1300.28" y1="207.51" x2="1346.23" y2="225.07"/><path class="cls-3" d="M1193.86,240.11l20.19,22.4a3.09,3.09,0,0,0,4.36.22h0a3.08,3.08,0,0,0,.22-4.35L1198.44,236a3.08,3.08,0,0,0-4.35-.22h0A3.09,3.09,0,0,0,1193.86,240.11Z" transform="translate(117.8 -50.11)"/><path class="cls-8" d="M1239.61,363V287.51A11.56,11.56,0,0,0,1228.06,276l-.57,0a1.2,1.2,0,0,1-1.25-1.21h0a1.22,1.22,0,0,1,1.17-1.22c.22,0,.43,0,.65,0a14,14,0,0,1,14,14V363Z" transform="translate(117.8 -50.11)"/><path class="cls-9" d="M152.15,350.81l-61.76,5.8c-4.78.45-7.72-.22-14.17,2.6-4.19,1.83-7.75,5.42-10.52,9a29.57,29.57,0,0,0,23.72,47.58,28.88,28.88,0,0,0,3.74-.28l.08.39a30.22,30.22,0,0,0-.68,6.49,29.71,29.71,0,0,0,29.84,29.4c14.92-.11,27.47-10.09,29.14-25.8a1.48,1.48,0,0,0,0-.21l.19-13.51Z" transform="translate(117.8 -50.11)"/><path class="cls-7" d="M106.82,357.17l-15.57,58.2a.47.47,0,0,0,.8.44l58.72-63.42" transform="translate(117.8 -50.11)"/><line class="cls-7" x1="266.61" y1="344.91" x2="210.76" y2="366.25"/><path class="cls-3" d="M135,373.74,110.45,401a3.77,3.77,0,0,1-5.3.28h0a3.77,3.77,0,0,1-.27-5.3l24.54-27.22a3.76,3.76,0,0,1,5.29-.27h0A3.76,3.76,0,0,1,135,373.74Z" transform="translate(117.8 -50.11)"/><path class="cls-8" d="M79.38,569.92V431.35a14.06,14.06,0,0,1,14-14l.69,0a1.47,1.47,0,0,0,1.52-1.48h0a1.49,1.49,0,0,0-1.42-1.48l-.79,0a17,17,0,0,0-17,17V569.92Z" transform="translate(117.8 -50.11)"/><path class="cls-9" d="M302.54,306.07l-74.42,7c-5.76.54-9.3-.27-17.07,3.14-5.05,2.2-9.34,6.53-12.68,10.87A35.63,35.63,0,0,0,227,384.4a35.33,35.33,0,0,0,4.51-.33l.1.47a35.42,35.42,0,0,0-.82,7.82,35.79,35.79,0,0,0,35.95,35.42c18-.13,33.11-12.15,35.12-31.08a2.09,2.09,0,0,0,0-.25l.23-16.28Z" transform="translate(117.8 -50.11)"/><path class="cls-7" d="M247.92,313.73l-18.76,70.14a.56.56,0,0,0,1,.53L300.88,308" transform="translate(117.8 -50.11)"/><line class="cls-7" x1="416.32" y1="309.24" x2="349.02" y2="334.95"/><path class="cls-3" d="M281.86,333.71l-29.57,32.8a4.54,4.54,0,0,1-6.38.33h0a4.54,4.54,0,0,1-.33-6.38l29.57-32.8a4.52,4.52,0,0,1,6.38-.33h0A4.54,4.54,0,0,1,281.86,333.71Z" transform="translate(117.8 -50.11)"/><path class="cls-8" d="M214.86,570.1v-167a16.93,16.93,0,0,1,16.91-16.91l.83,0a1.76,1.76,0,0,0,1.84-1.77h0a1.8,1.8,0,0,0-1.71-1.79l-1,0a20.5,20.5,0,0,0-20.48,20.47v167Z" transform="translate(117.8 -50.11)"/><path class="cls-9" d="M1361.34,181,1317.86,185c-3.37.32-5.44-.16-10,1.83a20.17,20.17,0,0,0-7.41,6.36,20.79,20.79,0,0,0,19.33,33.3l.06.28a20.82,20.82,0,0,0,20.53,25.27c10.51-.08,19.35-7.11,20.52-18.17a.66.66,0,0,0,0-.14l.13-9.52Z" transform="translate(117.8 -50.11)"/><path class="cls-7" d="M1329.42,185.42l-11,41a.33.33,0,0,0,.56.31l41.35-44.66" transform="translate(117.8 -50.11)"/><line class="cls-7" x1="1476.79" y1="161.96" x2="1437.46" y2="176.99"/><path class="cls-3" d="M1349.25,197.09,1332,216.26a2.64,2.64,0,0,1-3.73.19h0a2.63,2.63,0,0,1-.19-3.72l17.27-19.17a2.64,2.64,0,0,1,3.73-.19h0A2.63,2.63,0,0,1,1349.25,197.09Z" transform="translate(117.8 -50.11)"/><path class="cls-8" d="M1310.1,335.23V237.66a9.91,9.91,0,0,1,9.89-9.89l.48,0a1,1,0,0,0,1.08-1h0a1,1,0,0,0-1-1l-.55,0a12,12,0,0,0-12,12v97.57Z" transform="translate(117.8 -50.11)"/><line class="cls-10" x1="454.52" y1="287.76" x2="454.52" y2="524.05"/><path class="cls-8" d="M338.68,495.32h0A18.35,18.35,0,0,0,357,477V366.07a18.34,18.34,0,0,0-18.29-18.29h0a18.35,18.35,0,0,0-18.3,18.29V477A18.35,18.35,0,0,0,338.68,495.32Z" transform="translate(117.8 -50.11)"/><line class="cls-10" x1="1271.14" y1="283.57" x2="1271.14" y2="519.85"/><path class="cls-8" d="M1155.3,491.12h0a18.34,18.34,0,0,0,18.29-18.29V361.88a18.35,18.35,0,0,0-18.29-18.3h0a18.36,18.36,0,0,0-18.3,18.3v111A18.35,18.35,0,0,0,1155.3,491.12Z" transform="translate(117.8 -50.11)"/><line class="cls-10" x1="260.23" y1="331.46" x2="260.23" y2="520.9"/><path class="cls-6" d="M144,507.8h0a14.71,14.71,0,0,0,14.67-14.67V404.18A14.71,14.71,0,0,0,144,389.51h0a14.71,14.71,0,0,0-14.67,14.67v88.95A14.71,14.71,0,0,0,144,507.8Z" transform="translate(117.8 -50.11)"/><path class="cls-6" d="M79.73,221.49s8,14-.63,25.72c6.9-8.09,21-13.07,31.53-4.48C110.12,242.13,93.76,222.87,79.73,221.49Z" transform="translate(117.8 -50.11)"/><path class="cls-6" d="M39.43,280.65c5.6.21,18.58,0,28.52-5.36-2.24-2.81-6.4-11-6.65-12.76-.22-1.59,4.5-6.78,6.79-10-7.91-4.33-17.77-5.34-24.3-5.46a20.46,20.46,0,0,1-4.36,33.55Z" transform="translate(117.8 -50.11)"/><path class="cls-8" d="M68.09,252.56a28.27,28.27,0,0,1,5.11,3.58c-4.08,5.7-6.29,6.53-6.29,6.53v0l0,.08,0,.09a68.74,68.74,0,0,0,6.07,8.88c-.2.18-.41.35-.62.52a26.43,26.43,0,0,1-4.52,3c-2.24-2.81-6.4-11-6.65-12.76C61.08,260.94,65.8,255.75,68.09,252.56Z" transform="translate(117.8 -50.11)"/><path class="cls-8" d="M73.09,271.74c-.2.18-.41.35-.62.52,3.29,5.26,7.69,11.56,12.08,15.81,6.42,6.22,1.2,12.82,1.2,12.82,13.24-2.76,33-25,33.58-25.62C108.08,284.41,89.87,292.34,73.09,271.74Z" transform="translate(117.8 -50.11)"/><path class="cls-11" d="M73.2,256.14c1.12-1.59,2.4-3.56,3.8-6a18.9,18.9,0,0,1,1.24-1.87c.28-.33.55-.66.78-1a.23.23,0,0,0,.08-.09c6.9-8.09,21-13.07,31.53-4.48v0c1.59,1.3,19.78,20.47,19.29,21.27a53.37,53.37,0,0,1-10.59,11.24h0c-11.25,9.14-29.46,17.07-46.24-3.53A68.74,68.74,0,0,1,67,262.86l0-.09,0-.08v0S69.12,261.84,73.2,256.14Zm23.35,23.38c19.3-.6,30.29-17.5,19.83-23.87-5.34-3.26-9.53-10.13-18.3-10.13C84.27,245.52,74,262,75,264.91,78.67,275.53,88,279.8,96.55,279.52Z" transform="translate(117.8 -50.11)"/><path class="cls-8" d="M73.2,256.14c1.12-1.59,2.4-3.56,3.8-6a18.9,18.9,0,0,1,1.24-1.87c.28-.33.55-.66.78-1a.23.23,0,0,0,.08-.09c6.9-8.09,21-13.07,31.53-4.48v0c1.59,1.3,19.78,20.47,19.29,21.27a53.37,53.37,0,0,1-10.59,11.24h0c-11.25,9.14-29.46,17.07-46.24-3.53A68.74,68.74,0,0,1,67,262.86l0-.09,0-.08v0S69.12,261.84,73.2,256.14Z" transform="translate(117.8 -50.11)"/><path class="cls-12" d="M79,247.3c-.27.33-.54.66-.78,1C78.52,248,78.79,247.63,79,247.3Z" transform="translate(117.8 -50.11)"/><path class="cls-6" d="M67,262.77l0,.09a68.74,68.74,0,0,0,6.07,8.88c16.78,20.6,35,12.67,46.24,3.53h0A53.37,53.37,0,0,0,129.93,264l-63-1.35v0Z" transform="translate(117.8 -50.11)"/><path class="cls-6" d="M211,164.87s4.83,8.53-.39,15.63c4.19-4.92,12.79-7.94,19.15-2.73C229.46,177.41,219.52,165.71,211,164.87Z" transform="translate(117.8 -50.11)"/><path class="cls-6" d="M186.52,200.81c3.4.13,11.28,0,17.32-3.26a32.61,32.61,0,0,1-4-7.75c-.13-1,2.73-4.12,4.12-6.05-4.8-2.64-10.79-3.25-14.76-3.32a12.42,12.42,0,0,1-2.64,20.38Z" transform="translate(117.8 -50.11)"/><path class="cls-8" d="M203.92,183.75a16.68,16.68,0,0,1,3.11,2.17c-2.48,3.46-3.82,4-3.82,4a0,0,0,0,1,0,0l0,0,0,.05a42.51,42.51,0,0,0,3.69,5.4l-.37.31a16.29,16.29,0,0,1-2.75,1.84,32.61,32.61,0,0,1-4-7.75C199.67,188.83,202.53,185.68,203.92,183.75Z" transform="translate(117.8 -50.11)"/><path class="cls-8" d="M207,195.4l-.37.31a55,55,0,0,0,7.33,9.61,5.74,5.74,0,0,1,.73,7.78c8-1.68,20.08-15.19,20.4-15.56C228.22,203.09,217.16,207.91,207,195.4Z" transform="translate(117.8 -50.11)"/><path class="cls-11" d="M207,185.92c.68-1,1.45-2.16,2.31-3.63a10.17,10.17,0,0,1,.75-1.14q.25-.3.48-.6l0-.05c4.19-4.92,12.79-7.94,19.15-2.73h0c1,.79,12,12.44,11.72,12.93a32.67,32.67,0,0,1-6.43,6.82h0c-6.83,5.55-17.89,10.37-28.09-2.14a42.51,42.51,0,0,1-3.69-5.4l0-.05a.13.13,0,0,1,0,0,0,0,0,0,0,0,0S204.55,189.38,207,185.92Zm14.18,14.2c11.73-.36,18.41-10.63,12-14.5-3.24-2-5.79-6.15-11.12-6.15-8.39,0-14.62,10-14,11.77A13,13,0,0,0,221.21,200.12Z" transform="translate(117.8 -50.11)"/><path class="cls-8" d="M207,185.92c.68-1,1.45-2.16,2.31-3.63a10.17,10.17,0,0,1,.75-1.14q.25-.3.48-.6l0-.05c4.19-4.92,12.79-7.94,19.15-2.73h0c1,.79,12,12.44,11.72,12.93a32.67,32.67,0,0,1-6.43,6.82h0c-6.83,5.55-17.89,10.37-28.09-2.14a42.51,42.51,0,0,1-3.69-5.4l0-.05a.13.13,0,0,1,0,0,0,0,0,0,0,0,0S204.55,189.38,207,185.92Z" transform="translate(117.8 -50.11)"/><path class="cls-12" d="M210.57,180.55q-.25.3-.48.6Q210.34,180.85,210.57,180.55Z" transform="translate(117.8 -50.11)"/><path class="cls-6" d="M203.25,190l0,.05a42.51,42.51,0,0,0,3.69,5.4c10.2,12.51,21.26,7.69,28.09,2.14h0a32.67,32.67,0,0,0,6.43-6.82l-38.28-.82a0,0,0,0,1,0,0A.13.13,0,0,0,203.25,190Z" transform="translate(117.8 -50.11)"/><path class="cls-8" d="M1262.51,517.34l-4.44,31.81c0,7.72.24,10.08.39,14.1a3.26,3.26,0,0,0,3.26,3.13h13.89a3.26,3.26,0,0,0,3.17-3.47c-.46-6.67-2.35-16.33-2.11-17.8l7.6-25.24a29.05,29.05,0,0,0-.65-12.34l-8.15-29.32-21.72,30.11Z" transform="translate(117.8 -50.11)"/><path class="cls-8" d="M1376.29,516.84l-20.72,17.52a3.79,3.79,0,0,0-1.35,3l1.63,26.33a2.68,2.68,0,0,1-2.59,2.69h-34.59c-1,0-4.74-6.3-4.64-6.88h0a4.29,4.29,0,0,1,3.07-3.38l11.51-4.41a2.68,2.68,0,0,0,2-2.83s-3-17.39-3-18.33l1.52-19.67a2.7,2.7,0,0,1,1.13-2L1355,491.35a2.67,2.67,0,0,1,3.13,0l17.16,12.48a2.67,2.67,0,0,1,1.09,1.92l.81,8.79A2.7,2.7,0,0,1,1376.29,516.84Z" transform="translate(117.8 -50.11)"/><path class="cls-6" d="M1392.57,550.1h0c-1.61,3-10.92,7.21-10.92,7.21a3.45,3.45,0,0,0-2.4,2.77l0,.37c-.14.87,1.83,6.23,5.08,5.93l36.44-.06a1.72,1.72,0,0,0,1.55-1.87L1391.65,487c-6.23-10.17-3.17-21-56.86-43.25-8.67-3.6-81.94-19.63-81.94-19.63a34,34,0,0,0-12.07.64h0a14.55,14.55,0,0,0-10.71,10.35l-.19.73c-3.19,11.76,1.4,46.7,3.25,62.15.21,1.81-4.33,15-9.63,29.55-7.07,19.47-10.73,26.87-16.14,26.87-6,0-5.89,11.84-3.63,11.84h19.74a3.26,3.26,0,0,0,3.26-3.45s.81-1.34,1.09-1.77c7.39-11.18,24.62-35.07,31-43.72C1263.57,511,1271,488,1271,488a54.5,54.5,0,0,0,36.36,21.35c33.6,4.59,47.4-2.48,47.4-2.48S1393.27,548.8,1392.57,550.1Z" transform="translate(117.8 -50.11)"/><path class="cls-6" d="M1184,421.16c3.6,8.1,11.63,12.39,17.93,9.59s8.48-11.64,4.87-19.74-11.63-12.39-17.92-9.58S1180.34,413.07,1184,421.16Z" transform="translate(117.8 -50.11)"/><path class="cls-13" d="M1198.52,426.41c-3.73.68-8.15-2.4-10.27-7.16-2.4-5.39-1.17-11.39,2.68-13.1a5.49,5.49,0,0,1,1.25-.39c3.74-.68,8.15,2.4,10.27,7.17a13.06,13.06,0,0,1,.94,8.32,6.76,6.76,0,0,1-3.61,4.78,5,5,0,0,1-1.26.38Z" transform="translate(117.8 -50.11)"/><ellipse class="cls-6" cx="1259.44" cy="416.09" rx="16.05" ry="12.48" transform="translate(484.92 1347.34) rotate(-66)"/><path class="cls-13" d="M1256.27,426.41c3.73.68,8.15-2.4,10.27-7.16,2.39-5.39,1.17-11.39-2.68-13.1a5.49,5.49,0,0,0-1.25-.39c-3.74-.68-8.15,2.4-10.27,7.17a13.06,13.06,0,0,0-.94,8.32A6.76,6.76,0,0,0,1255,426a5,5,0,0,0,1.26.38Z" transform="translate(117.8 -50.11)"/><path class="cls-8" d="M1200.56,405.69a32.87,32.87,0,0,1,58.45,28,33.6,33.6,0,0,1-1.58,4.35l-.44.94a32.86,32.86,0,0,1-3.56,5.75h0l0,0a31.41,31.41,0,0,1-2.05,2.41l-6.87,8h0a21.34,21.34,0,0,1-34.75-.88h0l-5-5.83a32.86,32.86,0,0,1-4.52-5.33l0-.06h0a31,31,0,0,1-2.38-4.11l-.44-.94a33.6,33.6,0,0,1-1.58-4.35,33.06,33.06,0,0,1-1.25-9A32.67,32.67,0,0,1,1200.56,405.69Z" transform="translate(117.8 -50.11)"/><path class="cls-6" d="M1215,427.74a18.23,18.23,0,0,1,7.92-13.66,8,8,0,0,1,9,0,18.19,18.19,0,0,1,7.91,13.66,18.23,18.23,0,0,1-11.92,32h-1a18.23,18.23,0,0,1-11.93-32Z" transform="translate(117.8 -50.11)"/><path class="cls-6" d="M1235.11,430.8H1242A10.83,10.83,0,0,0,1252.83,420v-1.68A10.84,10.84,0,0,0,1242,407.45h-6.88a10.85,10.85,0,0,0-10.84,10.84V420A10.83,10.83,0,0,0,1235.11,430.8Z" transform="translate(117.8 -50.11)"/><path class="cls-6" d="M1212.79,430.8h6.89A10.83,10.83,0,0,0,1230.52,420v-1.68a10.84,10.84,0,0,0-10.84-10.84h-6.89A10.84,10.84,0,0,0,1202,418.29V420A10.83,10.83,0,0,0,1212.79,430.8Z" transform="translate(117.8 -50.11)"/><path class="cls-6" d="M1382.66,482.36c19.44-3.36,36.88-16.27,45-34.35,9.12-20.2,6-41.38-4.21-60.47-8.91-16.6-22.56-33.52-41.73-38.16-17.78-4.31-38.37,2.32-45.5,20.3-8.7,22,7.62,44.39,30.43,45.65,10,.55,10-15.07,0-15.62-18.42-1-23.58-26.32-6.53-34,16-7.18,32.23,4,41.59,16.5,11,14.69,19.41,33.22,14.48,51.77-4.78,18-19.69,30.17-37.72,33.29-9.89,1.7-5.7,16.76,4.15,15.06Z" transform="translate(117.8 -50.11)"/></g></g></svg>