<svg xmlns="http://www.w3.org/2000/svg" xmlns:xlink="http://www.w3.org/1999/xlink" viewBox="0 0 1447.5 529.08"><defs><style>.cls-1{fill:none;}.cls-2{clip-path:url(#clip-path);}.cls-3{fill:#f7f7f7;}.cls-4{fill:#fdf6e6;}.cls-5{fill:#a09f9f;}.cls-6{fill:#213039;}.cls-7{fill:#6b6a6a;}.cls-8{fill:#606060;}</style><clipPath id="clip-path" transform="translate(3.75 -50.11)"><rect class="cls-1" width="1440" height="579.19"/></clipPath></defs><g id="Capa_2" data-name="Capa 2"><g id="Arte"><g class="cls-2"><path class="cls-3" d="M99.5,149.5H233.6s-1-16.23-25.83-16.23c0,0-6.29-20.2-31.78-20.2-12,0-19.54,2-28.81,9.94C147.18,123,99.5,117.31,99.5,149.5Z" transform="translate(3.75 -50.11)"/><path class="cls-3" d="M1028.76,403c-11,5.95-28.71,5.95-39.67,0l-39-21.21c-11-5.95-28.71-5.95-39.67,0l-141.58,77c-11,6-28.72,6-39.67,0l-60.77-33c-10.95-6-28.71-6-39.66,0l-39.28,21.35c-11,6-28.72,6-39.67,0L355,341.21c-11-5.95-28.71-5.95-39.67,0l-62.63,34.05c-5.26,2.86-12.4,4.47-19.84,4.47L46.28,203.28c-16.79-11-49.59-4.51-49.59,9.76V543.69h0v15.42l1440,2V454.81Z" transform="translate(3.75 -50.11)"/><path class="cls-3" d="M647.52,567.22c-6.63,0-8.68,1.29-13.73,6.23s-9.42,2.13-11.57-.07c-2.34-2.4-4.67-6.33-11.31-6.37s-8.67,1.28-13.73,6.23-9.42,2.13-11.57-.07c-2.34-2.4-4.67-6.33-11.31-6.37h.51c-6.63,0-8.68,1.28-13.74,6.22s-9.42,2.13-11.56-.06c-2.34-2.4-4.67-6.34-11.31-6.37s-8.68,1.28-13.73,6.22-9.42,2.13-11.57-.07c-2.34-2.4-4.67-6.33-11.31-6.37H502c-6.64,0-8.68,1.29-13.74,6.23s-9.42,2.13-11.56-.07c-2.34-2.4-4.68-6.33-11.31-6.37s-8.68,1.28-13.74,6.23-9.42,2.13-11.56-.07c-2.34-2.4-4.17-6.33-10.81-6.37h0V558H647.55Z" transform="translate(3.75 -50.11)"/><path class="cls-3" d="M792.33,566.8h.5c-6.64,0-8.69,1.28-13.76,6.22s-9.43,2.13-11.58-.06c-2.34-2.4-4.68-6.34-11.32-6.37s-8.7,1.28-13.76,6.22-9.44,2.13-11.58-.07c-2.35-2.4-4.69-6.33-11.33-6.37h.41c-6.65,0-8.69,1.28-13.76,6.23s-9.43,2.13-11.58-.07c-2.34-2.4-4.68-6.33-11.33-6.37s-8.69,1.28-13.76,6.22-9.43,2.13-11.58-.06c-2.34-2.4-4.2-5-10.85-5.09l0-9.23H791.52" transform="translate(3.75 -50.11)"/><path class="cls-4" d="M1437.45,570.22c-6.65,0-8.7,1.29-13.76,6.23s-9.44,2.13-11.58-.07c-2.35-2.4-4.68-6.33-11.33-6.37s-8.69,1.28-13.76,6.23-9.44,2.13-11.58-.07c-2.35-2.4-4.68-6.33-11.33-6.37h.51c-6.65,0-8.69,1.28-13.76,6.22s-9.44,2.13-11.58-.06c-2.35-2.4-4.68-6.34-11.33-6.37s-8.69,1.28-13.76,6.22-9.44,2.13-11.58-.07c-2.34-2.4-4.68-6.33-11.33-6.37h.42c-6.65,0-8.7,1.28-13.77,6.23s-9.43,2.13-11.57-.07c-2.35-2.4-4.69-6.33-11.33-6.37s-8.7,1.28-13.76,6.22-9.44,2.13-11.58-.06c-2.35-2.4-4.18-6.33-10.83-6.37h0V561h218.6Z" transform="translate(3.75 -50.11)"/><path class="cls-4" d="M1219.89,570.22c-6.64,0-8.69,1.29-13.76,6.23s-9.43,2.13-11.58-.07c-2.34-2.4-4.68-6.33-11.33-6.37s-8.69,1.28-13.76,6.23-9.43,2.13-11.58-.07c-2.34-2.4-4.68-6.33-11.32-6.37h.5c-6.64,0-8.69,1.28-13.76,6.22s-9.43,2.13-11.58-.06c-2.34-2.4-4.68-6.34-11.32-6.37s-8.7,1.28-13.76,6.22-9.44,2.13-11.58-.07c-2.35-2.4-4.69-6.33-11.33-6.37h.41c-6.65,0-8.69,1.28-13.76,6.23s-9.43,2.13-11.58-.07c-2.34-2.4-4.68-6.33-11.33-6.37s-8.69,1.28-13.76,6.22-9.43,2.13-11.58-.06c-2.34-2.4-4.18-6.33-10.82-6.37l10.83-9,207.78,1Z" transform="translate(3.75 -50.11)"/><path class="cls-3" d="M1012.16,560.12a11,11,0,0,1-7.16,10.13c-2.31.9-4.26,2.53-7.15,5.24-5.26,4.94-9.8,2.13-12-.07-2.44-2.4-4.87-6.33-11.77-6.37s-9,1.28-14.29,6.22-9.79,2.13-12-.07c-2.43-2.4-4.86-6.33-11.76-6.37h.52c-6.9,0-9,1.28-14.28,6.22s-9.8,2.13-12-.07c-2.43-2.4-4.86-6.33-11.76-6.37s-9,1.28-14.29,6.22-9.8,2.13-12-.07c-2.44-2.4-4.86-6.33-11.77-6.37h.43c-6.9,0-9,1.28-14.28,6.22s-9.8,2.13-12-.07c-2.43-2.4-4.86-6.33-11.76-6.37s-9,1.28-14.29,6.22-9.8,2.13-12-.07c-2.44-2.4-4.34-6.33-11.25-6.37v-8l227,0Z" transform="translate(3.75 -50.11)"/><path class="cls-4" d="M1443.75,298.33H1206.49c-28.11,0-55.08,7.28-75,20.23h0c-19.88,12.95-31,30.52-31,48.83V561.61h343.26Z" transform="translate(3.75 -50.11)"/><path class="cls-3" d="M1238.56,176.48h60.82s-.45-7.35-11.72-7.35c0,0-2.85-9.16-14.41-9.16-5.43,0-8.86.9-13.07,4.5C1260.18,164.47,1238.56,161.89,1238.56,176.48Z" transform="translate(3.75 -50.11)"/><path class="cls-3" d="M249.15,75.3H156.4s.68-11.22,17.86-11.22c0,0,4.35-14,22-14,8.27,0,13.51,1.38,19.92,6.87C216.17,57,249.15,53,249.15,75.3Z" transform="translate(3.75 -50.11)"/><path class="cls-5" d="M1076.68,559.11l57.73-88.76c7-11.17,24.7-18.57,44.5-18.57h62.65c12.6,0,24.7-3,33.61-8.4h0c8.92-5.37,21-8.39,33.62-8.39h135V559.11Z" transform="translate(3.75 -50.11)"/><path class="cls-4" d="M214.84,565.94c-6.65,0-8.7,1.28-13.76,6.23s-9.44,2.12-11.58-.07c-2.35-2.4-4.68-6.33-11.33-6.37S169.48,567,164.41,572s-9.44,2.13-11.58-.06c-2.35-2.4-4.68-6.34-11.33-6.37l.51,0c-6.65,0-8.69,1.29-13.76,6.23s-9.44,2.13-11.58-.07c-2.35-2.4-4.68-6.33-11.33-6.37s-8.69,1.29-13.76,6.23-9.44,2.13-11.58-.07c-2.34-2.4-4.68-6.33-11.33-6.37h.42c-6.65,0-8.7,1.28-13.76,6.22s-9.44,2.13-11.58-.06c-2.35-2.4-4.69-6.34-11.33-6.37s-8.7,1.28-13.76,6.22S9.22,573.22,7.08,571c-2.35-2.41-4.18-6.34-10.83-6.38h0v-7.93h218.6Z" transform="translate(3.75 -50.11)"/><path class="cls-4" d="M429.25,565.94c-6.66,0-8.7,1.29-13.78,6.23s-9.45,2.13-11.6-.07c-2.35-2.4-4.69-6.33-11.34-6.37S383.82,567,378.74,572s-9.45,2.12-11.59-.07c-2.35-2.4-4.69-6.33-11.35-6.37h.51c-6.66,0-8.71,1.28-13.78,6.22s-9.45,2.13-11.6-.07c-2.35-2.4-4.69-6.33-11.34-6.37s-8.71,1.29-13.79,6.23-9.45,2.13-11.59-.07c-2.35-2.4-4.69-6.33-11.35-6.37h.41c-6.65,0-8.7,1.28-13.78,6.22s-9.45,2.13-11.59-.06c-2.35-2.4-4.69-6.33-11.35-6.37s-8.71,1.28-13.78,6.22-9.45,2.13-11.6-.06c-2.35-2.41-4.18-6.34-10.84-6.38h0v-7.93H429.27Z" transform="translate(3.75 -50.11)"/><path class="cls-4" d="M525.12,573c-5.08,4.94-9.45,2.13-11.6-.07-2.35-2.4-4.69-6.33-11.35-6.37s-8.7,1.28-13.78,6.23-9.45,2.13-11.59-.07c-2.35-2.4-4.69-6.33-11.35-6.37H466c-6.66,0-8.71,1.28-13.78,6.22s-9.45,2.13-11.6-.06c-2.35-2.4-4.69-6.34-11.35-6.37s-8.7,1.28-13.78,6.22-9.45,2.13-11.6-.07c-2.34-2.4-4.68-6.33-11.34-6.37h.41c-6.65,0-8.7,1.28-13.78,6.23s-9.45,2.13-11.6-.07c-2.34-2.4-4.68-6.33-11.34-6.37s-8.71,1.28-13.78,6.22-9.45,2.13-11.6-.06c-2.35-2.4-4.19-6.34-10.84-6.37v-8H519.86S530.19,568,525.12,573Z" transform="translate(3.75 -50.11)"/><path class="cls-4" d="M-3.31,509.9H423.16c3.7,0,6.7,3.93,6.7,8.78h0c0,4.85,3,8.78,6.7,8.78H488a30.6,30.6,0,0,1,13.43,3.15A33.32,33.32,0,0,1,518,549.31l4.52,12.3H-3.31Z" transform="translate(3.75 -50.11)"/></g><polygon class="cls-5" points="1300.87 250.41 1334.47 244.11 1305.89 225.72 1339.39 232.49 1320.18 204.8 1348.48 223.59 1341.57 190.82 1360.36 218.78 1366.79 185.91 1373.22 218.78 1392.02 190.82 1385.11 223.59 1413.41 204.8 1394.2 232.49 1427.7 225.72 1399.12 244.11 1432.71 250.41 1300.87 250.41"/><path class="cls-6" d="M1241.65,222.24l10.09-12.4a9.27,9.27,0,0,1,15.44,1.61h0a9.27,9.27,0,0,1-7.77,13.5l-16,.82Z" transform="translate(3.75 -50.11)"/><path class="cls-6" d="M1212.91,222.24l-10.08-12.4a9.28,9.28,0,0,0-15.45,1.61h0a9.28,9.28,0,0,0,7.78,13.5l16,.82Z" transform="translate(3.75 -50.11)"/><path class="cls-6" d="M1342.65,408.52,1317.78,451a12.24,12.24,0,0,1-10.55,6H1274a1.77,1.77,0,0,1-1.15-3.11c.56-.48,1.18-1,1.85-1.45a14.54,14.54,0,0,0,5.92-8.9l8.24-40.42Z" transform="translate(3.75 -50.11)"/><path class="cls-6" d="M1196.55,302.06s-2.9,38.79,3.94,78.88c0,0-21.83,48.24-24.44,63.89,0,0-8.06,3.06-12,8a2.58,2.58,0,0,0,2,4.17h19.47a15.91,15.91,0,0,0,11.5-4.91c12.78-13.35,47.53-50.19,53.62-62.38Z" transform="translate(3.75 -50.11)"/><path class="cls-7" d="M1196.55,249.29v59.12a100.5,100.5,0,0,0,84.2,99.19c33.8,5.54,71.51,9.53,100.39,6.63l-15-118.92s-64.6-16.74-97.88-26.63l-7-27Z" transform="translate(3.75 -50.11)"/><path class="cls-5" d="M1329,413.77c-16.09-1.37-32.61-3.6-48.29-6.17a100.43,100.43,0,0,1-75.49-58.25,21.77,21.77,0,0,1,8.31-27.31h0a55,55,0,0,1,62,2.46l21.24,15.79a79.89,79.89,0,0,1,32.21,64.1Z" transform="translate(3.75 -50.11)"/><path class="cls-7" d="M1261.22,288.93h0a31.37,31.37,0,0,0-28.38,33.16c.94,15.62,3.67,35.12,10.61,53.31l-14,50.73a26,26,0,0,0,.54,15.52l1.67,4.72a7,7,0,0,0,9.53,4h0a20.74,20.74,0,0,0,11.8-16l.88-6.42L1286,396.2a28.91,28.91,0,0,0,8.58-20.57c0-13.21-.4-35.82-2.57-61.11A28.25,28.25,0,0,0,1261.22,288.93Z" transform="translate(3.75 -50.11)"/><path class="cls-7" d="M1413.82,355.74l-3.48,43.93h0a17.18,17.18,0,0,1,2.54,18.69l-15.15,31.75a12.14,12.14,0,0,1-11,6.92h-36a1.85,1.85,0,0,1-1.18-3.27c.94-.76,1.92-1.51,2.82-2.17a9.17,9.17,0,0,0,3.73-6.46l2.43-23.26s-34.64-26.08-18.8-133.48l31.58,8A56.61,56.61,0,0,1,1413.82,355.74Z" transform="translate(3.75 -50.11)"/><path class="cls-7" d="M1193.39,241.71c1.24-4,2.72-9.16,4-14.57,4.41-19.2,19.3-23.9,29.94-23.9s25.53,4.7,30,23.9c1.24,5.41,2.73,10.58,4,14.57a17.34,17.34,0,0,1-4.74,17.93c-6.29,5.84-15.45,9-29.17,9s-22.87-3.2-29.16-9A17.34,17.34,0,0,1,1193.39,241.71Z" transform="translate(3.75 -50.11)"/><path class="cls-4" d="M1227.3,231.83c12.46,0,12.91,14.85,12.91,21.16,0,7.48-6.87,9-12.91,9s-12.91-1.48-12.91-9C1214.4,246.68,1214.84,231.83,1227.3,231.83Z" transform="translate(3.75 -50.11)"/><path class="cls-4" d="M1221.82,234.18c-5.85,5.85-13-.91-16-3.87-3.52-3.51-1-7.43,1.86-10.26s6.75-5.38,10.26-1.86C1220.91,221.15,1227.67,228.33,1221.82,234.18Z" transform="translate(3.75 -50.11)"/><path class="cls-4" d="M1232.51,234.18c5.85,5.85,13-.91,16-3.87,3.52-3.51,1-7.43-1.85-10.26s-6.76-5.38-10.27-1.86C1233.43,221.15,1226.66,228.33,1232.51,234.18Z" transform="translate(3.75 -50.11)"/><path class="cls-6" d="M1227.3,237.11a14.29,14.29,0,0,1,6,1.52,1,1,0,0,1,.37,1.45c-1.07,1.5-3.46,4.31-6.38,4.31s-5.3-2.81-6.37-4.31a1,1,0,0,1,.37-1.45A14.2,14.2,0,0,1,1227.3,237.11Z" transform="translate(3.75 -50.11)"/><path class="cls-8" d="M163.94,205.92a112.7,112.7,0,0,1,0,225.39" transform="translate(3.75 -50.11)"/><path class="cls-5" d="M163.94,431.31a112.7,112.7,0,1,1,0-225.39" transform="translate(3.75 -50.11)"/><polygon class="cls-8" points="167.69 268.5 297.33 460.71 145.36 460.71 64.01 461.55 167.69 268.5"/><path class="cls-5" d="M205.05,319.84H311.5S310.71,307,291,307c0,0-5-16-25.23-16-9.5,0-15.51,1.57-22.87,7.88C242.9,298.81,205.05,294.29,205.05,319.84Z" transform="translate(3.75 -50.11)"/><path class="cls-5" d="M47.63,167h70.25s-.52-10.08-13.53-10.08c0,0-3.29-12.54-16.65-12.54-6.27,0-10.23,1.23-15.09,6.17C72.61,150.53,47.63,147,47.63,167Z" transform="translate(3.75 -50.11)"/><path class="cls-3" d="M163.94,318.62s-25.75,69.24-4.65,90.34c31.08,31.08,58.89,6.22,68.56,43.67s50.29,35.28,50.29,35.28Z" transform="translate(3.75 -50.11)"/><polygon class="cls-5" points="10.12 462.39 36.76 457.4 14.1 442.81 40.67 448.18 25.43 426.21 47.88 441.12 42.4 415.12 57.3 437.3 62.41 411.23 67.5 437.3 82.42 415.12 76.93 441.12 99.38 426.21 84.14 448.18 110.71 442.81 88.05 457.4 114.69 462.39 10.12 462.39"/><polygon class="cls-5" points="227.17 491.57 260.76 485.28 232.19 466.89 265.68 473.65 246.47 445.96 274.78 464.75 267.86 431.98 286.66 459.94 293.09 427.07 299.52 459.94 318.31 431.98 311.4 464.75 339.7 445.96 320.49 473.65 353.99 466.89 325.41 485.28 359.01 491.57 227.17 491.57"/><path class="cls-5" d="M1146.66,113.91h70.25s-.52-10.08-13.53-10.08c0,0-3.29-12.54-16.65-12.54-6.27,0-10.24,1.23-15.09,6.17C1171.64,97.46,1146.66,93.92,1146.66,113.91Z" transform="translate(3.75 -50.11)"/><path class="cls-7" d="M1393.07,176.82h-112s.83-16.06,21.57-16.06c0,0,5.25-20,26.54-20,10,0,16.31,2,24,9.83C1353.26,150.6,1393.07,145,1393.07,176.82Z" transform="translate(3.75 -50.11)"/></g></g></svg>