<svg xmlns="http://www.w3.org/2000/svg" xmlns:xlink="http://www.w3.org/1999/xlink" viewBox="0 0 1441.22 532.44"><defs><style>.cls-1{fill:none;}.cls-2{clip-path:url(#clip-path);}.cls-3{fill:#f7f7f7;}.cls-4{fill:#a09f9f;}.cls-5{clip-path:url(#clip-path-2);}.cls-6{fill:#6b6a6a;}.cls-7{clip-path:url(#clip-path-3);}.cls-8{fill:#fdf6e6;}.cls-9{clip-path:url(#clip-path-4);}.cls-10{fill:#fbf5e7;}.cls-11{fill:#9f9e9e;}.cls-12{fill:#606060;}.cls-13{fill:#dfdfdf;}.cls-14{fill:#0c213c;}.cls-15{clip-path:url(#clip-path-5);}.cls-16{clip-path:url(#clip-path-6);}.cls-17{clip-path:url(#clip-path-7);}.cls-18{fill:#444;}</style><clipPath id="clip-path" transform="translate(3.75 -50.11)"><rect class="cls-1" width="1440" height="579.19"/></clipPath><clipPath id="clip-path-2" transform="translate(3.75 -50.11)"><polygon class="cls-1" points="1024.18 358.09 1460.44 358.09 1460.76 527.82 1024.18 527.74 1024.18 358.09"/></clipPath><clipPath id="clip-path-3" transform="translate(3.75 -50.11)"><rect class="cls-1" x="288.02" y="394.96" width="211.81" height="114.19"/></clipPath><clipPath id="clip-path-4" transform="translate(3.75 -50.11)"><rect class="cls-1" x="1.38" y="390.03" width="240.5" height="129.66"/></clipPath><clipPath id="clip-path-5" transform="translate(3.75 -50.11)"><rect class="cls-1" x="6.29" y="419.34" width="195.75" height="105.53" transform="translate(208.33 944.22) rotate(-180)"/></clipPath><clipPath id="clip-path-6" transform="translate(3.75 -50.11)"><rect class="cls-1" x="1235.18" y="428.41" width="195.75" height="105.53" transform="translate(2666.11 962.36) rotate(-180)"/></clipPath><clipPath id="clip-path-7" transform="translate(3.75 -50.11)"><rect class="cls-1" x="996.1" y="429.35" width="225.13" height="121.37" transform="translate(2217.33 980.07) rotate(-180)"/></clipPath></defs><g id="Capa_2" data-name="Capa 2"><g id="Arte"><g class="cls-2"><path class="cls-3" d="M99.5,149.5H233.6s-1-16.23-25.83-16.23c0,0-6.29-20.2-31.78-20.2-12,0-19.54,2-28.81,9.94C147.18,123,99.5,117.31,99.5,149.5Z" transform="translate(3.75 -50.11)"/><path class="cls-3" d="M1028.76,403c-11,5.95-28.71,5.95-39.67,0l-39-21.21c-11-5.95-28.71-5.95-39.67,0l-141.58,77c-11,6-28.72,6-39.67,0l-60.77-33c-10.95-6-28.71-6-39.66,0l-39.28,21.35c-11,6-28.72,6-39.67,0L355,341.21c-11-5.95-28.71-5.95-39.67,0l-62.63,34.05c-5.26,2.86-12.4,4.47-19.84,4.47L46.28,203.28c-16.79-11-49.59-4.51-49.59,9.76V543.69h0v15.42l1440,2V454.81Z" transform="translate(3.75 -50.11)"/><path class="cls-3" d="M647.52,567.22c-6.63,0-8.68,1.29-13.73,6.23s-9.42,2.13-11.57-.07c-2.34-2.4-4.67-6.33-11.31-6.37s-8.67,1.28-13.73,6.23-9.42,2.13-11.57-.07c-2.34-2.4-4.67-6.33-11.31-6.37h.51c-6.63,0-8.68,1.28-13.74,6.22s-9.42,2.13-11.56-.06c-2.34-2.4-4.67-6.34-11.31-6.37s-8.68,1.28-13.73,6.22-9.42,2.13-11.57-.07c-2.34-2.4-4.67-6.33-11.31-6.37H502c-6.64,0-8.68,1.29-13.74,6.23s-9.42,2.13-11.56-.07c-2.34-2.4-4.68-6.33-11.31-6.37s-8.68,1.28-13.74,6.23-9.42,2.13-11.56-.07c-2.34-2.4-4.17-6.33-10.81-6.37h0V558H647.55Z" transform="translate(3.75 -50.11)"/><path class="cls-3" d="M792.33,566.8h.5c-6.64,0-8.69,1.28-13.76,6.22s-9.43,2.13-11.58-.06c-2.34-2.4-4.68-6.34-11.32-6.37s-8.7,1.28-13.76,6.22-9.44,2.13-11.58-.07c-2.35-2.4-4.69-6.33-11.33-6.37h.41c-6.65,0-8.69,1.28-13.76,6.23s-9.43,2.13-11.58-.07c-2.34-2.4-4.68-6.33-11.33-6.37s-8.69,1.28-13.76,6.22-9.43,2.13-11.58-.06c-2.34-2.4-4.2-5-10.85-5.09l0-9.23H791.52" transform="translate(3.75 -50.11)"/><path class="cls-3" d="M1437.45,570.22c-6.65,0-8.7,1.29-13.76,6.23s-9.44,2.13-11.58-.07c-2.35-2.4-4.68-6.33-11.33-6.37s-8.69,1.28-13.76,6.23-9.44,2.13-11.58-.07c-2.35-2.4-4.68-6.33-11.33-6.37h.51c-6.65,0-8.69,1.28-13.76,6.22s-9.44,2.13-11.58-.06c-2.35-2.4-4.68-6.34-11.33-6.37s-8.69,1.28-13.76,6.22-9.44,2.13-11.58-.07c-2.34-2.4-4.68-6.33-11.33-6.37h.42c-6.65,0-8.7,1.28-13.77,6.23s-9.43,2.13-11.57-.07c-2.35-2.4-4.69-6.33-11.33-6.37s-8.7,1.28-13.76,6.22-9.44,2.13-11.58-.06c-2.35-2.4-4.18-6.33-10.83-6.37h0V561h218.6Z" transform="translate(3.75 -50.11)"/><path class="cls-3" d="M1219.89,570.22c-6.64,0-8.69,1.29-13.76,6.23s-9.43,2.13-11.58-.07c-2.34-2.4-4.68-6.33-11.33-6.37s-8.69,1.28-13.76,6.23-9.43,2.13-11.58-.07c-2.34-2.4-4.68-6.33-11.32-6.37h.5c-6.64,0-8.69,1.28-13.76,6.22s-9.43,2.13-11.58-.06c-2.34-2.4-4.68-6.34-11.32-6.37s-8.7,1.28-13.76,6.22-9.44,2.13-11.58-.07c-2.35-2.4-4.69-6.33-11.33-6.37h.41c-6.65,0-8.69,1.28-13.76,6.23s-9.43,2.13-11.58-.07c-2.34-2.4-4.68-6.33-11.33-6.37s-8.69,1.28-13.76,6.22-9.43,2.13-11.58-.06c-2.34-2.4-4.18-6.33-10.82-6.37l10.83-9,207.78,1Z" transform="translate(3.75 -50.11)"/><path class="cls-3" d="M1012.16,560.12a11,11,0,0,1-7.16,10.13c-2.31.9-4.26,2.53-7.15,5.24-5.26,4.94-9.8,2.13-12-.07-2.44-2.4-4.87-6.33-11.77-6.37s-9,1.28-14.29,6.22-9.79,2.13-12-.07c-2.43-2.4-4.86-6.33-11.76-6.37h.52c-6.9,0-9,1.28-14.28,6.22s-9.8,2.13-12-.07c-2.43-2.4-4.86-6.33-11.76-6.37s-9,1.28-14.29,6.22-9.8,2.13-12-.07c-2.44-2.4-4.86-6.33-11.77-6.37h.43c-6.9,0-9,1.28-14.28,6.22s-9.8,2.13-12-.07c-2.43-2.4-4.86-6.33-11.76-6.37s-9,1.28-14.29,6.22-9.8,2.13-12-.07c-2.44-2.4-4.34-6.33-11.25-6.37v-8l227,0Z" transform="translate(3.75 -50.11)"/><path class="cls-3" d="M249.15,75.3H156.4s.68-11.22,17.86-11.22c0,0,4.35-14,22-14,8.27,0,13.51,1.38,19.92,6.87C216.17,57,249.15,53,249.15,75.3Z" transform="translate(3.75 -50.11)"/><path class="cls-4" d="M214.84,565.94c-6.65,0-8.7,1.28-13.76,6.23s-9.44,2.12-11.58-.07c-2.35-2.4-4.68-6.33-11.33-6.37S169.48,567,164.41,572s-9.44,2.13-11.58-.06c-2.35-2.4-4.68-6.34-11.33-6.37l.51,0c-6.65,0-8.69,1.29-13.76,6.23s-9.44,2.13-11.58-.07c-2.35-2.4-4.68-6.33-11.33-6.37s-8.69,1.29-13.76,6.23-9.44,2.13-11.58-.07c-2.34-2.4-4.68-6.33-11.33-6.37h.42c-6.65,0-8.7,1.28-13.76,6.22s-9.44,2.13-11.58-.06c-2.35-2.4-4.69-6.34-11.33-6.37s-8.7,1.28-13.76,6.22S9.22,573.22,7.08,571c-2.35-2.41-4.18-6.34-10.83-6.38h0v-7.93h218.6Z" transform="translate(3.75 -50.11)"/><path class="cls-4" d="M429.25,565.94c-6.66,0-8.71,1.29-13.78,6.23s-9.45,2.13-11.6-.07c-2.35-2.4-4.69-6.33-11.34-6.37S383.82,567,378.74,572s-9.45,2.12-11.59-.07c-2.35-2.4-4.69-6.33-11.35-6.37h.51c-6.66,0-8.71,1.28-13.78,6.22s-9.45,2.13-11.6-.07c-2.35-2.4-4.69-6.33-11.35-6.37s-8.7,1.29-13.78,6.23-9.45,2.13-11.59-.07c-2.35-2.4-4.69-6.33-11.35-6.37h.41c-6.65,0-8.7,1.28-13.78,6.22s-9.45,2.13-11.59-.06c-2.35-2.4-4.69-6.33-11.35-6.37s-8.71,1.28-13.78,6.22-9.45,2.13-11.6-.06c-2.35-2.41-4.18-6.34-10.84-6.38h0v-7.93H429.27Z" transform="translate(3.75 -50.11)"/><path class="cls-4" d="M525.12,573c-5.08,4.94-9.45,2.13-11.6-.07-2.35-2.4-4.69-6.33-11.35-6.37s-8.7,1.28-13.78,6.23-9.45,2.13-11.59-.07c-2.35-2.4-4.69-6.33-11.35-6.37H466c-6.66,0-8.71,1.28-13.78,6.22s-9.45,2.13-11.6-.06c-2.35-2.4-4.69-6.34-11.35-6.37s-8.7,1.28-13.78,6.22-9.45,2.13-11.6-.07c-2.34-2.4-4.68-6.33-11.34-6.37h.41c-6.65,0-8.7,1.28-13.78,6.23s-9.45,2.13-11.6-.07c-2.34-2.4-4.68-6.33-11.34-6.37s-8.71,1.28-13.78,6.22-9.45,2.13-11.6-.06c-2.35-2.4-4.19-6.34-10.84-6.37v-8H519.86S530.19,568,525.12,573Z" transform="translate(3.75 -50.11)"/><path class="cls-4" d="M-3.31,509.9H423.16c3.7,0,6.7,3.93,6.7,8.78h0c0,4.85,3,8.78,6.7,8.78H488a30.6,30.6,0,0,1,13.43,3.15A33.32,33.32,0,0,1,518,549.31l4.52,12.3H-3.31Z" transform="translate(3.75 -50.11)"/></g><path class="cls-4" d="M1218.66,570.23c6.65,0,8.69,1.28,13.76,6.22s9.43,2.13,11.58-.06c2.34-2.41,4.68-6.34,11.33-6.38s8.69,1.29,13.76,6.23,9.43,2.13,11.58-.07c2.34-2.4,4.68-6.33,11.33-6.37h-.51c6.64,0,8.69,1.28,13.76,6.23s9.43,2.13,11.58-.07c2.34-2.4,4.68-6.33,11.33-6.37s8.69,1.28,13.76,6.22,9.43,2.13,11.58-.06c2.34-2.4,4.68-6.33,11.32-6.37h-.41c6.65,0,8.69,1.28,13.76,6.22s9.44,2.13,11.58-.07c2.34-2.4,4.68-6.33,11.33-6.37s8.69,1.29,13.76,6.23,9.43,2.13,11.58-.07c2.34-2.4,4.18-6.33,10.82-6.37h0V561h-218.6Z" transform="translate(3.75 -50.11)"/><path class="cls-4" d="M1004.24,570.23c6.66,0,8.71,1.28,13.79,6.22s9.45,2.13,11.59-.06c2.35-2.4,4.69-6.34,11.35-6.37s8.71,1.28,13.78,6.22,9.45,2.13,11.6-.07c2.35-2.4,4.69-6.33,11.34-6.37h-.5c6.65,0,8.7,1.29,13.78,6.23s9.45,2.13,11.59-.07c2.35-2.4,4.69-6.33,11.35-6.37s8.71,1.28,13.78,6.23,9.45,2.12,11.6-.07c2.35-2.4,4.69-6.33,11.35-6.37h-.42c6.66,0,8.71,1.28,13.78,6.22s9.45,2.13,11.6-.07c2.35-2.4,4.69-6.33,11.35-6.37s8.7,1.29,13.78,6.23,9.45,2.13,11.59-.07c2.35-2.4,4.19-6.33,10.85-6.37h0V561H1004.22Z" transform="translate(3.75 -50.11)"/><path class="cls-4" d="M908.38,577.24c5.07,4.94,9.45,2.12,11.59-.07,2.35-2.4,4.69-6.33,11.35-6.37S940,572.08,945.1,577s9.45,2.13,11.6-.06c2.35-2.4,4.69-6.34,11.35-6.37l-.51,0c6.65,0,8.7,1.29,13.78,6.23s9.45,2.13,11.6-.07c2.34-2.4,4.68-6.33,11.34-6.37s8.71,1.28,13.78,6.23,9.45,2.13,11.6-.07c2.35-2.4,4.69-6.33,11.35-6.37h-.42c6.66,0,8.71,1.28,13.78,6.22s9.45,2.13,11.6-.06c2.35-2.41,4.69-6.34,11.35-6.38s8.7,1.29,13.78,6.23,9.45,2.13,11.6-.07c2.34-2.4,4.18-6.33,10.84-6.37h0v-7.93H913.64S903.3,572.29,908.38,577.24Z" transform="translate(3.75 -50.11)"/><path class="cls-4" d="M1436.81,514.19H1010.34c-3.7,0-6.7,3.93-6.7,8.78h0c0,4.85-3,8.78-6.7,8.78H945.51a30.73,30.73,0,0,0-13.43,3.14,33.41,33.41,0,0,0-16.54,18.71L911,565.9h525.78Z" transform="translate(3.75 -50.11)"/><g class="cls-5"><path class="cls-6" d="M1292.84,446.34l-72.12.05-58.78-38.47h-25l-29.75-23.54-29.76,23.54-53.19-44-33.39,26.28-24.09-13.29-18.13,13.74V530h426.71l0-2.36a83.19,83.19,0,0,0-82.46-81.27Z" transform="translate(3.75 -50.11)"/></g><g class="cls-7"><path class="cls-6" d="M420,487.73h-4.17c0-.13,0-.25,0-.39a17.26,17.26,0,0,0-17.25-17.25l-60.49-.2a17.26,17.26,0,0,0-17.26,17.26c0,.14,0,.28,0,.41l-11.91,0A17.26,17.26,0,0,0,309,522h0a17.26,17.26,0,0,0,17.25,16.86l75.76.2a17.26,17.26,0,0,0,17.24-16.86h.8a17.26,17.26,0,1,0,0-34.51Z" transform="translate(3.75 -50.11)"/></g><path class="cls-4" d="M1290.45,223.72a31.64,31.64,0,0,0-5.42,17.75v33.07h-2.48L1262,264a27.21,27.21,0,0,0,0,34.21l20.54-10.59H1285v33.07a31.61,31.61,0,0,0,5.41,17.75l3.35,4.15a32.34,32.34,0,0,0,5.45,4.59l3.35,1.93a31,31,0,0,0,5.35,2.1l3.34.77a31.51,31.51,0,0,0,5.53.49V285.14l19.13-.46a4.81,4.81,0,0,0-4.42-4.79,8.11,8.11,0,0,0-7.8-5.89h-6.91V209.7a31.51,31.51,0,0,0-5.53.49l-3.34.77a31,31,0,0,0-5.35,2.1l-3.34,1.93a32,32,0,0,0-5.46,4.59Z" transform="translate(3.75 -50.11)"/><path class="cls-8" d="M1167.94,130.68a57.6,57.6,0,0,1,23.34-44.05,57.72,57.72,0,1,0,34,104.1c-.65,0-1.3,0-2,0A57.73,57.73,0,0,1,1167.94,130.68Z" transform="translate(3.75 -50.11)"/><g class="cls-9"><path class="cls-6" d="M151.26,495.37h-4.74c0-.14,0-.29,0-.44a19.59,19.59,0,0,0-19.59-19.59l-68.68-.23a19.61,19.61,0,0,0-19.6,19.6c0,.16,0,.31,0,.47l-13.53,0a19.59,19.59,0,0,0,0,39.18h0a19.59,19.59,0,0,0,19.58,19.14l86,.23a19.59,19.59,0,0,0,19.58-19.15h.91a19.59,19.59,0,1,0,0-39.18Z" transform="translate(3.75 -50.11)"/></g><rect class="cls-10" x="89.81" y="280.84" width="0.62" height="28.59"/><rect class="cls-10" x="81.32" y="331.58" width="0.62" height="28.59" transform="translate(-82.99 -17.2) rotate(-15)"/><rect class="cls-10" x="76.9" y="333.41" width="0.62" height="28.59" transform="translate(-159.76 35.07) rotate(-30)"/><rect class="cls-10" x="73.1" y="336.32" width="0.62" height="28.59" transform="translate(-222.68 104.49) rotate(-45)"/><rect class="cls-10" x="70.18" y="340.12" width="0.62" height="28.59" transform="translate(-267.94 188.15) rotate(-60)"/><rect class="cls-10" x="68.35" y="344.54" width="0.62" height="28.59" transform="translate(-291.97 282.18) rotate(-75)"/><rect class="cls-10" x="87.96" y="354.11" width="28.59" height="0.62" transform="translate(-159.74 48.47) rotate(-29.99)"/><rect class="cls-10" x="89.96" y="359.21" width="28.59" height="0.62" transform="translate(-73.32 -18.07) rotate(-12.8)"/><rect class="cls-10" x="85.04" y="350.31" width="28.59" height="0.62" transform="translate(-215.08 122.83) rotate(-45)"/><rect class="cls-10" x="81.25" y="347.39" width="28.59" height="0.62" transform="translate(-249.61 206.52) rotate(-60.01)"/><rect class="cls-10" x="76.82" y="345.56" width="28.59" height="0.62" transform="translate(-262.8 294.26) rotate(-75)"/><circle class="cls-11" cx="90.27" cy="312.84" r="5.94"/><path class="cls-6" d="M86.52,394.27A65.06,65.06,0,0,0,142.18,363H30.87A65.06,65.06,0,0,0,86.52,394.27Z" transform="translate(3.75 -50.11)"/><path class="cls-6" d="M83.72,329.41a2.66,2.66,0,1,1,2.65,2.65A2.66,2.66,0,0,1,83.72,329.41Z" transform="translate(3.75 -50.11)"/><path class="cls-6" d="M92.16,332.06a2.66,2.66,0,1,1,2.66,2.66A2.66,2.66,0,0,1,92.16,332.06Z" transform="translate(3.75 -50.11)"/><path class="cls-6" d="M100,335.32a2.66,2.66,0,1,1,2.66,2.66A2.66,2.66,0,0,1,100,335.32Z" transform="translate(3.75 -50.11)"/><path class="cls-6" d="M106.79,340.51a2.66,2.66,0,1,1,2.66,2.66A2.66,2.66,0,0,1,106.79,340.51Z" transform="translate(3.75 -50.11)"/><path class="cls-6" d="M112,347.27a2.66,2.66,0,1,1,2.66,2.65A2.66,2.66,0,0,1,112,347.27Z" transform="translate(3.75 -50.11)"/><path class="cls-6" d="M115.54,356.35A2.66,2.66,0,1,1,118.2,359,2.66,2.66,0,0,1,115.54,356.35Z" transform="translate(3.75 -50.11)"/><path class="cls-6" d="M75.27,332.06a2.66,2.66,0,1,1,2.66,2.66A2.66,2.66,0,0,1,75.27,332.06Z" transform="translate(3.75 -50.11)"/><path class="cls-6" d="M67.4,335.32A2.66,2.66,0,1,1,70.06,338,2.66,2.66,0,0,1,67.4,335.32Z" transform="translate(3.75 -50.11)"/><path class="cls-6" d="M60.64,340.51a2.66,2.66,0,1,1,2.66,2.66A2.66,2.66,0,0,1,60.64,340.51Z" transform="translate(3.75 -50.11)"/><path class="cls-6" d="M55.46,347.27a2.66,2.66,0,1,1,2.65,2.66A2.66,2.66,0,0,1,55.46,347.27Z" transform="translate(3.75 -50.11)"/><path class="cls-6" d="M52.2,355.14a2.66,2.66,0,1,1,2.65,2.66A2.66,2.66,0,0,1,52.2,355.14Z" transform="translate(3.75 -50.11)"/><polyline class="cls-12" points="87.99 338.03 87.98 387.4 92.55 387.4 92.56 338.93"/><path class="cls-13" d="M105.13,403.07A20.92,20.92,0,0,0,84.21,424h0v6.6l39.52-27.52Z" transform="translate(3.75 -50.11)"/><path class="cls-12" d="M84.21,430.59l0,81.78h4.57l0-78.81v-3h14a20.94,20.94,0,0,0,5.85-.83,18.55,18.55,0,0,0,1.82-.62,20.91,20.91,0,0,0,2.3-1.07A20.71,20.71,0,0,0,119,423a20.81,20.81,0,0,0,4.78-13.31v-6.6Z" transform="translate(3.75 -50.11)"/><path class="cls-13" d="M85.33,419a19.89,19.89,0,0,0-19.89-19.89H47.76l37.57,26.17Z" transform="translate(3.75 -50.11)"/><path class="cls-12" d="M84.35,424.55,47.76,399.06v6.12a19.2,19.2,0,0,0,5.35,13.36A18.67,18.67,0,0,0,56,421c.39.28.8.54,1.21.79a19.28,19.28,0,0,0,9.91,2.72Z" transform="translate(3.75 -50.11)"/><path class="cls-13" d="M97.84,436.47a13,13,0,0,0-13,13h0v4.13l24.66-17.18Z" transform="translate(3.75 -50.11)"/><path class="cls-12" d="M84.79,453.65l0,51h2.86v-51h8.75a13.37,13.37,0,0,0,3.66-.52,11.6,11.6,0,0,0,1.13-.39,12.55,12.55,0,0,0,1.44-.67,12.68,12.68,0,0,0,2.08-1.41,13.05,13.05,0,0,0,4.75-10.07v-4.12Z" transform="translate(3.75 -50.11)"/><path class="cls-13" d="M85.48,446.38A12.4,12.4,0,0,0,73.07,434H62L85.48,450.3Z" transform="translate(3.75 -50.11)"/><path class="cls-12" d="M84.88,449.87,62,434v3.81a12.2,12.2,0,0,0,.54,3.6,12.16,12.16,0,0,0,2.8,4.75,12.3,12.3,0,0,0,1.81,1.56c.24.17.5.33.75.49a12.14,12.14,0,0,0,6.19,1.69Z" transform="translate(3.75 -50.11)"/><rect class="cls-10" x="327.72" y="273.61" width="0.62" height="28.59"/><rect class="cls-10" x="319.23" y="324.35" width="0.62" height="28.59" transform="translate(-73.01 44.13) rotate(-15)"/><rect class="cls-10" x="314.8" y="326.18" width="0.62" height="28.59" transform="translate(-124.27 153.06) rotate(-30)"/><rect class="cls-10" x="311.01" y="329.1" width="0.62" height="28.59" transform="translate(-147.88 270.6) rotate(-45)"/><rect class="cls-10" x="308.09" y="332.89" width="0.62" height="28.59" transform="translate(-142.72 390.57) rotate(-60)"/><rect class="cls-10" x="306.26" y="337.32" width="0.62" height="28.59" transform="translate(-108.66 506.62) rotate(-75)"/><rect class="cls-10" x="325.87" y="346.88" width="28.59" height="0.62" transform="translate(-124.26 166.44) rotate(-29.99)"/><rect class="cls-10" x="327.87" y="351.98" width="28.59" height="0.62" transform="translate(-65.81 34.46) rotate(-12.8)"/><rect class="cls-10" x="322.95" y="343.08" width="28.59" height="0.62" transform="translate(-140.29 288.94) rotate(-45)"/><rect class="cls-10" x="319.16" y="340.17" width="28.59" height="0.62" transform="translate(-124.38 408.95) rotate(-60.01)"/><rect class="cls-10" x="314.73" y="338.34" width="28.59" height="0.62" transform="translate(-79.49 518.7) rotate(-75)"/><circle class="cls-11" cx="328.18" cy="305.62" r="5.94"/><path class="cls-6" d="M324.43,387a65.06,65.06,0,0,0,55.66-31.31H268.77A65.09,65.09,0,0,0,324.43,387Z" transform="translate(3.75 -50.11)"/><path class="cls-6" d="M321.63,322.18a2.66,2.66,0,1,1,2.65,2.66A2.66,2.66,0,0,1,321.63,322.18Z" transform="translate(3.75 -50.11)"/><path class="cls-6" d="M330.07,324.84a2.66,2.66,0,1,1,2.66,2.65A2.66,2.66,0,0,1,330.07,324.84Z" transform="translate(3.75 -50.11)"/><path class="cls-6" d="M337.94,328.1a2.66,2.66,0,1,1,2.66,2.65A2.66,2.66,0,0,1,337.94,328.1Z" transform="translate(3.75 -50.11)"/><path class="cls-6" d="M344.7,333.28a2.66,2.66,0,1,1,2.66,2.66A2.66,2.66,0,0,1,344.7,333.28Z" transform="translate(3.75 -50.11)"/><path class="cls-6" d="M349.89,340a2.66,2.66,0,1,1,2.65,2.66A2.66,2.66,0,0,1,349.89,340Z" transform="translate(3.75 -50.11)"/><path class="cls-6" d="M353.45,349.12a2.66,2.66,0,1,1,2.65,2.66A2.66,2.66,0,0,1,353.45,349.12Z" transform="translate(3.75 -50.11)"/><path class="cls-6" d="M313.18,324.84a2.66,2.66,0,1,1,2.66,2.65A2.66,2.66,0,0,1,313.18,324.84Z" transform="translate(3.75 -50.11)"/><path class="cls-6" d="M305.31,328.1a2.66,2.66,0,1,1,2.66,2.65A2.66,2.66,0,0,1,305.31,328.1Z" transform="translate(3.75 -50.11)"/><path class="cls-6" d="M298.55,333.28a2.66,2.66,0,1,1,2.66,2.66A2.66,2.66,0,0,1,298.55,333.28Z" transform="translate(3.75 -50.11)"/><path class="cls-6" d="M293.37,340A2.66,2.66,0,1,1,296,342.7,2.65,2.65,0,0,1,293.37,340Z" transform="translate(3.75 -50.11)"/><path class="cls-6" d="M290.1,347.91a2.66,2.66,0,1,1,2.66,2.66A2.65,2.65,0,0,1,290.1,347.91Z" transform="translate(3.75 -50.11)"/><polyline class="cls-12" points="325.9 330.8 325.89 380.17 330.46 380.17 330.48 331.7"/><path class="cls-13" d="M343,395.84a20.92,20.92,0,0,0-20.92,20.92h0v6.61l39.52-27.53Z" transform="translate(3.75 -50.11)"/><path class="cls-12" d="M322.12,423.37l0,81.77h4.57l0-78.8v-3h14a20.94,20.94,0,0,0,5.85-.83c.62-.18,1.23-.39,1.82-.62a23,23,0,0,0,2.3-1.08,21,21,0,0,0,3.34-2.25,20.53,20.53,0,0,0,2.83-2.84,20.78,20.78,0,0,0,4.78-13.3v-6.61Z" transform="translate(3.75 -50.11)"/><path class="cls-13" d="M323.24,411.72a19.9,19.9,0,0,0-19.89-19.89H285.67L323.24,418Z" transform="translate(3.75 -50.11)"/><path class="cls-12" d="M322.26,417.32l-36.59-25.49V398a19.22,19.22,0,0,0,.87,5.76,19,19,0,0,0,1.46,3.47,19.85,19.85,0,0,0,3,4.14,20.42,20.42,0,0,0,2.91,2.5c.39.27.8.53,1.21.78a19.28,19.28,0,0,0,9.91,2.72Z" transform="translate(3.75 -50.11)"/><path class="cls-13" d="M335.75,429.24A13.06,13.06,0,0,0,322.7,442.3h0v4.12l24.66-17.18Z" transform="translate(3.75 -50.11)"/><path class="cls-12" d="M322.7,446.42l0,51h2.86v-51h8.75a12.88,12.88,0,0,0,3.65-.52,10.93,10.93,0,0,0,1.14-.39,13.06,13.06,0,0,0,3.52-2.07,14.09,14.09,0,0,0,1.77-1.77,13,13,0,0,0,3-8.31v-4.12Z" transform="translate(3.75 -50.11)"/><path class="cls-13" d="M323.39,439.15A12.41,12.41,0,0,0,311,426.74H300l23.44,16.33Z" transform="translate(3.75 -50.11)"/><path class="cls-12" d="M322.79,442.65,300,426.74v3.82a12.14,12.14,0,0,0,.54,3.59,11.88,11.88,0,0,0,.92,2.17,11.91,11.91,0,0,0,3.69,4.14c.24.17.49.33.75.49a12,12,0,0,0,6.19,1.7Z" transform="translate(3.75 -50.11)"/><path class="cls-4" d="M113.86,340.35a41.86,41.86,0,0,1-4.14-4,7.57,7.57,0,0,1-1.53-6.53,5.32,5.32,0,0,1,5.09-3.94c3.36.17,5.52,3.88,8.79,4.66,1,.24,2,.19,3,.49a2.33,2.33,0,0,1,1.81,2.13,2.94,2.94,0,0,1-.89,1.63c-1.55,1.75-3.31,3.32-4.77,5.15-2,2.49-1.83,4.88-2.91,7.53C116.57,345.22,116.1,342.52,113.86,340.35Z" transform="translate(3.75 -50.11)"/><path class="cls-6" d="M113,337.68c-1.12-1.26-2.5-2.43-2.88-4.07a3.23,3.23,0,0,1,1-3.23,2.45,2.45,0,0,1,3.23.18,8.25,8.25,0,0,1,1,2.3c.79,1.78,2.71,2.91,3.37,4.75a6.89,6.89,0,0,1,.24,2.86,29.69,29.69,0,0,1-.69,4.6c-.08.35-.21.74-.55.85-1.13.37-1.77-3-2-3.64A15,15,0,0,0,113,337.68Z" transform="translate(3.75 -50.11)"/><path class="cls-4" d="M150.32,478.47c.52,7.43,2.16,25.63,3.19,33.27-3,8.34-4.13,15.77-6.91,16.92a26.76,26.76,0,0,1-7.88.93c-1.68-.14-3.41-1.33-3.54-3-.24-3.06,4.13-4.08,5.87-6.61,1.43-2.09,3.43-9.11,1.9-22.87-1-8.86-2.95-17.5-3.87-26.37-.77-7.55-3-14.81-4.76-22.19-3-12.52-2.76-22.75-7.59-32.68-1.39-2.87-3.33-9-3.46-12.22s-.86-9.69,1.53-11.81c3-2.7.9,7.59,4.92,8.26a25,25,0,0,1,13.44,6.44c3.68,3.65,3.56,7.26,4.63,12,2.86,12.55,2.71,25.17,2.39,38C150,463.79,149.81,471.14,150.32,478.47Z" transform="translate(3.75 -50.11)"/><path class="cls-4" d="M262.46,453.73a46.9,46.9,0,0,0,3.11,31.94c2.24,4.64,5.34,9.68,3.66,14.54-1.48,4.34-6.13,6.55-10,9a43.28,43.28,0,0,0-16.75,19.52c-1,2.26-1.92,4.81-4.13,5.89a9,9,0,0,1-3.79.63c-3.61,0-8.32,1.19-11.22-1-.48-.36-.08-2.21-.31-2.76-.66-1.5.65-3.21,2.16-3.87s3.22-.71,4.73-1.37c3.23-1.43,21.68-23.12,22.84-27.1,2.26-7.76-5.27-21.37-8.89-28.6l-25.26-50.32c-2.35-4.69-4.76-9.62-4.61-14.85.17-5.81,3.59-11.21,8.26-14.66s10.47-5.1,16.24-5.68A44.65,44.65,0,0,1,266.07,391a36.79,36.79,0,0,1,16.71,22.45c2,8.42-.93,12.48-6.62,17.69A47.07,47.07,0,0,0,262.46,453.73Z" transform="translate(3.75 -50.11)"/><path class="cls-4" d="M191.24,377c15.51-.83,30.26-6.57,45.27-10.53,6.67-1.76,13.53-3.19,20.43-2.84s13.89,2.63,18.84,7.44,7.47,12.38,5.23,18.9c-2.17,6.35-8.2,10.6-14.38,13.21s-12.84,4.06-18.79,7.16a70.07,70.07,0,0,0-11.14,7.72c-8.53,6.81-16.93,13.87-26.31,19.46s-19.92,9.68-30.84,9.92c-17.43.38-34-9.28-45.33-22.5a49.19,49.19,0,0,1-9.64-16c-2-5.93-2.34-12.56-.1-18.41,4.19-10.92,19.21-21.89,30.27-24.93,5.91-1.63,10.4,1,15.24,4.17C177,374.49,182.58,377.51,191.24,377Z" transform="translate(3.75 -50.11)"/><path class="cls-4" d="M303.79,388.43c6.83,12.49,7.5,27.32,11.54,41,3.09,10.42,8.3,20.36,16,28.06s17.93,13.06,28.77,13.85C365.43,471.7,371,471,376,473a9.52,9.52,0,0,1,5,4.16,5.39,5.39,0,0,1-.67,6.2,7.81,7.81,0,0,1-3.94,1.77,57.53,57.53,0,0,1-20.4.26c-13-1.88-25.87-6.65-35.86-15.22-9.66-8.29-16.17-19.68-21-31.46s-8.13-24.12-12.52-36.07c-1.62-4.41-3.42-9-3.05-13.65.35-4.37,4.36-10.88,9.36-10.8C297.68,378.31,301.83,384.83,303.79,388.43Z" transform="translate(3.75 -50.11)"/><path class="cls-6" d="M162.17,375.27c-.7,4.4-3.17,8.35-6.13,11.69s-6.31,6.31-9.58,9.35c-7.22,6.7-7.63,20.32-5,27.92,1.2,3.51.73,6.65,3.43,9.67-1.83-1.44-13.81-12.58-15.08-14.53-9.53-14.65-11.81-22.43-10.44-41.7.62-8.76,7.79-22.26,11.35-22.42A51.83,51.83,0,0,1,146,356.5C154.66,358.76,163.77,365.2,162.17,375.27Z" transform="translate(3.75 -50.11)"/><path class="cls-4" d="M166.12,339.09a42.81,42.81,0,0,0,3.91-4.18,7.55,7.55,0,0,0,1.15-6.6,5.32,5.32,0,0,0-5.31-3.65c-3.34.36-5.29,4.19-8.51,5.16-1,.28-2,.3-2.94.65a2.34,2.34,0,0,0-1.69,2.23,3,3,0,0,0,1,1.58c1.65,1.66,3.5,3.12,5,4.87,2.12,2.37,2.11,4.77,3.34,7.35C163.68,344.11,164,341.39,166.12,339.09Z" transform="translate(3.75 -50.11)"/><path class="cls-6" d="M166.86,336.38c1-1.33,2.35-2.57,2.64-4.23a3.26,3.26,0,0,0-1.2-3.17,2.46,2.46,0,0,0-3.22.37,7.85,7.85,0,0,0-.9,2.35c-.69,1.83-2.54,3.06-3.1,4.93a7.11,7.11,0,0,0-.07,2.87,31,31,0,0,0,1,4.56c.1.34.25.73.6.82,1.15.3,1.6-3.06,1.81-3.76A15,15,0,0,1,166.86,336.38Z" transform="translate(3.75 -50.11)"/><path class="cls-4" d="M114.38,349.38c.82-2.71,2.08-5.26,3.11-7.89a51.11,51.11,0,0,0,2.2-7,8.07,8.07,0,0,1,1.3-3.33c1.1-1.34,3-1.72,4.68-2a95,95,0,0,1,14.12-1.31h0a95,95,0,0,1,14.12,1.31c1.71.27,3.58.65,4.68,2a7.81,7.81,0,0,1,1.3,3.33,52.52,52.52,0,0,0,2.2,7c1,2.63,2.29,5.18,3.11,7.89a15.1,15.1,0,0,1,.44,8.36,16.42,16.42,0,0,1-3.2,5.7,32.92,32.92,0,0,1-12.93,9.9,27.76,27.76,0,0,1-9.72,2.09h0a27.81,27.81,0,0,1-9.72-2.09,32.89,32.89,0,0,1-12.92-9.9,16.27,16.27,0,0,1-3.2-5.7A15,15,0,0,1,114.38,349.38Z" transform="translate(3.75 -50.11)"/><path class="cls-6" d="M146.69,360a8.32,8.32,0,0,1,2.38,3.22,3.8,3.8,0,0,0,.86,1.35,3.26,3.26,0,0,0,2,.62,17.39,17.39,0,0,0,12.12-4,46,46,0,0,1-5.06,6.24,31.46,31.46,0,0,1-12.79,8.1,23.75,23.75,0,0,1-15-.09,32.6,32.6,0,0,1-9.16-5.35c-3.5-2.79-6.65-6.38-7.49-10.78a16.06,16.06,0,0,0,10.37,6.52c1.56.24,3.36.17,4.44-1a10.89,10.89,0,0,0,1.36-2.49,6.36,6.36,0,0,1,4.45-3.25c2.18-.39,4.37.31,6.55.12C143.43,359.11,145.21,358.88,146.69,360Z" transform="translate(3.75 -50.11)"/><path class="cls-14" d="M135.85,357.77a5.47,5.47,0,0,1,2.43-.65c.31,0,1.51-.09,1.51-.09.53,0,1.18.05,1.52.09a5.42,5.42,0,0,1,2.42.65,1.84,1.84,0,0,1,.81,2.18,2.74,2.74,0,0,1-1.22,1.06l-2.94,1.64a2,2,0,0,1-.59.26v0l-.09-.05a.16.16,0,0,1-.11,0h0l-.39-.2L136.27,361A2.72,2.72,0,0,1,135,360,1.85,1.85,0,0,1,135.85,357.77Z" transform="translate(3.75 -50.11)"/><path class="cls-14" d="M140.51,361.3v.24a.6.6,0,0,1-.06.27.48.48,0,0,1-.15.22.51.51,0,0,1-.23.15.6.6,0,0,1-.27.06l-.18,0a.71.71,0,0,1-.31-.19l-.11-.14a.62.62,0,0,1-.1-.35v-.24a.66.66,0,0,1,.06-.27.72.72,0,0,1,.37-.37.66.66,0,0,1,.27-.06l.19,0a.65.65,0,0,1,.31.18l.11.14a.74.74,0,0,1,.1.35Z" transform="translate(3.75 -50.11)"/><path class="cls-14" d="M139.8,366.83a14.36,14.36,0,0,0-.34-1.83,15,15,0,0,1-.62-1.74,2,2,0,0,1,.76-2.35.43.43,0,0,1,.46,0,1.88,1.88,0,0,1,.69,2.15,8.15,8.15,0,0,1-.46,1.45,9.09,9.09,0,0,0-.39,2.31c0,.05-.09.08-.1,0Z" transform="translate(3.75 -50.11)"/><path class="cls-6" d="M218.14,423.36c-15.75,10.23-35.45,13.12-54.12,11.1-13.22-1.43-27.19-5.88-34.85-16.74,6.59,12.49,18.31,21.72,31.18,27.55,7.48,3.39,15.68,5.78,23.84,4.87a61.77,61.77,0,0,0,12.62-3.25c6.11-2,12.29-4.11,17.8-7.46a94.41,94.41,0,0,0,11.83-9.1c8.37-7.08,17.24-14,27.7-17.29,4.36-1.36,5.92-6.1,1.1-8.43-3.35-1.62-8.78.46-11.9,1.74C233.88,410.24,226.61,417.85,218.14,423.36Z" transform="translate(3.75 -50.11)"/><path class="cls-4" d="M250.93,363.89c10.2-.12,20.63.57,30.07,4.34s17.85,11,20.77,20.56c3.8,12.41-2.13,25.52-2.47,38.46-.31,11.57,3.9,22.84,9.47,33.06a51.92,51.92,0,0,0,8.08,11.57c3.75,3.84,8.67,7.09,10.13,12.19,1.19,4.12-.21,8.54-2.28,12.3s-4.81,7.17-6.62,11.06c-2.36,5.11-9.31,29-11.08,30.15-3.76,2.33-7.72,1.68-12.16,1.4-1-1.44-.55-3.5.5-4.93s2.56-2.5,3.73-3.84c2-2.33,3-5.38,3.84-8.32,2.74-9.26,9.86-21.67,7.27-31-3.33-11.94-18.84-17.29-27.53-26.31-11-11.43-18.63-25.51-26.1-39.41-3.16-5.88-6.35-11.82-8.12-18.23a55.6,55.6,0,0,1-1.81-15.14c0-5.74.82-11.6,3.53-16.69s7.61-9.32,13.43-10.15Z" transform="translate(3.75 -50.11)"/><path class="cls-4" d="M170.94,489.29c-.87,7.4-2.64,25.59-3.05,33.29-4.51,7.64-7,14.73-9.94,15.34a26.69,26.69,0,0,1-7.91-.55c-1.63-.45-3.11-1.94-2.92-3.62.34-3,4.82-3.25,7-5.41,1.8-1.79,5.06-8.31,6.12-22.12.68-8.89.35-17.74,1.1-26.62.64-7.57,1-15.26-.56-22.7-2.24-10.81-8.34-20.46-11.24-31.11a23.39,23.39,0,0,1-.94-9.46,11,11,0,0,1,4.84-7.88c3.51-2.09,8-1.41,11.83,0a25,25,0,0,1,12,8.83c2.94,4.27,2.15,7.8,2.33,12.61.47,12.87-2,25.24-4.72,37.75C173.34,474.81,171.8,482,170.94,489.29Z" transform="translate(3.75 -50.11)"/><path class="cls-4" d="M126.09,372.79a36.25,36.25,0,0,0,7.75,3.57c5.44,1.53,11.25.44,16.71-1-5.58,2.89-11.16,5.79-16.52,9.06a6.52,6.52,0,0,1-2.54,1.1,6.08,6.08,0,0,1-4-1.45,55.87,55.87,0,0,1-6.57-5.31,4.08,4.08,0,0,1-1.13-1.45,4.6,4.6,0,0,1,0-2.6c.22-1,.53-2,.75-3a5.28,5.28,0,0,0,.38-2.43c.69.49,1.43,1.21,2.16,1.72A24.17,24.17,0,0,0,126.09,372.79Z" transform="translate(3.75 -50.11)"/><path class="cls-14" d="M147.28,330.46a1.87,1.87,0,0,1-1.35,1.22,4.38,4.38,0,0,1-1.38.35,1.67,1.67,0,0,1-.84-3.12,3.09,3.09,0,0,1,1.94-.33,1.83,1.83,0,0,1,1.33.63,1.36,1.36,0,0,1,.3,1.25Z" transform="translate(3.75 -50.11)"/><path class="cls-14" d="M141.14,332.63a1.3,1.3,0,0,1,1.25,1,5.16,5.16,0,0,1,.68,2.15,1,1,0,0,1-.52.91.93.93,0,0,1-.81.1,1.13,1.13,0,0,1-.78-1,15.92,15.92,0,0,0-.21-1.69,1.9,1.9,0,0,1-.12-.82c0-.14.16-.39.17-.45a.28.28,0,0,1,.34-.19Z" transform="translate(3.75 -50.11)"/><path class="cls-14" d="M140.34,331.09a2.07,2.07,0,0,1-.77.26l-.24.06-.08,0a1,1,0,0,1-.37.13,1.11,1.11,0,0,1-1.22-.49,1.1,1.1,0,0,1,.17-1.3c.65-.54,2.07-.84,2.69-.06a.89.89,0,0,1-.18,1.36Z" transform="translate(3.75 -50.11)"/><path class="cls-14" d="M137.93,335.56a2.84,2.84,0,0,1-1.9-.45,1.16,1.16,0,0,1,.58-2.16,1.9,1.9,0,0,1,1.91,2,.83.83,0,0,1-.59.6Z" transform="translate(3.75 -50.11)"/><path class="cls-14" d="M135.27,330.48c-.29.52-1,.8-1.5,1.08a1.19,1.19,0,0,1-1.17,0l-.07-.05.53.14h-.13a1,1,0,0,1-.89-.6,1,1,0,0,1,.2-1.06l.08-.11-.3.73v-.05a1.21,1.21,0,0,1,.85-1.12,2.75,2.75,0,0,1,1.68,0c.41.13,1,.55.71,1.05Z" transform="translate(3.75 -50.11)"/><path class="cls-14" d="M129.77,331.1a1.06,1.06,0,0,1,0,.61,1.25,1.25,0,0,1-.22.55l.07-.15-.13.3a3.25,3.25,0,0,1-.23.29l0,0c.12-.16,0,.05-.05.08a1.82,1.82,0,0,1-.55.52,1.3,1.3,0,0,1-1.43-.1,1.28,1.28,0,0,1-.47-1.36,1.82,1.82,0,0,1,.58-.83,2.16,2.16,0,0,1,.9-.47,1.2,1.2,0,0,1,1.51.59Z" transform="translate(3.75 -50.11)"/><path class="cls-14" d="M150,334.29a5.45,5.45,0,0,1-.7,0,3.24,3.24,0,0,1-.73-.28.71.71,0,1,1,.71-1.23,2,2,0,0,1,.69.65,2.62,2.62,0,0,1,.2.69c0,.11-.07.19-.17.17Z" transform="translate(3.75 -50.11)"/><path class="cls-14" d="M153.6,331.89a4.13,4.13,0,0,1-1.11,0,2.78,2.78,0,0,1-1.3-.35.83.83,0,0,1,0-1.42,2,2,0,0,1,2.37.53,1.1,1.1,0,0,1,.33.83c0,.16-.1.4-.29.41Z" transform="translate(3.75 -50.11)"/><path class="cls-14" d="M145.75,338.7a1.58,1.58,0,0,1-.11,1.34,5,5,0,0,1-.89,1.25,1.15,1.15,0,0,1-1.58,0h0l.7.29-.2,0a.85.85,0,0,1-.82-1.08c0-.07,0-.13.07-.2l.1.76h0a1.14,1.14,0,0,1,.4-1.53,7.83,7.83,0,0,1,1.24-.82c.3-.13.88-.39,1.11,0Z" transform="translate(3.75 -50.11)"/><path class="cls-14" d="M139.62,338.09a8.32,8.32,0,0,1,.68,1.41,7.5,7.5,0,0,1,.23,1.88,1.4,1.4,0,0,1-1.22,1.37,1.36,1.36,0,0,1-1.53-1,4.89,4.89,0,0,1,.11-2.25A3.77,3.77,0,0,1,139,338a.42.42,0,0,1,.66.08Z" transform="translate(3.75 -50.11)"/><path class="cls-14" d="M134.7,338.81c.12.1.34.12.48.21a2.35,2.35,0,0,1,.53.56c.12.17.27.32.39.5a4.35,4.35,0,0,1,.36.79c.34.88-1,1.56-1.56.91a3.59,3.59,0,0,1-.8-1.44,1.83,1.83,0,0,1-.11-.73c0-.21.16-.39.18-.58a.31.31,0,0,1,.53-.22Z" transform="translate(3.75 -50.11)"/><path class="cls-14" d="M142.66,345.36a1.48,1.48,0,0,1,.14,1.48,2.38,2.38,0,0,1-.48.81,1.7,1.7,0,0,1-.81.44c-.66.2-1.48-.5-1.2-1.21a2.38,2.38,0,0,1,.43-.8,5.36,5.36,0,0,1,.43-.4l.33-.28c-.15.12.14-.11.2-.14a.8.8,0,0,1,1,.1Z" transform="translate(3.75 -50.11)"/><path class="cls-14" d="M139.09,345.49a3,3,0,0,0,.12.36c0,.11,0,.22,0,.33s.05.22.07.33a1.48,1.48,0,0,1-.06.66.79.79,0,0,1-1.42.18,1.51,1.51,0,0,1-.13-1.23,3.36,3.36,0,0,1,.44-.89.5.5,0,0,1,.93.26Z" transform="translate(3.75 -50.11)"/><path class="cls-14" d="M136.16,348.65c.54.67,1.68,1.87,1,2.81a.59.59,0,0,1-.78.2c-.93-.42-.75-1.94-.86-2.76a.36.36,0,0,1,.61-.25Z" transform="translate(3.75 -50.11)"/><path class="cls-14" d="M141,351.12a7,7,0,0,1,.33,1.7,1,1,0,0,1-2.08,0,7,7,0,0,1,.33-1.7.74.74,0,0,1,1.42,0Z" transform="translate(3.75 -50.11)"/><path class="cls-14" d="M144.84,350.4c0,.29,0,.58-.06.87a2.14,2.14,0,0,1-.54,1.12.84.84,0,0,1-1.1.07.85.85,0,0,1-.22-1.08,4,4,0,0,1,.5-.72,2.07,2.07,0,0,0,.39-.54.56.56,0,0,1,1,.28Z" transform="translate(3.75 -50.11)"/><path class="cls-14" d="M140.13,355.8l0,0,.15-.25v-.1l0,.19a1,1,0,0,1-.12.25,1.9,1.9,0,0,1-.29.38,1.56,1.56,0,0,1-.56.35,2.6,2.6,0,0,1-.56,0,.82.82,0,0,1-.7-1.23,3.19,3.19,0,0,1,.31-.44,1.28,1.28,0,0,1,.84-.33,1.25,1.25,0,0,1,1,.46l-.23-.22h-.07a.49.49,0,0,1,.25.9Z" transform="translate(3.75 -50.11)"/><path class="cls-14" d="M136.61,355.06l-.25-.14-.15-.07-.05,0s.05,0,0,0a1.35,1.35,0,0,1-.46-.24,1.55,1.55,0,0,1-.24-.33.62.62,0,0,1,.05-.69.64.64,0,0,1,.64-.22,1.1,1.1,0,0,1,.78.53,5.54,5.54,0,0,1,.33.51.49.49,0,0,1-.66.67Z" transform="translate(3.75 -50.11)"/><path class="cls-14" d="M161.51,346.56a2.82,2.82,0,0,1-1-.77c-.12-.12-.26-.24-.37-.36a1.47,1.47,0,0,1-.33-1.35v.65l0-.1a1.18,1.18,0,0,1,1.44-1.43l-.15,0a1.31,1.31,0,0,1,1.13.65,2.43,2.43,0,0,1,.33,2.33.9.9,0,0,1-1,.4Z" transform="translate(3.75 -50.11)"/><path class="cls-14" d="M159.64,339.51a.82.82,0,0,1-.65.1.63.63,0,0,1-.4-.23l-.09-.12,0-.05a.44.44,0,0,1-.1-.41.41.41,0,0,1,.29-.29.8.8,0,0,1,.86.18c.17.19.36.61.12.82Z" transform="translate(3.75 -50.11)"/><path class="cls-14" d="M159,335.89a1.19,1.19,0,0,1,.26.79c0,.57-.44,1.24-1.07,1.18a.9.9,0,0,1-.88-.88,1,1,0,0,1,.6-.92h0l.09,0a1.43,1.43,0,0,1,.28-.13c.23-.06.52-.18.72,0Z" transform="translate(3.75 -50.11)"/><path class="cls-14" d="M122.05,337.31l0,.1-.07-.24c.24.34-.08.87-.29,1.13l-.21.27a2.18,2.18,0,0,1-.59.5.73.73,0,0,1-1.07-.83,2.63,2.63,0,0,1,.24-.51,1.63,1.63,0,0,1,.38-.36,2.22,2.22,0,0,1,.91-.45.55.55,0,0,1,.55.14h0l-.33-.14.22,0a.3.3,0,0,1,.28.36Z" transform="translate(3.75 -50.11)"/><path class="cls-14" d="M119.8,341.78a3.2,3.2,0,0,1,1.1,1.18,1.92,1.92,0,0,1,.55,1.51.52.52,0,0,1-.64.35c-.57-.16-.82-.7-1.07-1.19a3.11,3.11,0,0,1-.52-1.52.39.39,0,0,1,.58-.33Z" transform="translate(3.75 -50.11)"/><path class="cls-14" d="M119.46,344.19c.07.56.13,1.35-.49,1.66a.8.8,0,0,1-1.08-.28,1.11,1.11,0,0,1,.13-1.22,2.56,2.56,0,0,1,.65-.62.51.51,0,0,1,.53,0,.56.56,0,0,1,.26.46Z" transform="translate(3.75 -50.11)"/><path class="cls-14" d="M159,345.82a2.55,2.55,0,0,1-.11.74,1.51,1.51,0,0,1-.63.69.59.59,0,0,1-.75-.15.58.58,0,0,1,.05-.76,6,6,0,0,1,.59-.39,2.39,2.39,0,0,0,.49-.28.22.22,0,0,1,.36.15Z" transform="translate(3.75 -50.11)"/><path class="cls-14" d="M224,383.31a3.29,3.29,0,0,1-.79,1.94,4.23,4.23,0,0,1-1.71,1c-.65.25-1.31.44-2,.63a3,3,0,1,1-1.57-5.71c.93-.2,1.85-.36,2.8-.47a3.14,3.14,0,0,1,1.92.38,2.66,2.66,0,0,1,1.33,2.23Z" transform="translate(3.75 -50.11)"/><path class="cls-14" d="M212.28,379.65a3.64,3.64,0,0,1-2.15,1.52c.71-.28-.22.2-.22.2s.52-.32,0,0c-.25.18.34-.52,0,0a2.81,2.81,0,1,1-4.42-3.41,5.4,5.4,0,0,1,3.81-1.8c1.8-.11,4,1.58,2.93,3.53Z" transform="translate(3.75 -50.11)"/><path class="cls-14" d="M211.1,395.32c-2,.9-4-.38-6.06-.69-1.58-.23-2.45-2.23-2.07-3.64a3,3,0,0,1,3.65-2.07c2.26.45,5.55,1.73,5.6,4.45a2.2,2.2,0,0,1-1.12,1.95Z" transform="translate(3.75 -50.11)"/><path class="cls-14" d="M197.41,385.48c-1.12,1.19-3,1.11-4.43,1.73A2.55,2.55,0,0,1,189.4,386a2.52,2.52,0,0,1,1.63-3.41c1.93-.44,4.83-1.09,6.38.51a1.71,1.71,0,0,1,0,2.38Z" transform="translate(3.75 -50.11)"/><path class="cls-14" d="M185.85,381.4c-.78,1.27-3,1-4.28.85a2.07,2.07,0,1,1,.55-4.08,10.27,10.27,0,0,1,2.81,1.3c.54.39,1.37,1.19.92,1.93Z" transform="translate(3.75 -50.11)"/><path class="cls-14" d="M173,375.54c-1.07.6-2.64.11-3.76-.14-1.37-.31-.78-2.53.59-2.12,1.08.32,2.68.67,3.32,1.7a.42.42,0,0,1-.15.56Z" transform="translate(3.75 -50.11)"/><path class="cls-14" d="M172.34,382.75a3.72,3.72,0,0,1,.69,3.16c-.18.78-.46,1.53-.63,2.31a2.83,2.83,0,0,1-5.46-1.51,9.25,9.25,0,0,1,1.66-3.37c.83-.84,2.77-1.81,3.74-.59Z" transform="translate(3.75 -50.11)"/><path class="cls-14" d="M186.25,389.82c-1-1.14-1.26-1.48-.7-1a1.55,1.55,0,0,1,.51.54,2.65,2.65,0,0,1,.27,1,5.37,5.37,0,0,1-.13,1.91,8.75,8.75,0,0,1-1.86,3.29,2.82,2.82,0,0,1-4,0,2.88,2.88,0,0,1,0-4,17.51,17.51,0,0,1,3-2.88,2,2,0,0,1,2.86,1.16Z" transform="translate(3.75 -50.11)"/><path class="cls-14" d="M198.23,401.31a2.05,2.05,0,0,1,.32,1.05c0,.3,0-.09,0-.18a6,6,0,0,1,0,1.4,3.65,3.65,0,0,1-1.7,2.7,2.78,2.78,0,0,1-1.65.3,2.46,2.46,0,0,1-1.49-.71,3.1,3.1,0,0,1-.66-1.14,2.75,2.75,0,0,1,.26-2,2.49,2.49,0,0,1,1.12-1.15c.21-.15.15-.11-.18.14a4.39,4.39,0,0,1,.36-.28,4.65,4.65,0,0,1,1.38-.8l-.9.53a2.72,2.72,0,0,1,1.13-.7,1.87,1.87,0,0,1,2,.83Z" transform="translate(3.75 -50.11)"/><path class="cls-14" d="M237.5,400.68a12,12,0,0,1-4.7.26,3,3,0,1,1,.79-5.85,11.85,11.85,0,0,1,4.46,1.39,2.33,2.33,0,0,1-.55,4.2Z" transform="translate(3.75 -50.11)"/><path class="cls-14" d="M235.22,391.45a2,2,0,0,1-1,.62l-.31.13-.25.05c-.37.08-.73.23-1.1.31a2.59,2.59,0,0,1-1.38-5,4.94,4.94,0,0,1,3,.31,2.26,2.26,0,0,1,1,3.58Z" transform="translate(3.75 -50.11)"/><path class="cls-14" d="M237,379.77c-1.4,1-3.37,1.18-5,1.58a2.79,2.79,0,0,1-3.36-1.91,2.75,2.75,0,0,1,1.91-3.36c2.12-.41,4.45-.84,6.46.19,1.47.76,1.14,2.67,0,3.5Z" transform="translate(3.75 -50.11)"/><path class="cls-14" d="M253.16,378.71a2.79,2.79,0,0,1-2.34,1.15l-.35,0h.06c.27,0,.21,0-.18,0a2.5,2.5,0,0,1-2.18-.8,2.4,2.4,0,0,1,.48-3.72,3.11,3.11,0,0,1,3.38.31c1,.58,1.86,1.9,1.13,3Z" transform="translate(3.75 -50.11)"/><path class="cls-14" d="M250,371.86c-.34,1.92-3.7,2.78-5.3,2.31a2.33,2.33,0,0,1-1.66-1.92,2.27,2.27,0,0,1,1.11-2.3c1.72-.8,6.4-1.19,5.85,1.91Z" transform="translate(3.75 -50.11)"/><path class="cls-14" d="M238.19,369a10,10,0,0,1-2.15,1.35,2.48,2.48,0,0,1-2.13.35.52.52,0,0,1-.18-.69c.32-.64,1.1-.8,1.74-1a17.5,17.5,0,0,1,2.37-.6c.31-.06.66.35.35.6Z" transform="translate(3.75 -50.11)"/><path class="cls-14" d="M225.73,372.68a4,4,0,0,1-.86,1,6.57,6.57,0,0,1-1.71.76,2.9,2.9,0,0,1-2.93-.22.62.62,0,0,1-.16-.59,2.8,2.8,0,0,1,2.22-1.72,8.77,8.77,0,0,1,1.51-.3,3.27,3.27,0,0,1,1.63.33c.27.1.51.45.3.73Z" transform="translate(3.75 -50.11)"/><path class="cls-14" d="M271.73,376.14c-1.12.67-2.49.33-3.69,0a23.13,23.13,0,0,1-4.08-1.32c-2.52-1.28-1.22-5.11,1.4-5.15a8.81,8.81,0,0,1,5.53,2.33c.93.84,2.48,3.16.84,4.15Z" transform="translate(3.75 -50.11)"/><path class="cls-14" d="M260.42,367.68c-.36.12-.74.18-1.11.27a1.38,1.38,0,0,0-.27.08c.18-.09.14-.08-.13,0a3.15,3.15,0,0,1-1.1.25,1.92,1.92,0,0,1-1.83-1.39,2,2,0,0,1,.87-2.14,3.45,3.45,0,0,1,4.16.65,1.37,1.37,0,0,1-.59,2.24Z" transform="translate(3.75 -50.11)"/><path class="cls-14" d="M291.92,386.91l.14,0a1,1,0,0,1-.54-.12,2.06,2.06,0,0,1-.52-.35,8.08,8.08,0,0,1-1.22-1.26,9,9,0,0,1-2-3c-.46-1.84,1.63-3.71,3.35-2.58a6.17,6.17,0,0,1,2.23,3.77,5.52,5.52,0,0,1,.13,1.94,2.49,2.49,0,0,1-.23.88l-.21.28c-.37.23-.39.28-.05.16a.66.66,0,0,1-1.08.28Z" transform="translate(3.75 -50.11)"/><path class="cls-14" d="M295.83,399.62a2,2,0,0,1-.71-.78,2.92,2.92,0,0,0-.54-.76c.23.25-.51-.44-.09-.09a5,5,0,0,1-1.37-1.35c-1.23-2.13,1.27-4.79,3.44-3.43a4.2,4.2,0,0,1,1.64,4.4c-.22,1-1,2.78-2.37,2Z" transform="translate(3.75 -50.11)"/><path class="cls-14" d="M284.93,402.54a5.56,5.56,0,0,1-4.2,2.33,15.57,15.57,0,0,1-6.12.09,2.75,2.75,0,0,1-2-3,2.82,2.82,0,0,1,2.71-2.4,24.62,24.62,0,0,1,5.27.38c1.54.18,3.08.42,4.19,1.61a.86.86,0,0,1,.13,1Z" transform="translate(3.75 -50.11)"/><path class="cls-14" d="M281.19,392.71a5.53,5.53,0,0,1-3,.83,23.83,23.83,0,0,1-3,.17,2.94,2.94,0,0,1-.78-5.74c2.63-.84,6.6,0,7.63,2.83a1.71,1.71,0,0,1-.78,1.91Z" transform="translate(3.75 -50.11)"/><path class="cls-14" d="M269.82,390.31a4,4,0,0,1-.64,2.08c.18-.46.23-.58.16-.36l-.06.22c-.11.29-.23.57-.36.86.19-.49.23-.59.13-.3a2.89,2.89,0,0,1-5.68-.77,4.13,4.13,0,0,1,3.73-4.46,2.74,2.74,0,0,1,2.72,2.73Z" transform="translate(3.75 -50.11)"/><path class="cls-14" d="M255.9,392.63a3,3,0,0,1,2.29,1.63,13.53,13.53,0,0,1,1.46,2.53,2.71,2.71,0,0,1-4.95,2.08,8.11,8.11,0,0,1-.69-3.61c0-1,.56-2.75,1.89-2.63Z" transform="translate(3.75 -50.11)"/><path class="cls-14" d="M281.58,380.53c-.58,1.15-2.19,1.24-3.31,1.19-.18,0-1.16,0-.75-.09a3.33,3.33,0,0,1-1.9.09h1.25l-.17,0a2.26,2.26,0,0,1-2.82-2.14,1.31,1.31,0,0,0,0-.28,2.64,2.64,0,0,1,1.86-2.44c1.89-.77,7.22.9,5.83,3.64Z" transform="translate(3.75 -50.11)"/><path class="cls-14" d="M258.67,386.4a1.37,1.37,0,0,0-.2.13c.26-.47.53-.93.8-1.4a2.07,2.07,0,0,1-.77,1.49l.49-.85a2.66,2.66,0,0,1-.54,1c-.09.09-.42.42,0-.07-.18.21-.33.44-.51.64a4.16,4.16,0,0,1-.64.54,2.26,2.26,0,0,1-2.73-.35,2.29,2.29,0,0,1-.35-2.73,3.17,3.17,0,0,1,1.82-1.33,2.83,2.83,0,0,1,2.06.17l-1-.26c.71.09,1.56.2,1.9,1l-1-.74.23.08a1.53,1.53,0,0,1,1.07,1.25,1.5,1.5,0,0,1-.71,1.49Z" transform="translate(3.75 -50.11)"/><path class="cls-14" d="M293.9,415.7c.76,1.53.16,3.61-.47,5.11-.69,1.66-2.24,2.73-4.08,2-1.52-.65-2.52-2.79-1.44-4.29s2.55-3.42,4.53-3.62a1.66,1.66,0,0,1,1.46.84Z" transform="translate(3.75 -50.11)"/><path class="cls-14" d="M288.45,433.8c-2,1.1-4.72-.07-6.86-.45a3,3,0,0,1,1.61-5.83c1.94.54,5.16,1.13,6.06,3.17a2.32,2.32,0,0,1-.81,3.11Z" transform="translate(3.75 -50.11)"/><path class="cls-14" d="M280.27,420.62a9.75,9.75,0,0,1-3.74.71,2.49,2.49,0,1,1,.66-4.89,6.34,6.34,0,0,1,3.4,1.63,1.64,1.64,0,0,1-.32,2.55Z" transform="translate(3.75 -50.11)"/><path class="cls-14" d="M269.09,429.93l-.61-.27.69.09a1.71,1.71,0,0,1-1.35-.26l.63.17a4.38,4.38,0,0,1-2-.82,3.6,3.6,0,0,1-1.66-1.94,2,2,0,0,1,2.92-2.24,3.65,3.65,0,0,1,1.39,1.86,5.7,5.7,0,0,1,.6,1.9l-.17-.63a1.67,1.67,0,0,1,.27,1.33l-.09-.69c.11.19.21.38.32.56.38.64-.35,1.19-.93.94Z" transform="translate(3.75 -50.11)"/><path class="cls-14" d="M268,412.17a9.2,9.2,0,0,1-4.3.4,2.45,2.45,0,1,1,.65-4.81c1.55.37,3.32,1.05,4.15,2.49a1.41,1.41,0,0,1-.5,1.92Z" transform="translate(3.75 -50.11)"/><path class="cls-14" d="M300.87,461.72a10.24,10.24,0,0,1-2-.83,6.12,6.12,0,0,1-1.93-2,1.58,1.58,0,0,1,2.47-1.9,16.53,16.53,0,0,1,1.44,1.89,10.28,10.28,0,0,1,.53.91,4.35,4.35,0,0,0,.43.71.76.76,0,0,1-.91,1.18Z" transform="translate(3.75 -50.11)"/><path class="cls-14" d="M295.3,448.51c.11.09-.13,0-.15,0a3,3,0,0,1-.45-.35l-.25-.24c-.06-.05-.32-.25-.06-.06a2.25,2.25,0,0,1-1.15-2.37,1.54,1.54,0,0,1,1.08-1.09,2.15,2.15,0,0,1,2.47,1.36,6.22,6.22,0,0,1,.39,1,1.53,1.53,0,0,1,.08.64l-.05.36q0,.19,0,0a1.13,1.13,0,0,1-1.91.79Z" transform="translate(3.75 -50.11)"/><path class="cls-14" d="M288,454.8c-1-.54-2.28-.55-3.21-1.2a1.86,1.86,0,0,1,1.43-3.39c1.38.27,2.41,1.65,3.28,2.64a1.25,1.25,0,0,1-1.5,1.95Z" transform="translate(3.75 -50.11)"/><path class="cls-14" d="M281.77,443.88c-.77,0-1.94-.63-1.64-1.58a.82.82,0,0,1,1-.57,1,1,0,0,1,.6.43.35.35,0,0,1,.08.13c0-.06-.12-.14,0,0a.81.81,0,0,1,.1.09c0-.05-.14-.1,0,0l.11.06s-.18-.06,0,0a.76.76,0,0,1,.54.84.74.74,0,0,1-.75.66Z" transform="translate(3.75 -50.11)"/><path class="cls-14" d="M293.28,438.22c-.11-.64-.38-1.39.13-1.92l-.2.34.09-.21a.68.68,0,0,1,1.3,0l.09.21-.2-.34c.51.53.24,1.28.13,1.92a.7.7,0,0,1-1.34,0Z" transform="translate(3.75 -50.11)"/><path class="cls-14" d="M218.9,403.32c.41,1.41-.61,2.79-1.46,3.82a9.3,9.3,0,0,1-3.71,3.14,2.81,2.81,0,0,1-3-1,2.89,2.89,0,0,1-.22-3.15c.79-1.41,2.68-2.55,4.09-3.32,1.23-.66,3.73-1.39,4.28.52Z" transform="translate(3.75 -50.11)"/><path class="cls-14" d="M222.14,414.42a2.92,2.92,0,0,1-1.12,1.93,2.75,2.75,0,0,1-2.8.68,1.73,1.73,0,0,1-1-2.51,2.93,2.93,0,0,1,3-1.46c.73.06,2.07.42,1.94,1.36Z" transform="translate(3.75 -50.11)"/><path class="cls-14" d="M208.54,423.2a4.74,4.74,0,0,0-1.19-.24,3.28,3.28,0,0,1-1.31-.47,1.19,1.19,0,0,1,.6-2.19,2.79,2.79,0,0,1,1.76.69,12.88,12.88,0,0,1,1,1.06c.64.63-.16,1.47-.89,1.15Z" transform="translate(3.75 -50.11)"/><path class="cls-14" d="M188.78,419.05c-2,.12-4.64.64-6.21-1a2.62,2.62,0,0,1,3.7-3.7c-.15-.13-1-.36-.46-.32a3.69,3.69,0,0,1,.56.11,7.43,7.43,0,0,1,1.59.6,4.18,4.18,0,0,1,2,2.21,1.4,1.4,0,0,1-1.19,2.08Z" transform="translate(3.75 -50.11)"/><path class="cls-14" d="M185.73,405a5.15,5.15,0,0,1-2.55,1.79c-.88.42-1.74.89-2.58,1.38a2.92,2.92,0,0,1-4.15-1.4c-.74-1.75.28-3.26,1.89-3.94,2-.85,5.32-1.63,7.12.07a1.73,1.73,0,0,1,.27,2.1Z" transform="translate(3.75 -50.11)"/><path class="cls-14" d="M166.89,398.45a5.35,5.35,0,0,1-.58,3,12.18,12.18,0,0,1-1.78,3.35,2.64,2.64,0,0,1-3.17.41,2.71,2.71,0,0,1-1.2-2.95,7,7,0,0,1,2.19-3.29,4.59,4.59,0,0,1,3.17-1.55,1.45,1.45,0,0,1,1.37,1Z" transform="translate(3.75 -50.11)"/><path class="cls-14" d="M153.29,409.26c2.66.2,3.4,3.44,4.74,5.25,1.71,2.34-1.65,5.54-4,4-1.68-1.14-2.15-3-2.46-4.9-.2-1.25-.46-4.48,1.69-4.32Z" transform="translate(3.75 -50.11)"/><path class="cls-14" d="M173.36,415.28c2.54,1.36,1.68,6.4.11,8.12-1.75,1.92-4.75-.11-4.18-2.43a30.47,30.47,0,0,1,1.36-2.9,5.67,5.67,0,0,1,1.31-2.61,1.21,1.21,0,0,1,1.4-.18Z" transform="translate(3.75 -50.11)"/><path class="cls-14" d="M182.53,426.7a2.56,2.56,0,0,1-.05.62c.09-.46-.06.29-.07.37a3.54,3.54,0,0,1-.53,1.15,10.55,10.55,0,0,1-1.38,1.77,2.62,2.62,0,0,1-3.14.4,3.29,3.29,0,0,1-.93-.93,2.6,2.6,0,0,1,.4-3.14,10.81,10.81,0,0,1,1.85-1.3,5.06,5.06,0,0,1,1.1-.47c.08,0,.77-.1.56-.07l.16,0a.78.78,0,0,1,.4,0,1.69,1.69,0,0,1,1.63,1.64Z" transform="translate(3.75 -50.11)"/><path class="cls-14" d="M175.46,441.23c.45,2.18-.62,4.18-1.62,6.06a2.75,2.75,0,0,1-4.75-2.78c1-1.84,2.18-3.72,4.24-4.49a1.73,1.73,0,0,1,2.13,1.21Z" transform="translate(3.75 -50.11)"/><path class="cls-14" d="M167.48,436.2l-.21-.05h.82a2.6,2.6,0,0,1-2-.37l1,.28a7.46,7.46,0,0,1-2.5-1c-.32-.16-.65-.33-1-.48.54.25-1.37-.57-.61-.26a2.83,2.83,0,0,1-1.93-3.4c.42-1.29,2-2.51,3.4-1.93,2.06.84,4.54,2.53,4.67,5-.1-.35-.19-.69-.28-1a2.62,2.62,0,0,1,.09,2.46l.21-.79,0,.23a1.39,1.39,0,0,1-1.73,1.32Z" transform="translate(3.75 -50.11)"/><path class="cls-14" d="M163,447.63a10.62,10.62,0,0,0-1.82-.9,5,5,0,0,1-2-1.62,2,2,0,0,1,2.7-2.7,4.74,4.74,0,0,1,1.7,2.38c.29.69.32,1.46.61,2.16s-.7,1.05-1.16.68Z" transform="translate(3.75 -50.11)"/><path class="cls-14" d="M169.39,463.76a12.93,12.93,0,0,1-.73-1.38l.41.7a4.07,4.07,0,0,1-.64-3.49,2.15,2.15,0,0,1,3.61-.95,2.07,2.07,0,0,1,.55,2.1,10.51,10.51,0,0,1-1.59,2.83l.29-.51a2.33,2.33,0,0,0-.14.47,1,1,0,0,1-1.76.23Z" transform="translate(3.75 -50.11)"/><path class="cls-14" d="M172.9,455.75c-.7-.2-1-.78-1.39-1.33a1.74,1.74,0,0,1,1-2.55,1.74,1.74,0,0,1,2.19,1.67,2.25,2.25,0,0,1-.11,1.18,1.46,1.46,0,0,1-1.72,1Z" transform="translate(3.75 -50.11)"/><path class="cls-14" d="M166.85,481.92a2.83,2.83,0,0,1-.6-1l.32.56a3.44,3.44,0,0,1-.68-2,2.68,2.68,0,0,1,.56-2.42,1.58,1.58,0,0,1,2.18,0,2.86,2.86,0,0,1,.53,2.9,2.82,2.82,0,0,1-1.48,2.06.71.71,0,0,1-.83-.11Z" transform="translate(3.75 -50.11)"/><path class="cls-14" d="M164.12,460.54c-.17-.33-.35-.66-.52-1a2.62,2.62,0,0,1-.31-1.82,1.48,1.48,0,0,1,2.45-.65,2.61,2.61,0,0,1,.6,1.73c0,.38,0,.76,0,1.14a1.19,1.19,0,0,1-2.21.6Z" transform="translate(3.75 -50.11)"/><path class="cls-14" d="M165.2,474.24l-.09-.1.07.06a1,1,0,0,1-.22-.13c.18.07.21.09.1.05l-.35-.16c.26.12.22.1-.13,0a.89.89,0,0,1-.28-.23,1.21,1.21,0,0,1-.3-1.15,1.17,1.17,0,0,1,.82-.82,1.72,1.72,0,0,1,1.54.48,2.59,2.59,0,0,1,.56.72,1.1,1.1,0,0,1-1.72,1.33Z" transform="translate(3.75 -50.11)"/><path class="cls-14" d="M166.45,493.62c0,.17,0,.2,0,.08s0-.09.1.22a3,3,0,0,1,.11.32,2.84,2.84,0,0,1,0,1.05,1.56,1.56,0,1,1-2.9-.79,2.89,2.89,0,0,1,.55-.88l.26-.22.23-.18c-.12.13-.12.11,0,0a.88.88,0,0,1,1.62.44Z" transform="translate(3.75 -50.11)"/><path class="cls-14" d="M143.21,458.81c-.37-.18-.92-.2-1.34-.38a6.23,6.23,0,0,1-1.67-1.26c-.91-.87-2.09-1.85-2.31-3.14a2.59,2.59,0,0,1,.64-2.43A2.45,2.45,0,0,1,141,451a3.92,3.92,0,0,1,1.88,1.35A18.42,18.42,0,0,1,144,454a8.12,8.12,0,0,1,.78,1.49,16.18,16.18,0,0,1,.24,1.9,1.25,1.25,0,0,1-1.82,1.4Z" transform="translate(3.75 -50.11)"/><path class="cls-14" d="M143.9,448.66c.13.09.12.08,0,0a1.81,1.81,0,0,1-.46-.41,3.24,3.24,0,0,1-.59-1.19,7,7,0,0,1-.42-2.49,2.2,2.2,0,1,1,4.4,0,6.75,6.75,0,0,1-.3,2.36,5.36,5.36,0,0,1-.36,1c-.19.34-.52.49-.73.79a.88.88,0,0,1-1.5,0Z" transform="translate(3.75 -50.11)"/><path class="cls-14" d="M139.48,442.58a4.13,4.13,0,0,1-1-.71,2,2,0,0,1-.5-.91,5.71,5.71,0,0,1-.09-.82,1.35,1.35,0,0,1,2-1.17l.49.36a1.92,1.92,0,0,1,.69,1,3.77,3.77,0,0,1,.11,1.25,1.16,1.16,0,0,1-1.73,1Z" transform="translate(3.75 -50.11)"/><path class="cls-14" d="M135.86,435a7.57,7.57,0,0,0-1-1,1,1,0,0,1-.16-1.2l0-.06-.12.46V433a.84.84,0,0,1,1.25-.72l.1.05-.46-.12h.06a1,1,0,0,1,1,.73,8.42,8.42,0,0,0,.41,1.32c.25.61-.71,1.17-1.12.66Z" transform="translate(3.75 -50.11)"/><path class="cls-14" d="M146.77,479.33c-.41-1.31-1.21-2.41-1.47-3.79-.18-1,0-2.42,1.26-2.58s1.77,1.18,1.79,2.17c0,1.44-.59,2.69-.75,4.09a.43.43,0,0,1-.83.11Z" transform="translate(3.75 -50.11)"/><path class="cls-14" d="M141.34,468.39c-.58-1-1.36-2-1.32-3.15a1.27,1.27,0,0,1,1.89-1.09c1.09.76,1.43,2,1.91,3.19a1.34,1.34,0,0,1-.79,1.6,1.36,1.36,0,0,1-1.69-.55Z" transform="translate(3.75 -50.11)"/><path class="cls-14" d="M258.1,438.82l-.17.2.44-.75c-.45,1.5-2.32,2.2-3.11,3.37-.52.77-.79,1.67-1.65,2.17a2.46,2.46,0,0,1-3.37-.88c-1.12-1.92.68-4.24,2.12-5.42a6.61,6.61,0,0,1,2.64-1.43,4.39,4.39,0,0,1,1.44-.12,4.72,4.72,0,0,1,1.35.49,1.52,1.52,0,0,1,.31,2.37Z" transform="translate(3.75 -50.11)"/><path class="cls-14" d="M247.22,432.33c-1.16-.57-1.88-1.47-3-2-.35-.18-.78-.3-1.37-.52a3.36,3.36,0,0,1-2.29-2.24,2.49,2.49,0,0,1,.65-2.47c3.12-3,9,2.08,8.83,5.6a1.93,1.93,0,0,1-2.86,1.65Z" transform="translate(3.75 -50.11)"/><path class="cls-14" d="M243.45,437c-.06-.45,0-.34,0,.31-.08.65-.1.75,0,.33-.08.34-.08.73-.14,1.09a7.32,7.32,0,0,1-.59,1.86,2.64,2.64,0,0,1-3.31,1.08,2.69,2.69,0,0,1-1.53-3.13,4.47,4.47,0,0,1,1.27-2.24,4.37,4.37,0,0,1,.91-.69,3.62,3.62,0,0,1,.48-.25,1.14,1.14,0,0,1,.54-.14q.55-.07,0,0a1.88,1.88,0,0,1,2.34,1.78Z" transform="translate(3.75 -50.11)"/><path class="cls-14" d="M248.68,448.55c1.47,1.2,1.64,3.72,1.73,5.48a2.49,2.49,0,0,1-1.24,2.17,2.56,2.56,0,0,1-2.54,0,2.49,2.49,0,0,1-1.24-2.17c.09-1.76.26-4.28,1.73-5.48a1.13,1.13,0,0,1,1.56,0Z" transform="translate(3.75 -50.11)"/><path class="cls-14" d="M257.68,450.3a3.55,3.55,0,0,1,.7,2.32,6.08,6.08,0,0,1-.73,3.24,2.23,2.23,0,0,1-2.76.91,2.28,2.28,0,0,1-1.29-2.61,6.06,6.06,0,0,1,1.56-2.75,3.5,3.5,0,0,1,2.09-1.29.42.42,0,0,1,.43.18Z" transform="translate(3.75 -50.11)"/><path class="cls-14" d="M257.71,467.26a4.6,4.6,0,0,1,.85,1.67,3.25,3.25,0,0,1-.27,2.66,2.06,2.06,0,0,1-3.52,0,3.29,3.29,0,0,1-.26-2.66,4.45,4.45,0,0,1,.85-1.67,1.38,1.38,0,0,1,2.35,0Z" transform="translate(3.75 -50.11)"/><path class="cls-14" d="M251.93,469.15c.36.47.8.86,1.13,1.35a2.64,2.64,0,0,1,.33,2.25,1.41,1.41,0,0,1-2.08.84,2.74,2.74,0,0,1-1.3-2c-.08-.63,0-1.24-.06-1.87a1.07,1.07,0,0,1,.78-1,1.12,1.12,0,0,1,1.2.49Z" transform="translate(3.75 -50.11)"/><path class="cls-14" d="M258.74,484.76l.17.17c.07.09.3.35.15.18a2.7,2.7,0,0,1,.38.57,1.54,1.54,0,0,1,0,1.43,1.3,1.3,0,0,1-1,.69,1.25,1.25,0,0,1-.75-.14l.28.12a1.3,1.3,0,0,1-.3-.13,1.43,1.43,0,0,1-.69-1,2.53,2.53,0,0,1,.1-.86c0-.1.05-.19,0,0a2.81,2.81,0,0,0,0-.29.94.94,0,0,1,1.59-.66Z" transform="translate(3.75 -50.11)"/><path class="cls-14" d="M253.45,425.4a2.42,2.42,0,0,1-1,.24,3.43,3.43,0,0,1-1.51-.6c-.85-.43-1.72-.89-2.54-1.41a2.27,2.27,0,0,1,2.29-3.91,9.42,9.42,0,0,1,2.7,2.71,2.87,2.87,0,0,1,.65,1.81c0,.39-.16,1-.57,1.16Z" transform="translate(3.75 -50.11)"/><path class="cls-14" d="M235.33,434.25c-.47,1.08-.65,2.31-1.58,3.13a1.76,1.76,0,0,1-2.08.27,1.66,1.66,0,0,1-.8-1,1.68,1.68,0,0,1,.45-1.67,5.41,5.41,0,0,1,1.73-1,2.36,2.36,0,0,0,1-.67c.7-.69,1.63.18,1.28,1Z" transform="translate(3.75 -50.11)"/><path class="cls-14" d="M338,480.66a6.43,6.43,0,0,0,.89-1c1.36-1.88,1.69-4.3,2-6.6.31-2.54.63-5.07.95-7.61,1.28.73,2.58,1.41,3.92,2a9.21,9.21,0,0,1,0,3.1c-.54,3.12-2.19,6-2.73,9.08a9.3,9.3,0,0,0-.06,2.74Q340.42,481.61,338,480.66Z" transform="translate(3.75 -50.11)"/><path class="cls-14" d="M356,485.34c-.66-.09-1.31-.2-2-.31a11.49,11.49,0,0,0,3.13-7.4,15.73,15.73,0,0,0-1.17-6.16c-.11-.3-.21-.57-.29-.81a42.21,42.21,0,0,0,4.34.56c5.36.39,10.95-.28,15.93,1.73a9.52,9.52,0,0,1,5,4.16,5.39,5.39,0,0,1-.67,6.2,7.81,7.81,0,0,1-3.94,1.77A57.07,57.07,0,0,1,356,485.34Z" transform="translate(3.75 -50.11)"/><path class="cls-14" d="M314.6,460.42a24.32,24.32,0,0,0,4.35-8.25,13.14,13.14,0,0,1,1.87-4.64,4.17,4.17,0,0,1,1.86-1.31c1,1.62,2,3.2,3.13,4.72a6.29,6.29,0,0,1-.51,2.28,22.42,22.42,0,0,1-4.68,7.44c-1.25,1.32-2.69,2.53-3.45,4.19a5.59,5.59,0,0,0-.48,2c-1.25-1.27-2.44-2.6-3.58-4A6.36,6.36,0,0,1,314.6,460.42Z" transform="translate(3.75 -50.11)"/><path class="cls-14" d="M325.48,471.78a9.64,9.64,0,0,0,2.67-4.62,58.67,58.67,0,0,0,2.42-10.55c.24.25.48.51.73.76,1,1,2,1.9,3,2.79-.37,3.21.76,6.6-.41,9.61-1,2.51-3.49,4.56-4.15,7a59.59,59.59,0,0,1-6.27-4A5.24,5.24,0,0,0,325.48,471.78Z" transform="translate(3.75 -50.11)"/><path class="cls-14" d="M312,449.15c-.41-1.56,0-3.22-.24-4.82-.25-1.77.32-3.79,2.47-3.85,4.16-.1,4.47,6.83,2.73,9.32-1.28,1.82-4.34,1.75-5-.65Z" transform="translate(3.75 -50.11)"/><path class="cls-14" d="M309.11,444.23c-1.49.67-2.86-.06-4-1.11a7.61,7.61,0,0,1-1.38-1.73,5.32,5.32,0,0,1-.58-2.62c0-2.28,3.26-3.24,4.35-1.18.52,1,1.14,2,1.68,3.17a4.83,4.83,0,0,1,.59,2c0,.45-.21,1.27-.68,1.48Z" transform="translate(3.75 -50.11)"/><path class="cls-14" d="M310.05,433.11a7.3,7.3,0,0,1-.73-2,15.66,15.66,0,0,1-.1-2.47,1.86,1.86,0,0,1,3.71,0,6.18,6.18,0,0,1-1.06,4.49,1.07,1.07,0,0,1-1.82,0Z" transform="translate(3.75 -50.11)"/><path class="cls-14" d="M308.67,418a7.63,7.63,0,0,1-2.07-3.57c-.45-1.51-.56-2.49.47-3.73a.92.92,0,0,1,1.08-.14c1.42.64,1.67,1.72,1.9,3.17a7.51,7.51,0,0,1-.3,4,.65.65,0,0,1-1.08.28Z" transform="translate(3.75 -50.11)"/><path class="cls-14" d="M305.76,420a15.52,15.52,0,0,1,.21,3.79c-.05,1.18-.17,2.48-1.25,3.17a.86.86,0,0,1-.89,0c-2.42-1.49-.63-5.75,1-7.21a.59.59,0,0,1,1,.25Z" transform="translate(3.75 -50.11)"/><path class="cls-14" d="M313.56,458a3.07,3.07,0,0,1-2.54-.61,5.17,5.17,0,0,1-2.17-1.88,2.1,2.1,0,0,1,2.34-3c1.17.22,2.16,1.45,2.78,2.39a2.91,2.91,0,0,1,.6,1.58,1.52,1.52,0,0,1-1,1.56Z" transform="translate(3.75 -50.11)"/><g class="cls-15"><path class="cls-8" d="M80.05,505.08h3.86c0-.12,0-.24,0-.36a16,16,0,0,1,15.94-16l55.9-.18a16,16,0,0,1,15.95,15.94c0,.13,0,.26,0,.39l11,0a15.95,15.95,0,0,1,0,31.89h0a16,16,0,0,1-15.94,15.58l-70,.19A15.94,15.94,0,0,1,80.79,537h-.74a16,16,0,1,1,0-31.9Z" transform="translate(3.75 -50.11)"/></g><g class="cls-16"><path class="cls-8" d="M1308.94,514.15h3.86c0-.12,0-.24,0-.36a16,16,0,0,1,15.94-15.95l55.9-.18a16,16,0,0,1,15.95,15.94c0,.13,0,.26,0,.39l11,0a15.95,15.95,0,0,1,0,31.89h0a16,16,0,0,1-15.94,15.58l-70,.18A15.94,15.94,0,0,1,1309.68,546h-.74a15.95,15.95,0,1,1,0-31.89Z" transform="translate(3.75 -50.11)"/></g><g class="cls-17"><path class="cls-8" d="M1080.93,528h4.44c0-.14,0-.27,0-.41a18.34,18.34,0,0,1,18.34-18.34L1168,509a18.34,18.34,0,0,1,18.34,18.34c0,.14,0,.29,0,.44l12.66,0a18.34,18.34,0,0,1,0,36.68h0a18.34,18.34,0,0,1-18.33,17.91l-80.53.21a18.33,18.33,0,0,1-18.33-17.91h-.85a18.34,18.34,0,0,1,0-36.68Z" transform="translate(3.75 -50.11)"/></g><path class="cls-18" d="M1268.71,455.81l-13.3,1.58-44.64-1.11,1.56-63a53.9,53.9,0,0,1,7.07,1.49c-2,9-6.8,30.23-6.81,30.59.23-.43,6.7-20.14,9.82-29.66a67.68,67.68,0,0,1,10.67,4.68l-16,30.38,18.07-29.23a88.07,88.07,0,0,1,8,5.2,52.74,52.74,0,0,1,13.8,15.62l-40.71,26.4,42.08-24a88.94,88.94,0,0,1,6.52,15.38l-40.93,12.05,42.14-8.1C1267.19,448.29,1268.06,452.29,1268.71,455.81Z" transform="translate(3.75 -50.11)"/><path class="cls-18" d="M1079.14,400.36l9.12,1.08,30.59-.75-1.07-43.16a36,36,0,0,0-4.84,1c1.39,6.19,4.66,20.71,4.66,21-.16-.29-4.59-13.8-6.73-20.32a46.71,46.71,0,0,0-7.31,3.2l11,20.82-12.38-20a55.63,55.63,0,0,0-5.46,3.57,35.88,35.88,0,0,0-9.46,10.7l27.89,18.09-28.83-16.45a61.32,61.32,0,0,0-4.47,10.54l28,8.26L1081,392.34C1080.18,395.21,1079.58,398,1079.14,400.36Z" transform="translate(3.75 -50.11)"/></g></g></svg>