<svg xmlns="http://www.w3.org/2000/svg" xmlns:xlink="http://www.w3.org/1999/xlink" viewBox="0 0 1519.28 529.08"><defs><style>.cls-1,.cls-4{fill:none;}.cls-2{fill:#aad6d0;}.cls-3{fill:#a09f9f;}.cls-4{stroke:#213039;stroke-miterlimit:10;stroke-width:3px;}.cls-5{fill:#606060;}.cls-6{clip-path:url(#clip-path);}.cls-7{fill:#f7f7f7;}.cls-8{fill:#fdf6e6;}.cls-9{clip-path:url(#clip-path-2);}.cls-10{fill:#6b6a6a;}.cls-11{fill:#444;}.cls-12{fill:#565656;}.cls-13{fill:#ccc;}</style><clipPath id="clip-path" transform="translate(75.53 -50.11)"><rect class="cls-1" width="1440" height="579.19"/></clipPath><clipPath id="clip-path-2" transform="translate(75.53 -50.11)"><polygon class="cls-1" points="0 341.28 436.26 341.28 436.59 511.01 0 510.93 0 341.28"/></clipPath></defs><g id="Capa_2" data-name="Capa 2"><g id="Arte"><circle class="cls-2" cx="1296.18" cy="232.75" r="45.04"/><circle class="cls-3" cx="1329.4" cy="229.89" r="33.56" transform="translate(877.87 1421.69) rotate(-76.81)"/><line class="cls-4" x1="1296.18" y1="239.54" x2="1296.18" y2="323.03"/><rect class="cls-5" x="1402.85" y="183.69" width="4.17" height="145.13"/><path class="cls-5" d="M1328.51,345a48.5,48.5,0,0,1-24.6-27.89l4-1.17-2,.59,2-.59c0,.17,5.23,17.12,22.38,25.29Z" transform="translate(75.53 -50.11)"/><rect class="cls-5" x="1316.42" y="287.01" width="53.68" height="4.17" transform="translate(477.81 1240.22) rotate(-58.92)"/><circle class="cls-3" cx="1296.18" cy="232.75" r="45.04"/><rect class="cls-5" x="1294.09" y="239.54" width="4.17" height="79.69"/><g class="cls-6"><path class="cls-7" d="M99.5,149.5H233.6s-1-16.23-25.83-16.23c0,0-6.29-20.2-31.78-20.2-12,0-19.54,2-28.81,9.94C147.18,123,99.5,117.31,99.5,149.5Z" transform="translate(75.53 -50.11)"/><path class="cls-7" d="M1028.76,403c-11,5.95-28.71,5.95-39.67,0l-39-21.21c-11-5.95-28.71-5.95-39.67,0l-141.58,77c-11,6-28.72,6-39.67,0l-60.77-33c-10.95-6-28.71-6-39.66,0l-39.28,21.35c-11,6-28.72,6-39.67,0L355,341.21c-11-5.95-28.71-5.95-39.67,0l-62.63,34.05c-5.26,2.86-12.4,4.47-19.84,4.47L46.28,203.28c-16.79-11-49.59-4.51-49.59,9.76V543.69h0v15.42l1440,2V454.81Z" transform="translate(75.53 -50.11)"/><path class="cls-7" d="M647.52,567.22c-6.63,0-8.67,1.29-13.73,6.23s-9.42,2.13-11.57-.07c-2.34-2.4-4.67-6.33-11.31-6.37s-8.67,1.28-13.73,6.23-9.42,2.13-11.56-.07c-2.35-2.4-4.68-6.33-11.32-6.37h.51c-6.63,0-8.68,1.28-13.74,6.22s-9.42,2.13-11.56-.06c-2.34-2.4-4.67-6.34-11.31-6.37s-8.67,1.28-13.73,6.22-9.42,2.13-11.57-.07c-2.34-2.4-4.67-6.33-11.31-6.37H502c-6.64,0-8.68,1.29-13.74,6.23s-9.42,2.13-11.56-.07c-2.34-2.4-4.67-6.33-11.31-6.37s-8.68,1.28-13.74,6.23-9.42,2.13-11.56-.07c-2.34-2.4-4.17-6.33-10.81-6.37h0V558H647.55Z" transform="translate(75.53 -50.11)"/><path class="cls-7" d="M792.33,566.8h.5c-6.64,0-8.69,1.28-13.76,6.22s-9.43,2.13-11.58-.06c-2.34-2.4-4.68-6.34-11.32-6.37s-8.7,1.28-13.76,6.22-9.44,2.13-11.58-.07c-2.35-2.4-4.69-6.33-11.33-6.37h.41c-6.65,0-8.69,1.28-13.76,6.23s-9.43,2.13-11.58-.07c-2.34-2.4-4.68-6.33-11.33-6.37s-8.69,1.28-13.76,6.22-9.43,2.13-11.58-.06c-2.34-2.4-4.2-5-10.85-5.09l0-9.23H791.52" transform="translate(75.53 -50.11)"/><path class="cls-8" d="M1437.45,570.22c-6.65,0-8.7,1.29-13.76,6.23s-9.44,2.13-11.58-.07c-2.35-2.4-4.68-6.33-11.33-6.37s-8.69,1.28-13.76,6.23-9.44,2.13-11.58-.07c-2.35-2.4-4.68-6.33-11.33-6.37h.51c-6.65,0-8.69,1.28-13.76,6.22s-9.44,2.13-11.58-.06c-2.35-2.4-4.68-6.34-11.33-6.37s-8.69,1.28-13.76,6.22-9.44,2.13-11.58-.07c-2.34-2.4-4.68-6.33-11.33-6.37h.42c-6.65,0-8.7,1.28-13.77,6.23s-9.43,2.13-11.57-.07c-2.35-2.4-4.69-6.33-11.33-6.37s-8.7,1.28-13.76,6.22-9.44,2.13-11.58-.06c-2.35-2.4-4.18-6.33-10.83-6.37h0V561h218.6Z" transform="translate(75.53 -50.11)"/><path class="cls-8" d="M1219.89,570.22c-6.64,0-8.69,1.29-13.76,6.23s-9.43,2.13-11.58-.07c-2.34-2.4-4.68-6.33-11.33-6.37s-8.69,1.28-13.76,6.23-9.43,2.13-11.58-.07c-2.34-2.4-4.68-6.33-11.32-6.37h.5c-6.64,0-8.69,1.28-13.76,6.22s-9.43,2.13-11.58-.06c-2.34-2.4-4.68-6.34-11.32-6.37s-8.7,1.28-13.76,6.22-9.44,2.13-11.58-.07c-2.35-2.4-4.69-6.33-11.33-6.37h.41c-6.65,0-8.69,1.28-13.76,6.23s-9.43,2.13-11.58-.07c-2.34-2.4-4.68-6.33-11.33-6.37s-8.69,1.28-13.76,6.22-9.43,2.13-11.58-.06c-2.34-2.4-4.18-6.33-10.82-6.37l10.83-9,207.78,1Z" transform="translate(75.53 -50.11)"/><path class="cls-7" d="M1012.16,560.12a11,11,0,0,1-7.16,10.13c-2.31.9-4.26,2.53-7.15,5.24-5.26,4.94-9.8,2.13-12-.07-2.44-2.4-4.87-6.33-11.77-6.37s-9,1.28-14.29,6.22-9.79,2.13-12-.07c-2.43-2.4-4.86-6.33-11.76-6.37h.52c-6.9,0-9,1.28-14.28,6.22s-9.8,2.13-12-.07c-2.43-2.4-4.86-6.33-11.76-6.37s-9,1.28-14.29,6.22-9.8,2.13-12-.07c-2.44-2.4-4.86-6.33-11.77-6.37h.43c-6.9,0-9,1.28-14.28,6.22s-9.8,2.13-12-.07c-2.43-2.4-4.86-6.33-11.76-6.37s-9,1.28-14.29,6.22-9.8,2.13-12-.07c-2.44-2.4-4.34-6.33-11.25-6.37v-8l227,0Z" transform="translate(75.53 -50.11)"/><path class="cls-7" d="M1238.56,176.48h60.82s-.45-7.35-11.72-7.35c0,0-2.85-9.16-14.41-9.16-5.43,0-8.86.9-13.07,4.5C1260.18,164.47,1238.56,161.89,1238.56,176.48Z" transform="translate(75.53 -50.11)"/><path class="cls-7" d="M249.15,75.3H156.4s.68-11.22,17.86-11.22c0,0,4.35-14,22-14,8.27,0,13.51,1.38,19.92,6.87C216.17,57,249.15,53,249.15,75.3Z" transform="translate(75.53 -50.11)"/><path class="cls-3" d="M1076.68,559.11l57.73-162c7-20.4,24.7-33.91,44.5-33.91h62.65a45.44,45.44,0,0,0,33.61-15.32h0a45.44,45.44,0,0,1,33.62-15.33h135V559.11Z" transform="translate(75.53 -50.11)"/><path class="cls-8" d="M214.84,565.94c-6.65,0-8.7,1.28-13.76,6.23s-9.44,2.12-11.58-.07c-2.35-2.4-4.68-6.33-11.33-6.37S169.48,567,164.41,572s-9.44,2.13-11.58-.06c-2.35-2.4-4.68-6.34-11.33-6.37l.51,0c-6.65,0-8.69,1.29-13.76,6.23s-9.44,2.13-11.58-.07c-2.35-2.4-4.68-6.33-11.33-6.37s-8.69,1.29-13.76,6.23-9.44,2.13-11.58-.07c-2.34-2.4-4.68-6.33-11.33-6.37h.42c-6.65,0-8.7,1.28-13.76,6.22s-9.44,2.13-11.58-.06c-2.35-2.4-4.69-6.34-11.33-6.37s-8.7,1.28-13.76,6.22S9.22,573.22,7.08,571c-2.35-2.41-4.18-6.34-10.83-6.38h0v-7.93h218.6Z" transform="translate(75.53 -50.11)"/><path class="cls-8" d="M429.25,565.94c-6.66,0-8.7,1.29-13.78,6.23s-9.45,2.13-11.6-.07c-2.35-2.4-4.69-6.33-11.34-6.37S383.82,567,378.74,572s-9.45,2.12-11.59-.07c-2.35-2.4-4.69-6.33-11.35-6.37h.51c-6.66,0-8.71,1.28-13.78,6.22s-9.45,2.13-11.6-.07c-2.35-2.4-4.69-6.33-11.34-6.37s-8.71,1.29-13.79,6.23-9.45,2.13-11.59-.07c-2.35-2.4-4.69-6.33-11.35-6.37h.41c-6.65,0-8.7,1.28-13.78,6.22s-9.45,2.13-11.59-.06c-2.35-2.4-4.69-6.33-11.35-6.37s-8.71,1.28-13.78,6.22-9.45,2.13-11.6-.06c-2.35-2.41-4.18-6.34-10.84-6.38h0v-7.93H429.27Z" transform="translate(75.53 -50.11)"/><path class="cls-8" d="M525.12,573c-5.08,4.94-9.45,2.13-11.6-.07-2.35-2.4-4.69-6.33-11.35-6.37s-8.7,1.28-13.78,6.23-9.45,2.13-11.59-.07c-2.35-2.4-4.69-6.33-11.35-6.37H466c-6.66,0-8.71,1.28-13.78,6.22s-9.45,2.13-11.6-.06c-2.35-2.4-4.69-6.34-11.35-6.37s-8.7,1.28-13.78,6.22-9.45,2.13-11.6-.07c-2.34-2.4-4.68-6.33-11.34-6.37h.41c-6.65,0-8.7,1.28-13.78,6.23s-9.45,2.13-11.6-.07c-2.34-2.4-4.68-6.33-11.34-6.37s-8.71,1.28-13.78,6.22-9.45,2.13-11.6-.06c-2.35-2.4-4.19-6.34-10.84-6.37v-8H519.86S530.19,568,525.12,573Z" transform="translate(75.53 -50.11)"/><path class="cls-8" d="M-3.31,509.9H423.16c3.7,0,6.7,3.93,6.7,8.78h0c0,4.85,3,8.78,6.7,8.78H488a30.6,30.6,0,0,1,13.43,3.15A33.32,33.32,0,0,1,518,549.31l4.52,12.3H-3.31Z" transform="translate(75.53 -50.11)"/><circle class="cls-8" cx="278.79" cy="267.57" r="132.12"/></g><g class="cls-9"><path class="cls-3" d="M268.66,429.53l-72.12.05-58.78-38.47h-25L83,367.57,53.27,391.11l-53.2-44-33.38,26.27-24.1-13.29-18.12,13.74V513.16H351.18l-.06-2.36a83.18,83.18,0,0,0-82.46-81.27Z" transform="translate(75.53 -50.11)"/></g><polygon class="cls-5" points="346.75 459.81 376.54 454.11 351.2 437.44 380.9 443.57 363.87 418.48 388.97 435.51 382.84 405.81 399.5 431.15 405.21 401.36 410.91 431.15 427.58 405.81 421.44 435.51 446.54 418.48 429.51 443.57 459.21 437.44 433.87 454.11 463.66 459.81 346.75 459.81"/><path class="cls-10" d="M1248.94,395.23h-5.7c0-.18,0-.35,0-.53a23.56,23.56,0,0,0-23.56-23.57l-82.62-.27a23.56,23.56,0,0,0-23.56,23.57c0,.19,0,.38,0,.57l-16.26,0a23.57,23.57,0,1,0,0,47.13h0a23.56,23.56,0,0,0,23.55,23l103.47.27a23.56,23.56,0,0,0,23.55-23h1.1a23.57,23.57,0,0,0,0-47.13Z" transform="translate(75.53 -50.11)"/><path class="cls-10" d="M142.83,308h-3.9c0-.12,0-.24,0-.36a16.13,16.13,0,0,0-16.13-16.13l-56.53-.18a16.12,16.12,0,0,0-16.12,16.12c0,.13,0,.26,0,.39L39,307.8a16.13,16.13,0,1,0,0,32.25h0a16.11,16.11,0,0,0,16.11,15.76L126,356a16.13,16.13,0,0,0,16.12-15.75h.75a16.13,16.13,0,0,0,0-32.25Z" transform="translate(75.53 -50.11)"/><path class="cls-10" d="M333.66,314.28h-3.9c0-.12,0-.24,0-.36a16.12,16.12,0,0,0-16.12-16.12l-56.53-.19A16.13,16.13,0,0,0,241,313.73c0,.13,0,.26,0,.39l-11.13,0a16.13,16.13,0,0,0,0,32.25h0A16.12,16.12,0,0,0,246,362.1l70.8.18a16.12,16.12,0,0,0,16.11-15.75h.75a16.13,16.13,0,1,0,0-32.25Z" transform="translate(75.53 -50.11)"/><path class="cls-3" d="M230.91,341.54H227c0-.13,0-.25,0-.37a16.12,16.12,0,0,0-16.12-16.12l-56.53-.19A16.13,16.13,0,0,0,138.23,341c0,.13,0,.26,0,.39l-11.13,0a16.13,16.13,0,0,0,0,32.25h0a16.13,16.13,0,0,0,16.12,15.75l70.8.19a16.11,16.11,0,0,0,16.11-15.76h.76a16.13,16.13,0,0,0,0-32.25Z" transform="translate(75.53 -50.11)"/><path class="cls-11" d="M1316.71,543.75l.12-29.63,61.26-60.84-1.72-1.73L1358.77,469l-19.83-20,13.11-13a1.22,1.22,0,1,0-1.71-1.73l-13.11,13-12.39-12.5a1.22,1.22,0,0,0-1.74,1.72l12.87,13a1.21,1.21,0,0,0,.28.49,1.1,1.1,0,0,0,.49.28l20.32,20.49-48.34,48-32.56-32.94,33-32.69a1.22,1.22,0,0,0-1.72-1.73l-12.09,12-28.37-28.61a1.22,1.22,0,0,0-1.73,1.72l28.37,28.61-19.14,19-37-37.44a1.22,1.22,0,0,0-1.74,1.71l20.11,20.35-14.66-.06a1.22,1.22,0,0,0,0,2.44l17.09.07,42.68,43.17-.36,45.19,15.92.07.23-12.92" transform="translate(75.53 -50.11)"/><path class="cls-5" d="M1184.9,503.79l-.22-29.64,60.56-61.53-1.74-1.71-17.39,17.65-20.06-19.77,13-13.14a1.22,1.22,0,1,0-1.74-1.71l-13,13.14-12.53-12.35a1.22,1.22,0,0,0-1.71,1.74l13,12.82a1.23,1.23,0,0,0,.29.49,1.21,1.21,0,0,0,.49.28l20.55,20.25-47.78,48.55-32.94-32.57,32.58-33.06a1.22,1.22,0,1,0-1.73-1.72l-12,12.13-28.7-28.28a1.22,1.22,0,1,0-1.71,1.73l28.69,28.29L1142,444.58l-37.43-37a1.22,1.22,0,0,0-1.71,1.73l20.34,20.12-14.66.11a1.22,1.22,0,1,0,0,2.43l17.09-.12,43.16,42.68.63,85.84,15.92-.11-.39-53.58" transform="translate(75.53 -50.11)"/><path class="cls-12" d="M1381.06,435.07h-5.71c0-.17,0-.35,0-.53A23.56,23.56,0,0,0,1351.8,411l-82.61-.27a23.56,23.56,0,0,0-23.56,23.56c0,.19,0,.38,0,.57l-16.27,0a23.57,23.57,0,0,0,0,47.13h0a23.56,23.56,0,0,0,23.55,23l103.47.27a23.56,23.56,0,0,0,23.55-23h1.1a23.57,23.57,0,0,0,0-47.13Z" transform="translate(75.53 -50.11)"/><path class="cls-10" d="M1425.92,355.29s1.28-4.78-2-7.23C1423.92,348.06,1421.65,352.58,1425.92,355.29Z" transform="translate(75.53 -50.11)"/><path class="cls-10" d="M1345,368.5s2.14,5.07-1.6,8.47C1343.43,377,1340.18,372.5,1345,368.5Z" transform="translate(75.53 -50.11)"/><path class="cls-10" d="M1297.27,358.75s2.14,5.07-1.6,8.47C1295.67,367.22,1292.42,362.75,1297.27,358.75Z" transform="translate(75.53 -50.11)"/><path class="cls-10" d="M1270.21,352.64a263.41,263.41,0,0,0,28.5,8.93,191.33,191.33,0,0,0,46.67,6,163.55,163.55,0,0,0,28.4-2.44,158.54,158.54,0,0,0,66.61-28.39l-.84-4.07c-20.33,15.08-42.75,25.46-66.22,29.61s-48.18,3-73.83-3.48a225,225,0,0,1-26.67-8.38" transform="translate(75.53 -50.11)"/><path class="cls-11" d="M1406.49,361.39l1.21-5.89s-1-4.91-1.21-4.79a15.28,15.28,0,0,1,0-2.79s7.72-5.95,8.67-5.74,2.4,6.37,1.08,9.6a53.1,53.1,0,0,1-3.61,6.85l-2.41,4.45Z" transform="translate(75.53 -50.11)"/><path class="cls-11" d="M1322.94,373.91l-2.8-3.85c.24-1.57,1.18-1.81.83-3.13s1-6.74.48-7.34-11.54-1.2-11.54-1.2.24,7.1.72,8.3,4.21,4.13,4.21,4.13l6.25,8.13Z" transform="translate(75.53 -50.11)"/><path class="cls-11" d="M1424.07,456.16c-2.8,7-9.21,10.36-15.83,10.71a22.63,22.63,0,0,1-5.33-.34,20.87,20.87,0,0,1-2.34-.54c-10.72-3.12-19.41-12.7-23.86-26.29a2,2,0,0,1,3.79-1.24c1.91,5.83,7.79,19.8,21.18,23.69l.29.08c7,1.91,15.42-.06,18.39-7.55,3.43-8.66-2.24-13.48-8.81-19.06a56,56,0,0,1-7.19-6.88c-6.34-7.83-6.66-20.94-.7-28.64,2.67-3.43,7.93-5.88,12.43-3.66a2,2,0,1,1-1.76,3.58c-2.51-1.24-5.79.31-7.51,2.53-4.83,6.23-4.53,17.29.65,23.67a50.47,50.47,0,0,0,6.67,6.36C1420.9,438.32,1428.56,444.83,1424.07,456.16Z" transform="translate(75.53 -50.11)"/><path class="cls-11" d="M1377.73,476.44c-.3.45-2.11,7.79-2.11,7.79l.22,4.2,1.94-3-.39,8.24,1.3.69,1.77-1.4,4.58-1.32.81-13.56Z" transform="translate(75.53 -50.11)"/><path class="cls-11" d="M1369.25,465.65s4.19,1.39,5.1,2.21.5,9.27.57,10.57-2.15,2.81-2.15,2.81l-.19-3.66-1.21,7.31-1.89,1-2.7-5.92,2.72-9.66-2.28-2.36Z" transform="translate(75.53 -50.11)"/><path class="cls-13" d="M1412.86,361.88c-1-.85-6-4.1-6-4.69-5.55,14.45-15.66,26.6-25.6,38.47-2.67,3.19-5.56,6.53-9.52,7.8-5.79,1.86-11.93-1.22-17-4.52-11.33-7.32-21.57-16.2-31.76-25.05l-4,3.12a404.18,404.18,0,0,0,36.66,38.74c1.16,1.07,9.58,23.93,6.71,30.79,0,0-1.87-.12-2.05-.12a17.49,17.49,0,0,0-2.29.14,18.92,18.92,0,0,0-9,3.5c-1.7,1.24-4,3.47-1.69,5.31,3.9,3.08,7.79,6.14,11.89,8.95q4.56,3.12,9.32,5.93l1.6-5.14-5.11-5.19,7.56,1.95a55.34,55.34,0,0,0,5.88,20.78c.72,1.41,1.62,2.89,3.11,3.41a4.47,4.47,0,0,0,4.83-1.88,11.78,11.78,0,0,0,1.75-5.23,79,79,0,0,0-1.13-30,39.61,39.61,0,0,1-1.54-8.8c0-2.27,15.71-51.48,25.06-73.12Q1411.73,364.46,1412.86,361.88Z" transform="translate(75.53 -50.11)"/><path class="cls-8" d="M1362.73,395.88c4.68-4.06,11-1.16,12.77,1s.87,14.56-2.71,17.84c-1.88,1.72-5,3.74-8.23,1.7a6.14,6.14,0,0,1-2.93-6C1362.06,407.89,1357.87,400.1,1362.73,395.88Z" transform="translate(75.53 -50.11)"/><path class="cls-11" d="M1360.75,405.94s.65-1.14,1.28-1.09c.42,0,1.87.68,2.15.63.46-.07,1-1,2.12-1.14a9.1,9.1,0,0,1,4.45,1.06,2.16,2.16,0,0,1,.34,2.21c-.1.33-1.6,2.88-1.6,2.88a31.51,31.51,0,0,1-.15,5.31c-.32.92-6-.43-6.5-1.24a13.56,13.56,0,0,1-1.15-4.53,8.82,8.82,0,0,0,.28,4.11c4.63,12.82,14.17-.4,14-.7s.91-4.67.79-5a7.71,7.71,0,0,1,.82-3.43c.62-1.21-.2-1.8-.44-2.26s.58-1.41.49-1.94.79-4.86-1.6-6a14,14,0,0,0-5.31-1.14s1.43-.66-1.13-1C1357.75,391.08,1359.05,405.46,1360.75,405.94Z" transform="translate(75.53 -50.11)"/><path class="cls-8" d="M1374,401.14s1.75-3,3.23-1.93,2.89,5.45,1.31,6.55-2.3,2.64-3.22,2.18Z" transform="translate(75.53 -50.11)"/><path class="cls-11" d="M98.83,370.05,96.67,512.52l-9-.14,2.44-160.55L66.44,327.38l-9.6-.15a.68.68,0,1,1,0-1.36l8.24.12L53.92,314.46a.68.68,0,0,1,1-.95l20.57,21.21,10.87-10.51L70.57,308a.69.69,0,1,1,1-.95l15.77,16.21,6.86-6.65a.69.69,0,0,1,1,0,.67.67,0,0,1,0,1L76.42,335.71l18.1,18.66L122,327.77l-11.29-11.6a.69.69,0,0,1-.27-.17.63.63,0,0,1-.16-.27l-7.15-7.35a.68.68,0,1,1,1-.95l6.89,7.08,7.45-7.21a.68.68,0,0,1,1,0,.67.67,0,0,1,0,1l-7.45,7.21,11,11.32,10-9.67,1,1L99.11,351.83Z" transform="translate(75.53 -50.11)"/><path class="cls-11" d="M183.72,402.71V545.2h-8.94V384.63l-24.09-24.09h-9.6a.69.69,0,1,1,0-1.37h8.24L138,347.81a.67.67,0,0,1,0-1,.68.68,0,0,1,1,0l20.88,20.89,10.71-10.68-16-16a.69.69,0,1,1,1-1l16,16,6.77-6.75a.69.69,0,0,1,1,1L160.8,368.71l18.38,18.39,27-27-11.47-11.43a.74.74,0,0,1-.27-.16.66.66,0,0,1-.16-.28L187.07,341a.67.67,0,0,1,0-1,.68.68,0,0,1,1,0l7,7,7.34-7.31a.68.68,0,1,1,1,1L196,348l11.19,11.15,9.85-9.82,1,1-34.29,34.23Z" transform="translate(75.53 -50.11)"/><path class="cls-11" d="M291.68,377.16l-2.16,142.47-8.95-.13L283,359l-23.71-24.46-9.61-.14a.69.69,0,0,1,0-1.37l8.24.13-11.17-11.53a.68.68,0,0,1,0-1,.69.69,0,0,1,1,0l20.57,21.21,10.87-10.52-15.77-16.2a.68.68,0,0,1,0-1,.67.67,0,0,1,1,0l15.77,16.2,6.87-6.64a.68.68,0,1,1,.95,1l-18.72,18.11,18.1,18.67,27.45-26.6-11.29-11.61a.63.63,0,0,1-.27-.16.64.64,0,0,1-.15-.28L296,315.5a.68.68,0,0,1,0-1,.69.69,0,0,1,1,0l6.89,7.08,7.44-7.2a.69.69,0,0,1,1,1l-7.45,7.2,11,11.33,10-9.67,1,1L292,359Z" transform="translate(75.53 -50.11)"/><polygon class="cls-10" points="96.61 501.27 126.4 495.57 101.06 478.9 130.76 485.03 113.73 459.93 138.83 476.97 132.69 447.26 149.36 472.6 155.06 442.81 160.77 472.6 177.44 447.26 171.3 476.97 196.4 459.93 179.37 485.03 209.07 478.9 183.73 495.57 213.52 501.27 96.61 501.27"/></g></g></svg>